<svg width="17" height="16" viewBox="0 0 17 16" fill="none" xmlns="http://www.w3.org/2000/svg">
<path d="M5.25605 1.29297L5.01142 3.68329H6.03937L6.55335 7.34501L5.3969 6.42958H4.24046L1.59033 4.72479" stroke="#554104"/>
<path d="M8.5 4.36328V9.35029L10.6818 10.1815" stroke="#554104"/>
<mask id="path-3-inside-1_2031_7900" fill="white">
<path d="M4.47644 1.08547C6.14852 0.112487 8.11654 -0.221633 10.0161 0.144985C11.9156 0.511603 13.6179 1.55412 14.8078 3.07949C15.9977 4.60485 16.5945 6.50972 16.4878 8.44135C16.3811 10.373 15.578 12.2005 14.2273 13.5855C12.8766 14.9705 11.0698 15.8191 9.14146 15.9742C7.21312 16.1294 5.29388 15.5805 3.73917 14.4292C2.18445 13.2779 1.09959 11.6023 0.68546 9.71252C0.271335 7.8228 0.55601 5.84702 1.48677 4.15106L2.17839 4.53063C1.33942 6.05934 1.08282 7.84027 1.45611 9.54364C1.82939 11.247 2.80727 12.7574 4.20867 13.7952C5.61006 14.8329 7.34002 15.3277 9.0782 15.1878C10.8164 15.048 12.445 14.2831 13.6625 13.0347C14.88 11.7863 15.6039 10.139 15.7001 8.39782C15.7963 6.65669 15.2583 4.93967 14.1857 3.56473C13.1132 2.1898 11.5787 1.25009 9.86655 0.919624C8.15436 0.58916 6.38042 0.89033 4.87323 1.76736L4.47644 1.08547Z"/>
</mask>
<path d="M4.47644 1.08547L3.72202 -0.211004L2.42554 0.543415L3.17996 1.83989L4.47644 1.08547ZM16.4878 8.44135L17.9855 8.5241L16.4878 8.44135ZM1.48677 4.15106L2.20845 2.83608L0.893463 2.1144L0.171785 3.42938L1.48677 4.15106ZM2.17839 4.53063L3.49338 5.25231L4.21505 3.93733L2.90007 3.21565L2.17839 4.53063ZM4.87323 1.76736L3.57675 2.52178L4.33117 3.81826L5.62765 3.06384L4.87323 1.76736ZM4.47644 1.08547L5.23086 2.38195C6.58942 1.5914 8.18844 1.31993 9.73179 1.6178L10.0161 0.144985L10.3003 -1.32783C8.04464 -1.76319 5.70762 -1.36643 3.72202 -0.211004L4.47644 1.08547ZM10.0161 0.144985L9.73179 1.6178C11.2751 1.91568 12.6583 2.76273 13.6251 4.00208L14.8078 3.07949L15.9905 2.15689C14.5775 0.345517 12.556 -0.892474 10.3003 -1.32783L10.0161 0.144985ZM14.8078 3.07949L13.6251 4.00208C14.5919 5.24144 15.0768 6.78915 14.9901 8.35859L16.4878 8.44135L17.9855 8.5241C18.1122 6.23029 17.4035 3.96826 15.9905 2.15689L14.8078 3.07949ZM16.4878 8.44135L14.9901 8.35859C14.9034 9.92804 14.2509 11.4129 13.1534 12.5382L14.2273 13.5855L15.3012 14.6328C16.9051 12.9881 17.8588 10.8179 17.9855 8.5241L16.4878 8.44135ZM14.2273 13.5855L13.1534 12.5382C12.056 13.6635 10.588 14.353 9.02118 14.4791L9.14146 15.9742L9.26173 17.4694C11.5516 17.2852 13.6972 16.2774 15.3012 14.6328L14.2273 13.5855ZM9.14146 15.9742L9.02118 14.4791C7.45441 14.6051 5.89503 14.1591 4.63183 13.2237L3.73917 14.4292L2.84651 15.6346C4.69274 17.0018 6.97183 17.6536 9.26173 17.4694L9.14146 15.9742ZM3.73917 14.4292L4.63183 13.2237C3.36862 12.2883 2.48717 10.9268 2.15069 9.39143L0.68546 9.71252L-0.779769 10.0336C-0.287995 12.2777 1.00029 14.2675 2.84651 15.6346L3.73917 14.4292ZM0.68546 9.71252L2.15069 9.39143C1.81421 7.85602 2.04551 6.2507 2.80175 4.87274L1.48677 4.15106L0.171785 3.42938C-0.933491 5.44333 -1.27154 7.78957 -0.779769 10.0336L0.68546 9.71252ZM1.48677 4.15106L0.76509 5.46604L1.45671 5.84562L2.17839 4.53063L2.90007 3.21565L2.20845 2.83608L1.48677 4.15106ZM2.17839 4.53063L0.863408 3.80896C-0.150079 5.65565 -0.460057 7.80704 -0.00912273 9.86474L1.45611 9.54364L2.92134 9.22254C2.6257 7.8735 2.82892 6.46302 3.49338 5.25231L2.17839 4.53063ZM1.45611 9.54364L-0.00912273 9.86474C0.441811 11.9224 1.62311 13.747 3.31601 15.0006L4.20867 13.7952L5.10133 12.5897C3.99144 11.7678 3.21697 10.5716 2.92134 9.22254L1.45611 9.54364ZM4.20867 13.7952L3.31601 15.0006C5.00891 16.2542 7.09873 16.8519 9.19847 16.683L9.0782 15.1878L8.95792 13.6927C7.58131 13.8034 6.21121 13.4116 5.10133 12.5897L4.20867 13.7952ZM9.0782 15.1878L9.19847 16.683C11.2982 16.5141 13.2656 15.59 14.7364 14.0819L13.6625 13.0347L12.5886 11.9874C11.6244 12.9761 10.3345 13.5819 8.95792 13.6927L9.0782 15.1878ZM13.6625 13.0347L14.7364 14.0819C16.2071 12.5738 17.0816 10.5839 17.1978 8.48057L15.7001 8.39782L14.2023 8.31507C14.1261 9.69403 13.5529 10.9987 12.5886 11.9874L13.6625 13.0347ZM15.7001 8.39782L17.1978 8.48057C17.314 6.37726 16.6641 4.30308 15.3684 2.64214L14.1857 3.56473L13.003 4.48733C13.8525 5.57626 14.2785 6.93611 14.2023 8.31507L15.7001 8.39782ZM14.1857 3.56473L15.3684 2.64214C14.0728 0.981191 12.2192 -0.15399 10.1508 -0.553195L9.86655 0.919624L9.58228 2.39244C10.9383 2.65416 12.1536 3.3984 13.003 4.48733L14.1857 3.56473ZM9.86655 0.919624L10.1508 -0.553195C8.08246 -0.952399 5.93952 -0.588582 4.11881 0.470887L4.87323 1.76736L5.62765 3.06384C6.82132 2.36924 8.22625 2.13072 9.58228 2.39244L9.86655 0.919624ZM4.87323 1.76736L6.16971 1.01294L5.77291 0.331054L4.47644 1.08547L3.17996 1.83989L3.57675 2.52178L4.87323 1.76736Z" fill="#554104" mask="url(#path-3-inside-1_2031_7900)"/>
<line x1="3.78268" y1="12.7363" x2="4.50995" y2="12.009" stroke="#554104"/>
<line x1="12.5102" y1="4.00973" x2="13.2375" y2="3.28246" stroke="#554104"/>
<line x1="2.83252" y1="8.5" x2="1.804" y2="8.5" stroke="#554104"/>
<line x1="12.4898" y1="12.0097" x2="13.2171" y2="12.737" stroke="#554104"/>
<line x1="15.3472" y1="8.5" x2="14.3186" y2="8.5" stroke="#554104"/>
<line x1="8.72778" y1="14.6953" x2="8.72778" y2="13.6668" stroke="#554104"/>
<line x1="8.72778" y1="2.54297" x2="8.72778" y2="1.45206" stroke="#554104"/>
</svg>
