<svg width="40" height="40" viewBox="0 0 40 40" fill="none" xmlns="http://www.w3.org/2000/svg">
<circle cx="20" cy="20" r="20" fill="#0044A4" fill-opacity="0.15"/>
<path fill-rule="evenodd" clip-rule="evenodd" d="M15.7249 14.5388C14.8955 15.356 14.2614 16.3502 13.8701 17.4469C13.4788 18.5437 13.3405 19.7146 13.4653 20.8724C13.477 21.0279 13.4276 21.1818 13.3277 21.3016C13.2277 21.4213 13.0851 21.4974 12.93 21.5138C12.7749 21.5302 12.6196 21.4855 12.4968 21.3893C12.3741 21.2931 12.2937 21.1529 12.2725 20.9984C12.1285 19.6612 12.2884 18.3088 12.7404 17.0421C13.1923 15.7754 13.9246 14.6272 14.8825 13.6832C18.4069 10.2068 24.0925 10.2632 27.5809 13.8008C31.0693 17.3372 31.0465 23.0228 27.5209 26.4992C25.889 28.1114 23.6982 29.0321 21.4045 29.0696C20.5374 29.085 19.6725 28.9755 18.8365 28.7444C18.6831 28.7021 18.5528 28.6005 18.4743 28.4621C18.3957 28.3237 18.3754 28.1598 18.4177 28.0064C18.4601 27.853 18.5616 27.7227 18.7 27.6441C18.8384 27.5656 19.0023 27.5453 19.1557 27.5876C19.8807 27.7881 20.6308 27.8831 21.3829 27.8696C23.3688 27.8379 25.2659 27.0409 26.6785 25.6448C29.7277 22.6376 29.7529 17.7128 26.7265 14.6432C23.7001 11.5736 18.7741 11.5316 15.7249 14.5388Z" fill="#0044A4"/>
<path fill-rule="evenodd" clip-rule="evenodd" d="M13.3128 21.6352C13.2604 21.694 13.1968 21.7418 13.1259 21.7761C13.0549 21.8103 12.9779 21.8302 12.8992 21.8347C12.8205 21.8391 12.7417 21.828 12.6674 21.802C12.593 21.7761 12.5244 21.7357 12.4656 21.6832L10.4016 19.8472C10.3382 19.7963 10.2858 19.733 10.2476 19.6611C10.2093 19.5893 10.1861 19.5104 10.1793 19.4294C10.1725 19.3483 10.1823 19.2667 10.2081 19.1895C10.2338 19.1123 10.275 19.0412 10.3291 18.9804C10.3832 18.9196 10.4491 18.8705 10.5227 18.836C10.5964 18.8014 10.6763 18.7823 10.7577 18.7796C10.839 18.777 10.92 18.7909 10.9958 18.8205C11.0715 18.8501 11.1405 18.8949 11.1984 18.952L13.2624 20.788C13.3214 20.8403 13.3695 20.9037 13.4039 20.9746C13.4383 21.0455 13.4585 21.1225 13.4632 21.2011C13.4678 21.2798 13.457 21.3586 13.4312 21.4331C13.4054 21.5076 13.3652 21.5763 13.3128 21.6352Z" fill="#0044A4"/>
<path fill-rule="evenodd" clip-rule="evenodd" d="M12.3842 21.5588C12.4314 21.6219 12.4907 21.675 12.5585 21.7151C12.6263 21.7553 12.7013 21.7817 12.7793 21.7928C12.8573 21.8039 12.9367 21.7996 13.0131 21.7801C13.0894 21.7605 13.1611 21.7261 13.2242 21.6788L15.6242 19.8788C15.7515 19.7833 15.8356 19.6412 15.8581 19.4837C15.8806 19.3262 15.8396 19.1661 15.7442 19.0388C15.6487 18.9115 15.5065 18.8274 15.349 18.8049C15.1915 18.7824 15.0315 18.8234 14.9042 18.9188L12.5042 20.7188C12.3769 20.8143 12.2927 20.9564 12.2702 21.114C12.2477 21.2715 12.2887 21.4315 12.3842 21.5588ZM21.0002 15.7988C21.1593 15.7988 21.3119 15.862 21.4244 15.9746C21.5369 16.0871 21.6002 16.2397 21.6002 16.3988V20.5988C21.6002 20.758 21.5369 20.9106 21.4244 21.0231C21.3119 21.1356 21.1593 21.1988 21.0002 21.1988C20.841 21.1988 20.6884 21.1356 20.5759 21.0231C20.4634 20.9106 20.4002 20.758 20.4002 20.5988V16.3988C20.4002 16.2397 20.4634 16.0871 20.5759 15.9746C20.6884 15.862 20.841 15.7988 21.0002 15.7988Z" fill="#0044A4"/>
<path fill-rule="evenodd" clip-rule="evenodd" d="M25.1999 20.598C25.1999 20.7572 25.1367 20.9098 25.0242 21.0223C24.9116 21.1348 24.759 21.198 24.5999 21.198H20.9999C20.8408 21.198 20.6882 21.1348 20.5756 21.0223C20.4631 20.9098 20.3999 20.7572 20.3999 20.598C20.3999 20.4389 20.4631 20.2863 20.5756 20.1738C20.6882 20.0613 20.8408 19.998 20.9999 19.998H24.5999C24.759 19.998 24.9116 20.0613 25.0242 20.1738C25.1367 20.2863 25.1999 20.4389 25.1999 20.598Z" fill="#0044A4"/>
<path d="M10.3802 10.2527C10.2645 10.1369 10.1996 9.97982 10.1997 9.8161C10.1998 9.65238 10.265 9.49541 10.3808 9.37972C10.4967 9.26404 10.6537 9.19911 10.8174 9.19922C10.9812 9.19933 11.1381 9.26448 11.2538 9.38032L31.619 29.7455C31.7347 29.8612 31.7997 30.0181 31.7997 30.1817C31.7997 30.3453 31.7347 30.5022 31.619 30.6179C31.5033 30.7336 31.3464 30.7986 31.1828 30.7986C31.0192 30.7986 30.8623 30.7336 30.7466 30.6179L10.3802 10.2527Z" fill="#0044A4"/>
</svg>
