<svg width="142" height="129" viewBox="0 0 142 129" fill="none" xmlns="http://www.w3.org/2000/svg">
<path d="M81.5421 60.6036C79.8807 61.2151 75.9268 60.8976 75.9238 60.8976C75.9209 60.8976 76.9307 58.3515 77.0158 58.1986C77.9933 56.4346 80.9227 53.5916 83.1389 54.0296C84.7387 54.3442 85.5371 56.0142 85.0821 57.5107C84.6271 59.0071 82.9569 60.0832 81.5421 60.6036Z" fill="#7B55D3"/>
<path d="M30.485 43.9702C32.7422 43.8643 35.2226 47.1043 35.933 48.9947C35.9917 49.1594 36.658 51.8289 36.6169 51.826H36.567C36.9633 52.3346 37.383 52.8844 37.8263 53.4959C38.6393 54.6279 39.5464 55.9156 40.4387 57.3827C41.4202 58.9527 42.3082 60.5794 43.0981 62.2544C43.9936 64.1242 44.7205 66.0704 45.2703 68.0698L45.2879 68.1433C45.3143 67.4818 45.4552 65.6325 45.4816 65.4972C45.8632 63.5127 47.7595 59.9111 50.0021 59.6171C51.6195 59.4172 52.8963 60.752 52.9374 62.3161C52.9785 63.8802 51.7251 65.4355 50.5422 66.3734C49.2095 67.4288 45.6284 68.3109 45.3437 68.3814C45.8536 70.4299 46.2263 72.5102 46.4591 74.6085C46.6029 75.8315 46.7086 77.0663 46.7967 78.307C46.8407 77.719 46.8818 77.2222 46.8965 77.1516C47.2751 75.1671 49.1743 71.5655 51.4169 71.2715C53.0343 71.0716 54.3112 72.4093 54.3523 73.9734C54.3934 75.5375 53.14 77.0898 51.9599 78.0277C50.7799 78.9656 47.7242 79.7918 46.917 79.9976C46.9464 80.4739 46.9816 80.9472 47.008 81.4235C47.143 83.7079 47.2663 85.9894 47.4571 88.2209C47.5246 89.0059 47.6186 89.7791 47.7096 90.5523C47.7477 90.0437 47.7859 89.6174 47.7976 89.5527C48.1763 87.5682 50.0755 83.9666 52.3181 83.6726C53.9325 83.4727 55.2123 84.8075 55.2534 86.3716C55.2945 87.9357 54.0411 89.491 52.8582 90.4289C51.6752 91.3667 48.9189 92.1135 47.962 92.3605C48.0794 93.1484 48.1968 93.9393 48.3465 94.6978C48.4581 95.2153 48.5344 95.718 48.6753 96.2325C48.8162 96.747 48.9365 97.2468 49.0657 97.7466C49.3592 98.6992 49.6352 99.6841 49.9316 100.607C50.1371 101.251 50.3426 101.86 50.548 102.474C50.4717 101.692 50.3573 100.157 50.3602 100.028C50.4929 98.2553 51.076 96.546 52.0539 95.0624C52.0608 94.8646 52.0853 94.6678 52.1273 94.4744C52.4678 92.9455 53.9824 91.8871 55.5293 92.4016C57.6751 93.1161 58.8257 97.0322 58.8081 99.052C58.8081 99.1726 58.6496 100.463 58.5381 101.278C58.679 100.81 58.8052 100.354 58.9549 99.8723C59.2484 98.9197 59.5419 97.9789 59.8883 96.9646L60.4314 95.4946C60.6016 95.0006 60.8423 94.5038 61.0507 94.001C61.5527 92.8456 62.1162 91.699 62.7121 90.5582C61.8785 90.3054 58.9402 89.3616 57.7954 88.3679C56.6506 87.3741 55.4824 85.8012 55.588 84.2077C55.6937 82.6142 57.0322 81.3706 58.6379 81.644C60.8658 82.0233 62.5976 85.7189 62.8853 87.7181C62.9029 87.8446 62.9469 89.3028 62.9587 90.1055C63.3197 89.4204 63.6778 88.7383 64.0682 88.0474C65.1925 86.0835 66.3901 84.1342 67.5907 82.182C67.9546 81.594 68.3098 80.9854 68.6679 80.3886C68.3744 80.3004 64.852 79.2567 63.5722 78.1424C62.4333 77.1516 61.2562 75.5757 61.3648 73.9822C61.4734 72.3887 62.8061 71.1451 64.4117 71.4185C66.6396 71.7978 68.3715 75.4934 68.6591 77.4926C68.6826 77.6455 68.7443 79.7447 68.7325 80.2769C69.5221 78.9597 70.2941 77.6308 71.0045 76.3019C71.9728 74.5052 72.8229 72.6471 73.5494 70.7393C73.4115 70.6982 69.7335 69.6251 68.4214 68.4843C67.2825 67.4965 66.1083 65.9177 66.214 64.3242C66.3197 62.7306 67.6582 61.487 69.2638 61.7604C71.4917 62.1397 73.2207 65.8353 73.5113 67.8375C73.5318 67.9933 73.5993 70.2513 73.5817 70.6629C73.6228 70.5512 73.6786 70.4424 73.7197 70.3307C74.3951 68.3975 74.898 66.4081 75.2226 64.3859C75.4163 63.2716 75.5366 62.1956 75.6335 61.1518C74.929 61.0225 71.7119 60.3933 70.4174 59.4966C69.1757 58.6381 67.8343 57.2004 67.7756 55.604C67.7169 54.0075 68.8998 52.6257 70.5231 52.7198C72.7804 52.8521 74.9055 56.336 75.4104 58.3059C75.4398 58.4117 75.5983 59.523 75.704 60.3374C75.7392 59.8612 75.7861 59.3731 75.8126 58.9174C75.9124 57.2092 75.8977 55.6392 75.8742 54.2457C75.8537 53.4548 75.8214 52.7404 75.7832 52.073C75.158 51.582 72.66 49.5798 71.935 48.2156C71.2099 46.8514 70.7021 44.9816 71.3743 43.535C72.0465 42.0885 73.7431 41.4123 75.1404 42.2444C77.0836 43.4204 77.3683 47.4777 76.9163 49.4475C76.8752 49.618 75.9623 52.2082 75.927 52.1847L75.8889 52.1553C75.9388 52.7962 75.9857 53.4871 76.021 54.2427C76.0738 55.6363 76.1237 57.2092 76.0591 58.9262C76.0116 60.778 75.8567 62.6255 75.5954 64.4594C75.3108 66.5147 74.8442 68.5405 74.2011 70.513C74.194 70.5362 74.1852 70.5588 74.1746 70.5806C74.5621 70.0455 75.701 68.5784 75.8008 68.4755C77.2098 67.0319 80.7909 65.065 82.8046 66.0735C84.2722 66.8026 84.5951 68.6225 83.7585 69.9455C82.922 71.2685 81.0316 71.8771 79.5287 72.0036C77.835 72.1476 74.3625 70.9069 74.0866 70.807C73.3707 72.8 72.5225 74.7428 71.5475 76.6224C70.9957 77.719 70.4027 78.8068 69.7863 79.8917C70.1356 79.439 70.4556 79.0362 70.5055 78.9832C71.9144 77.5367 75.4955 75.5728 77.5092 76.5812C78.9769 77.3074 79.2968 79.1273 78.4661 80.4533C77.6354 81.7792 75.7362 82.3849 74.2333 82.5113C72.7305 82.6377 69.7276 81.644 68.9497 81.3676C68.712 81.7822 68.4801 82.1967 68.2394 82.6113C67.0946 84.5899 65.941 86.5598 64.8696 88.5267C64.4939 89.2176 64.1475 89.9144 63.7953 90.6111C64.1093 90.2084 64.3823 89.8732 64.4205 89.8232C65.8295 88.3797 69.4106 86.4128 71.4272 87.4212C72.8948 88.1503 73.2148 89.9702 72.3811 91.2932C71.5475 92.6163 69.6513 93.2249 68.1513 93.3513C66.6836 93.4748 63.9362 92.578 62.9998 92.2576C62.6652 92.9808 62.3276 93.7041 62.0341 94.4185C61.8433 94.9124 61.626 95.374 61.4646 95.8885C61.3032 96.403 61.1241 96.8793 60.9568 97.3586C60.6632 98.3111 60.3697 99.2902 60.1026 100.225C59.9177 100.875 59.7533 101.498 59.586 102.124C59.9529 101.428 60.7043 100.084 60.7777 99.9811C61.9519 98.3376 65.1807 95.865 67.3412 96.5412C68.891 97.041 69.4928 98.7874 68.8675 100.222C68.2423 101.657 66.4635 102.548 64.9988 102.901C63.3843 103.289 59.903 102.636 59.4686 102.551C59.1956 103.589 58.9402 104.609 58.7142 105.555C58.6643 105.761 58.6232 105.946 58.5762 106.143H57.1643C57.2406 105.849 57.317 105.538 57.3991 105.226C57.6721 104.171 57.9862 103.051 58.3179 101.904C57.2886 101.415 56.288 100.867 55.3209 100.263C54.091 101.439 51.0441 102.733 50.6508 102.909C50.9942 103.924 51.3377 104.909 51.6752 105.832L51.7956 106.155H50.3837C50.0432 105.159 49.7027 104.097 49.3622 103.001C48.9307 103.062 45.4171 103.559 43.8202 103.098C42.3731 102.677 40.6442 101.736 40.0747 100.243C39.5053 98.7492 40.201 97.0616 41.7714 96.6383C43.9523 96.0502 47.0697 98.6757 48.1704 100.372C48.235 100.472 48.8162 101.636 49.1714 102.377C49.0275 101.91 48.8778 101.457 48.7428 100.975C48.4493 100.022 48.2027 99.0638 47.9239 98.0348C47.8035 97.532 47.6861 97.0234 47.5657 96.5118C47.4454 96.0003 47.3632 95.4564 47.2575 94.9213C47.0403 93.6806 46.8818 92.4134 46.7468 91.1345C45.9161 91.3814 42.9308 92.2194 41.4426 92.0165C39.9544 91.8136 38.0992 91.1551 37.3096 89.7644C36.52 88.3738 36.9515 86.6009 38.4397 85.9423C40.4945 85.028 43.9875 87.1536 45.329 88.6648C45.4141 88.7589 46.2536 89.9496 46.7027 90.6141C46.6294 89.8438 46.553 89.0735 46.5031 88.2914C46.3593 86.0364 46.2859 83.7461 46.2096 81.4617C46.1861 80.762 46.1509 80.0652 46.1215 79.3684C45.828 79.4595 42.3056 80.5444 40.6324 80.3121C39.1384 80.1181 37.2891 79.4507 36.4995 78.0601C35.7099 76.6694 36.1414 74.8966 37.6296 74.238C39.699 73.3236 43.1774 75.4493 44.5188 76.9605C44.6216 77.0752 45.828 78.7892 46.1157 79.242C46.0452 77.7043 45.963 76.1755 45.8221 74.6702C45.6405 72.6368 45.3257 70.6175 44.8799 68.6254C44.7449 68.6695 41.0845 69.8015 39.3614 69.578C37.8674 69.381 36.0181 68.7166 35.2314 67.3259C34.4447 65.9353 34.8704 64.1624 36.3615 63.5039C38.4163 62.5895 41.9064 64.7152 43.2508 66.2264C43.3535 66.344 44.6539 68.1903 44.8652 68.5431C44.8388 68.4285 44.8241 68.305 44.7948 68.1903C44.2955 66.2041 43.6197 64.2667 42.7753 62.4014C42.3232 61.3665 41.833 60.3992 41.334 59.4613C40.6735 59.7553 37.6443 60.999 36.0739 60.9666C34.5651 60.9343 32.6542 60.4756 31.7178 59.182C30.7814 57.8884 31.0163 56.0773 32.4223 55.26C34.3772 54.1222 38.0699 55.848 39.5699 57.2063C39.6491 57.2798 40.3976 58.1206 40.9319 58.7381C40.7 58.3235 40.4681 57.8913 40.2391 57.4974C39.382 56.0273 38.5043 54.7131 37.7206 53.5665C37.2685 52.9168 36.84 52.3405 36.4437 51.8025C35.6541 51.7407 32.4693 51.4497 31.1102 50.7117C29.7511 49.9738 28.304 48.6978 28.0662 47.119C27.8285 45.5402 28.8588 44.0378 30.485 43.9702Z" fill="#7B55D3"/>
<path d="M41.4401 59.0549C41.4049 59.0755 40.8794 56.3766 40.853 56.2031C40.6945 54.1862 41.5751 50.1995 43.6651 49.341C45.1709 48.7207 46.756 49.6703 47.1875 51.1697C47.619 52.6692 46.8411 54.5008 45.9488 55.715C44.9214 57.1439 41.443 59.052 41.4401 59.0549Z" fill="#7B55D3"/>
<path d="M40.19 101.235C40.19 101.235 31.29 101.123 29.2089 97.7891H5.96094C5.96094 97.7891 7.8513 101.205 10.7866 101.235H40.19Z" fill="white" stroke="#263238" stroke-miterlimit="10"/>
<path d="M28.5338 98.8906H9.59493C9.59493 98.8906 9.94717 99.6609 8.98145 100.084C9.59023 100.648 10.3543 101.014 11.1741 101.137H35.2851C35.2851 101.137 32.2147 100.843 30.5504 99.8726C30.5504 99.8726 28.6218 100.155 28.5338 98.8906Z" fill="white" stroke="#263238" stroke-miterlimit="10"/>
<path d="M36.6792 127.883H90.1084V121.262H36.6792V127.883Z" fill="#263238" stroke="#263238" stroke-miterlimit="10"/>
<path d="M7.27592 127.883H60.7051V121.262H7.27592V127.883Z" fill="white" stroke="#263238" stroke-miterlimit="10"/>
<path d="M60.3357 123.031H47.2881" stroke="#263238" stroke-miterlimit="10"/>
<path d="M57.7611 124.508H38.834" stroke="#263238" stroke-miterlimit="10"/>
<path d="M50.2256 125.828H53.5337" stroke="#263238" stroke-miterlimit="10"/>
<path d="M54.8223 125.828H60.1499" stroke="#263238" stroke-miterlimit="10"/>
<path d="M7.58984 125.531H24.3125" stroke="#263238" stroke-miterlimit="10"/>
<path d="M9.06055 124.648H11.265" stroke="#263238" stroke-miterlimit="10"/>
<path d="M21.5562 124.508H14.2061" stroke="#263238" stroke-miterlimit="10"/>
<path d="M7.58984 122.742H14.0212" stroke="#263238" stroke-miterlimit="10"/>
<path d="M89.3716 124.062H86.0635" stroke="#8A8A8A" stroke-miterlimit="10"/>
<path d="M90.1087 125.531H79.8174" stroke="#8A8A8A" stroke-miterlimit="10"/>
<path d="M61.2539 126.414H66.2176" stroke="#8A8A8A" stroke-miterlimit="10"/>
<path d="M60.7021 124.062H74.1196" stroke="#8A8A8A" stroke-miterlimit="10"/>
<path d="M85.6965 122.148H77.9795" stroke="#8A8A8A" stroke-miterlimit="10"/>
<path d="M31.6628 127.742H37.9121V121.268H31.6628V127.742Z" fill="white" stroke="#263238" stroke-miterlimit="10"/>
<path d="M35.9927 121.211H89.4219V114.59H35.9927V121.211Z" fill="#263238" stroke="#263238" stroke-miterlimit="10"/>
<path d="M6.58939 121.211H60.0186V114.59H6.58939V121.211Z" fill="white" stroke="#263238" stroke-miterlimit="10"/>
<path d="M59.6482 116.359H46.6006" stroke="#263238" stroke-miterlimit="10"/>
<path d="M57.0775 117.828H38.1475" stroke="#263238" stroke-miterlimit="10"/>
<path d="M49.542 119.148H52.8501" stroke="#263238" stroke-miterlimit="10"/>
<path d="M54.1357 119.148H59.4663" stroke="#263238" stroke-miterlimit="10"/>
<path d="M6.90332 118.859H23.6289" stroke="#263238" stroke-miterlimit="10"/>
<path d="M8.37402 117.977H10.5785" stroke="#263238" stroke-miterlimit="10"/>
<path d="M20.8726 117.828H13.5195" stroke="#263238" stroke-miterlimit="10"/>
<path d="M6.90332 116.062H13.3376" stroke="#263238" stroke-miterlimit="10"/>
<path d="M88.688 117.383H85.3799" stroke="#8A8A8A" stroke-miterlimit="10"/>
<path d="M89.4212 118.859H79.1299" stroke="#8A8A8A" stroke-miterlimit="10"/>
<path d="M60.5703 119.742H65.531" stroke="#8A8A8A" stroke-miterlimit="10"/>
<path d="M60.0186 117.383H73.4331" stroke="#8A8A8A" stroke-miterlimit="10"/>
<path d="M85.0129 115.477H77.293" stroke="#8A8A8A" stroke-miterlimit="10"/>
<path d="M30.9792 121.062H37.2285V114.589H30.9792V121.062Z" fill="white" stroke="#263238" stroke-miterlimit="10"/>
<path d="M38.1646 114.531H91.5938V107.91H38.1646V114.531Z" fill="#263238" stroke="#263238" stroke-miterlimit="10"/>
<path d="M8.76127 114.531H62.1904V107.91H8.76127V114.531Z" fill="white" stroke="#263238" stroke-miterlimit="10"/>
<path d="M61.8201 109.68H48.7725" stroke="#263238" stroke-miterlimit="10"/>
<path d="M59.2464 111.148H40.3193" stroke="#263238" stroke-miterlimit="10"/>
<path d="M51.7109 112.477H55.0191" stroke="#263238" stroke-miterlimit="10"/>
<path d="M56.3076 112.477H61.6353" stroke="#263238" stroke-miterlimit="10"/>
<path d="M9.0752 112.18H25.7979" stroke="#263238" stroke-miterlimit="10"/>
<path d="M10.5459 111.297H12.7503" stroke="#263238" stroke-miterlimit="10"/>
<path d="M23.0415 111.148H15.6914" stroke="#263238" stroke-miterlimit="10"/>
<path d="M9.0752 109.383H15.5065" stroke="#263238" stroke-miterlimit="10"/>
<path d="M90.857 110.711H87.5488" stroke="#8A8A8A" stroke-miterlimit="10"/>
<path d="M91.5941 112.18H81.3027" stroke="#8A8A8A" stroke-miterlimit="10"/>
<path d="M62.7393 113.062H67.7029" stroke="#8A8A8A" stroke-miterlimit="10"/>
<path d="M62.1875 110.711H75.605" stroke="#8A8A8A" stroke-miterlimit="10"/>
<path d="M87.1819 108.797H79.4648" stroke="#8A8A8A" stroke-miterlimit="10"/>
<path d="M33.1481 114.391H39.3975V107.917H33.1481V114.391Z" fill="white" stroke="#263238" stroke-miterlimit="10"/>
<path d="M36.5064 107.859H89.9355V101.238H36.5064V107.859Z" fill="#263238" stroke="#263238" stroke-miterlimit="10"/>
<path d="M7.10307 107.859H60.5322V101.238H7.10307V107.859Z" fill="white" stroke="#263238" stroke-miterlimit="10"/>
<path d="M60.1648 103H47.1143" stroke="#263238" stroke-miterlimit="10"/>
<path d="M57.5912 104.469H38.6611" stroke="#263238" stroke-miterlimit="10"/>
<path d="M50.0557 105.797H53.3638" stroke="#263238" stroke-miterlimit="10"/>
<path d="M54.6494 105.797H59.98" stroke="#263238" stroke-miterlimit="10"/>
<path d="M7.41699 105.5H24.1426" stroke="#263238" stroke-miterlimit="10"/>
<path d="M8.8877 104.617H11.0951" stroke="#263238" stroke-miterlimit="10"/>
<path d="M21.3862 104.469H14.0332" stroke="#263238" stroke-miterlimit="10"/>
<path d="M7.41699 102.711H13.8513" stroke="#263238" stroke-miterlimit="10"/>
<path d="M89.2017 104.031H85.8936" stroke="#8A8A8A" stroke-miterlimit="10"/>
<path d="M89.9349 105.5H79.6436" stroke="#8A8A8A" stroke-miterlimit="10"/>
<path d="M61.084 106.383H66.0447" stroke="#8A8A8A" stroke-miterlimit="10"/>
<path d="M60.5322 104.031H73.9468" stroke="#8A8A8A" stroke-miterlimit="10"/>
<path d="M85.5266 102.117H77.8066" stroke="#8A8A8A" stroke-miterlimit="10"/>
<path d="M31.4928 107.711H37.7422V101.237H31.4928V107.711Z" fill="white" stroke="#263238" stroke-miterlimit="10"/>
<path d="M132.463 26.5859H81.3174V127.888H132.463V26.5859Z" fill="#263238" stroke="#263238" stroke-miterlimit="10"/>
<path d="M126.933 27.0469V44.5843" stroke="#8A8A8A" stroke-miterlimit="10"/>
<path d="M130.159 31.4297V38.8151" stroke="#8A8A8A" stroke-miterlimit="10"/>
<path d="M128.547 29.8203V56.1249" stroke="#8A8A8A" stroke-miterlimit="10"/>
<path d="M131.312 26.5859V60.9698" stroke="#8A8A8A" stroke-miterlimit="10"/>
<path d="M127.394 127.655V109.656" stroke="#8A8A8A" stroke-miterlimit="10"/>
<path d="M129.237 127.886V123.961" stroke="#8A8A8A" stroke-miterlimit="10"/>
<path d="M129.698 122.577V106.656" stroke="#8A8A8A" stroke-miterlimit="10"/>
<path d="M127.626 107.349V81.2734" stroke="#8A8A8A" stroke-miterlimit="10"/>
<path d="M125.321 26.5859H74.1758V127.888H125.321V26.5859Z" fill="#29CC99" stroke="#263238" stroke-miterlimit="10"/>
<path d="M120.944 33.7543C119.945 33.752 118.984 33.3666 118.259 32.6772C117.534 31.9878 117.1 31.0466 117.046 30.0469H82.4561C82.4035 31.0481 81.9691 31.991 81.2427 32.6808C80.5162 33.3707 79.5531 33.7549 78.5521 33.7543C78.3207 33.7537 78.0898 33.7321 77.8623 33.6896V118.722C78.09 118.681 78.3208 118.659 78.5521 118.657C79.2284 118.657 79.8931 118.832 80.4816 119.166C81.0701 119.5 81.5623 119.981 81.9102 120.561C82.2581 121.142 82.4499 121.804 82.4668 122.481C82.4838 123.158 82.3254 123.828 82.007 124.425H117.489C117.17 123.828 117.011 123.158 117.028 122.48C117.044 121.803 117.236 121.141 117.584 120.56C117.932 119.979 118.425 119.498 119.014 119.165C119.603 118.831 120.268 118.656 120.944 118.657C121.176 118.659 121.406 118.681 121.634 118.722V33.6749C121.407 33.7223 121.176 33.7489 120.944 33.7543ZM98.7121 92.5818C90.6311 92.5818 84.0823 85.4551 84.0823 76.6614C84.0823 67.8677 90.6311 60.7381 98.7121 60.7381C106.793 60.7381 113.342 67.8677 113.342 76.6614C113.342 85.4551 106.79 92.5818 98.7121 92.5818Z" fill="white" stroke="#263238" stroke-miterlimit="10"/>
<path d="M132.369 71.125H74.4043V81.5093H132.369V71.125Z" fill="white" stroke="#263238" stroke-miterlimit="10"/>
<path d="M132.369 71.125H125.433V81.5093H132.369V71.125Z" fill="#3D3D3D" stroke="#8A8A8A" stroke-miterlimit="10"/>
<path d="M18.3242 121.586L16.6158 124.153L13.2783 126.799V127.89H24.6939L24.3035 124.068V122.357C24.3035 122.357 19.6451 120.34 18.3242 121.586Z" fill="#263238" stroke="#263238" stroke-miterlimit="10"/>
<path d="M24.5911 126.875H13.2783V127.886H24.6939L24.5911 126.875Z" fill="white" stroke="#263238" stroke-miterlimit="10"/>
<path d="M37.1752 121.586L38.9951 124.153L42.5557 126.799V127.89H30.3887L30.8026 124.068V122.357C30.8026 122.357 35.7692 120.34 37.1752 121.586Z" fill="#263238" stroke="#263238" stroke-miterlimit="10"/>
<path d="M30.4973 126.875H42.5557V127.886H30.3887L30.4973 126.875Z" fill="white" stroke="#263238" stroke-miterlimit="10"/>
<path d="M13.2314 68.3474C13.2314 68.3474 15.8967 98.4771 16.0875 104.198C16.2783 109.92 18.0865 117.643 18.0865 117.643L17.2441 118.978L18.1012 121.933C18.1012 121.933 20.1002 121.456 21.1481 121.839C22.196 122.221 24.0834 122.697 24.0834 122.697C24.0834 122.697 25.0374 120.122 25.1313 118.978C25.2253 117.834 23.9954 115.068 23.9954 115.068L23.8046 80.6486H25.5188L29.8925 117.07L29.7017 119.263L30.5588 122.697C30.5588 122.697 35.6046 121.648 35.9833 121.551C36.2726 121.507 36.5682 121.54 36.8404 121.648C36.8404 121.648 37.4275 120.407 37.4275 120.025C37.4275 119.642 36.6643 117.452 36.6643 117.452L36.4735 100.385V68.0622L13.2461 67.5859L13.2314 68.3474Z" fill="#7B55D3" stroke="#263238" stroke-miterlimit="10"/>
<path d="M35.6546 81.6562L36.1742 93.0548L33.958 93.2548V94.6689L35.5695 94.7689" stroke="#263238" stroke-linecap="round" stroke-linejoin="round"/>
<path d="M35.2676 73.1797L35.6051 80.5416" stroke="#263238" stroke-linecap="round" stroke-linejoin="round"/>
<path d="M34.2979 101.438C34.3712 103.475 34.5327 105.242 34.8644 105.365C35.6716 105.659 35.8712 105.971 35.8712 105.971" stroke="#263238" stroke-linecap="round" stroke-linejoin="round"/>
<path d="M34.2686 95.0703C34.2686 95.0703 34.2158 97.6458 34.2686 100.221" stroke="#263238" stroke-linecap="round" stroke-linejoin="round"/>
<path d="M21.4678 79.6328L25.4951 79.9356" stroke="#263238" stroke-linecap="round" stroke-linejoin="round"/>
<path d="M22.7773 69.9531L22.8771 75.601L24.6912 76.9152" stroke="#263238" stroke-linecap="round" stroke-linejoin="round"/>
<path d="M24.6914 71.9688L24.9937 78.9308" stroke="#263238" stroke-linecap="round" stroke-linejoin="round"/>
<path d="M23.4463 104.258L23.5813 111.217" stroke="#263238" stroke-linecap="round" stroke-linejoin="round"/>
<path d="M22.9766 80.0391L23.4139 102.539" stroke="#263238" stroke-linecap="round" stroke-linejoin="round"/>
<path d="M31.1367 72.875C31.1367 72.875 32.5486 75.8003 35.1669 74.8919" stroke="#263238" stroke-linecap="round" stroke-linejoin="round"/>
<path d="M17.0353 72.875C17.0353 72.875 16.0256 75.0947 14.4141 75.3976" stroke="#263238" stroke-linecap="round" stroke-linejoin="round"/>
<path d="M23.0176 34.7266L19.9912 35.6439L17.4551 68.2196L30.8314 68.4342L31.5359 34.9382L23.0176 34.7266Z" fill="white" stroke="#263238" stroke-miterlimit="10"/>
<path d="M21.9405 33.4602H21.2302L20.8721 34.3893L21.0159 42.2539L25.4424 39.3962L29.7955 43.5417L30.3679 34.1747C30.3679 34.1747 30.5822 33.7454 29.9394 33.4602C29.2965 33.1751 29.0822 33.1016 29.0822 33.1016L21.9405 33.4602Z" fill="white" stroke="#263238" stroke-miterlimit="10"/>
<path d="M21.5148 31.165L21.7291 34.3991C21.7291 34.3991 23.7838 38.9033 25.1546 39.5471C26.5254 40.191 29.6545 34.1845 29.6545 34.1845L29.4402 30.6094H21.4414L21.5148 31.165Z" fill="white" stroke="#263238" stroke-miterlimit="10"/>
<path d="M21.5146 31.1618C21.5146 31.1618 24.0831 36.7479 25.583 36.9566C27.083 37.1654 29.5105 31.8057 29.5105 31.3059C29.5105 30.8061 21.5146 31.1618 21.5146 31.1618Z" fill="#263238" stroke="#263238" stroke-miterlimit="10"/>
<path d="M20.1586 26.3781C20.1586 26.3781 18.9199 25.3608 18.7496 26.772C18.5794 28.1833 20.3846 29.4828 20.3846 29.4828L20.1586 26.3781Z" fill="white" stroke="#263238" stroke-miterlimit="10"/>
<path d="M30.227 26.3781C30.227 26.3781 31.4686 25.3608 31.6389 26.772C31.8091 28.1833 30.0039 29.4828 30.0039 29.4828L30.227 26.3781Z" fill="white" stroke="#263238" stroke-miterlimit="10"/>
<path d="M19.933 26.5455C19.933 26.5455 20.6111 30.4998 21.1747 31.2319C21.7383 31.964 23.4848 34.5071 25.1198 34.9599C26.7548 35.4127 29.2939 32.2492 29.7987 31.1761C30.3036 30.1029 30.4768 25.3606 30.4768 25.3606L30.421 22.8204C30.421 22.8204 30.2508 20.9564 29.5169 19.9392C28.7831 18.9219 25.6276 18.2457 23.5435 19.0513C21.4594 19.8569 19.71 23.4966 19.71 24.2317C19.71 24.9667 19.933 26.5455 19.933 26.5455Z" fill="white" stroke="#263238" stroke-miterlimit="10"/>
<path d="M23.6548 22.1408C23.6548 22.1408 21.8936 24.1754 21.1187 24.5693C20.7665 24.7319 20.4271 24.9205 20.103 25.1338L20.2146 27.5064L19.3134 24.2724C19.3134 24.2724 18.1863 20.8413 18.4182 19.3184C18.65 17.7955 23.7722 16.3254 25.5775 15.7609C27.3827 15.1964 28.0578 16.3254 29.2408 17.231C30.4237 18.1365 31.6654 18.8127 31.4981 20.3386C31.3523 21.3999 31.0874 22.4414 30.7084 23.4433C30.7084 23.4433 30.4149 27.677 30.4149 27.8534C30.4149 28.0298 29.9071 23.6756 29.9071 23.6756C29.6192 23.5997 29.3595 23.4419 29.1594 23.2211C28.9593 23.0004 28.8275 22.7262 28.7799 22.4319C28.6301 21.687 28.532 20.9325 28.4864 20.174C28.4864 20.174 27.7526 21.6998 27.0187 22.4319C26.2849 23.164 24.4826 23.8431 24.2008 23.7873C23.919 23.7314 24.4943 22.376 24.4943 22.376L23.4787 23.3374L23.6548 22.1408Z" fill="#263238" stroke="#263238" stroke-miterlimit="10"/>
<path d="M24.1064 30.0455C24.3857 30.2943 24.7107 30.4861 25.0634 30.61C25.5154 30.7217 26.305 30.0455 26.531 29.875" stroke="#263238" stroke-miterlimit="10"/>
<path d="M23.9365 31.6315C23.9365 31.6315 25.2339 32.6458 26.9805 31.4609L23.9365 31.6315Z" fill="white"/>
<path d="M23.9365 31.6315C23.9365 31.6315 25.2339 32.6458 26.9805 31.4609" stroke="#263238" stroke-miterlimit="10"/>
<path d="M23.0622 28.0141C23.2649 28.0141 23.4291 27.7364 23.4291 27.3938C23.4291 27.0512 23.2649 26.7734 23.0622 26.7734C22.8596 26.7734 22.6953 27.0512 22.6953 27.3938C22.6953 27.7364 22.8596 28.0141 23.0622 28.0141Z" fill="#263238"/>
<path d="M27.3474 28.0141C27.55 28.0141 27.7143 27.7364 27.7143 27.3938C27.7143 27.0512 27.55 26.7734 27.3474 26.7734C27.1447 26.7734 26.9805 27.0512 26.9805 27.3938C26.9805 27.7364 27.1447 28.0141 27.3474 28.0141Z" fill="#263238"/>
<path d="M26.4727 25.4165C26.8361 25.2259 27.2506 25.1558 27.6564 25.2166C28.0621 25.2774 28.4381 25.4658 28.7299 25.7547" stroke="#263238" stroke-miterlimit="10"/>
<path d="M23.4849 25.3632C23.1977 25.1928 22.8599 25.1289 22.5305 25.1826C22.2011 25.2363 21.901 25.4043 21.6826 25.6572" stroke="#263238" stroke-miterlimit="10"/>
<path d="M27.4883 28.4619L28.7299 28.1797" stroke="#263238" stroke-miterlimit="10"/>
<path d="M21.7939 28.125L22.8096 28.4631" stroke="#263238" stroke-miterlimit="10"/>
<path d="M20.9427 41.6892L20.2999 72.5597L12.9615 72.204L12.5183 71.3543C12.5183 71.3543 11.5202 71.3543 11.3764 70.5663C11.2326 69.7784 12.3744 52.4762 12.3744 52.4762L6.08984 51.9029L10.3021 43.6708C10.3021 43.6708 11.5877 37.9494 11.8725 37.5202C12.1572 37.0909 21.0836 34.0156 21.0836 34.0156L20.9427 41.6892Z" fill="#F46850" stroke="#263238" stroke-miterlimit="10"/>
<path d="M30.0831 33.8359L29.0352 72.6446L38.4576 72.5476L38.8392 71.1187L39.7903 70.4513V67.3996C39.7903 65.8737 37.9821 54.8132 37.9821 54.8132C37.9821 54.8132 42.7432 54.1458 42.8372 53.1932C42.9311 52.2407 40.8382 37.8432 39.6963 36.7936C38.5545 35.744 30.0831 33.8359 30.0831 33.8359Z" fill="#F46850" stroke="#263238" stroke-miterlimit="10"/>
<path d="M32.4463 55.9642L33.6997 59.5805C33.6997 59.5805 34.4247 57.8341 34.3161 56.7345C34.2075 55.6349 34.2046 55.3027 33.8758 55.2468C33.547 55.191 32.5079 54.9734 32.4463 55.9642Z" fill="white" stroke="#263238" stroke-miterlimit="10"/>
<path d="M19.9209 46.5704L23.9335 54.5556L28.1663 52.4623L24.594 44.0391L19.9209 46.5704Z" fill="#7B55D3" stroke="#263238" stroke-miterlimit="10"/>
<path d="M26.8806 52.1385C26.8326 52.0113 26.8364 51.8703 26.8914 51.7459C26.9463 51.6216 27.0479 51.5239 27.1741 51.474C27.1975 51.4712 27.2212 51.4712 27.2446 51.474L24.6028 45.2734C24.5787 45.3314 24.542 45.3831 24.4952 45.4248C24.4485 45.4666 24.3929 45.4972 24.3327 45.5145C24.2425 45.5356 24.148 45.5289 24.0616 45.4953C23.9752 45.4617 23.9009 45.4029 23.8484 45.3264L21.0598 46.8287C21.0958 46.8827 21.1226 46.9423 21.1391 47.0051C21.178 47.1176 21.179 47.2398 21.1418 47.353C21.1047 47.4661 21.0316 47.5639 20.9336 47.6314L23.7192 53.1557C23.769 53.1004 23.833 53.0597 23.9042 53.0381C24.0223 53.0157 24.1446 53.0362 24.249 53.096C24.3534 53.1558 24.4331 53.251 24.4736 53.3645L26.8894 52.1708L26.8806 52.1385ZM24.4971 50.7096C23.9834 50.8537 23.4286 50.4744 23.2555 49.8599C23.0823 49.2454 23.3553 48.628 23.866 48.484C24.3768 48.3399 24.9345 48.7192 25.1077 49.3336C25.2808 49.9481 25.0079 50.5626 24.4971 50.7096Z" fill="white" stroke="#263238" stroke-miterlimit="10"/>
<path d="M21.6387 45.5851L23.7815 54.2612L28.3724 53.1616L26.755 44.1562L21.6387 45.5851Z" fill="#7B55D3" stroke="#263238" stroke-miterlimit="10"/>
<path d="M27.1889 52.5698C27.1789 52.5024 27.1824 52.4337 27.199 52.3676C27.2156 52.3016 27.245 52.2394 27.2857 52.1848C27.3263 52.1302 27.3773 52.0841 27.4358 52.0493C27.4942 52.0144 27.559 51.9915 27.6263 51.9818C27.6497 51.979 27.6733 51.979 27.6967 51.9818L26.5226 45.352C26.4858 45.4028 26.4384 45.4449 26.3836 45.4754C26.3289 45.5059 26.2681 45.524 26.2056 45.5284C26.1123 45.5278 26.0212 45.4996 25.9439 45.4473C25.8666 45.3949 25.8065 45.3209 25.7711 45.2344L22.7008 46.1017C22.725 46.1626 22.7389 46.2272 22.7419 46.2928C22.7547 46.4112 22.7283 46.5306 22.6668 46.6326C22.6053 46.7346 22.512 46.8135 22.4014 46.8573L23.8837 52.8638C23.9442 52.8214 24.0154 52.797 24.0892 52.7932C24.2091 52.796 24.3239 52.8423 24.4124 52.9233C24.501 53.0044 24.5571 53.1149 24.5706 53.2343L27.1919 52.608L27.1889 52.5698ZM25.1694 50.6411C24.6381 50.6705 24.1802 50.1766 24.1479 49.5386C24.1156 48.9006 24.5178 48.3626 25.049 48.3332C25.5803 48.3038 26.0353 48.8007 26.0705 49.4386C26.1058 50.0766 25.7124 50.6147 25.1694 50.6411Z" fill="white" stroke="#263238" stroke-miterlimit="10"/>
<path d="M24.1777 44.9141L23.6846 53.8371L28.3958 54.137L29.4877 45.0493L24.1777 44.9141Z" fill="#7B55D3" stroke="#263238" stroke-miterlimit="10"/>
<path d="M27.4389 53.2139C27.4605 53.0794 27.5344 52.9588 27.6443 52.8784C27.7542 52.7981 27.8914 52.7644 28.0259 52.7847C28.0505 52.7905 28.0741 52.7993 28.0964 52.8112L28.9007 46.1196C28.851 46.1582 28.7932 46.1851 28.7318 46.1983C28.6703 46.2115 28.6066 46.2108 28.5455 46.196C28.4564 46.1692 28.3774 46.1162 28.3188 46.0439C28.2601 45.9715 28.2246 45.8832 28.2167 45.7903L25.0436 45.7109C25.0493 45.7752 25.0433 45.8399 25.026 45.902C25.0039 46.0192 24.9439 46.1258 24.8553 46.2055C24.7668 46.2852 24.6545 46.3335 24.5358 46.343L24.1953 52.5172C24.2672 52.4965 24.3435 52.4965 24.4155 52.5172C24.5294 52.5561 24.6254 52.635 24.6858 52.7393C24.7462 52.8436 24.767 52.9662 24.7442 53.0846L27.4359 53.2551C27.4334 53.2414 27.4344 53.2272 27.4389 53.2139ZM26.0827 50.7825C25.5691 50.6532 25.2755 50.0475 25.4311 49.4272C25.5867 48.8068 26.1297 48.4099 26.6463 48.5451C27.1629 48.6804 27.4506 49.2831 27.298 49.9034C27.1453 50.5238 26.5994 50.9119 26.0827 50.7825Z" fill="white" stroke="#263238" stroke-miterlimit="10"/>
<path d="M33.8758 53.6499C33.3568 53.5718 32.8431 53.4619 32.3376 53.3206C32.1175 53.2118 30.5236 52.6591 29.2585 52.0005C27.9933 51.342 26.9513 52.0005 25.149 52.3298C23.3467 52.6591 22.8389 52.7708 22.8389 53.2118C22.8389 53.6528 23.7752 53.7616 23.7752 53.7616C23.7752 53.7616 22.8946 53.8704 23.3349 54.4761C23.5943 54.8359 23.9598 55.1053 24.3799 55.2464C24.6234 55.6504 24.9399 56.0053 25.3134 56.293C25.8623 56.6782 26.2468 57.0104 26.2468 57.0104C26.591 57.4398 27.0487 57.7637 27.5677 57.9453C28.3368 58.1658 32.6781 56.8428 32.6781 56.8428C32.6781 56.8428 33.9961 57.2279 34.3278 56.5135C34.6595 55.7991 33.8758 53.6499 33.8758 53.6499Z" fill="white" stroke="#263238" stroke-linecap="round" stroke-linejoin="round"/>
<path d="M23.7637 53.7613C23.7637 53.7613 27.0601 53.6496 28.105 53.3203" stroke="#263238" stroke-linecap="round" stroke-linejoin="round"/>
<path d="M24.3682 55.2488C25.2768 55.3946 26.1955 55.4683 27.1156 55.4693C27.6575 55.4585 28.1873 55.3076 28.6538 55.0312" stroke="#263238" stroke-linecap="round" stroke-linejoin="round"/>
<path d="M25.7568 56.625C25.7568 56.625 27.6795 57.213 28.9857 56.7896" stroke="#263238" stroke-linecap="round" stroke-linejoin="round"/>
<path d="M35.5076 44.2266L36.5555 52.4264L33.6025 53.2849C33.6025 53.2849 34.081 55.7633 33.8961 56.9099C33.772 57.7944 33.7082 58.6863 33.7053 59.5795C33.7053 59.5795 36.9342 58.5299 39.0359 58.3388C41.1376 58.1477 42.9399 57.1951 43.5093 55.6692C44.0788 54.1434 42.2736 48.9071 42.2736 48.9071" fill="#F46850"/>
<path d="M35.5076 44.2266L36.5555 52.4264L33.6025 53.2849C33.6025 53.2849 34.081 55.7633 33.8961 56.9099C33.772 57.7944 33.7082 58.6863 33.7053 59.5795C33.7053 59.5795 36.9342 58.5299 39.0359 58.3388C41.1376 58.1477 42.9399 57.1951 43.5093 55.6692C44.0788 54.1434 42.2735 48.9071 42.2735 48.9071" stroke="#263238" stroke-miterlimit="10"/>
<path d="M35.1172 53.0418L36.5555 52.4244L40.1953 51.4453" stroke="#323232" stroke-miterlimit="10"/>
<path d="M36.5559 52.4267L35.4258 42.7422" stroke="#323232" stroke-miterlimit="10"/>
<path d="M17.9425 52.2354C17.9425 52.2354 17.285 49.3189 17.009 48.7661C16.7331 48.2134 15.2478 49.7599 15.1392 50.2538C15.0306 50.7477 17.5022 52.2912 17.9425 52.2354Z" fill="white" stroke="#263238" stroke-miterlimit="10"/>
<path d="M16.5076 46.1016L15.0869 47.7715C15.0869 47.7715 15.4832 50.2176 15.8002 50.3147C16.1172 50.4117 18.3833 48.6623 18.3833 48.6623L16.5076 46.1016Z" fill="white" stroke="#263238" stroke-miterlimit="10"/>
<path d="M19.1462 42.7529C19.1462 42.7529 16.6717 45.1755 16.5044 46.1105C16.337 47.0454 18.0982 48.8094 18.3184 48.9741C18.5385 49.1387 20.1324 47.8715 20.1853 47.651C20.2381 47.4305 19.1432 45.7253 19.1432 45.7253C19.6476 45.9728 20.1376 46.2486 20.6109 46.5515C20.7753 46.7161 21.8203 48.2038 22.2048 48.092C22.5893 47.9803 22.4249 47.2659 22.2048 46.6073C21.9846 45.9487 19.6217 43.7437 19.6217 43.7437L21.2156 44.1289C21.2156 44.1289 23.0854 45.9458 23.5257 45.9458C23.966 45.9458 23.7458 45.5048 23.4699 45.1197C23.194 44.7345 21.876 43.1939 21.5473 42.8088C21.2185 42.4236 19.9534 42.2031 19.7861 42.2031C19.6188 42.2031 19.1462 42.7529 19.1462 42.7529Z" fill="white" stroke="#263238" stroke-linecap="round" stroke-linejoin="round"/>
<path d="M19.146 45.7234L18.377 44.9531" stroke="#263238" stroke-linecap="round" stroke-linejoin="round"/>
<path d="M17.3877 45.8906L19.3661 48.3132" stroke="#263238" stroke-linecap="round" stroke-linejoin="round"/>
<path d="M15.0308 47.5078C15.0308 47.5078 15.4153 48.8279 15.6355 49.6541C15.8556 50.4802 17.9426 52.2413 17.9426 52.2413C17.9426 52.2413 14.975 55.3783 12.3361 56.7543C9.69726 58.1302 6.59754 57.4393 5.6641 56.3397C4.73066 55.2401 5.11519 52.0473 5.88425 51.3857C6.65331 50.7242 11.1268 49.8746 12.2275 49.2689C13.3283 48.6633 15.0308 47.5078 15.0308 47.5078Z" fill="#F46850" stroke="#263238" stroke-miterlimit="10"/>
<path d="M15.0305 47.5078L7.79785 51.0476" stroke="#323232" stroke-miterlimit="10"/>
<path d="M14.0918 47.967V44.5859" stroke="#323232" stroke-miterlimit="10"/>
<path d="M62.225 122.339C62.225 122.339 61.3444 122.589 58.9962 120.846C56.6479 119.102 53.9004 116.612 53.9004 116.612C53.9004 116.612 56.6126 116.247 57.866 115.586C59.2457 114.854 60.8601 113.125 60.8601 113.125C60.8601 113.125 66.3286 120.596 73.168 120.099C73.0493 120.736 72.7718 121.332 72.3613 121.833C71.9507 122.334 71.4204 122.722 70.8197 122.962C68.6887 123.833 62.225 122.339 62.225 122.339Z" fill="#FCFCFC" stroke="#29CC99" stroke-linejoin="round"/>
<path d="M71.0992 120.948C71.0992 120.948 65.2931 119.422 62.1552 116.085C62.004 116.127 61.8455 116.134 61.6912 116.106C61.537 116.079 61.3908 116.017 61.2632 115.926C61.1356 115.835 61.0299 115.716 60.9537 115.579C60.8775 115.442 60.8327 115.289 60.8225 115.133C59.7256 116.164 58.3191 116.804 56.8217 116.953C56.8217 116.953 56.9156 117.62 56.6309 117.811C56.6309 117.811 61.1043 121.721 63.6757 122.198C65.4605 122.555 67.2873 122.654 69.1002 122.492C69.8831 122.409 70.6183 122.075 71.196 121.539C71.196 121.539 70.2421 121.33 71.0992 120.948ZM65.616 120.734C65.4075 121.248 64.3714 121.322 63.3 120.875C62.2286 120.428 61.5388 119.672 61.7325 119.161C61.9262 118.649 62.9771 118.573 64.0485 119.02C65.1199 119.466 65.8214 120.222 65.616 120.734Z" fill="white" stroke="#29CC99" stroke-miterlimit="10"/>
<path d="M61.3447 122.179C61.3447 122.179 64.3388 123.414 66.7017 123.414C68.0845 123.422 69.4636 123.269 70.8112 122.958C70.8112 122.958 70.004 123.399 68.6919 122.555C67.9434 122.073 67.462 121 67.462 121C65.4873 121.675 63.4285 122.072 61.3447 122.179Z" fill="#FCFCFC" stroke="#29CC99" stroke-linejoin="round"/>
<path d="M94.9785 109.623C94.9785 109.623 100.429 107.827 103.617 105.695L107.008 111.281C107.008 111.281 98.9001 117.605 96.772 115.941L94.9785 109.623Z" fill="#FCFCFC" stroke="#29CC99" stroke-linejoin="round"/>
<path d="M104.682 110.954C104.689 110.793 104.748 110.638 104.85 110.514C104.952 110.389 105.092 110.301 105.249 110.263L103.743 107.761C103.617 107.804 103.485 107.826 103.352 107.826C103.191 107.834 103.03 107.803 102.883 107.736C102.736 107.668 102.608 107.566 102.51 107.438C99.6949 109.41 95.377 110.422 95.377 110.422L96.2399 113.817C96.2399 113.817 96.1079 115.681 98.4326 115.214C100.235 114.852 103.625 112.568 105.067 111.571C104.953 111.512 104.858 111.424 104.79 111.315C104.723 111.206 104.685 111.082 104.682 110.954ZM98.873 113.453C97.8544 113.685 96.9063 113.338 96.7536 112.677C96.601 112.015 97.3055 111.286 98.324 111.051C99.3426 110.816 100.294 111.165 100.446 111.827C100.599 112.489 99.8945 113.218 98.873 113.453Z" fill="white" stroke="#29CC99" stroke-miterlimit="10"/>
<path d="M94.1792 107.094L97.9013 114.482C97.9013 114.482 96.6391 115.147 96.7712 115.952L93.1842 108.896C93.1842 108.896 92.7174 107.758 94.1792 107.094Z" fill="#FCFCFC" stroke="#29CC99" stroke-linejoin="round"/>
<path d="M93.502 109.52L96.267 114.953C96.3847 114.692 96.5935 114.483 96.8541 114.365L93.7808 108.961L93.502 109.52Z" fill="white" stroke="#29CC99" stroke-miterlimit="10"/>
<path d="M53.7861 68.383L53.8448 82.5452L61.2243 82.5128L61.2478 68.0625L53.7861 68.383Z" fill="#FCFCFC" stroke="#29CC99" stroke-miterlimit="10"/>
<path d="M59.6075 81.1513C59.6138 81.0456 59.6411 80.9421 59.6878 80.847C59.7345 80.752 59.7997 80.6672 59.8795 80.5977C59.9593 80.5281 60.0522 80.4752 60.1527 80.4421C60.2531 80.4089 60.3592 80.3962 60.4647 80.4046C60.5017 80.4122 60.5381 80.423 60.5733 80.4369L60.5586 69.6557C60.4933 69.7148 60.4157 69.7584 60.3313 69.7833C60.247 69.8082 60.1581 69.8139 60.0713 69.7998C59.942 69.7679 59.8248 69.6989 59.734 69.6012C59.6433 69.5036 59.583 69.3815 59.5606 69.25L55.1106 69.4411C55.1251 69.5327 55.1251 69.6259 55.1106 69.7175C55.0958 69.8848 55.0257 70.0425 54.9114 70.1655C54.7971 70.2885 54.6451 70.3698 54.4795 70.3966V80.3928C54.5874 80.3493 54.7051 80.3361 54.82 80.3546C55.0029 80.4078 55.1617 80.5232 55.2688 80.681C55.376 80.8387 55.4249 81.029 55.4071 81.2189L59.6222 81.2013C59.6075 81.1778 59.6046 81.1631 59.6075 81.1513ZM57.1653 77.4292C56.3464 77.2793 55.8063 76.3473 55.9589 75.3447C56.1115 74.3422 56.907 73.6513 57.7201 73.8041C58.5332 73.957 59.0821 74.8861 58.9265 75.8886C58.771 76.8912 57.9755 77.5821 57.1653 77.4292Z" fill="white" stroke="#29CC99" stroke-miterlimit="10"/>
<path d="M122.787 8.46094L112.496 18.7688L117.868 24.149L128.429 13.6942L122.787 8.46094Z" fill="#FCFCFC" stroke="#29CC99" stroke-miterlimit="10"/>
<path d="M117.686 21.9889C117.768 21.9155 117.863 21.8595 117.967 21.824C118.071 21.7884 118.181 21.7743 118.291 21.7822C118.4 21.7902 118.507 21.8201 118.605 21.8703C118.703 21.9204 118.789 21.9897 118.86 22.0741C118.882 22.1074 118.901 22.1429 118.916 22.18L126.768 14.3447C126.677 14.34 126.588 14.3148 126.508 14.2711C126.429 14.2273 126.36 14.166 126.307 14.0919C126.236 13.9739 126.202 13.8378 126.208 13.7004C126.214 13.5631 126.259 13.4304 126.339 13.3187L122.969 10.1875C122.912 10.2643 122.844 10.3326 122.767 10.3904C122.634 10.5012 122.467 10.5641 122.294 10.5689C122.121 10.5737 121.952 10.5202 121.813 10.4168L114.513 17.6493C114.622 17.6949 114.717 17.7703 114.786 17.8669C114.882 18.0391 114.915 18.2399 114.879 18.4339C114.842 18.628 114.738 18.803 114.586 18.9283L117.654 22.0036L117.686 21.9889ZM118.625 17.4965C118.138 16.7879 118.428 15.7148 119.271 15.1003C120.113 14.4859 121.194 14.5682 121.678 15.2767C122.162 15.9853 121.872 17.0613 121.029 17.6729C120.187 18.2844 119.101 18.1933 118.625 17.4818V17.4965Z" fill="white" stroke="#29CC99" stroke-miterlimit="10"/>
<path d="M51.8813 51.6645L66.1999 45.9932L63.244 38.5078L48.5996 44.2086L51.8813 51.6645Z" fill="#FCFCFC" stroke="#29CC99" stroke-miterlimit="10"/>
<path d="M62.5076 40.691C61.988 40.8057 61.4978 40.5499 61.4127 40.103C61.4097 40.0609 61.4097 40.0186 61.4127 39.9766L50.4961 44.2632C50.5824 44.3062 50.6578 44.3683 50.7168 44.4446C50.7757 44.521 50.8167 44.6097 50.8366 44.7042C50.8551 44.848 50.8313 44.9941 50.7682 45.1246C50.7051 45.2551 50.6055 45.3644 50.4814 45.4392L52.4335 49.9198C52.5255 49.8695 52.6244 49.8328 52.727 49.811C52.9023 49.7593 53.0898 49.7679 53.2596 49.8356C53.4294 49.9033 53.5716 50.0262 53.6634 50.1844L63.7874 46.2389C63.6995 46.1491 63.6393 46.0357 63.6142 45.9125C63.5912 45.7043 63.643 45.4947 63.7603 45.3213C63.8775 45.1478 64.0526 45.0218 64.2541 44.9658L62.5633 40.6881L62.5076 40.691ZM59.7131 44.6571C59.8863 45.5391 59.1554 46.4711 58.0781 46.7152C57.0008 46.9592 55.9911 46.4212 55.8179 45.5391C55.6447 44.6571 56.3756 43.7281 57.4529 43.4811C58.5302 43.2341 59.5399 43.7634 59.7131 44.6571Z" fill="white" stroke="#29CC99" stroke-miterlimit="10"/>
<path d="M102.419 8.41143C102.419 8.41143 103.299 8.6437 104.432 11.3515C105.565 14.0593 106.652 17.5991 106.652 17.5991C106.652 17.5991 104.133 16.523 102.718 16.4495C101.157 16.3702 98.8875 17.0375 98.8875 17.0375C98.8875 17.0375 98.0069 7.8146 91.875 4.74225C92.3017 4.25074 92.8461 3.87602 93.4572 3.65332C94.0682 3.43062 94.7258 3.36726 95.3681 3.46921C97.6283 3.81613 102.419 8.41143 102.419 8.41143Z" fill="#FCFCFC" stroke="#29CC99" stroke-linejoin="round"/>
<path d="M94.0889 5.0525C94.0889 5.0525 98.2981 9.34792 99.2932 13.8139C99.444 13.8564 99.5835 13.9318 99.7016 14.0348C99.8198 14.1378 99.9137 14.2657 99.9765 14.4094C100.039 14.553 100.07 14.7089 100.065 14.8657C100.061 15.0225 100.022 15.1764 99.9508 15.3162C101.42 14.9968 102.953 15.1725 104.313 15.816C104.313 15.816 104.571 15.1927 104.914 15.1751C104.914 15.1751 103.065 9.52432 101.098 7.79851C99.7447 6.57831 98.2234 5.55855 96.581 4.77026C95.8655 4.44264 95.0639 4.354 94.2943 4.51741C94.2943 4.51741 95.0311 5.16422 94.0889 5.0525ZM98.6915 8.04547C99.1289 7.71325 100.053 8.18954 100.746 9.11271C101.439 10.0359 101.656 11.0531 101.216 11.3883C100.776 11.7235 99.8539 11.2442 99.1611 10.3211C98.4684 9.3979 98.26 8.38064 98.6915 8.04547Z" fill="white" stroke="#29CC99" stroke-miterlimit="10"/>
<path d="M103.097 8.99605C103.097 8.99605 101.154 6.4088 99.1225 5.18868C97.9413 4.47254 96.6815 3.89541 95.3682 3.46875C95.3682 3.46875 96.2869 3.50403 96.9826 4.90055C97.3789 5.70025 97.2468 6.86745 97.2468 6.86745C99.2857 7.30278 101.254 8.01913 103.097 8.99605Z" fill="#FCFCFC" stroke="#29CC99" stroke-linejoin="round"/>
<path d="M26.4583 1L27.8761 6.20389C27.8761 6.20389 20.7902 11.4607 10.085 9.98773L10.672 4.36342C10.672 4.36342 14.8696 5.20427 18.7002 4.41634C22.5308 3.62841 26.4583 1 26.4583 1Z" fill="#FCFCFC" stroke="#29CC99" stroke-miterlimit="10"/>
<path d="M25.6479 5.97634C25.6627 5.84838 25.7162 5.728 25.8011 5.63132C25.8861 5.53464 25.9986 5.46627 26.1234 5.43537L25.2868 3.12155C25.1648 3.16248 25.0369 3.18333 24.9082 3.18329C24.6867 3.18694 24.4698 3.12002 24.2888 2.99219C23.1147 3.6096 20.9102 4.68566 18.7117 5.14137C16.709 5.50129 14.6666 5.58439 12.6414 5.38833C12.563 5.4725 12.4664 5.53768 12.3591 5.57895C12.2518 5.62021 12.1365 5.63646 12.022 5.62647L11.7432 8.77821C11.8136 8.77821 11.887 8.77821 11.9604 8.77821C12.5474 8.77821 13.0083 8.95461 13.0083 9.17218C13.0046 9.20709 12.9929 9.24067 12.9741 9.27026C12.9552 9.29986 12.9298 9.32466 12.8997 9.3427C19.7009 9.60142 24.462 7.24644 25.9062 6.42323C25.8296 6.37601 25.7658 6.31045 25.7207 6.23244C25.6756 6.15444 25.6506 6.06643 25.6479 5.97634ZM18.9171 7.61983C17.878 7.82857 16.9681 7.65217 16.883 7.22586C16.7978 6.79955 17.5698 6.28798 18.6089 6.07924C19.6481 5.8705 20.558 6.0469 20.6431 6.47321C20.7283 6.89952 19.9563 7.41109 18.9171 7.61983Z" fill="white" stroke="#29CC99" stroke-miterlimit="10"/>
<path d="M122.06 116.891L123.475 122.095C123.475 122.095 116.392 127.351 105.684 125.878L106.271 120.254C106.271 120.254 110.468 121.095 114.302 120.307C118.135 119.519 122.06 116.891 122.06 116.891Z" fill="#FCFCFC" stroke="#29CC99" stroke-miterlimit="10"/>
<path d="M121.246 121.864C121.261 121.736 121.314 121.615 121.399 121.517C121.484 121.42 121.597 121.351 121.722 121.32L120.885 119.012C120.763 119.051 120.635 119.071 120.507 119.071C120.281 119.077 120.059 119.011 119.873 118.883C118.725 119.497 116.509 120.573 114.313 121.029C112.311 121.389 110.268 121.472 108.243 121.276C108.164 121.36 108.068 121.425 107.961 121.467C107.853 121.508 107.738 121.524 107.624 121.514L107.359 124.666C107.43 124.666 107.503 124.666 107.58 124.666C108.167 124.666 108.625 124.839 108.625 125.057C108.621 125.092 108.609 125.125 108.59 125.155C108.571 125.185 108.546 125.209 108.516 125.227C115.317 125.489 120.078 123.134 121.525 122.308C121.445 122.264 121.378 122.2 121.329 122.122C121.28 122.044 121.252 121.956 121.246 121.864ZM114.516 123.505C113.477 123.713 112.567 123.537 112.482 123.114C112.396 122.69 113.168 122.173 114.208 121.964C115.247 121.755 116.157 121.935 116.242 122.358C116.327 122.781 115.555 123.299 114.516 123.505Z" fill="white" stroke="#29CC99" stroke-miterlimit="10"/>
<path d="M47.8428 7.63103C47.8428 7.63103 53.2908 5.83466 56.4815 3.70312L59.8718 9.28922C59.8718 9.28922 51.7644 15.6192 49.6363 13.9551L47.8428 7.63103Z" fill="#FCFCFC" stroke="#29CC99" stroke-linejoin="round"/>
<path d="M57.5433 8.96161C57.5509 8.80025 57.6104 8.64569 57.7131 8.52112C57.8158 8.39655 57.956 8.30868 58.1128 8.2707L56.604 5.76872C56.4794 5.81192 56.3484 5.83378 56.2165 5.8334C56.0552 5.84207 55.8942 5.81126 55.7474 5.74365C55.6007 5.67603 55.4725 5.57364 55.3741 5.44531C52.5591 7.41809 48.2412 8.42946 48.2412 8.42946L49.1042 11.8252C49.1042 11.8252 48.9721 13.6892 51.2969 13.2217C53.0963 12.8601 56.4866 10.5757 57.9308 9.57902C57.817 9.5202 57.721 9.4319 57.6529 9.32331C57.5847 9.21472 57.5469 9.08982 57.5433 8.96161ZM51.7372 11.4607C50.7186 11.6929 49.7676 11.346 49.6179 10.6845C49.4682 10.023 50.1697 9.29384 51.1883 9.05864C52.2069 8.82343 53.1579 9.1733 53.3105 9.83775C53.4632 10.5022 52.7616 11.2255 51.7372 11.4607Z" fill="white" stroke="#29CC99" stroke-miterlimit="10"/>
<path d="M47.0435 5.10156L50.7655 12.4899C50.7655 12.4899 49.5033 13.1544 49.6354 13.9599L46.0455 6.90381C46.0455 6.90381 45.5817 5.76601 47.0435 5.10156Z" fill="#FCFCFC" stroke="#29CC99" stroke-linejoin="round"/>
<path d="M46.3662 7.52736L49.1284 12.9606C49.246 12.6995 49.4548 12.4904 49.7154 12.3726L46.6451 6.96875L46.3662 7.52736Z" fill="white" stroke="#29CC99" stroke-miterlimit="10"/>
<path d="M93.4193 40.3984L83.1279 50.7063L88.4996 56.0836L99.0639 45.6288L93.4193 40.3984Z" fill="#FCFCFC" stroke="#29CC99" stroke-miterlimit="10"/>
<path d="M88.3206 53.9195C88.4024 53.8462 88.4982 53.7901 88.6021 53.7546C88.7061 53.7191 88.8161 53.7049 88.9257 53.7128C89.0352 53.7208 89.142 53.7507 89.2398 53.8009C89.3376 53.851 89.4242 53.9204 89.4947 54.0047C89.5158 54.0382 89.5335 54.0736 89.5475 54.1106L97.4084 46.2842C97.3177 46.2803 97.2292 46.2555 97.1498 46.2116C97.0703 46.1678 97.0021 46.106 96.9505 46.0313C96.8796 45.9136 96.8447 45.7777 96.8499 45.6403C96.8551 45.5029 96.9003 45.3701 96.9798 45.2581L93.6101 42.1328C93.5531 42.2094 93.4848 42.2768 93.4075 42.3327C93.275 42.4445 93.1088 42.5083 92.9356 42.5136C92.7625 42.5189 92.5926 42.4656 92.4535 42.3621L85.1533 49.5917C85.2629 49.6386 85.3574 49.7149 85.4263 49.8122C85.5228 49.9845 85.5556 50.1852 85.5191 50.3792C85.4826 50.5733 85.3791 50.7483 85.2267 50.8736L88.2795 53.9459L88.3206 53.9195ZM89.2569 49.4271C88.7726 48.7156 89.0632 47.6454 89.9056 47.0309C90.7481 46.4165 91.8254 46.4988 92.3097 47.2073C92.794 47.9159 92.5064 48.989 91.661 49.6035C90.8156 50.218 89.7471 50.1356 89.2569 49.4271Z" fill="white" stroke="#29CC99" stroke-miterlimit="10"/>
<path d="M112.232 65.5507L126.296 67.0208L127.059 59.6706L112.72 58.0859L112.232 65.5507Z" fill="#FCFCFC" stroke="#29CC99" stroke-miterlimit="10"/>
<path d="M125.535 61.1327C125.431 61.115 125.331 61.0767 125.242 61.0201C125.153 60.9635 125.076 60.8896 125.016 60.8029C124.955 60.7161 124.913 60.6182 124.891 60.5148C124.868 60.4114 124.867 60.3047 124.886 60.2007C124.899 60.1642 124.915 60.1288 124.933 60.0949L114.228 58.9453C114.28 59.0169 114.315 59.0992 114.331 59.1863C114.347 59.2733 114.343 59.3628 114.319 59.4481C114.275 59.5713 114.196 59.6791 114.091 59.7584C113.987 59.8377 113.862 59.8851 113.732 59.8949L113.438 64.355C113.531 64.3518 113.624 64.3617 113.714 64.3844C113.879 64.4177 114.028 64.5052 114.138 64.633C114.248 64.7609 114.311 64.9217 114.319 65.09L124.232 66.1808C124.199 66.0694 124.199 65.9511 124.232 65.8397C124.302 65.6613 124.433 65.5134 124.602 65.422C124.77 65.3306 124.966 65.3016 125.153 65.3399L125.588 61.1415L125.535 61.1327ZM121.578 63.1907C121.34 63.9904 120.357 64.4285 119.38 64.1668C118.402 63.9052 117.8 63.0408 118.038 62.2411C118.276 61.4414 119.262 61.0033 120.24 61.265C121.217 61.5267 121.816 62.3734 121.578 63.176V63.1907Z" fill="white" stroke="#29CC99" stroke-miterlimit="10"/>
<path d="M128.254 78.8619C128.254 78.8619 129.134 79.0942 130.267 81.802C131.4 84.5098 132.484 88.0496 132.484 88.0496C132.484 88.0496 129.968 86.9735 128.55 86.9C126.992 86.8207 124.734 87.488 124.734 87.488C124.734 87.488 123.854 78.2651 117.722 75.1928C118.15 74.7052 118.695 74.3345 119.305 74.1155C119.916 73.8964 120.572 73.8361 121.212 73.9403C123.46 74.2666 128.254 78.8619 128.254 78.8619Z" fill="#FCFCFC" stroke="#29CC99" stroke-linejoin="round"/>
<path d="M119.92 75.5018C119.92 75.5018 124.132 79.7884 125.127 84.2661C125.278 84.3077 125.418 84.3826 125.536 84.4852C125.655 84.5878 125.749 84.7155 125.812 84.8591C125.875 85.0027 125.905 85.1586 125.901 85.3154C125.896 85.4722 125.856 85.6259 125.785 85.7655C127.252 85.4443 128.785 85.6179 130.144 86.2594C130.144 86.2594 130.405 85.6361 130.745 85.6185C130.745 85.6185 128.899 79.9677 126.93 78.2419C125.578 77.0194 124.059 75.9976 122.418 75.2078C121.702 74.8801 120.901 74.7915 120.131 74.9549C120.131 74.9549 120.862 75.6164 119.92 75.5018ZM124.523 78.4947C124.963 78.1625 125.885 78.6388 126.577 79.562C127.27 80.4851 127.487 81.5024 127.047 81.8376C126.607 82.1727 125.685 81.6935 124.992 80.7703C124.299 79.8472 124.091 78.8328 124.523 78.4977V78.4947Z" fill="white" stroke="#29CC99" stroke-miterlimit="10"/>
<path d="M128.928 79.4452C128.928 79.4452 126.985 76.8492 124.956 75.6379C123.774 74.9254 122.513 74.3522 121.199 73.9297C121.199 73.9297 122.121 73.965 122.814 75.3615C123.213 76.1612 123.078 77.3284 123.078 77.3284C125.116 77.7595 127.085 78.4719 128.928 79.4452Z" fill="#FCFCFC" stroke="#29CC99" stroke-linejoin="round"/>
<path d="M121.449 44.8742C121.449 44.8742 116.697 48.0935 114.207 51.0159L109.414 46.5647C109.414 46.5647 115.487 38.262 117.988 39.2822L121.449 44.8742Z" fill="#FCFCFC" stroke="#29CC99" stroke-linejoin="round"/>
<path d="M111.763 46.2472C111.8 46.4039 111.785 46.5684 111.72 46.7159C111.656 46.8634 111.545 46.9858 111.405 47.0645L113.536 49.0608C113.645 48.9857 113.766 48.9291 113.894 48.8932C114.046 48.8406 114.21 48.8259 114.369 48.8505C114.529 48.8751 114.68 48.9382 114.81 49.0343C116.982 46.3677 120.859 44.2127 120.859 44.2127L119.098 41.1815C119.098 41.1815 118.717 39.3528 116.606 40.4376C114.974 41.2785 112.332 44.392 111.22 45.7591C111.346 45.784 111.463 45.8424 111.558 45.9283C111.654 46.0142 111.724 46.1244 111.763 46.2472ZM116.668 42.2546C117.584 41.7489 118.593 41.8253 118.919 42.4192C119.245 43.0131 118.766 43.9098 117.851 44.4126C116.935 44.9153 115.925 44.8418 115.596 44.245C115.268 43.6482 115.74 42.7573 116.659 42.2546H116.668Z" fill="white" stroke="#29CC99" stroke-miterlimit="10"/>
<path d="M122.917 47.0871L117.322 40.9982C117.322 40.9982 118.356 40.0133 118.009 39.2812L123.387 45.0849C123.387 45.0849 124.132 46.0463 122.917 47.0871Z" fill="#FCFCFC" stroke="#29CC99" stroke-linejoin="round"/>
<path d="M122.899 44.5704L118.761 40.1016C118.723 40.3856 118.584 40.6464 118.37 40.8366L122.773 45.1849L122.899 44.5704Z" fill="white" stroke="#29CC99" stroke-miterlimit="10"/>
<path d="M1 127.891H141.409" stroke="#263238" stroke-linecap="round" stroke-linejoin="round"/>
</svg>
