<svg width="80" height="80" viewBox="0 0 80 80" fill="none" xmlns="http://www.w3.org/2000/svg">
<rect width="80" height="80" rx="40" fill="#65C7C3"/>
<path d="M34.667 48.4762L59.467 22.5028C59.8129 22.1333 60.2311 21.8387 60.6955 21.6373C61.1599 21.4359 61.6608 21.332 62.167 21.332C62.6732 21.332 63.174 21.4359 63.6384 21.6373C64.1029 21.8387 64.521 22.1333 64.867 22.5028C65.585 23.2689 65.9846 24.2795 65.9846 25.3295C65.9846 26.3795 65.585 27.3901 64.867 28.1562L34.667 59.7828L17.1176 41.4148C16.3996 40.6488 16 39.6381 16 38.5882C16 37.5382 16.3996 36.5276 17.1176 35.7615C17.4636 35.392 17.8818 35.0974 18.3462 34.896C18.8106 34.6946 19.3114 34.5907 19.8176 34.5907C20.3239 34.5907 20.8247 34.6946 21.2891 34.896C21.7535 35.0974 22.1717 35.392 22.5176 35.7615L34.667 48.4762Z" fill="white"/>
</svg>
