<svg width="120" height="120" viewBox="0 0 120 120" fill="none" xmlns="http://www.w3.org/2000/svg">
<path d="M19.4192 89.5679C6.65028 74.5322 11.1246 52.2458 18.7244 45.4929C26.3243 38.74 38.3848 35.0301 44.8468 27.1391C51.3088 19.2482 58.7497 13.5986 72.3534 17.6702C85.9568 21.7418 85.7536 32.3183 89.8348 38.8619C93.916 45.4058 112.11 49.0607 111.074 65.8542C110.037 82.6478 98.4896 82.6192 93.2228 86.7566C87.956 90.8939 79.6496 110.432 63.0248 110.636C42.6512 110.885 30.2257 102.292 19.4192 89.5679Z" fill="#EEEEFF"/>
<g opacity="0.3">
<path d="M65.4313 8.625L64.7123 11.1277C64.0532 11.307 63.4256 11.5621 62.8441 11.8888L60.5387 10.6228L58.4778 12.6572L59.7603 14.9332C59.4296 15.5072 59.1709 16.1267 58.9895 16.7773L56.4541 17.4872V20.3706L58.9895 21.0805C59.1711 21.7312 59.4296 22.3506 59.7603 22.9247L58.4778 25.2006L60.5387 27.2351L62.8441 25.9691C63.4256 26.2957 64.0532 26.5508 64.7123 26.7301L65.4313 29.2328H68.3521L69.0711 26.7301C69.7302 26.5508 70.3578 26.2957 70.9393 25.9691L73.2447 27.2351L75.3056 25.2006L74.0231 22.9247C74.354 22.3506 74.6125 21.7312 74.7939 21.0805L77.3293 20.3706V17.4872L74.7939 16.7773C74.6123 16.1267 74.3538 15.5072 74.0231 14.9332L75.3056 12.6572L73.2447 10.6228L70.9393 11.8888C70.3578 11.5621 69.7302 11.307 69.0711 11.1277L68.3521 8.625H65.4313ZM66.8917 13.5443C69.8953 13.5443 72.3462 15.9637 72.3462 18.9289C72.3462 21.8939 69.8953 24.3136 66.8917 24.3136C63.8881 24.3136 61.4372 21.8941 61.4372 18.9289C61.4372 15.9637 63.8881 13.5443 66.8917 13.5443Z" stroke="#7B55D3" stroke-miterlimit="10"/>
</g>
<g opacity="0.3">
<path d="M108.059 56.0586L107.58 57.7239C107.142 57.8432 106.724 58.0131 106.337 58.2303L104.803 57.3879L103.432 58.7418L104.285 60.2562C104.065 60.6383 103.893 61.0504 103.772 61.4833L102.085 61.9556V63.8742L103.772 64.3465C103.893 64.7795 104.065 65.1918 104.285 65.5736L103.432 67.088L104.803 68.4419L106.337 67.5995C106.724 67.8169 107.142 67.9866 107.58 68.1059L108.059 69.7712H110.002L110.481 68.1059C110.919 67.9866 111.337 67.8167 111.724 67.5995L113.258 68.4419L114.629 67.088L113.776 65.5736C113.996 65.1916 114.168 64.7795 114.289 64.3465L115.976 63.8742V61.9556L114.289 61.4833C114.168 61.0504 113.996 60.638 113.776 60.2562L114.629 58.7418L113.258 57.3879L111.724 58.2303C111.337 58.0129 110.919 57.8432 110.481 57.7239L110.002 56.0586H108.059ZM109.031 59.3322C111.029 59.3322 112.66 60.9421 112.66 62.9151C112.66 64.8882 111.029 66.4981 109.031 66.4981C107.032 66.4981 105.401 64.8882 105.401 62.9151C105.401 60.9421 107.032 59.3322 109.031 59.3322Z" stroke="#7B55D3" stroke-miterlimit="10"/>
</g>
<g opacity="0.3">
<path d="M20.9289 60.4453L19.8892 64.064C18.9362 64.3232 18.029 64.6924 17.188 65.1645L13.8544 63.334L10.8746 66.2757L12.7288 69.5665C12.2505 70.3964 11.8766 71.2921 11.614 72.2329L7.94824 73.2594V77.4284L11.614 78.4549C11.8766 79.3957 12.2505 80.2914 12.7288 81.1213L10.8746 84.4122L13.8544 87.3539L17.188 85.5234C18.0287 85.9957 18.9362 86.3646 19.8892 86.6238L20.9289 90.2425H25.1522L26.1918 86.6238C27.1449 86.3646 28.0521 85.9955 28.893 85.5234L32.2266 87.3539L35.2065 84.4122L33.352 81.1213C33.8303 80.2914 34.2042 79.3955 34.4668 78.4549L38.1326 77.4287V73.2596L34.4668 72.2332C34.2042 71.2924 33.8306 70.3967 33.352 69.5668L35.2065 66.2759L32.2266 63.3342L28.893 65.1647C28.0523 64.6924 27.1449 64.3235 26.1918 64.0643L25.1522 60.4456H20.9289V60.4453ZM23.0404 67.5582C27.3834 67.5582 30.927 71.0564 30.927 75.3438C30.927 79.6312 27.3832 83.1294 23.0404 83.1294C18.6974 83.1294 15.1538 79.6312 15.1538 75.3438C15.1538 71.0564 18.6976 67.5582 23.0404 67.5582Z" stroke="#7B55D3" stroke-miterlimit="10"/>
</g>
<path d="M58.4897 106.903C59.0312 105.654 60.0521 104.658 61.3376 104.124L61.3774 104.108L61.2044 104.03C59.9996 103.492 59.0415 102.544 58.5135 101.366L58.4895 101.312L58.356 101.576C57.8434 102.587 57.0063 103.412 55.97 103.925L55.6016 104.107L55.6239 104.116C56.8572 104.625 57.8513 105.56 58.4115 106.738L58.4897 106.903Z" fill="#32338C"/>
<path d="M62.1226 108.615C62.3933 107.991 62.9038 107.493 63.5465 107.226L63.5664 107.218L63.48 107.179C62.8776 106.911 62.3985 106.436 62.1345 105.847L62.1226 105.82L62.0558 105.952C61.7995 106.458 61.381 106.87 60.8628 107.127L60.6787 107.218L60.6898 107.222C61.3066 107.477 61.8034 107.944 62.0837 108.534L62.1226 108.615Z" fill="#7B55D3"/>
<path d="M108.728 36.4919C108.324 35.5585 107.56 34.8138 106.599 34.4147L106.569 34.4024L106.699 34.3446C107.599 33.9426 108.316 33.2334 108.711 32.3526L108.729 32.3125L108.828 32.5093C109.212 33.2655 109.838 33.8819 110.612 34.2656L110.888 34.4022L110.871 34.4089C109.949 34.7891 109.206 35.4879 108.787 36.3692L108.728 36.4919Z" fill="#7B55D3"/>
<path d="M106.012 37.773C105.81 37.3065 105.428 36.934 104.947 36.7346L104.933 36.7283L104.997 36.6995C105.448 36.4984 105.806 36.1439 106.003 35.7035L106.012 35.6836L106.062 35.782C106.254 36.1602 106.567 36.4682 106.954 36.6602L107.092 36.7283L107.083 36.7317C106.622 36.9218 106.251 37.2712 106.041 37.7118L106.012 37.773Z" fill="#32338C"/>
<path d="M12.8868 57.5075C12.4822 56.5741 11.7187 55.8294 10.7575 55.4303L10.7275 55.4178L10.8569 55.3602C11.7576 54.9582 12.474 54.249 12.8688 53.3682L12.8868 53.3281L12.9867 53.5249C13.3699 54.2812 13.9959 54.8975 14.7706 55.2812L15.0459 55.4176L15.0293 55.4243C14.107 55.8044 13.3639 56.5033 12.9451 57.3846L12.8868 57.5075Z" fill="#7B55D3"/>
<path d="M10.1703 58.7887C9.96802 58.3221 9.58642 57.9496 9.1057 57.7502L9.09082 57.7439L9.15538 57.7151C9.60586 57.514 9.96394 57.1595 10.1612 56.7191L10.1701 56.6992L10.22 56.7976C10.4118 57.1759 10.7247 57.4838 11.1121 57.6758L11.2499 57.7439L11.2415 57.7473C10.7802 57.9374 10.4089 58.2868 10.1994 58.7275L10.1703 58.7887Z" fill="#32338C"/>
<path d="M85.8705 27.7633C87.6381 27.9886 89.3358 28.567 90.9177 29.3876C95.5156 31.7725 99.651 35.0446 103.029 38.9708C104.393 40.556 105.68 42.3591 105.894 44.4394C106.139 46.8214 104.942 49.0877 103.782 51.1827C102.816 52.927 101.651 54.8329 99.7228 55.339C98.1424 55.7537 96.4866 55.0909 95.0591 54.2962C89.4782 51.1901 85.2933 45.8881 82.8921 39.9694C81.7257 37.0945 81.2925 34.3637 81.491 31.2845C81.5466 30.4227 79.2882 30.343 79.8945 29.6605C80.757 28.6889 83.446 27.4541 85.8705 27.7633Z" fill="#7B55D3"/>
<path d="M100.002 32.9492C99.8172 33.1986 99.6137 33.4343 99.3912 33.6491C98.6294 34.3847 97.687 34.9115 96.7058 35.3101C95.9782 35.6058 95.208 35.8374 94.4227 35.822C94.3354 35.8203 94.2478 35.8139 94.1602 35.8052C94.1986 35.9564 94.2545 36.1014 94.3466 36.2264C94.6368 36.62 95.1768 36.7211 95.665 36.7494C96.9773 36.8262 98.3064 36.5953 99.5162 36.081C99.6478 36.0251 99.786 35.9591 99.8602 35.8369C99.936 35.7121 99.929 35.5561 99.9211 35.4104C99.875 34.5723 99.9211 33.7568 100.002 32.9492Z" fill="#F8AB73"/>
<path d="M96.7056 35.309C97.6867 34.9106 98.6292 34.3836 99.391 33.648C99.6134 33.4332 99.817 33.1975 100.002 32.9481C100.134 31.6164 100.362 30.3064 100.432 28.9526C99.0674 28.632 96.8635 30.0482 95.9124 30.9424C94.687 32.0947 93.917 33.7876 94.0987 35.46C94.1112 35.5754 94.1311 35.6913 94.1597 35.8041C94.2473 35.8128 94.3349 35.819 94.4222 35.8209C95.2078 35.8363 95.9779 35.6047 96.7056 35.309Z" fill="#FE814B"/>
<path d="M105.9 22.9102C106.732 21.7411 107.572 20.5563 108.085 19.2163C108.598 17.8767 108.755 16.3428 108.206 15.0175C107.657 13.6923 106.292 12.6588 104.862 12.7822C105.311 11.8625 104.765 10.842 104.015 10.1458C103.265 9.44955 102.234 9.14235 101.223 8.98635C98.3609 8.54499 95.4417 9.14547 92.5485 9.01827C91.4812 8.97147 90.3876 8.81523 89.4597 8.28555C88.5319 7.75587 87.7961 6.78699 87.7965 5.71875C87.4221 6.53211 87.0031 7.51539 87.0653 8.40867C87.1274 9.30195 87.6158 10.2096 88.4405 10.5584C87.6093 10.7931 86.7415 10.2802 86.2022 9.60555C85.6629 8.93091 85.4493 8.04867 85.3922 7.18683C84.4788 7.76307 83.8459 8.71803 83.5056 9.74283C83.1955 10.6762 83.033 11.678 83.1965 12.6478C83.3599 13.6179 83.8785 14.5534 84.708 15.0819C84.3125 15.1488 83.8857 15.1908 83.5161 15.0348C83.4917 15.582 83.8039 16.1038 84.2282 16.4504C84.6525 16.7969 85.1784 16.993 85.7032 17.1499C87.5037 17.689 89.3952 17.8349 91.2398 18.194C95.5956 19.0416 99.6187 21.0581 103.759 22.6546C104.339 22.8785 105.297 23.0592 105.9 22.9102Z" fill="#FE642F"/>
<path d="M101.356 22.2604C100.733 20.049 101.062 17.668 101.753 15.4766C99.5767 17.5264 96.3732 18.0311 93.4104 17.6291C94.3975 17.1491 95.2905 16.4771 96.0254 15.6616C93.0806 15.4701 90.0429 16.1865 87.1051 15.9126C86.7686 16.9302 86.5514 17.9884 86.4319 18.9683C86.1744 21.0794 86.3402 23.2233 86.6901 25.3211C87.072 27.6098 87.7087 29.9354 89.1573 31.7476C90.6062 33.5598 93.0293 34.7486 95.2776 34.1754C96.1161 33.9618 96.881 33.5231 97.5871 33.023C100.188 31.1807 102.077 28.4817 103.344 25.545C102.403 24.6734 101.706 23.5012 101.356 22.2604Z" fill="#F8AB74"/>
<path d="M96.025 15.6602C95.2904 16.4755 94.3971 17.1477 93.41 17.6277C96.3726 18.0297 99.5763 17.525 101.753 15.4752C101.062 17.6666 100.733 20.0477 101.356 22.259C101.706 23.4996 102.402 24.672 103.344 25.5437C103.509 25.1623 103.664 24.7773 103.808 24.3893C104.427 22.7191 104.875 20.9649 104.891 19.1837C104.906 17.4024 104.466 15.5856 103.438 14.1309C101.99 12.0818 99.5305 10.9512 97.0645 10.4875C95.8599 10.2609 94.6131 10.1729 93.4105 10.4105C91.8095 10.727 89.6293 11.627 88.5913 12.9749C87.9445 13.8149 87.4585 14.8404 87.1045 15.9113C90.0428 16.1849 93.0802 15.4685 96.025 15.6602Z" fill="#FE642F"/>
<path d="M102.12 22.2735C101.776 23.1898 101.775 24.2062 101.95 25.1691C102.085 25.9121 102.388 26.7161 103.072 27.036C103.578 27.2724 104.193 27.1791 104.678 26.9028C105.163 26.6268 105.536 26.1895 105.853 25.7302C106.331 25.0368 106.71 24.2547 106.808 23.418C106.905 22.5814 106.692 21.6843 106.116 21.0696C105.554 20.4696 104.564 20.0326 103.788 20.3916C103.006 20.7533 102.419 21.4764 102.12 22.2735Z" fill="#F8AB73"/>
<path d="M105.729 21.965C105.483 21.648 105.072 21.5232 104.701 21.5671C104.325 21.599 103.992 21.8213 103.756 22.1081C103.514 22.3963 103.357 22.746 103.261 23.1153C103.16 23.4845 103.119 23.8725 103.069 24.2637L102.834 24.1646C103.071 23.8831 103.419 23.6491 103.828 23.6753C104.027 23.6877 104.223 23.784 104.358 23.9249C104.495 24.0667 104.576 24.2457 104.616 24.4281C104.652 24.611 104.65 24.8033 104.592 24.9813C104.535 25.1585 104.437 25.3154 104.313 25.445C104.061 25.7004 103.736 25.8612 103.401 25.9344C103.719 25.8086 104.018 25.6255 104.22 25.3644C104.319 25.2343 104.4 25.0905 104.437 24.9372C104.475 24.786 104.466 24.6235 104.426 24.4742C104.344 24.173 104.102 23.9273 103.813 23.9205C103.524 23.9109 103.233 24.0914 103.04 24.3314L102.757 24.6837L102.806 24.2321C102.848 23.8394 102.903 23.4396 103.012 23.046C103.124 22.6548 103.308 22.2684 103.594 21.9645C103.876 21.6633 104.271 21.4373 104.692 21.4298C105.102 21.4241 105.535 21.6079 105.729 21.965Z" fill="#32338C"/>
<path d="M93.2888 19.7734C93.5072 20.8669 93.4964 22.0093 93.2975 23.114C93.0985 24.2192 92.7092 25.2937 92.1373 26.2566L92.1075 26.156C92.2712 26.2544 92.4414 26.3454 92.6209 26.4176C92.8002 26.4898 92.9867 26.547 93.1775 26.5926C92.9814 26.5822 92.7858 26.5484 92.5945 26.4963C92.4035 26.4442 92.2141 26.3775 92.0353 26.2868L91.9727 26.2551L92.0055 26.1862C92.4793 25.1895 92.8285 24.1424 93.0414 23.0655C93.2543 21.9884 93.3296 20.8858 93.2888 19.7734Z" fill="#32338C"/>
<path d="M92.5381 29.6643C92.7939 29.8284 93.0632 29.9429 93.339 29.9688C94.0904 30.0396 94.7991 29.353 95.2957 28.6997C94.2978 28.6313 93.2763 28.9891 92.5381 29.6643Z" fill="#FE632E"/>
<path d="M93.0583 28.4151C92.1002 28.316 90.6797 27.457 90.6797 27.457C90.6797 27.457 91.4909 28.9914 92.538 29.6634C93.276 28.9885 94.2977 28.6306 95.2956 28.6988C95.7266 28.1314 95.9981 27.5893 95.9981 27.5893C95.9981 27.5893 94.0164 28.5142 93.0583 28.4151Z" fill="#32338C"/>
<path d="M90.5138 22.0092C90.539 22.5199 90.2937 22.9471 89.9656 22.9634C89.6375 22.9798 89.3512 22.5787 89.326 22.068C89.3008 21.5573 89.5461 21.1301 89.8742 21.1138C90.202 21.0974 90.4886 21.4982 90.5138 22.0092Z" fill="#32328C"/>
<path d="M97.1876 22.1342C97.2128 22.6449 96.9675 23.0721 96.6394 23.0884C96.3113 23.1048 96.025 22.7037 95.9998 22.193C95.9746 21.6823 96.2199 21.2551 96.548 21.2388C96.8758 21.2224 97.1624 21.6235 97.1876 22.1342Z" fill="#32328C"/>
<path d="M87.9727 20.0249C88.0579 19.7144 88.2028 19.4175 88.3915 19.1386C88.4884 19.0016 88.5967 18.8691 88.7169 18.744C88.8403 18.6233 88.9751 18.5103 89.1211 18.408C89.2682 18.3065 89.4182 18.1985 89.5828 18.1088C89.7477 18.0209 89.9332 17.977 90.1211 17.9854C90.4929 18.0056 90.8851 18.1529 91.1128 18.5254L91.0843 18.6288C90.7219 18.8386 90.4912 18.9524 90.2565 19.0498C90.1413 19.0968 90.0268 19.1192 89.8999 19.1225C89.7727 19.1242 89.6385 19.1326 89.5137 19.171C89.3877 19.2087 89.2624 19.2581 89.1393 19.3186C89.0131 19.3748 88.8887 19.4424 88.768 19.5202C88.5215 19.6714 88.2909 19.8636 88.0646 20.0794L87.9727 20.0249Z" fill="#FE642E"/>
<path d="M98.2965 20.0794C98.0702 19.8634 97.8396 19.6712 97.5931 19.5202C97.4724 19.4424 97.348 19.3748 97.2218 19.3186C97.0989 19.2581 96.9734 19.2087 96.8474 19.171C96.7226 19.1326 96.5887 19.1242 96.4613 19.1225C96.3341 19.1192 96.2198 19.0968 96.1044 19.0498C95.8697 18.9524 95.639 18.8386 95.2766 18.6288L95.248 18.5254C95.4758 18.1529 95.868 18.0056 96.2397 17.9854C96.4279 17.977 96.6134 18.0209 96.778 18.1088C96.9427 18.1983 97.0927 18.3065 97.2398 18.408C97.3857 18.5103 97.5206 18.6233 97.644 18.744C97.7642 18.8691 97.8725 19.0016 97.9694 19.1386C98.1581 19.4175 98.303 19.7144 98.3882 20.0249L98.2965 20.0794Z" fill="#FE642E"/>
<path opacity="0.4" d="M90.181 26.3171C90.181 26.7251 89.6286 27.056 88.947 27.056C88.2654 27.056 87.7129 26.7253 87.7129 26.3171C87.7129 25.9091 88.2654 25.5781 88.947 25.5781C89.6286 25.5784 90.181 25.9091 90.181 26.3171Z" fill="#F8AB74"/>
<path opacity="0.4" d="M98.7396 26.3171C98.7396 26.7251 98.1872 27.056 97.5056 27.056C96.824 27.056 96.2715 26.7253 96.2715 26.3171C96.2715 25.9091 96.824 25.5781 97.5056 25.5781C98.1872 25.5784 98.7396 25.9091 98.7396 26.3171Z" fill="#F8AB74"/>
<path d="M87.8356 5.75781C87.6625 6.59949 87.7926 7.48125 88.1584 8.24061C88.515 9.00309 89.1028 9.66069 89.8386 10.0541C90.5795 10.4409 91.4329 10.5619 92.2765 10.577C93.1252 10.5895 93.9779 10.5319 94.8284 10.4544C96.53 10.32 98.2458 10.0891 99.9755 10.223C100.833 10.3003 101.714 10.5055 102.435 11.0138C102.786 11.2723 103.091 11.5951 103.309 11.9714C103.527 12.3461 103.651 12.7781 103.634 13.2077C103.622 12.7778 103.475 12.3641 103.249 12.0084C103.019 11.6522 102.709 11.3541 102.36 11.1221C101.655 10.6565 100.8 10.4798 99.9599 10.4287C98.2616 10.3392 96.5593 10.5645 94.8517 10.7213C93.9959 10.7909 93.1357 10.8413 92.2708 10.8204C91.4118 10.793 90.514 10.6752 89.74 10.2338C88.9729 9.79437 88.3823 9.09141 88.0393 8.29413C87.7028 7.49541 87.6028 6.58749 87.8356 5.75781Z" fill="#F8AB74"/>
<path d="M102.659 14.6767C102.513 13.6913 101.762 12.8921 100.88 12.5232C99.9858 12.1394 98.9764 12.1286 98.0255 12.2933C97.0672 12.4613 96.1374 12.7769 95.1887 13.05C94.2404 13.3219 93.2773 13.559 92.294 13.697C91.3117 13.8319 90.3071 13.8593 89.3185 13.723C88.3396 13.5816 87.3385 13.3042 86.5309 12.6838C85.7312 12.0713 85.1473 11.1883 84.9133 10.2154C84.6906 9.24241 84.802 8.19865 85.2421 7.31641C84.8581 8.22193 84.7825 9.24793 85.0408 10.183C85.2925 11.1185 85.8772 11.9544 86.654 12.5182C87.4357 13.08 88.3931 13.3553 89.3512 13.481C90.3136 13.6058 91.2937 13.5708 92.2576 13.4316C93.2243 13.3042 94.1783 13.0778 95.1224 12.8155C96.0656 12.5568 97.005 12.2309 97.9936 12.0902C98.9725 11.9462 100.017 11.9801 100.933 12.4037C101.387 12.6168 101.791 12.9324 102.1 13.3226C102.409 13.7112 102.619 14.1845 102.659 14.6767Z" fill="#F8AB74"/>
<path d="M101.654 14.2159C101.339 13.6975 100.789 13.3937 100.229 13.2974C99.662 13.2058 99.075 13.3109 98.5431 13.5338C98.0075 13.7515 97.5296 14.1024 97.0815 14.4871C96.6349 14.8754 96.2118 15.3024 95.7656 15.7056C96.1352 15.2321 96.5053 14.7583 96.9397 14.3333C97.3691 13.9078 97.8654 13.5254 98.4409 13.2859C98.7284 13.1705 99.0296 13.0853 99.3392 13.0464C99.6488 13.0133 99.9661 13.02 100.271 13.093C100.575 13.1645 100.866 13.2998 101.109 13.4914C101.347 13.6872 101.549 13.9325 101.654 14.2159Z" fill="#F8AB74"/>
<path d="M105.023 14.1649C105.364 14.0452 105.752 14.0761 106.097 14.205C106.444 14.3377 106.744 14.5813 106.975 14.872C107.438 15.4636 107.626 16.2174 107.649 16.947C107.664 17.6826 107.51 18.4136 107.231 19.0828C107.092 19.4173 106.93 19.7408 106.748 20.0514C106.559 20.3584 106.361 20.6579 106.14 20.9404C106.31 20.6248 106.485 20.3135 106.632 19.9895C106.788 19.6705 106.925 19.3439 107.038 19.01C107.264 18.344 107.401 17.6488 107.381 16.9537C107.365 16.2635 107.196 15.5629 106.81 14.9941C106.616 14.7121 106.358 14.4728 106.045 14.3245C105.737 14.1659 105.377 14.1049 105.023 14.1649Z" fill="#F8AB74"/>
<path d="M103.142 15.3053C103.392 15.2506 103.663 15.312 103.896 15.4313C104.131 15.5544 104.329 15.7462 104.478 15.9634C104.777 16.4036 104.927 16.9056 105.032 17.4099C105.127 17.9177 105.146 18.44 105.079 18.9502C105.046 19.2053 104.994 19.4573 104.92 19.7021C104.879 19.8238 104.838 19.9445 104.79 20.0626C104.767 20.12 104.746 20.185 104.704 20.2383C104.666 20.2887 104.592 20.3403 104.532 20.3038C104.598 20.3242 104.645 20.2668 104.67 20.2162C104.699 20.1644 104.708 20.1041 104.722 20.0417C104.751 19.9196 104.772 19.7957 104.791 19.6726C104.834 19.4268 104.857 19.1789 104.87 18.932C104.893 18.4378 104.864 17.9429 104.768 17.4605C104.674 16.9805 104.539 16.4945 104.302 16.0767C104.18 15.8696 104.026 15.6819 103.828 15.5434C103.634 15.398 103.395 15.3118 103.142 15.3053Z" fill="#F8AB74"/>
<path d="M46.6914 22.6282L16.6006 26.5117L20.8218 59.2192L50.9126 55.3358L46.6914 22.6282Z" fill="#EEEEFF"/>
<path d="M45.7715 15.5033L15.6807 19.3867L16.6005 26.5143L46.6914 22.6309L45.7715 15.5033Z" fill="#7B55D3"/>
<path d="M16.6012 26.5142L12.5039 27.043L16.7251 59.7505L20.8223 59.2217L16.6012 26.5142Z" fill="#FFA95C"/>
<path d="M15.6812 19.3853L11.584 19.9141L12.5039 27.0417L16.6011 26.5129L15.6812 19.3853Z" fill="#FFA95C"/>
<path d="M23.5253 27.9612L18.9268 28.5547L19.7326 34.7985L24.3311 34.205L23.5253 27.9612Z" fill="#FEFFFD"/>
<path d="M28.9833 27.2542L24.3848 27.8477L25.1906 34.0915L29.7891 33.498L28.9833 27.2542Z" fill="#FEFFFD"/>
<path d="M34.4403 26.5511L29.8418 27.1445L30.6476 33.3883L35.2462 32.7949L34.4403 26.5511Z" fill="#FEFFFD"/>
<path d="M39.8983 25.8479L35.2998 26.4414L36.1056 32.6852L40.7042 32.0917L39.8983 25.8479Z" fill="#FEFFFD"/>
<path d="M45.3563 25.1409L40.7578 25.7344L41.5636 31.9782L46.1622 31.3847L45.3563 25.1409Z" fill="#FEFFFD"/>
<path d="M24.4364 35.0198L19.8379 35.6133L20.6437 41.8571L25.2422 41.2636L24.4364 35.0198Z" fill="#FEFFFD"/>
<path d="M29.8944 34.3167L25.2959 34.9102L26.1017 41.154L30.7003 40.5605L29.8944 34.3167Z" fill="#FEFFFD"/>
<path d="M35.3515 33.6096L30.7529 34.2031L31.5587 40.4469L36.1573 39.8535L35.3515 33.6096Z" fill="#FEFFFD"/>
<path d="M40.8095 32.9065L36.2109 33.5L37.0168 39.7438L41.6153 39.1503L40.8095 32.9065Z" fill="#FEFFFD"/>
<path d="M46.2675 32.2034L41.6689 32.7969L42.4748 39.0407L47.0733 38.4472L46.2675 32.2034Z" fill="#FEFFFD"/>
<path d="M25.3476 42.0784L20.749 42.6719L21.5548 48.9157L26.1534 48.3222L25.3476 42.0784Z" fill="#FEFFFD"/>
<path d="M30.8046 41.3753L26.2061 41.9688L27.0119 48.2126L31.6104 47.6191L30.8046 41.3753Z" fill="#FEFFFD"/>
<path d="M36.2636 40.6682L31.665 41.2617L32.4709 47.5055L37.0694 46.9121L36.2636 40.6682Z" fill="#FEFFFD"/>
<path d="M41.7206 39.9651L37.1221 40.5586L37.9279 46.8024L42.5264 46.2089L41.7206 39.9651Z" fill="#FEFFFD"/>
<path d="M47.1786 39.262L42.5801 39.8555L43.3859 46.0993L47.9844 45.5058L47.1786 39.262Z" fill="#FEFFFD"/>
<path d="M26.2587 49.137L21.6602 49.7305L22.466 55.9743L27.0645 55.3808L26.2587 49.137Z" fill="#FEFFFD"/>
<path d="M31.7167 48.4339L27.1182 49.0273L27.924 55.2712L32.5225 54.6777L31.7167 48.4339Z" fill="#FEFFFD"/>
<path d="M37.1737 47.7307L32.5752 48.3242L33.381 54.568L37.9796 53.9746L37.1737 47.7307Z" fill="#FEFFFD"/>
<path d="M42.6317 47.0237L38.0332 47.6172L38.839 53.861L43.4376 53.2675L42.6317 47.0237Z" fill="#FEFFFD"/>
<path d="M48.0898 46.3206L43.4912 46.9141L44.297 53.1579L48.8956 52.5644L48.0898 46.3206Z" fill="#FEFFFD"/>
<path d="M14.0014 19.603L13.74 17.5781C13.5761 16.3083 14.4728 15.1459 15.7426 14.9823L17.1504 14.8006C18.4203 14.6367 19.5826 15.5333 19.7463 16.8031L20.1965 20.293C20.3604 21.5628 19.4638 22.7251 18.194 22.8888" stroke="#C1AFEA" stroke-miterlimit="10" stroke-linecap="round" stroke-linejoin="round"/>
<path d="M18.016 19.0834L17.7547 17.0586C17.5908 15.7887 18.4874 14.6264 19.7572 14.4627L21.1651 14.2811C22.4349 14.1171 23.5972 15.0138 23.7609 16.2836L24.2112 19.7734C24.3751 21.0433 23.4784 22.2054 22.2086 22.3693" stroke="#C1AFEA" stroke-miterlimit="10" stroke-linecap="round" stroke-linejoin="round"/>
<path d="M22.0317 18.5639L21.7703 16.539C21.6064 15.2692 22.503 14.1069 23.7729 13.9432L25.1807 13.7615C26.4505 13.5976 27.6129 14.4942 27.7765 15.7641L28.2268 19.2539C28.3907 20.5238 27.4941 21.6861 26.2242 21.8498" stroke="#C1AFEA" stroke-miterlimit="10" stroke-linecap="round" stroke-linejoin="round"/>
<path d="M26.0463 18.0483L25.785 16.0234C25.621 14.7536 26.5177 13.5915 27.7875 13.4276L29.1954 13.2459C30.4652 13.082 31.6273 13.9786 31.7912 15.2485L32.2414 18.7383C32.4054 20.0081 31.5087 21.1705 30.2389 21.3341" stroke="#C1AFEA" stroke-miterlimit="10" stroke-linecap="round" stroke-linejoin="round"/>
<path d="M30.061 17.5288L29.7996 15.5039C29.6357 14.234 30.5323 13.0717 31.8022 12.908L33.21 12.7264C34.4798 12.5624 35.6419 13.4591 35.8058 14.7289L36.2561 18.2188C36.42 19.4886 35.5234 20.6507 34.2535 20.8146" stroke="#C1AFEA" stroke-miterlimit="10" stroke-linecap="round" stroke-linejoin="round"/>
<path d="M34.0756 17.0131L33.8143 14.9883C33.6503 13.7184 34.547 12.5561 35.8168 12.3924L37.2247 12.2107C38.4945 12.0468 39.6566 12.9435 39.8205 14.2133L40.2707 17.7031C40.4347 18.973 39.538 20.1353 38.2682 20.299" stroke="#C1AFEA" stroke-miterlimit="10" stroke-linecap="round" stroke-linejoin="round"/>
<path d="M38.0912 16.4936L37.8299 14.4687C37.666 13.1989 38.5626 12.0368 39.8324 11.8729L41.2403 11.6912C42.5101 11.5273 43.6722 12.4239 43.8361 13.6938L44.2864 17.1836C44.4503 18.4534 43.5536 19.6158 42.2838 19.7794" stroke="#C1AFEA" stroke-miterlimit="10" stroke-linecap="round" stroke-linejoin="round"/>
<path d="M59.5842 98.1841C79.8959 98.1841 96.3618 81.7182 96.3618 61.4065C96.3618 41.0948 79.8959 24.6289 59.5842 24.6289C39.2725 24.6289 22.8066 41.0948 22.8066 61.4065C22.8066 81.7182 39.2725 98.1841 59.5842 98.1841Z" fill="#32338C"/>
<path d="M61.3147 98.1841C81.6264 98.1841 98.0923 81.7182 98.0923 61.4065C98.0923 41.0948 81.6264 24.6289 61.3147 24.6289C41.003 24.6289 24.5371 41.0948 24.5371 61.4065C24.5371 81.7182 41.003 98.1841 61.3147 98.1841Z" fill="#7B55D3"/>
<path d="M67.0494 79.5658C73.6864 76.8884 79.7099 72.4344 83.6173 66.4388C88.1558 59.4752 89.5259 51.0303 89.1282 42.63C83.0965 33.7133 72.8901 27.8516 61.3144 27.8516C42.7823 27.8516 27.7588 42.8748 27.7588 61.4072C27.7588 67.55 29.4107 73.3064 32.2926 78.2588C43.0626 83.3508 55.971 84.0351 67.0494 79.5658Z" fill="white"/>
<path d="M89.1281 42.6289C89.5255 51.0291 88.1554 59.474 83.6172 66.4376C79.7098 72.4333 73.6862 76.8872 67.0493 79.5647C55.9709 84.034 43.0625 83.3495 32.293 78.2579C38.1055 88.2464 48.9252 94.9616 61.3145 94.9616C79.8468 94.9616 94.8701 79.9383 94.8701 61.406C94.8701 54.4494 92.7528 47.9874 89.1281 42.6289Z" fill="#EEEEFF"/>
<path d="M60.9479 61.8387L45.1611 47.7656L61.6803 60.9711L60.9479 61.8387Z" fill="#32338C"/>
<path d="M61.9431 61.0078L69.2286 87.7532L60.6855 61.8034L61.9431 61.0078Z" fill="#32338C"/>
<path d="M61.3143 63.8942C62.6874 63.8942 63.8004 62.7811 63.8004 61.408C63.8004 60.035 62.6874 58.9219 61.3143 58.9219C59.9412 58.9219 58.8281 60.035 58.8281 61.408C58.8281 62.7811 59.9412 63.8942 61.3143 63.8942Z" fill="#FE814B"/>
<path d="M61.3145 27.8516V34.9846" stroke="#29CC99" stroke-width="3.8829" stroke-miterlimit="10" stroke-linecap="round" stroke-linejoin="round"/>
<path d="M61.3145 87.8281V94.9612" stroke="#29CC99" stroke-width="3.8829" stroke-miterlimit="10" stroke-linecap="round" stroke-linejoin="round"/>
<path d="M94.8694 61.4062H87.7363" stroke="#29CC99" stroke-width="3.8829" stroke-miterlimit="10" stroke-linecap="round" stroke-linejoin="round"/>
<path d="M34.8921 61.4062H27.7588" stroke="#29CC99" stroke-width="3.8829" stroke-miterlimit="10" stroke-linecap="round" stroke-linejoin="round"/>
<path d="M32.9912 43.4141L39.0123 47.2389" stroke="#29CC99" stroke-width="3.8829" stroke-miterlimit="10" stroke-linecap="round" stroke-linejoin="round"/>
<path d="M83.6172 75.5742L89.6381 79.3991" stroke="#29CC99" stroke-width="3.8829" stroke-miterlimit="10" stroke-linecap="round" stroke-linejoin="round"/>
<path d="M79.3083 33.082L75.4834 39.1029" stroke="#29CC99" stroke-width="3.8829" stroke-miterlimit="10" stroke-linecap="round" stroke-linejoin="round"/>
<path d="M47.1462 83.707L43.3213 89.7279" stroke="#29CC99" stroke-width="3.8829" stroke-miterlimit="10" stroke-linecap="round" stroke-linejoin="round"/>
<path d="M89.6381 43.4141L83.6172 47.2389" stroke="#29CC99" stroke-width="3.8829" stroke-miterlimit="10" stroke-linecap="round" stroke-linejoin="round"/>
<path d="M39.0123 75.5742L32.9912 79.3991" stroke="#29CC99" stroke-width="3.8829" stroke-miterlimit="10" stroke-linecap="round" stroke-linejoin="round"/>
<path d="M43.3213 33.082L47.1462 39.1029" stroke="#29CC99" stroke-width="3.8829" stroke-miterlimit="10" stroke-linecap="round" stroke-linejoin="round"/>
<path d="M75.4834 83.707L79.3083 89.7279" stroke="#29CC99" stroke-width="3.8829" stroke-miterlimit="10" stroke-linecap="round" stroke-linejoin="round"/>
<path d="M42.7725 79.9177L10.3877 92.1914L17.1336 109.991L49.5184 97.7169L42.7725 79.9177Z" fill="#F8AB74"/>
<path d="M29.95 94.9579L10.3848 92.1945L30.7468 97.0608L42.7701 79.9219L29.95 94.9579Z" fill="#FE814B"/>
<path d="M108.328 75.9575L78.1357 68.832L68.9444 107.778L99.1369 114.904L108.328 75.9575Z" fill="#32338C"/>
<path d="M108.888 76.0903L78.6953 68.9648L69.504 107.911L99.6965 115.036L108.888 76.0903Z" fill="#C1AFEA"/>
<path d="M105.528 79.2711L80.2793 73.3125L72.5124 106.223L97.7606 112.182L105.528 79.2711Z" fill="white"/>
<path d="M99.2811 69.4604L90.242 67.3268C88.7905 66.9841 87.3361 67.8831 86.9934 69.3346L86.6377 70.8416L100.933 74.216L101.289 72.709C101.632 71.2575 100.733 69.8031 99.2811 69.4604Z" fill="#32338C"/>
<path d="M86.2721 79.8448C85.9555 81.1852 84.6125 82.0154 83.2721 81.6991C81.9317 81.3827 81.1015 80.0395 81.4178 78.6988C81.7344 77.3584 83.0774 76.5283 84.4178 76.8446C85.7585 77.1611 86.5886 78.5042 86.2721 79.8448Z" fill="#EEEEFE"/>
<path d="M82.6807 78.2134L83.7227 79.8997L86.7206 78.0469" stroke="#29CC99" stroke-width="0.5" stroke-miterlimit="10" stroke-linecap="round" stroke-linejoin="round"/>
<path d="M88.7051 78.8164L102.446 82.06" stroke="#C1AFEA" stroke-width="0.5" stroke-miterlimit="10" stroke-linecap="round" stroke-linejoin="round"/>
<path d="M88.3467 80.332L102.088 83.5756" stroke="#C1AFEA" stroke-width="0.5" stroke-miterlimit="10" stroke-linecap="round" stroke-linejoin="round"/>
<path d="M87.9883 81.8516L101.729 85.0952" stroke="#C1AFEA" stroke-width="0.5" stroke-miterlimit="10" stroke-linecap="round" stroke-linejoin="round"/>
<path d="M84.4478 87.575C84.1315 88.9154 82.7882 89.7456 81.4478 89.4293C80.1074 89.113 79.2773 87.7697 79.5936 86.4293C79.9099 85.0889 81.2532 84.2587 82.5936 84.575C83.934 84.8914 84.7642 86.2344 84.4478 87.575Z" fill="#EEEEFE"/>
<path d="M80.8564 85.9439L81.8985 87.6299L84.8961 85.7773" stroke="#29CC99" stroke-width="0.5" stroke-miterlimit="10" stroke-linecap="round" stroke-linejoin="round"/>
<path d="M86.8809 86.5469L100.622 89.7905" stroke="#C1AFEA" stroke-width="0.5" stroke-miterlimit="10" stroke-linecap="round" stroke-linejoin="round"/>
<path d="M86.5225 88.0625L100.264 91.3061" stroke="#C1AFEA" stroke-width="0.5" stroke-miterlimit="10" stroke-linecap="round" stroke-linejoin="round"/>
<path d="M86.1641 89.582L99.905 92.8256" stroke="#C1AFEA" stroke-width="0.5" stroke-miterlimit="10" stroke-linecap="round" stroke-linejoin="round"/>
<path d="M82.6239 95.3016C82.3075 96.642 80.9643 97.4722 79.6236 97.1558C78.2832 96.8395 77.4531 95.4962 77.7694 94.1558C78.0857 92.8154 79.429 91.9853 80.7694 92.3016C82.11 92.6179 82.9402 93.9612 82.6239 95.3016Z" fill="#EEEEFE"/>
<path d="M79.0322 93.6705L80.0743 95.3565L83.0719 93.5039" stroke="#29CC99" stroke-width="0.5" stroke-miterlimit="10" stroke-linecap="round" stroke-linejoin="round"/>
<path d="M85.0566 94.2734L98.7978 97.517" stroke="#C1AFEA" stroke-width="0.5" stroke-miterlimit="10" stroke-linecap="round" stroke-linejoin="round"/>
<path d="M84.6982 95.7891L98.4392 99.0327" stroke="#C1AFEA" stroke-width="0.5" stroke-miterlimit="10" stroke-linecap="round" stroke-linejoin="round"/>
<path d="M84.3398 97.3086L98.081 100.552" stroke="#C1AFEA" stroke-width="0.5" stroke-miterlimit="10" stroke-linecap="round" stroke-linejoin="round"/>
<path d="M102.558 76.9983L83.941 72.6037C83.354 72.4652 82.9904 71.877 83.1291 71.2899L83.4142 70.082L104.157 74.9785L103.872 76.1864C103.733 76.7735 103.145 77.1371 102.558 76.9983Z" fill="#C1AFEA"/>
<path d="M80.8563 103.044C80.5397 104.384 79.1967 105.215 77.856 104.898C76.5156 104.582 75.6855 103.239 76.0018 101.898C76.3181 100.558 77.6614 99.7275 79.0018 100.044C80.3427 100.36 81.1728 101.703 80.8563 103.044Z" fill="#EEEEFE"/>
<path d="M77.2646 101.413L78.307 103.099L81.3046 101.246" stroke="#29CC99" stroke-width="0.5" stroke-miterlimit="10" stroke-linecap="round" stroke-linejoin="round"/>
<path d="M83.2891 102.016L97.03 105.259" stroke="#C1AFEA" stroke-width="0.5" stroke-miterlimit="10" stroke-linecap="round" stroke-linejoin="round"/>
<path d="M82.9307 103.531L96.6719 106.775" stroke="#C1AFEA" stroke-width="0.5" stroke-miterlimit="10" stroke-linecap="round" stroke-linejoin="round"/>
<path d="M82.5723 105.051L96.3132 108.294" stroke="#C1AFEA" stroke-width="0.5" stroke-miterlimit="10" stroke-linecap="round" stroke-linejoin="round"/>
<path d="M100.002 40.6172C99.6723 41.4099 99.2727 42.1625 98.8556 42.9051C98.4315 43.6438 97.9897 44.3725 97.4766 45.0608C97.8051 44.2678 98.205 43.5152 98.6226 42.7729C99.0471 42.0344 99.489 41.3057 100.002 40.6172Z" fill="white"/>
<path d="M103.538 51.6185C103.538 51.6185 101.116 55.4194 98.7188 58.2504C96.3214 61.0815 92.941 64.2562 92.941 64.2562L74.8604 56.6823L77.5145 50.4893L90.7522 54.5796L98.3789 43.7852L103.538 51.6185Z" fill="#7B55D3"/>
<path d="M74.6633 49.291L77.5143 50.4891L75.6449 54.8511L73.7916 54.2197L69.7011 54.3874L68.5001 53.787C68.0588 53.5662 67.8912 53.0214 68.1327 52.5908L68.4603 52.0069L68.1701 51.7803C67.7564 51.4573 67.724 50.8429 68.1012 50.4778L68.4267 50.1627L67.9856 49.5651C67.6709 49.1389 67.8101 48.5326 68.2793 48.2864L68.7286 48.0505L68.5832 47.2568C68.5006 46.8063 68.7836 46.3695 69.2285 46.261C69.805 46.1204 70.4144 46.2387 70.8965 46.585L74.6633 49.291Z" fill="#F8AB72"/>
<path d="M74.7139 49.5819C73.8463 47.7248 72.9648 45.8163 72.8073 43.7727C72.7996 43.6729 72.7864 43.5594 72.7046 43.5015C72.6571 43.4679 72.5961 43.4615 72.538 43.461C72.0583 43.4567 71.6193 43.8128 71.4477 44.2607C71.2761 44.7085 71.3431 45.2233 71.5471 45.6575C71.592 45.753 71.6445 45.8511 71.64 45.9567C71.6361 46.0479 71.5898 46.131 71.5447 46.2104C71.3937 46.4759 71.2428 46.7413 71.0918 47.0067C72.0367 48.1559 73.3084 49.0931 74.7139 49.5819Z" fill="#F8AB72"/>
<path d="M73.0581 48.3448C72.886 48.2377 72.7236 48.1194 72.5623 47.9992C72.4001 47.8804 72.2448 47.7532 72.0893 47.6262C71.9359 47.4966 71.7828 47.367 71.6361 47.2292C71.4888 47.0927 71.3426 46.9544 71.2061 46.8047C71.3781 46.9115 71.5409 47.03 71.7021 47.15C71.8644 47.2691 72.0197 47.396 72.1752 47.5232C72.3285 47.6528 72.4817 47.7824 72.6283 47.9202C72.7754 48.057 72.9213 48.1952 73.0581 48.3448Z" fill="#7B55D3"/>
<path d="M72.1187 23.9531L76.4941 25.6422C77.0619 25.8614 77.4135 26.4328 77.3535 27.0386L77.1325 29.265L75.6183 31.7471C75.6183 31.7471 74.9977 31.5734 75.2211 30.8783C75.4446 30.1833 76.1893 28.3216 76.1893 28.3216V27.0062C76.1893 27.0062 75.4719 30.0419 74.787 30.6052C74.102 31.1685 71.6245 30.0681 70.9544 29.5221C70.6275 29.2557 71.2086 28.3965 71.2878 27.1154C71.3706 25.7694 70.9866 24.0042 72.1187 23.9531Z" fill="#F8AB74"/>
<path d="M74.9168 24.9727C74.991 25.4757 75.0039 25.9881 74.9686 26.4974C74.9338 27.0069 74.8417 27.5121 74.7128 28.0065C74.5734 28.4983 74.3963 28.9802 74.168 29.4371C73.9398 29.8939 73.669 30.329 73.3496 30.7247C73.6234 30.2968 73.8685 29.8535 74.0746 29.393C74.2808 28.9327 74.456 28.4587 74.5834 27.9715C74.7212 27.4869 74.81 26.9894 74.8662 26.4883C74.9223 25.9867 74.936 25.4803 74.9168 24.9727Z" fill="#7B55D3"/>
<path d="M73.2515 24.3945C73.2983 24.8897 73.2956 25.3896 73.2563 25.8866C73.2171 26.3841 73.1319 26.8773 73.0199 27.3638C72.897 27.8477 72.7472 28.3255 72.5535 28.7853C72.4544 29.0143 72.3507 29.2409 72.2367 29.4624C72.176 29.5716 72.1215 29.6825 72.0551 29.7895C71.9898 29.8946 71.9012 29.9995 71.7793 30.0357C71.8955 29.9853 71.9675 29.8783 72.0241 29.7717C72.0803 29.6628 72.1261 29.5464 72.1775 29.4341C72.2787 29.2082 72.3709 28.9788 72.4575 28.7474C72.6294 28.2845 72.7782 27.8131 72.8895 27.3324C73.0112 26.8541 73.0935 26.3669 73.154 25.8768C73.2143 25.3862 73.2431 24.8916 73.2515 24.3945Z" fill="#7B55D3"/>
</svg>
