<svg width="40" height="40" viewBox="0 0 40 40" fill="none" xmlns="http://www.w3.org/2000/svg">
<circle cx="20" cy="20" r="20" fill="#7B55D3" fill-opacity="0.1"/>
<path d="M18.7516 24.8594V26.8894C18.7516 28.6094 17.1516 29.9994 15.1816 29.9994C13.2116 29.9994 11.6016 28.6094 11.6016 26.8894V24.8594C11.6016 26.5794 13.2016 27.7994 15.1816 27.7994C17.1516 27.7994 18.7516 26.5694 18.7516 24.8594Z" stroke="#7B55D3" stroke-width="1.5" stroke-linecap="round" stroke-linejoin="round"/>
<path d="M18.7498 22.1097C18.7498 22.6097 18.6098 23.0697 18.3698 23.4697C17.7798 24.4397 16.5698 25.0497 15.1698 25.0497C13.7698 25.0497 12.5598 24.4297 11.9698 23.4697C11.7298 23.0697 11.5898 22.6097 11.5898 22.1097C11.5898 21.2497 11.9898 20.4797 12.6298 19.9197C13.2798 19.3497 14.1698 19.0098 15.1598 19.0098C16.1498 19.0098 17.0398 19.3597 17.6898 19.9197C18.3498 20.4697 18.7498 21.2497 18.7498 22.1097Z" stroke="#7B55D3" stroke-width="1.5" stroke-linecap="round" stroke-linejoin="round"/>
<path d="M18.7516 22.11V24.86C18.7516 26.58 17.1516 27.8 15.1816 27.8C13.2116 27.8 11.6016 26.57 11.6016 24.86V22.11C11.6016 20.39 13.2016 19 15.1816 19C16.1716 19 17.0616 19.35 17.7116 19.91C18.3516 20.47 18.7516 21.25 18.7516 22.11Z" stroke="#7B55D3" stroke-width="1.5" stroke-linecap="round" stroke-linejoin="round"/>
<path d="M30.0002 18.9692V21.0292C30.0002 21.5792 29.5602 22.0292 29.0002 22.0492H27.0402C25.9602 22.0492 24.9702 21.2592 24.8802 20.1792C24.8202 19.5492 25.0602 18.9592 25.4802 18.5492C25.8502 18.1692 26.3602 17.9492 26.9202 17.9492H29.0002C29.5602 17.9692 30.0002 18.4192 30.0002 18.9692Z" stroke="#7B55D3" stroke-width="1.5" stroke-linecap="round" stroke-linejoin="round"/>
<path d="M10 18.5V16.5C10 13.78 11.64 11.88 14.19 11.56C14.45 11.52 14.72 11.5 15 11.5H24C24.26 11.5 24.51 11.51 24.75 11.55C27.33 11.85 29 13.76 29 16.5V17.95H26.92C26.36 17.95 25.85 18.17 25.48 18.55C25.06 18.96 24.82 19.55 24.88 20.18C24.97 21.26 25.96 22.05 27.04 22.05H29V23.5C29 26.5 27 28.5 24 28.5H21.5" stroke="#7B55D3" stroke-width="1.5" stroke-linecap="round" stroke-linejoin="round"/>
</svg>
