<svg width="112" height="98" viewBox="0 0 112 98" fill="none" xmlns="http://www.w3.org/2000/svg">
<path d="M121.726 86.125H-9.7998V86.1908H121.726V86.125Z" fill="#EBEBEB"/>
<path d="M108.547 90.3555H99.835V90.4212H108.547V90.3555Z" fill="#EBEBEB"/>
<path d="M77.3279 91.0703H75.042V91.1361H77.3279V91.0703Z" fill="#EBEBEB"/>
<path d="M99.5704 87.9141H94.5225V87.9798H99.5704V87.9141Z" fill="#EBEBEB"/>
<path d="M15.3612 88.3555H4V88.4212H15.3612V88.3555Z" fill="#EBEBEB"/>
<path d="M19.3692 88.3555H17.7041V88.4212H19.3692V88.3555Z" fill="#EBEBEB"/>
<path d="M49.4258 89.4648H24.7832V89.5306H49.4258V89.4648Z" fill="#EBEBEB"/>
<path d="M52.5429 74.3909H1.75037C1.35246 74.3902 0.971094 74.2316 0.689978 73.95C0.408863 73.6684 0.250976 73.2868 0.250977 72.8889V1.48887C0.25444 1.09325 0.413856 0.714968 0.694597 0.436196C0.975339 0.157425 1.35473 0.000677722 1.75037 0H52.5429C52.9413 0 53.3233 0.158248 53.605 0.439932C53.8867 0.721616 54.0449 1.10366 54.0449 1.50202V72.8889C54.0449 73.2872 53.8867 73.6693 53.605 73.951C53.3233 74.2326 52.9413 74.3909 52.5429 74.3909ZM1.75037 0.0526104C1.3699 0.0533073 1.00526 0.204934 0.73648 0.474209C0.467698 0.743485 0.316739 1.10841 0.316739 1.48887V72.8889C0.316739 73.2693 0.467698 73.6342 0.73648 73.9035C1.00526 74.1728 1.3699 74.3244 1.75037 74.3251H52.5429C52.9236 74.3244 53.2885 74.1729 53.5577 73.9037C53.8269 73.6345 53.9785 73.2696 53.9792 72.8889V1.48887C53.9785 1.10816 53.8269 0.743249 53.5577 0.474049C53.2885 0.204849 52.9236 0.0533058 52.5429 0.0526104H1.75037Z" fill="#EBEBEB"/>
<path d="M109.444 74.3909H58.6485C58.2504 74.3902 57.8687 74.2317 57.5872 73.9502C57.3057 73.6686 57.1472 73.287 57.1465 72.8889V1.48887C57.1506 1.09301 57.3106 0.71473 57.5918 0.436032C57.873 0.157333 58.2526 0.000670331 58.6485 0H109.444C109.839 0.00136905 110.218 0.158422 110.498 0.43712C110.778 0.715817 110.937 1.0937 110.94 1.48887V72.8889C110.94 73.2863 110.783 73.6676 110.502 73.9491C110.222 74.2306 109.841 74.3895 109.444 74.3909ZM58.6485 0.0526104C58.2678 0.0533058 57.9029 0.204849 57.6337 0.474049C57.3645 0.743249 57.2129 1.10816 57.2122 1.48887V72.8889C57.2129 73.2696 57.3645 73.6345 57.6337 73.9037C57.9029 74.1729 58.2678 74.3244 58.6485 74.3251H109.444C109.824 74.3244 110.189 74.1729 110.459 73.9037C110.728 73.6345 110.879 73.2696 110.88 72.8889V1.48887C110.879 1.10816 110.728 0.743249 110.459 0.474049C110.189 0.204849 109.824 0.0533058 109.444 0.0526104H58.6485Z" fill="#EBEBEB"/>
<path d="M84.7188 35.5783C92.3344 35.5783 98.508 29.4047 98.508 21.7891C98.508 14.1736 92.3344 8 84.7188 8C77.1033 8 70.9297 14.1736 70.9297 21.7891C70.9297 29.4047 77.1033 35.5783 84.7188 35.5783Z" fill="#E0E0E0"/>
<path d="M83.6719 35.5783C91.2875 35.5783 97.4611 29.4047 97.4611 21.7891C97.4611 14.1736 91.2875 8 83.6719 8C76.0564 8 69.8828 14.1736 69.8828 21.7891C69.8828 29.4047 76.0564 35.5783 83.6719 35.5783Z" fill="#F5F5F5"/>
<path d="M92.6853 30.8049C97.6624 25.8278 97.6624 17.7582 92.6853 12.781C87.7081 7.80385 79.6385 7.80385 74.6614 12.781C69.6842 17.7582 69.6842 25.8278 74.6614 30.8049C79.6385 35.7821 87.7081 35.7821 92.6853 30.8049Z" fill="white"/>
<path d="M85.8457 31.0599C85.7763 31.06 85.709 31.0367 85.6545 30.9937C85.6001 30.9508 85.5618 30.8907 85.5458 30.8232L83.373 21.8584C83.3576 21.7801 83.373 21.6988 83.416 21.6315C83.459 21.5643 83.5263 21.5161 83.6039 21.4972C83.6814 21.4782 83.7633 21.4899 83.8325 21.5297C83.9017 21.5695 83.9528 21.6345 83.9754 21.7111L86.1455 30.6785C86.1645 30.7584 86.1511 30.8425 86.1083 30.9125C86.0654 30.9825 85.9965 31.0327 85.9167 31.052C85.8934 31.0573 85.8696 31.0599 85.8457 31.0599Z" fill="#F5F5F5"/>
<path d="M83.6723 22.409C83.5912 22.409 83.5108 22.393 83.4359 22.3618C83.3609 22.3307 83.2929 22.285 83.2356 22.2275L75.7781 14.77C75.7208 14.7125 75.6753 14.6442 75.6444 14.5691C75.6134 14.494 75.5975 14.4136 75.5977 14.3324C75.5979 14.1684 75.6633 14.0111 75.7795 13.8953C75.8956 13.7795 76.053 13.7146 76.2171 13.7148C76.3811 13.7151 76.5383 13.7805 76.6541 13.8966L83.6723 20.9175L87.768 16.8218C87.8842 16.706 88.0416 16.641 88.2056 16.6413C88.3696 16.6415 88.5269 16.7069 88.6427 16.8231C88.7585 16.9393 88.8234 17.0967 88.8232 17.2607C88.8229 17.4247 88.7575 17.5819 88.6414 17.6977L84.109 22.2275C83.9932 22.3435 83.8362 22.4087 83.6723 22.409Z" fill="#EBEBEB"/>
<path d="M48.4658 84.2031H50.5439V69.9721H48.4658V84.2031Z" fill="#F0F0F0"/>
<path d="M6.43328 86.125H49.1738V84.2047H6.43328V86.125Z" fill="#F0F0F0"/>
<path d="M48.4656 69.9727H5.05957V84.2037H48.4656V69.9727Z" fill="#F5F5F5"/>
<path d="M45.6561 72.4492H7.86621V80.5775H45.6561V72.4492Z" fill="#F0F0F0"/>
<path d="M17.5703 73.5391H35.9576C36.3019 73.5391 36.5811 73.2599 36.5811 72.9156V72.7999C36.5811 72.4556 36.3019 72.1765 35.9576 72.1765H17.5703C17.226 72.1765 16.9469 72.4556 16.9469 72.7999V72.9156C16.9469 73.2599 17.226 73.5391 17.5703 73.5391Z" fill="#F5F5F5"/>
<path d="M4.1075 69.9727H48.4658V68.7021H4.1075V69.9727Z" fill="#F0F0F0"/>
<path d="M51.5409 68.6992H48.4658V69.9698H51.5409V68.6992Z" fill="#E6E6E6"/>
<path d="M103.231 54.9492H99.1797V86.126H103.231V54.9492Z" fill="#F0F0F0"/>
<path d="M63.723 86.125H99.1797V54.9482H63.723L63.723 86.125Z" fill="#F5F5F5"/>
<path d="M63.3988 83.3828H94.5283V66.708H63.3988V83.3828Z" fill="#FAFAFA"/>
<path d="M63.3988 64.9414H94.5283V59.4515H63.3988V64.9414Z" fill="#FAFAFA"/>
<g style="mix-blend-mode:multiply" opacity="0.7">
<path d="M94.8072 66.7109H94.5283V83.3857H94.8072V66.7109Z" fill="#E6E6E6"/>
</g>
<g style="mix-blend-mode:multiply" opacity="0.7">
<path d="M94.8072 59.4531H94.5283V64.943H94.8072V59.4531Z" fill="#E6E6E6"/>
</g>
<g style="mix-blend-mode:multiply" opacity="0.7">
<path d="M103.231 56.2617H63.6338V56.9667H103.231V56.2617Z" fill="#E6E6E6"/>
</g>
<path d="M103.704 54.5195H99.1797V56.5582H103.704V54.5195Z" fill="#F0F0F0"/>
<path d="M63.2495 56.5586L99.1797 56.5586V54.5199L63.2495 54.5199V56.5586Z" fill="#F5F5F5"/>
<path d="M76.728 48.5197C76.4836 48.1347 76.3223 47.7028 76.2545 47.2518C76.1831 46.8013 76.1602 46.3445 76.1861 45.8892C76.2424 44.9832 76.4358 44.091 76.7595 43.2429C76.9136 42.8221 77.0892 42.4094 77.2856 42.0066C77.4961 41.612 77.7065 41.2174 77.9433 40.8413C78.18 40.4651 78.4404 40.1021 78.7087 39.7496C78.9771 39.3971 79.2796 39.0683 79.5926 38.75C79.44 39.1735 79.2585 39.5733 79.0665 39.9732C78.8745 40.373 78.7245 40.7755 78.5404 41.1648L78.0301 42.3485L77.796 42.9457L77.6749 43.2429L77.5697 43.5428C77.2692 44.3332 77.0309 45.1459 76.8569 45.9734C76.7665 46.3869 76.7049 46.8061 76.6727 47.2281C76.6335 47.6592 76.652 48.0936 76.728 48.5197Z" fill="#E6E6E6"/>
<path d="M71.6228 49.2163C71.6566 48.5812 71.6009 47.9445 71.4571 47.325C71.3225 46.7602 71.0587 46.2343 70.6864 45.7888C70.2894 45.3473 69.8196 44.9771 69.2974 44.6945C68.7582 44.3815 68.1637 44.1368 67.5508 43.8475C68.2319 43.7748 68.9206 43.8484 69.571 44.0632C69.907 44.1732 70.2285 44.3233 70.5285 44.5104C70.8353 44.7079 71.1125 44.9479 71.3519 45.2232C71.8296 45.7866 72.1071 46.4924 72.141 47.2303C72.1773 47.9299 71.9963 48.6236 71.6228 49.2163Z" fill="#E6E6E6"/>
<path d="M71.8508 49.1224C71.8285 48.3822 71.7591 47.6442 71.643 46.9128C71.5344 46.2158 71.3409 45.5347 71.0669 44.8847C70.7927 44.2456 70.416 43.6556 69.9515 43.138C69.4502 42.6029 68.8929 42.1231 68.2891 41.707C69.067 41.8276 69.8008 42.1465 70.4198 42.633C71.0542 43.1369 71.5525 43.7916 71.8692 44.5375C72.1815 45.2714 72.3365 46.0627 72.3243 46.8602C72.3288 47.6393 72.1674 48.4105 71.8508 49.1224Z" fill="#E6E6E6"/>
<path d="M76.3777 47.778C75.8063 47.0366 75.3209 46.2326 74.9309 45.3816C74.5345 44.5328 74.2081 43.6531 73.955 42.7511C73.699 41.8467 73.529 40.9202 73.4473 39.9838C73.3612 39.0476 73.4045 38.104 73.5762 37.1797C73.7682 38.103 73.9155 38.9947 74.126 39.8812C74.3364 40.7677 74.5469 41.641 74.7968 42.5117C75.0467 43.3824 75.2992 44.2531 75.5701 45.1238C75.8411 45.9945 76.1173 46.8784 76.3777 47.778Z" fill="#E6E6E6"/>
<path d="M76.1415 47.7139C75.4904 47.0769 74.91 46.3714 74.4107 45.6095C73.9107 44.8498 73.4709 44.052 73.0954 43.2236C72.7147 42.3933 72.4118 41.5294 72.1905 40.6431C71.9666 39.7553 71.8648 38.8411 71.888 37.9258C72.2194 38.7833 72.5062 39.6146 72.8455 40.4327C73.1848 41.2507 73.5215 42.0609 73.8977 42.8633C74.2739 43.6656 74.6369 44.4652 75.0209 45.2702C75.405 46.0751 75.7759 46.8774 76.1415 47.7139Z" fill="#E6E6E6"/>
<path d="M77.1198 48.5561C76.3822 48.1655 75.6972 47.6829 75.0812 47.1198C74.4608 46.5605 73.8945 45.944 73.3898 45.2785C72.8748 44.6166 72.4337 43.9003 72.0745 43.1425C71.715 42.3853 71.4754 41.5769 71.3643 40.7461C71.8167 41.4537 72.2165 42.1455 72.6795 42.8058C73.1425 43.466 73.5897 44.121 74.0816 44.7497C74.5735 45.3784 75.0654 46.0097 75.5757 46.6358C76.086 47.2619 76.6042 47.8985 77.1198 48.5561Z" fill="#E6E6E6"/>
<path d="M75.6915 47.7189C74.9749 47.4239 74.3105 47.0153 73.7239 46.5089C73.1322 46.0111 72.6023 45.4441 72.1456 44.8201C71.9136 44.5089 71.6993 44.1848 71.5038 43.8494C71.3133 43.5093 71.1438 43.158 70.9961 42.7972C70.6935 42.0828 70.5078 41.3242 70.4463 40.5508C70.8593 41.211 71.1986 41.866 71.609 42.4816C71.7931 42.7999 72.0141 43.0945 72.2061 43.4049C72.3981 43.7153 72.6217 44.0046 72.8479 44.294C73.2829 44.8797 73.7388 45.4541 74.2158 46.017C74.6788 46.5878 75.1654 47.1428 75.6915 47.7189Z" fill="#E6E6E6"/>
<path d="M76.8121 48.1661C76.4719 47.9259 76.1999 47.6014 76.023 47.2244C75.8403 46.8481 75.7118 46.4477 75.6416 46.0354C75.51 45.2176 75.5332 44.3824 75.71 43.5732C75.7951 43.1761 75.9004 42.7837 76.0256 42.3974C76.1756 42.0212 76.3097 41.6398 76.4886 41.2794C76.6675 40.919 76.8569 40.5665 77.0699 40.2272C77.2891 39.8909 77.5252 39.5661 77.7775 39.2539C77.6934 39.6511 77.575 40.0273 77.4619 40.4034C77.3488 40.7796 77.2541 41.1584 77.1304 41.524C77.0068 41.8897 76.9332 42.2685 76.82 42.6341L76.6911 43.1892C76.6464 43.3733 76.5938 43.5574 76.5675 43.7442C76.4088 44.4745 76.3277 45.2196 76.3255 45.967C76.3222 46.3403 76.3557 46.713 76.4255 47.0797C76.4912 47.4613 76.622 47.8288 76.8121 48.1661Z" fill="#E6E6E6"/>
<path d="M76.323 47.3285C75.7463 46.712 75.3283 45.9645 75.1051 45.1504C74.8622 44.3285 74.7844 43.4667 74.8762 42.6146C74.8894 42.4015 74.942 42.1937 74.9762 41.9833L75.0367 41.6676L75.1287 41.3625C75.1971 41.1599 75.255 40.9574 75.3313 40.7601C75.4076 40.5628 75.5075 40.3734 75.5943 40.184L75.7364 39.9025L75.9074 39.6395L76.2546 39.1134C76.5142 38.7896 76.7945 38.4829 77.0937 38.1953C76.9569 38.5925 76.7754 38.9529 76.6281 39.3264L76.4203 39.8867L76.3151 40.1498L76.2309 40.4339C76.1757 40.6206 76.1178 40.8074 76.0573 40.9915L75.9284 41.5571L75.86 41.8386L75.8206 42.1227C75.7969 42.3121 75.7495 42.5015 75.739 42.6909C75.6588 43.4567 75.6694 44.2292 75.7706 44.9926C75.868 45.7892 76.0533 46.5726 76.323 47.3285Z" fill="#E6E6E6"/>
<path d="M75.2129 47.0062L71.4434 43.6523L72.001 48.2058L75.2129 47.0062Z" fill="#E6E6E6"/>
<path d="M67.9473 46.3906H78.8849L77.4513 54.5163H69.3809L67.9473 46.3906Z" fill="#F5F5F5"/>
<path d="M74.7812 46.3906H78.8849L77.4512 54.5163H75.2968L74.7812 46.3906Z" fill="#EBEBEB"/>
<path d="M88.5436 48.5311C88.5951 48.1719 88.58 47.8063 88.4989 47.4526C88.4293 47.1141 88.3207 46.7849 88.1753 46.4714C87.8806 45.8424 87.5066 45.2537 87.0626 44.7195C86.9627 44.5748 86.8338 44.4565 86.7207 44.317C86.6076 44.1776 86.4918 44.054 86.3708 43.9146C86.1078 43.6515 85.8815 43.3885 85.6211 43.1254C85.3607 42.8624 85.1108 42.5993 84.8477 42.3363C84.5847 42.0732 84.3216 41.8102 84.0586 41.5234C84.4137 41.6576 84.7504 41.8233 85.0924 41.9917C85.4242 42.1741 85.7464 42.3734 86.0578 42.5888C86.2147 42.6963 86.3658 42.8122 86.5102 42.936C86.6575 43.057 86.8022 43.1833 86.9469 43.3069C87.2274 43.5716 87.4909 43.8536 87.7361 44.1513C88.2412 44.7595 88.6099 45.4691 88.8172 46.2321C88.917 46.6182 88.9517 47.0182 88.9198 47.4158C88.9019 47.8156 88.7715 48.2022 88.5436 48.5311Z" fill="#E6E6E6"/>
<path d="M94.6946 47.4332C94.4174 47.1943 94.2124 46.8827 94.1028 46.5335C94.042 46.3537 94.0023 46.1675 93.9844 45.9785C93.9792 45.8821 93.9792 45.7855 93.9844 45.6891C93.9813 45.5929 93.9901 45.4965 94.0107 45.4024C94.1652 44.6541 94.5562 43.9754 95.1261 43.4664C95.2576 43.3375 95.4075 43.2349 95.5469 43.1191C95.6857 43.0039 95.8334 42.9001 95.9889 42.8087C96.1414 42.7193 96.294 42.6272 96.4518 42.5457C96.5281 42.5036 96.6044 42.4563 96.6859 42.4194L96.928 42.3168C97.091 42.2484 97.2541 42.1853 97.4172 42.1222C97.5794 42.0566 97.7465 42.0038 97.917 41.9643C98.2559 41.8761 98.5992 41.8058 98.9456 41.7539C98.6736 41.9693 98.39 42.1695 98.0959 42.3537C97.9512 42.4405 97.8144 42.5378 97.6776 42.6378C97.5409 42.7377 97.4146 42.8272 97.262 42.9192C96.9753 43.0902 96.7359 43.3085 96.4729 43.4927C96.3415 43.5848 96.2167 43.6858 96.0993 43.7952C95.9783 43.9004 95.8363 43.9951 95.7363 44.1056C95.2807 44.5084 94.9212 45.0081 94.6841 45.5681C94.6339 45.709 94.5935 45.8531 94.5631 45.9996C94.5389 46.1518 94.5266 46.3057 94.5263 46.4599C94.5262 46.7916 94.5832 47.1208 94.6946 47.4332Z" fill="#E6E6E6"/>
<path d="M94.4127 47.4312C93.9376 46.8123 93.6788 46.0545 93.6762 45.2742C93.6653 44.475 93.8687 43.6874 94.2654 42.9935L94.5811 42.4937C94.7021 42.3385 94.831 42.1912 94.9599 42.0439L95.1572 41.8256L95.3729 41.6362L95.8148 41.2653C96.1271 41.0486 96.4512 40.8492 96.7855 40.6682C97.1286 40.5126 97.4798 40.3756 97.8377 40.2578C97.5746 40.5366 97.3116 40.7839 97.0301 41.0207C96.7486 41.2574 96.5198 41.5284 96.2725 41.7783C96.1568 41.915 96.0437 42.0413 95.9253 42.1755L95.749 42.3675L95.5991 42.5779C95.4991 42.7173 95.3887 42.841 95.2913 42.9883L95.0283 43.4223C94.6947 44.0077 94.4693 44.6484 94.3628 45.3137C94.2538 46.0169 94.2707 46.7339 94.4127 47.4312Z" fill="#E6E6E6"/>
<path d="M88.8809 47.8217C89.0992 47.0089 89.3359 46.225 89.5648 45.4543C89.7936 44.6835 90.0172 43.897 90.2224 43.1184C90.4276 42.3397 90.5986 41.5558 90.7485 40.7509C90.8985 39.946 90.98 39.1726 91.051 38.3203C91.3275 39.1236 91.4576 39.97 91.4351 40.8193C91.4034 41.6647 91.2808 42.5043 91.0694 43.3235C90.8549 44.1378 90.5652 44.9303 90.204 45.691C89.851 46.4523 89.4067 47.1678 88.8809 47.8217Z" fill="#E6E6E6"/>
<path d="M89.1543 47.6872C89.4963 46.898 89.8645 46.1089 90.2276 45.3539C90.5906 44.5989 90.9562 43.8308 91.3061 43.068C91.6559 42.3051 91.9926 41.5397 92.3057 40.7637C92.6187 39.9877 92.887 39.1854 93.15 38.3594C93.2314 39.2327 93.1683 40.1134 92.9633 40.9662C92.7558 41.8142 92.4678 42.6404 92.1031 43.4336C91.7368 44.2205 91.3084 44.977 90.822 45.6959C90.3403 46.4184 89.7811 47.0861 89.1543 47.6872Z" fill="#E6E6E6"/>
<path d="M88.084 48.6915C88.5969 47.9865 89.1362 47.321 89.6623 46.6555C90.1884 45.99 90.7145 45.3402 91.2248 44.6694C91.7351 43.9987 92.2349 43.3331 92.7137 42.6439C93.1924 41.9548 93.6291 41.2445 94.0737 40.4922C93.9572 41.3615 93.6986 42.2058 93.3082 42.9912C92.917 43.7713 92.4519 44.5121 91.9193 45.2034C91.3861 45.8881 90.7994 46.5293 90.1647 47.1211C89.5305 47.7189 88.8328 48.2455 88.084 48.6915Z" fill="#E6E6E6"/>
<path d="M89.6934 47.5441C90.1958 46.9154 90.6982 46.3209 91.1927 45.7185C91.6873 45.1161 92.166 44.519 92.6343 43.9113C93.1025 43.3037 93.5365 42.6776 93.9495 42.0384C94.3625 41.3992 94.7387 40.7232 95.1438 40.0234C95.0847 40.8321 94.8853 41.6243 94.5545 42.3646C94.2251 43.1038 93.8092 43.8014 93.3156 44.4427C92.8263 45.0808 92.2747 45.6686 91.6689 46.1972C91.0727 46.7314 90.4084 47.1843 89.6934 47.5441Z" fill="#E6E6E6"/>
<path d="M88.4072 48.2775C88.6927 47.7069 88.8301 47.0737 88.807 46.4361C88.7722 45.8275 88.6166 45.232 88.3493 44.6842L88.2599 44.4711L88.1467 44.2659L87.9258 43.8503C87.7495 43.5873 87.5917 43.3058 87.3997 43.0349C87.2077 42.7639 87.034 42.493 86.8394 42.222C86.635 41.9495 86.4444 41.6668 86.2686 41.375C86.5711 41.5414 86.8644 41.724 87.1471 41.9221C87.423 42.1321 87.6865 42.3579 87.9363 42.5982C88.0611 42.7204 88.178 42.8504 88.2862 42.9875C88.3984 43.1225 88.5089 43.2593 88.6176 43.3979L88.8991 43.8529L89.0332 44.0844L89.1437 44.3317C89.4646 44.9985 89.5835 45.7447 89.4857 46.4782C89.4389 46.836 89.3191 47.1805 89.1335 47.49C88.948 47.7995 88.7007 48.0676 88.4072 48.2775Z" fill="#E6E6E6"/>
<path d="M88.8965 47.4375C89.1129 46.7856 89.261 46.113 89.3385 45.4304C89.4095 44.7942 89.3623 44.1503 89.199 43.5312C89.1171 43.226 89.0024 42.9306 88.8571 42.65C88.7124 42.3606 88.5415 42.085 88.3468 41.8266C87.928 41.2794 87.469 40.7641 86.9736 40.2852C87.6785 40.4939 88.3245 40.8651 88.8597 41.3689C89.1388 41.6257 89.3813 41.9195 89.5805 42.2423C89.7857 42.5683 89.9417 42.9229 90.0434 43.2945C90.2415 44.0381 90.2297 44.822 90.0092 45.5593C89.81 46.2724 89.4262 46.9202 88.8965 47.4375Z" fill="#E6E6E6"/>
<path d="M90.1826 46.8143L94.2967 42.8633L94.131 46.738L90.1826 46.8143Z" fill="#E6E6E6"/>
<path d="M85.6816 46.3906H96.6193L95.1857 54.5163H87.1153L85.6816 46.3906Z" fill="#F5F5F5"/>
<path d="M92.5127 46.3906H96.6189L95.1853 54.5163H93.0309L92.5127 46.3906Z" fill="#EBEBEB"/>
<path d="M17.5223 9.39844V52.0127C17.5223 53.7848 16.8184 55.4842 15.5654 56.7373C14.3123 57.9903 12.6129 58.6942 10.8408 58.6942H41.8809C43.6531 58.6942 45.3529 57.9904 46.6063 56.7374C47.8598 55.4845 48.5643 53.785 48.565 52.0127V9.39844H17.5223Z" fill="#F5F5F5"/>
<path d="M43.6944 20.1836H23.6367V40.2412H43.6944V20.1836Z" fill="#F0F0F0"/>
<path d="M43.0782 19.5664H23.0205V39.6241H43.0782V19.5664Z" fill="white"/>
<path d="M27.9453 42.5938H22.8447V47.6943H27.9453V42.5938Z" fill="white"/>
<path d="M43.0761 42.5938H37.9756V47.6943H43.0761V42.5938Z" fill="white"/>
<path d="M35.5097 42.5938H30.4092V47.6943H35.5097V42.5938Z" fill="white"/>
<path d="M48.5704 9.39844H17.5225V14.4701H48.5704V9.39844Z" fill="#F0F0F0"/>
<path d="M19.3984 7.77081V11.0274C19.3981 11.1467 19.4213 11.2648 19.4668 11.3751C19.5123 11.4853 19.5791 11.5855 19.6635 11.6699C19.7478 11.7542 19.848 11.821 19.9583 11.8665C20.0685 11.912 20.1867 11.9353 20.306 11.9349C20.4251 11.9349 20.5432 11.9114 20.6533 11.8658C20.7634 11.8202 20.8634 11.7534 20.9477 11.6691C21.032 11.5848 21.0988 11.4848 21.1444 11.3747C21.19 11.2646 21.2135 11.1466 21.2135 11.0274V7.77081C21.2128 7.53033 21.117 7.2999 20.9469 7.12986C20.7769 6.95981 20.5464 6.86398 20.306 6.86328C20.0653 6.86328 19.8344 6.9589 19.6643 7.12909C19.4941 7.29928 19.3984 7.53012 19.3984 7.77081Z" fill="#E6E6E6"/>
<path d="M44.8936 7.77081V11.0274C44.8936 11.2681 44.9892 11.4989 45.1594 11.6691C45.3296 11.8393 45.5604 11.9349 45.8011 11.9349C45.9204 11.9353 46.0385 11.912 46.1488 11.8665C46.2591 11.821 46.3592 11.7542 46.4436 11.6699C46.5279 11.5855 46.5947 11.4853 46.6402 11.3751C46.6857 11.2648 46.709 11.1467 46.7086 11.0274V7.77081C46.7086 7.53012 46.613 7.29928 46.4428 7.12909C46.2726 6.9589 46.0418 6.86328 45.8011 6.86328C45.5606 6.86398 45.3302 6.95981 45.1601 7.12986C44.9901 7.2999 44.8942 7.53033 44.8936 7.77081Z" fill="#E6E6E6"/>
<path d="M39.793 7.77081V11.0274C39.793 11.1466 39.8164 11.2646 39.8621 11.3747C39.9077 11.4848 39.9745 11.5848 40.0588 11.6691C40.143 11.7534 40.2431 11.8202 40.3532 11.8658C40.4633 11.9114 40.5813 11.9349 40.7005 11.9349C40.8197 11.9349 40.9377 11.9114 41.0478 11.8658C41.1579 11.8202 41.2579 11.7534 41.3422 11.6691C41.4265 11.5848 41.4933 11.4848 41.5389 11.3747C41.5845 11.2646 41.608 11.1466 41.608 11.0274V7.77081C41.6073 7.53124 41.5122 7.3016 41.3433 7.1317C41.1744 6.96181 40.9453 6.86536 40.7058 6.86329C40.5862 6.86294 40.4678 6.88614 40.3573 6.93156C40.2467 6.97698 40.1462 7.04373 40.0614 7.128C39.9766 7.21227 39.9093 7.31241 39.8633 7.42271C39.8172 7.533 39.7933 7.65129 39.793 7.77081Z" fill="#E6E6E6"/>
<path d="M34.6924 7.77081V11.0274C34.692 11.1467 34.7153 11.2648 34.7608 11.3751C34.8062 11.4853 34.8731 11.5855 34.9574 11.6699C35.0418 11.7542 35.1419 11.821 35.2522 11.8665C35.3625 11.912 35.4806 11.9353 35.5999 11.9349C35.839 11.9328 36.0675 11.8362 36.2356 11.6662C36.4037 11.4961 36.4976 11.2665 36.4969 11.0274V7.77081C36.4969 7.53057 36.4017 7.30014 36.232 7.13002C36.0624 6.9599 35.8323 6.86398 35.592 6.86328C35.3527 6.86536 35.1239 6.96189 34.9554 7.13186C34.7869 7.30183 34.6924 7.53148 34.6924 7.77081Z" fill="#E6E6E6"/>
<path d="M29.5918 7.77081V11.0274C29.5915 11.1464 29.6146 11.2644 29.6599 11.3745C29.7052 11.4846 29.7718 11.5846 29.8559 11.6689C29.94 11.7532 30.0398 11.8201 30.1498 11.8658C30.2598 11.9114 30.3776 11.9349 30.4967 11.9349C30.616 11.9353 30.7341 11.912 30.8444 11.8665C30.9547 11.821 31.0548 11.7542 31.1392 11.6699C31.2235 11.5855 31.2904 11.4853 31.3358 11.3751C31.3813 11.2648 31.4046 11.1467 31.4042 11.0274V7.77081C31.4042 7.53012 31.3086 7.29928 31.1384 7.12909C30.9682 6.9589 30.7374 6.86328 30.4967 6.86328C30.2565 6.86398 30.0263 6.9599 29.8567 7.13002C29.6871 7.30014 29.5918 7.53057 29.5918 7.77081Z" fill="#E6E6E6"/>
<path d="M24.4893 7.77081V11.0274C24.4893 11.1466 24.5127 11.2646 24.5583 11.3747C24.6039 11.4848 24.6708 11.5848 24.7551 11.6691C24.8393 11.7534 24.9394 11.8202 25.0495 11.8658C25.1596 11.9114 25.2776 11.9349 25.3968 11.9349C25.516 11.9349 25.634 11.9114 25.7441 11.8658C25.8542 11.8202 25.9542 11.7534 26.0385 11.6691C26.1228 11.5848 26.1896 11.4848 26.2352 11.3747C26.2808 11.2646 26.3043 11.1466 26.3043 11.0274V7.77081C26.3036 7.53033 26.2078 7.2999 26.0377 7.12986C25.8677 6.95981 25.6373 6.86398 25.3968 6.86328C25.1563 6.86398 24.9259 6.95981 24.7558 7.12986C24.5858 7.2999 24.49 7.53033 24.4893 7.77081Z" fill="#E6E6E6"/>
<path d="M39.094 55.8828C39.094 56.6244 39.3886 57.3357 39.913 57.86C40.4374 58.3844 41.1487 58.679 41.8903 58.679H6.95444C6.21283 58.679 5.5016 58.3844 4.9772 57.86C4.4528 57.3357 4.1582 56.6244 4.1582 55.8828H39.094Z" fill="#E6E6E6"/>
<path d="M55.9629 97.9984C84.1311 97.9984 106.966 96.6653 106.966 95.0207C106.966 93.3761 84.1311 92.043 55.9629 92.043C27.7948 92.043 4.95996 93.3761 4.95996 95.0207C4.95996 96.6653 27.7948 97.9984 55.9629 97.9984Z" fill="#F5F5F5"/>
<path opacity="0.2" d="M61.1158 69.8984C61.1158 69.8984 41.7842 81.3122 41.7842 92.1263H80.4527C80.4501 81.3122 61.1158 69.8984 61.1158 69.8984Z" fill="#7B55D3"/>
<path opacity="0.2" d="M61.1153 83.5195C61.1153 83.5195 43.2646 87.9414 43.2646 92.1292H78.966C78.966 87.9414 61.1153 83.5195 61.1153 83.5195Z" fill="#7B55D3"/>
<path opacity="0.3" d="M63.4619 73.0508C67.092 76.6204 74.1471 84.5303 74.1471 92.1273H69.3095C69.3095 84.5303 65.448 76.6204 63.4619 73.0508Z" fill="white"/>
<path opacity="0.2" d="M61.1158 69.8997C61.1158 69.8997 41.7842 58.4859 41.7842 47.6719H80.4527C80.4501 58.4859 61.1158 69.8997 61.1158 69.8997Z" fill="#7B55D3"/>
<path opacity="0.2" d="M61.1167 68.8581C61.1167 68.8581 51.2471 64.1232 51.2471 59.625H70.9891C70.9891 64.1153 61.1167 68.8581 61.1167 68.8581Z" fill="#7B55D3"/>
<path opacity="0.3" d="M59.0086 66.7483C55.3811 63.1787 48.334 55.2688 48.334 47.6719H53.1715C53.161 55.2688 57.0147 63.1787 59.0086 66.7483Z" fill="white"/>
<path opacity="0.3" d="M63.4619 66.7483C67.092 63.1787 73.9708 54.3534 74.1471 47.6719H72.8581C72.2531 55.8186 66.3344 63.2945 63.4619 66.7483Z" fill="white"/>
<path d="M77.825 43.8555H75.6338V44.1185H77.825V43.8555Z" fill="#7B55D3"/>
<path d="M85.2638 47.4698H85.0007C85 46.5816 84.6471 45.73 84.0193 45.1018C83.3915 44.4735 82.5402 44.1199 81.6521 44.1185H79.3398V43.8555H81.6521C82.6098 43.8576 83.5276 44.2391 84.2045 44.9165C84.8815 45.594 85.2624 46.5121 85.2638 47.4698Z" fill="#7B55D3"/>
<path d="M81.6499 44.7773H40.5823C39.0947 44.7773 37.8887 45.9833 37.8887 47.471V47.8761C37.8887 49.3637 39.0947 50.5697 40.5823 50.5697H81.6499C83.1375 50.5697 84.3435 49.3637 84.3435 47.8761V47.471C84.3435 45.9833 83.1375 44.7773 81.6499 44.7773Z" fill="#29CC99"/>
<path d="M81.6499 89.2305H40.5823C39.0947 89.2305 37.8887 90.4365 37.8887 91.9241V92.3292C37.8887 93.8169 39.0947 95.0229 40.5823 95.0229H81.6499C83.1375 95.0229 84.3435 93.8169 84.3435 92.3292V91.9241C84.3435 90.4365 83.1375 89.2305 81.6499 89.2305Z" fill="#29CC99"/>
<path d="M27.2171 65.6355L25.4336 64.052L28.4745 59.3828L30.258 60.9638L27.2171 65.6355Z" fill="#FF8B7B"/>
<path d="M25.8014 63.0451L28.0689 64.6234C28.0883 64.6355 28.105 64.6513 28.1183 64.6698C28.1315 64.6884 28.141 64.7094 28.1461 64.7316C28.1513 64.7539 28.152 64.7769 28.1482 64.7994C28.1444 64.8219 28.1362 64.8434 28.1241 64.8628L26.9878 66.7357C26.9223 66.8299 26.8225 66.8945 26.7097 66.9157C26.597 66.9369 26.4805 66.9129 26.3854 66.8488C25.5962 66.2885 25.3042 66.015 24.3599 65.2521C23.4265 64.5185 22.531 63.738 21.6768 62.9136C20.977 62.1876 21.7162 61.4852 22.0871 61.7351C22.9631 62.3296 24.4861 62.9846 25.3674 62.932C25.5206 62.9198 25.6735 62.9597 25.8014 63.0451Z" fill="#263238"/>
<path opacity="0.2" d="M30.2548 60.9664L28.4714 59.3828L27.0088 61.6319L28.837 63.1497L30.2548 60.9664Z" fill="black"/>
<path d="M48.4003 37.6418C48.4003 37.6418 36.4315 36.8237 34.9479 40.88C31.5729 50.1025 27.1826 59.8854 27.1826 59.8854L30.7101 62.4396C30.7101 62.4396 38.1676 51.0364 40.443 43.7157C45.0464 44.8336 53.3694 45.7885 56.0499 42.7108C58.3384 40.0803 56.6259 37.6418 56.6259 37.6418H48.4003Z" fill="#263238"/>
<path opacity="0.3" d="M38.149 44.8086C37.8702 45.9345 37.4466 49.1595 37.1836 51.2981C37.7649 50.1722 38.3173 49.0306 38.8145 47.9152L38.149 44.8086Z" fill="black"/>
<path d="M30.4834 63.592L26.4824 60.4564L27.3005 58.6992L31.7724 62.1163L30.4834 63.592Z" fill="#7B55D3"/>
<path d="M24.8416 62.9047C25.0271 63.0255 25.2246 63.1269 25.4308 63.2072C25.4411 63.2108 25.4522 63.2114 25.4628 63.2089C25.4734 63.2065 25.4831 63.2011 25.4908 63.1934C25.4984 63.1858 25.5038 63.1761 25.5062 63.1655C25.5087 63.1549 25.5081 63.1438 25.5045 63.1335C25.4703 63.0441 25.1704 62.2576 24.8574 62.1813C24.8215 62.1731 24.7841 62.1741 24.7487 62.1842C24.7133 62.1943 24.681 62.2132 24.6548 62.2392C24.6108 62.274 24.5767 62.3198 24.556 62.372C24.5352 62.4241 24.5285 62.4808 24.5365 62.5364C24.5897 62.6924 24.6983 62.8234 24.8416 62.9047ZM25.3493 63.0494C24.9363 62.8705 24.6785 62.6732 24.6496 62.5233C24.6451 62.4866 24.6505 62.4495 24.6653 62.4157C24.6801 62.3819 24.7038 62.3527 24.7338 62.3312C24.7459 62.3182 24.7614 62.3086 24.7785 62.3035C24.7956 62.2984 24.8138 62.298 24.8311 62.3023C24.9994 62.3444 25.2178 62.7363 25.3493 63.0494Z" fill="#7B55D3"/>
<path d="M25.4173 63.1944C25.4259 63.1969 25.435 63.1969 25.4436 63.1944C25.4534 63.1955 25.4633 63.1941 25.4725 63.1904C25.4817 63.1868 25.4898 63.1809 25.4962 63.1734C25.5146 63.1523 25.9618 62.6026 25.896 62.2632C25.8874 62.2198 25.8689 62.179 25.842 62.1439C25.8151 62.1088 25.7805 62.0803 25.7408 62.0607C25.7004 62.0353 25.6528 62.0239 25.6053 62.0282C25.5578 62.0325 25.513 62.0522 25.4778 62.0843C25.2779 62.2711 25.2858 62.9024 25.4041 63.1629C25.4059 63.1743 25.4104 63.1851 25.4173 63.1944ZM25.7093 62.1869C25.7283 62.1995 25.7446 62.2158 25.7573 62.2347C25.7699 62.2537 25.7786 62.275 25.7829 62.2974C25.8224 62.4973 25.6093 62.8419 25.4699 63.0313C25.3962 62.7683 25.4199 62.3001 25.5488 62.179C25.5751 62.1554 25.6119 62.1317 25.6882 62.179L25.7093 62.1869Z" fill="#7B55D3"/>
<path d="M42.9417 68.3944L40.64 68.8547L40.2139 62.6914L42.5524 62.7651L42.9417 68.3944Z" fill="#FF8B7B"/>
<path d="M40.3268 68.0165L42.9574 66.909C42.9789 66.8984 43.0023 66.8923 43.0263 66.8909C43.0502 66.8896 43.0742 66.893 43.0968 66.9011C43.1193 66.9092 43.1401 66.9218 43.1577 66.938C43.1753 66.9543 43.1895 66.974 43.1994 66.9958L44.2042 69.0161C44.2502 69.1254 44.2514 69.2483 44.2076 69.3585C44.1638 69.4687 44.0786 69.5573 43.9701 69.6053C43.0494 69.9762 42.5917 70.1051 41.4369 70.5944C40.7267 70.8942 38.8064 71.7623 37.7805 72.0175C36.7546 72.2726 36.5231 71.2441 36.9387 71.0442C37.9226 70.5707 39.5535 69.1265 39.9928 68.3295C40.0676 68.192 40.1847 68.0822 40.3268 68.0165Z" fill="#263238"/>
<path d="M39.6724 68.7712C39.8796 68.6765 40.0762 68.5601 40.259 68.424C40.268 68.417 40.275 68.4077 40.2792 68.397C40.2834 68.3864 40.2846 68.3748 40.2826 68.3635C40.2796 68.3525 40.2735 68.3425 40.2652 68.3346C40.2568 68.3267 40.2465 68.3212 40.2353 68.3188C40.1406 68.2978 39.2883 68.1268 39.0489 68.3583C39.0217 68.3846 39.0017 68.4177 38.9911 68.4541C38.9805 68.4906 38.9796 68.5292 38.9884 68.5661C38.9943 68.623 39.0152 68.6773 39.0489 68.7235C39.0827 68.7697 39.1281 68.8062 39.1805 68.8291C39.3459 68.8714 39.5212 68.8508 39.6724 68.7712ZM40.0748 68.4082C39.6934 68.6713 39.3804 68.7844 39.2252 68.7239C39.1906 68.708 39.161 68.683 39.1396 68.6514C39.1183 68.6199 39.106 68.5831 39.1042 68.545C39.0991 68.5271 39.0989 68.5082 39.1035 68.4902C39.1081 68.4721 39.1174 68.4557 39.1305 68.4424C39.2594 68.3188 39.7329 68.3504 40.0748 68.4082Z" fill="#7B55D3"/>
<path d="M40.2456 68.4311C40.2545 68.4265 40.2626 68.4202 40.2693 68.4127C40.2736 68.4041 40.2759 68.3947 40.2759 68.3851C40.2759 68.3755 40.2736 68.366 40.2693 68.3574C40.2693 68.3285 40.0272 67.634 39.6958 67.5052C39.6532 67.4882 39.6072 67.4814 39.5614 67.4856C39.5157 67.4897 39.4717 67.5045 39.4328 67.5288C39.3866 67.5494 39.3489 67.5852 39.3259 67.6302C39.303 67.6751 39.2961 67.7267 39.3065 67.7761C39.3591 68.0391 39.9141 68.3943 40.2061 68.4337C40.2191 68.438 40.2333 68.4371 40.2456 68.4311ZM39.5274 67.6183C39.5491 67.6091 39.5724 67.6045 39.5958 67.6045C39.6193 67.6045 39.6426 67.6091 39.6642 67.6183C39.8615 67.6945 40.043 68.0707 40.1325 68.2969C39.8694 68.2101 39.4669 67.9392 39.4328 67.755C39.4328 67.7209 39.4327 67.6761 39.5038 67.634L39.5274 67.6183Z" fill="#7B55D3"/>
<path opacity="0.2" d="M42.555 62.7677L40.2139 62.6914L40.4375 65.9112L42.7681 65.8691L42.555 62.7677Z" fill="black"/>
<path d="M54.2129 37.6406C54.2129 37.6406 37.1146 39.2584 37.7301 44.4063C38.6297 51.8322 39.2874 64.8349 39.2874 64.8349L43.6461 65.0058C43.6461 65.0058 45.2823 53.5736 44.3248 45.9688C48.7519 45.9688 58.3691 46.2029 60.0605 43.9144C62.0676 41.1997 61.139 37.6406 61.139 37.6406H54.2129Z" fill="#263238"/>
<path d="M44.1278 65.2741L38.8957 65.0137L38.709 62.7383L44.4461 63.1329L44.1278 65.2741Z" fill="#7B55D3"/>
<path d="M50.4178 22.5657C50.381 23.0366 50.3389 23.4548 50.281 23.8941C50.2232 24.3334 50.1679 24.7622 50.0995 25.1962C49.9733 26.0617 49.7996 26.9218 49.605 27.7873C49.4103 28.6527 49.1709 29.5155 48.8711 30.3862C48.5666 31.3022 48.1672 32.1838 47.6794 33.0167C47.3882 33.5068 47.0345 33.9568 46.6272 34.3557C46.5194 34.4565 46.4061 34.5513 46.2879 34.6398C46.1801 34.7292 46.0722 34.8055 45.9617 34.8818C45.7514 35.0301 45.5327 35.1663 45.3067 35.2895C44.4725 35.7433 43.5902 36.1024 42.6762 36.3601C42.2422 36.4943 41.8055 36.6021 41.361 36.6995C40.9164 36.7968 40.4929 36.881 40.0457 36.9493C39.1752 37.0918 38.2967 37.1796 37.4152 37.2124C37.1979 37.2216 36.9846 37.1517 36.8148 37.0158C36.645 36.8798 36.5303 36.6869 36.4918 36.4729C36.4532 36.2588 36.4936 36.038 36.6053 35.8514C36.7171 35.6648 36.8926 35.525 37.0995 35.4578L37.1337 35.4447C38.6763 34.9567 40.1896 34.3806 41.6661 33.7191C42.345 33.4118 42.9948 33.0438 43.6074 32.6195C43.7468 32.5196 43.8705 32.417 43.9967 32.3144C44.0546 32.2644 44.1151 32.2144 44.1651 32.1618C44.2117 32.1199 44.2556 32.0751 44.2966 32.0277C44.4712 31.8165 44.6213 31.5862 44.7438 31.3411C45.063 30.6928 45.3193 30.0154 45.5093 29.3182C45.7223 28.5791 45.9065 27.8083 46.0591 27.0244C46.2116 26.2405 46.3484 25.4461 46.4773 24.6412C46.6062 23.8362 46.7035 23.0155 46.793 22.2527V22.208C46.8588 21.7467 47.1003 21.3287 47.467 21.0412C47.8338 20.7537 48.2973 20.619 48.761 20.6651C49.2247 20.7113 49.6526 20.9348 49.9554 21.2889C50.2583 21.6431 50.4126 22.1005 50.3862 22.5657H50.4178Z" fill="#7B55D3"/>
<path d="M37.5018 34.9844L36.1865 35.0659L37.2387 37.486C37.2387 37.486 39.5141 37.436 39.4668 36.3154L39.0564 35.7893C38.8686 35.5532 38.633 35.3594 38.3651 35.2207C38.0972 35.082 37.803 35.0014 37.5018 34.9844Z" fill="#FF8B7B"/>
<path d="M34.7451 35.2689L35.8815 37.4943H37.2362L36.184 35.0742L34.7451 35.2689Z" fill="#FF8B7B"/>
<path d="M50.2284 18.836L52.7721 18.3099L54.7976 18.0179C55.087 17.9706 55.381 17.9574 55.6735 17.9785C56.4508 18.049 57.1881 18.3549 57.7869 18.8555C58.3858 19.3561 58.8176 20.0275 59.0248 20.78C59.5325 22.6213 59.9902 24.8809 60.34 26.8828C60.8293 29.6632 61.0818 33.8405 61.1292 37.6389H49.0788C48.8158 30.7601 47.3532 26.3277 46.856 23.5788C46.7063 22.7489 46.8335 21.8929 47.218 21.1423C47.6025 20.3918 48.2231 19.7885 48.9841 19.4253L50.2284 18.836Z" fill="#7B55D3"/>
<path d="M49.0791 20.3508C49.108 21.4819 49.3422 25.5145 50.5548 27.8057C50.7679 25.6592 53.3169 19.125 53.3169 19.125L49.0791 20.3508Z" fill="#F5F5F5"/>
<path opacity="0.3" d="M60.6162 28.7731C60.6162 28.7311 60.6162 28.6916 60.6004 28.6469L60.5767 28.4575C60.5636 28.3549 60.5504 28.2523 60.5373 28.155L60.4978 27.8735L60.4583 27.6105C60.4583 27.5368 60.4347 27.4605 60.4241 27.3895C60.3978 27.2211 60.3715 27.058 60.3426 26.8976C60.2558 26.4057 60.1637 25.8954 60.0638 25.3824V25.3403C59.9638 24.8142 59.8612 24.3065 59.7507 23.7936V23.7594C59.706 23.5384 59.6587 23.3227 59.6087 23.1044L59.5534 22.8624L59.4588 22.4441L59.3798 22.1179L59.364 22.0496C59.2588 21.6182 59.151 21.1946 59.0405 20.7948L57.2123 19.832C57.4227 20.6396 57.6227 21.5287 57.812 22.4389C57.5933 22.5534 57.3914 22.6977 57.2123 22.8676C56.7756 23.257 56.7914 24.0856 57.2281 25.0667C58.4368 27.8724 59.1061 30.8807 59.201 33.9342C59.2562 35.1732 59.2904 36.4279 59.3062 37.6459H61.1475C61.0949 34.6287 60.9266 31.3773 60.6162 28.7731Z" fill="black"/>
<path d="M51.8253 13.7695L50.7915 15.3478L49.3868 17.4917C49.5676 17.6759 49.7145 17.8905 49.8208 18.1257C50.0839 18.6518 50.2891 19.0306 49.2027 19.7697C48.9712 19.9276 48.9633 20.1775 49.0159 20.4537C49.079 20.7904 49.2789 21.1429 50.4469 20.935C51.5757 20.7179 52.6058 20.1466 53.3878 19.3041C53.7771 18.9122 53.6877 18.6202 53.3115 18.2151C52.2488 17.0708 51.9305 15.2426 51.8253 13.7695Z" fill="#FF8B7B"/>
<path d="M49.3418 20.9734L50.0862 21.4416L51.2963 20.9287C51.011 20.6408 50.6433 20.4486 50.2441 20.3789C49.8963 20.4943 49.585 20.6993 49.3418 20.9734Z" fill="#263238"/>
<path d="M50.2314 20.3754C50.7865 20.6043 51.0653 21.1199 51.3178 21.7144C51.3178 21.7144 53.9773 19.6994 54.0325 18.371C53.8905 17.9185 53.225 17.9975 53.225 17.9975C53.225 17.9975 52.4148 19.4022 50.2314 20.3754Z" fill="white"/>
<path d="M50.231 20.3802C49.9717 20.4852 49.7514 20.6681 49.6006 20.9037C49.4498 21.1394 49.3759 21.416 49.3892 21.6955C49.3892 21.6955 48.2055 20.3066 49.1683 19.257C49.4295 19.1199 49.707 19.0165 49.9943 18.9492C49.9943 18.9492 49.7049 19.5279 50.231 20.3802Z" fill="white"/>
<path d="M50.3211 21.2227H49.9818C49.8713 21.4121 49.7187 23.8795 49.6582 25.1921C49.8208 25.9584 50.0596 26.7066 50.3711 27.4254C50.37 27.4341 50.37 27.443 50.3711 27.4517C50.3895 27.4938 50.4079 27.5333 50.4289 27.5727C50.4658 27.6516 50.5026 27.7305 50.5447 27.8042C50.6662 26.9893 50.8554 26.186 51.1102 25.4025C50.763 23.8821 50.3211 21.2227 50.3211 21.2227Z" fill="#263238"/>
<path opacity="0.2" d="M49.7342 16.9619L50.5971 15.4336C50.6128 15.4704 50.6339 15.5151 50.6549 15.5572C50.7306 15.748 50.7921 15.9441 50.8391 16.1438C50.9969 16.8251 50.4708 17.7932 49.8894 18.2482C49.8658 18.2062 49.8447 18.1614 49.8211 18.1167C49.7176 17.8959 49.5839 17.6905 49.4238 17.5064L49.3896 17.4801L49.7342 16.9619Z" fill="black"/>
<path d="M45.5302 13.6782C45.3224 12.7443 46.8086 11.4528 46.8086 11.4528L45.0488 10.8398C44.2544 11.4107 44.77 13.039 45.5302 13.6782Z" fill="#263238"/>
<path d="M51.46 10.9781C51.8757 13.314 52.2492 14.6608 51.3706 16.1523C51.0953 16.6421 50.6913 17.0472 50.2023 17.3238C49.7133 17.6005 49.158 17.7381 48.5964 17.7219C48.0348 17.7056 47.4883 17.5361 47.0162 17.2316C46.544 16.9271 46.1641 16.4993 45.9176 15.9945C44.9311 14.0689 44.4182 10.5756 46.4252 9.04204C46.8506 8.69912 47.3586 8.47401 47.8983 8.38928C48.4381 8.30455 48.9906 8.36316 49.5005 8.55926C50.0105 8.75535 50.4599 9.08203 50.8038 9.50656C51.1478 9.93109 51.3741 10.4386 51.46 10.9781Z" fill="#FF8B7B"/>
<path d="M51.4912 13.3408L50.3864 13.0383V11.6178C50.3864 11.6178 48.9896 10.8287 49.2053 9.84221C49.3123 9.28763 49.4627 8.74232 49.6551 8.21129C49.6551 8.21129 51.87 8.06925 52.5486 8.35334C52.3728 8.5438 52.182 8.71974 51.9778 8.87944C52.5089 9.24687 52.9644 9.71306 53.3194 10.2526C53.042 10.3144 52.7827 10.4395 52.5618 10.6182C52.5618 10.6182 52.8511 12.5674 51.4912 13.3408Z" fill="#263238"/>
<path d="M48.9492 6.69632C49.762 7.20664 49.2912 8.14311 49.2912 8.14311L51.4666 8.18782C51.3509 7.50126 49.4648 6.66213 48.9492 6.69632Z" fill="#263238"/>
<path d="M49.7993 10.3193C49.6441 10.756 47.8817 11.2926 46.2744 11.3452C45.4733 11.3278 44.6805 11.1785 43.928 10.9033C44.1549 10.6702 44.4223 10.4804 44.7172 10.343C43.7465 10.1036 42.518 9.2513 42.1787 8.55685C42.8874 8.30356 43.653 8.25434 44.3883 8.4148C44.1477 8.21166 43.95 7.96255 43.8068 7.68205C43.6636 7.40156 43.5778 7.09531 43.5545 6.78125C43.5545 6.78125 47.6686 8.41217 49.2522 7.73613C50.9725 6.99958 52.2799 8.3806 51.1488 9.43281C50.0176 10.485 49.7993 10.3193 49.7993 10.3193Z" fill="#263238"/>
<path d="M52.7162 12.669C52.7386 13.1842 52.5711 13.6897 52.2454 14.0895C51.8192 14.5972 51.1563 14.1921 51.0038 13.5634C50.867 12.9926 51.0459 12.1114 51.6062 11.8378C52.1665 11.5642 52.6873 12.0298 52.7162 12.669Z" fill="#FF8B7B"/>
<path d="M47.903 13.1517C47.9609 13.3358 47.903 13.5173 47.7978 13.562C47.6926 13.6068 47.5347 13.491 47.4742 13.299C47.4137 13.107 47.4742 12.9334 47.5795 12.8886C47.6847 12.8439 47.8425 12.957 47.903 13.1517Z" fill="#263238"/>
<path d="M45.8649 13.8847C45.9228 14.0662 45.8649 14.2503 45.7597 14.2924C45.6545 14.3345 45.4967 14.224 45.4362 14.0294C45.3757 13.8347 45.4362 13.6637 45.5414 13.6217C45.6466 13.5796 45.8044 13.7006 45.8649 13.8847Z" fill="#263238"/>
<path d="M46.5615 13.7891C46.57 14.3334 46.5064 14.8766 46.3721 15.4042C46.5056 15.4326 46.6437 15.431 46.7765 15.3997C46.9093 15.3683 47.0335 15.3078 47.1402 15.2227L46.5615 13.7891Z" fill="#A02724"/>
<path d="M47.8078 15.9283C48.019 15.8575 48.2139 15.7451 48.3811 15.5978C48.5482 15.4506 48.6842 15.2714 48.7811 15.0707C48.7863 15.0568 48.786 15.0413 48.7801 15.0276C48.7742 15.0138 48.7632 15.0029 48.7495 14.9971C48.7428 14.994 48.7355 14.9924 48.7281 14.9922C48.7208 14.992 48.7134 14.9933 48.7066 14.996C48.6997 14.9987 48.6934 15.0028 48.6882 15.0079C48.6829 15.0131 48.6787 15.0192 48.6758 15.026C48.5691 15.2436 48.4136 15.4336 48.2216 15.5814C48.0295 15.7292 47.806 15.8308 47.5684 15.8783C47.561 15.8798 47.5541 15.8829 47.5479 15.8872C47.5418 15.8915 47.5366 15.897 47.5326 15.9034C47.5287 15.9098 47.5261 15.917 47.525 15.9244C47.5239 15.9319 47.5244 15.9394 47.5263 15.9467C47.5294 15.961 47.5381 15.9735 47.5505 15.9813C47.5628 15.9892 47.5778 15.9919 47.5921 15.9888C47.6652 15.9733 47.7373 15.9531 47.8078 15.9283Z" fill="#263238"/>
<path d="M48.3556 12.0705C48.3718 12.0608 48.3854 12.0473 48.395 12.031C48.4033 12.0188 48.4091 12.0051 48.4121 11.9906C48.415 11.9761 48.415 11.9612 48.412 11.9468C48.4091 11.9323 48.4033 11.9186 48.3949 11.9064C48.3866 11.8942 48.3759 11.8838 48.3635 11.8758C48.2156 11.7769 48.0458 11.7156 47.8688 11.6972C47.6919 11.6789 47.5131 11.7041 47.3481 11.7706C47.3346 11.777 47.3225 11.786 47.3125 11.797C47.3025 11.8081 47.2948 11.821 47.2898 11.8351C47.2848 11.8491 47.2826 11.864 47.2833 11.8789C47.2841 11.8938 47.2878 11.9084 47.2942 11.9219C47.3006 11.9353 47.3095 11.9474 47.3206 11.9574C47.3317 11.9674 47.3446 11.9751 47.3586 11.9801C47.3727 11.9852 47.3876 11.9873 47.4024 11.9866C47.4173 11.9859 47.4319 11.9822 47.4454 11.9758C47.5744 11.9257 47.7136 11.9077 47.851 11.9233C47.9885 11.9389 48.1201 11.9876 48.2346 12.0652C48.2522 12.0775 48.2729 12.0845 48.2943 12.0854C48.3157 12.0863 48.337 12.0812 48.3556 12.0705Z" fill="#263238"/>
<path d="M45.4587 12.7805C45.4637 12.7625 45.4637 12.7434 45.4587 12.7253C45.4471 12.6978 45.4251 12.6761 45.3975 12.6647C45.3699 12.6534 45.3389 12.6534 45.3114 12.6648C45.1457 12.7291 44.9985 12.8334 44.8829 12.9683C44.7672 13.1032 44.6867 13.2646 44.6485 13.4382C44.6478 13.4654 44.657 13.492 44.6743 13.513C44.6917 13.5341 44.7161 13.5481 44.743 13.5526C44.7698 13.5571 44.7975 13.5517 44.8207 13.5374C44.8439 13.5232 44.8612 13.501 44.8694 13.475C44.9022 13.3397 44.9671 13.2143 45.0587 13.1094C45.1503 13.0045 45.2659 12.9233 45.3955 12.8726C45.4131 12.864 45.4282 12.851 45.4393 12.8349C45.4503 12.8188 45.457 12.8 45.4587 12.7805Z" fill="#263238"/>
<path d="M58.4644 19.6486C58.7538 20.0063 59.0063 20.3299 59.2536 20.6745C59.5009 21.0191 59.7586 21.361 60.0006 21.7109C60.4926 22.408 60.9503 23.1314 61.3975 23.8679C61.8446 24.6044 62.2603 25.3726 62.6338 26.1854C63.0392 27.0287 63.3608 27.9097 63.5939 28.8159C63.7248 29.3427 63.7937 29.883 63.7991 30.4258C63.7926 30.9685 63.7147 31.508 63.5676 32.0304C63.3057 32.9399 62.9235 33.8104 62.4312 34.6188C62.205 35.0055 61.9604 35.3764 61.7052 35.7341C61.4501 36.0919 61.1791 36.4391 60.9161 36.7732C60.367 37.445 59.7701 38.0762 59.13 38.6619C58.9698 38.8046 58.764 38.8856 58.5495 38.8903C58.335 38.8951 58.1258 38.8232 57.9596 38.6876C57.7933 38.5521 57.6807 38.3617 57.6421 38.1506C57.6035 37.9396 57.6414 37.7217 57.7489 37.536L57.7726 37.4966C58.5895 36.1713 59.3035 34.7853 59.9086 33.3509C60.1801 32.7044 60.3777 32.0294 60.4978 31.3386C60.5418 31.0611 60.5533 30.7795 60.532 30.4994C60.5003 30.2222 60.4404 29.949 60.3531 29.684C60.1256 29.0114 59.8395 28.36 59.4982 27.7374C59.1484 27.0771 58.7538 26.4221 58.3329 25.7566C57.912 25.0911 57.4701 24.4414 57.0176 23.8021L56.3258 22.8394C56.0943 22.5263 55.8523 22.1923 55.634 21.9055L55.6182 21.8845C55.3217 21.5085 55.1867 21.03 55.243 20.5545C55.2992 20.0789 55.5421 19.6452 55.9181 19.3487C56.2941 19.0522 56.7726 18.9172 57.2481 18.9734C57.7237 19.0297 58.1574 19.2725 58.4539 19.6486H58.4644Z" fill="#7B55D3"/>
<path d="M33.4005 39.0568L55.7809 38.0441C55.8515 38.0395 55.9223 38.0491 55.9891 38.0725C56.0559 38.0959 56.1173 38.1325 56.1696 38.1801C56.2219 38.2278 56.264 38.2855 56.2935 38.3498C56.323 38.4141 56.3392 38.4837 56.3412 38.5544L32.8902 39.6066C32.887 39.5369 32.8978 39.4672 32.9218 39.4016C32.9458 39.3361 32.9827 39.276 33.0302 39.2248C33.0777 39.1736 33.1349 39.1324 33.1985 39.1036C33.262 39.0748 33.3307 39.0589 33.4005 39.0568Z" fill="#7B55D3"/>
<g opacity="0.6">
<path d="M33.4015 39.0529L55.7819 38.0402C55.8525 38.0356 55.9233 38.0452 55.9901 38.0686C56.0569 38.092 56.1182 38.1286 56.1705 38.1762C56.2228 38.2239 56.265 38.2816 56.2945 38.3459C56.324 38.4102 56.3402 38.4798 56.3422 38.5505L32.8912 39.6027C32.888 39.533 32.8987 39.4633 32.9228 39.3977C32.9468 39.3322 32.9836 39.2721 33.0311 39.2209C33.0786 39.1697 33.1358 39.1285 33.1994 39.0997C33.263 39.0709 33.3317 39.055 33.4015 39.0529Z" fill="white"/>
</g>
<path d="M29.8389 28.6739L45.7614 27.9531C45.8635 27.9545 45.9628 27.9873 46.0456 28.0471C46.1284 28.1069 46.1908 28.1907 46.2243 28.2872L49.281 37.9859C49.2975 38.026 49.3038 38.0695 49.2994 38.1125C49.295 38.1556 49.28 38.197 49.2558 38.2329C49.2316 38.2688 49.1989 38.2982 49.1606 38.3184C49.1224 38.3387 49.0797 38.3491 49.0364 38.3489L33.1139 39.0697C33.0123 39.0687 32.9135 39.0363 32.8311 38.977C32.7487 38.9176 32.6867 38.8342 32.6535 38.7382L29.5969 29.0369C29.5805 28.997 29.5742 28.9538 29.5784 28.9109C29.5827 28.868 29.5974 28.8269 29.6213 28.791C29.6452 28.7552 29.6776 28.7257 29.7155 28.7053C29.7534 28.6849 29.7958 28.6741 29.8389 28.6739Z" fill="#7B55D3"/>
<path opacity="0.6" d="M29.8389 28.6739L45.7614 27.9531C45.8635 27.9545 45.9628 27.9873 46.0456 28.0471C46.1284 28.1069 46.1908 28.1907 46.2243 28.2872L49.281 37.9859C49.2975 38.026 49.3038 38.0695 49.2994 38.1125C49.295 38.1556 49.28 38.197 49.2558 38.2329C49.2316 38.2688 49.1989 38.2982 49.1606 38.3184C49.1224 38.3387 49.0797 38.3491 49.0364 38.3489L33.1139 39.0697C33.0123 39.0687 32.9135 39.0363 32.8311 38.977C32.7487 38.9176 32.6867 38.8342 32.6535 38.7382L29.5969 29.0369C29.5805 28.997 29.5742 28.9538 29.5784 28.9109C29.5827 28.868 29.5974 28.8269 29.6213 28.791C29.6452 28.7552 29.6776 28.7257 29.7155 28.7053C29.7534 28.6849 29.7958 28.6741 29.8389 28.6739Z" fill="white"/>
<path opacity="0.5" d="M46.2305 28.2833L49.2872 37.982C49.3042 38.0222 49.311 38.066 49.3069 38.1094C49.3027 38.1529 49.2879 38.1946 49.2636 38.2309C49.2393 38.2671 49.2064 38.2968 49.1678 38.3172C49.1293 38.3376 49.0862 38.348 49.0426 38.3476L45.7676 27.9492C45.8697 27.9506 45.969 27.9834 46.0518 28.0432C46.1346 28.103 46.197 28.1868 46.2305 28.2833Z" fill="#7B55D3"/>
<path opacity="0.5" d="M49.8972 38.3071L55.7816 38.0441C55.8522 38.0395 55.9231 38.0491 55.9898 38.0725C56.0566 38.0959 56.118 38.1325 56.1703 38.1801C56.2226 38.2278 56.2648 38.2855 56.2943 38.3498C56.3238 38.4141 56.34 38.4837 56.3419 38.5544L49.3869 38.8674C49.3822 38.7968 49.3919 38.726 49.4153 38.6593C49.4386 38.5925 49.4752 38.5311 49.5229 38.4788C49.5705 38.4265 49.6282 38.3843 49.6926 38.3548C49.7569 38.3253 49.8265 38.3091 49.8972 38.3071Z" fill="#7B55D3"/>
<path d="M57.3308 37.4248L55.8262 37.6431L57.3677 39.787C57.3677 39.787 59.8167 39.395 59.5326 38.3086L59.0065 37.872C58.774 37.6844 58.5047 37.5477 58.2161 37.4707C57.9274 37.3936 57.6259 37.378 57.3308 37.4248Z" fill="#FF8B7B"/>
<path d="M53.9844 38.2864L55.8705 39.9304L57.3672 39.7884L55.8257 37.6445L53.9844 38.2864Z" fill="#FF8B7B"/>
</svg>
