<svg width="40" height="40" viewBox="0 0 40 40" fill="none" xmlns="http://www.w3.org/2000/svg">
<path d="M7.143 5.71456C7.143 6.78599 6.66681 7.60445 5.71443 8.16992V36.4288C5.71443 36.6223 5.64374 36.7897 5.50237 36.9311C5.361 37.0724 5.19359 37.1431 5.00014 37.1431H3.57157C3.37812 37.1431 3.2107 37.0724 3.06934 36.9311C2.92797 36.7897 2.85728 36.6223 2.85728 36.4288V8.16992C1.9049 7.60445 1.42871 6.78599 1.42871 5.71456C1.42871 4.92587 1.70773 4.25251 2.26576 3.69448C2.8238 3.13644 3.49716 2.85742 4.28585 2.85742C5.07454 2.85742 5.74791 3.13644 6.30594 3.69448C6.86398 4.25251 7.143 4.92587 7.143 5.71456ZM40.0001 7.14314V24.1744C40.0001 24.5464 39.9071 24.8329 39.7211 25.0338C39.5351 25.2347 39.2412 25.4393 38.8394 25.6476C35.64 27.3738 32.8945 28.2369 30.6028 28.2369C29.6951 28.2369 28.7762 28.0732 27.8461 27.7458C26.9161 27.4184 26.1088 27.0613 25.4242 26.6744C24.7397 26.2875 23.8803 25.9303 22.8461 25.603C21.8119 25.2756 20.7516 25.1119 19.6653 25.1119C16.8082 25.1119 13.3558 26.1982 9.30817 28.3708C9.0552 28.5047 8.80966 28.5717 8.57157 28.5717C8.18466 28.5717 7.84984 28.4303 7.5671 28.1476C7.28437 27.8649 7.143 27.53 7.143 27.1431V10.5806C7.143 10.1044 7.37365 9.69522 7.83496 9.35296C8.14746 9.14462 8.73526 8.82468 9.59835 8.39314C13.1103 6.60742 16.2427 5.71456 18.9957 5.71456C20.5879 5.71456 22.076 5.93034 23.46 6.36189C24.8439 6.79343 26.4734 7.4482 28.3484 8.32617C28.9138 8.60891 29.5686 8.75028 30.3126 8.75028C31.1162 8.75028 31.9905 8.59403 32.9354 8.28153C33.8803 7.96903 34.6988 7.61933 35.3908 7.23242C36.0827 6.84552 36.7375 6.49581 37.355 6.18331C37.9726 5.87081 38.3781 5.71456 38.5716 5.71456C38.9585 5.71456 39.2933 5.85593 39.576 6.13867C39.8588 6.42141 40.0001 6.75623 40.0001 7.14314Z" fill="#7B55D3"/>
</svg>
