<svg width="16" height="16" viewBox="0 0 16 16" fill="none" xmlns="http://www.w3.org/2000/svg">
<g clip-path="url(#clip0_3114_16066)">
<path fill-rule="evenodd" clip-rule="evenodd" d="M4.48329 4.36114C3.93031 4.90598 3.5076 5.56874 3.24675 6.2999C2.98589 7.03106 2.89364 7.81172 2.97689 8.58354C2.98464 8.68722 2.95172 8.78984 2.8851 8.86965C2.81849 8.94947 2.72341 9.00022 2.62002 9.01114C2.51663 9.02206 2.41305 8.9923 2.33123 8.92816C2.24941 8.86402 2.19577 8.77055 2.18169 8.66754C2.08567 7.7761 2.19229 6.87448 2.49359 6.03002C2.79489 5.18556 3.28307 4.42008 3.92169 3.79074C6.27129 1.47314 10.0617 1.51074 12.3873 3.86914C14.7129 6.22674 14.6977 10.0171 12.3473 12.3347C11.2594 13.4096 9.7988 14.0234 8.26969 14.0483C7.69157 14.0586 7.11499 13.9856 6.55769 13.8315C6.45542 13.8033 6.36855 13.7356 6.31619 13.6434C6.26383 13.5511 6.25027 13.4418 6.27849 13.3395C6.30671 13.2373 6.3744 13.1504 6.46667 13.098C6.55893 13.0457 6.66822 13.0321 6.77049 13.0603C7.25382 13.194 7.75389 13.2573 8.25529 13.2483C9.57922 13.2272 10.8439 12.6959 11.7857 11.7651C13.8185 9.76034 13.8353 6.47714 11.8177 4.43074C9.80009 2.38434 6.51609 2.35634 4.48329 4.36114Z" fill="#D32F2F"/>
<path fill-rule="evenodd" clip-rule="evenodd" d="M2.87531 9.09143C2.84033 9.13062 2.79797 9.16253 2.75065 9.18535C2.70334 9.20816 2.65199 9.22144 2.59954 9.22441C2.54709 9.22738 2.49457 9.21999 2.44498 9.20267C2.39539 9.18534 2.3497 9.15842 2.31051 9.12343L0.934512 7.89943C0.892213 7.86547 0.857262 7.82327 0.831783 7.77538C0.806305 7.7275 0.790833 7.67493 0.786307 7.62088C0.781781 7.56682 0.788296 7.51241 0.805456 7.46096C0.822616 7.4095 0.850062 7.36207 0.886125 7.32156C0.922189 7.28104 0.966116 7.24828 1.01524 7.22527C1.06436 7.20226 1.11764 7.18948 1.17186 7.18771C1.22607 7.18594 1.28008 7.19522 1.33059 7.21497C1.38111 7.23473 1.42708 7.26455 1.46571 7.30263L2.84171 8.52663C2.88101 8.5615 2.91306 8.60378 2.93602 8.65104C2.95898 8.6983 2.9724 8.74962 2.97552 8.80207C2.97864 8.85452 2.9714 8.90707 2.9542 8.95672C2.93701 9.00637 2.9102 9.05214 2.87531 9.09143Z" fill="#D32F2F"/>
<path fill-rule="evenodd" clip-rule="evenodd" d="M2.25603 9.04117C2.28754 9.08319 2.32703 9.1186 2.37223 9.14536C2.41743 9.17212 2.46746 9.18972 2.51946 9.19715C2.57146 9.20458 2.62441 9.20169 2.6753 9.18866C2.72618 9.17562 2.774 9.15269 2.81603 9.12117L4.41603 7.92117C4.5009 7.85752 4.557 7.76276 4.57201 7.65774C4.58701 7.55272 4.55968 7.44604 4.49603 7.36117C4.43237 7.2763 4.33762 7.22019 4.2326 7.20519C4.12758 7.19019 4.0209 7.21752 3.93603 7.28117L2.33603 8.48117C2.25116 8.54482 2.19505 8.63958 2.18005 8.7446C2.16504 8.84962 2.19238 8.9563 2.25603 9.04117ZM8.00003 5.20117C8.10611 5.20117 8.20786 5.24331 8.28287 5.31833C8.35788 5.39334 8.40003 5.49509 8.40003 5.60117V8.40117C8.40003 8.50726 8.35788 8.609 8.28287 8.68402C8.20786 8.75903 8.10611 8.80117 8.00003 8.80117C7.89394 8.80117 7.7922 8.75903 7.71718 8.68402C7.64217 8.609 7.60003 8.50726 7.60003 8.40117V5.60117C7.60003 5.49509 7.64217 5.39334 7.71718 5.31833C7.7922 5.24331 7.89394 5.20117 8.00003 5.20117Z" fill="#D32F2F"/>
<path fill-rule="evenodd" clip-rule="evenodd" d="M10.8001 8.40195C10.8001 8.50804 10.758 8.60978 10.6829 8.6848C10.6079 8.75981 10.5062 8.80195 10.4001 8.80195H8.0001C7.89401 8.80195 7.79227 8.75981 7.71725 8.6848C7.64224 8.60978 7.6001 8.50804 7.6001 8.40195C7.6001 8.29587 7.64224 8.19412 7.71725 8.11911C7.79227 8.0441 7.89401 8.00195 8.0001 8.00195H10.4001C10.5062 8.00195 10.6079 8.0441 10.6829 8.11911C10.758 8.19412 10.8001 8.29587 10.8001 8.40195Z" fill="#D32F2F"/>
<path d="M0.920141 1.50312C0.843016 1.42589 0.79973 1.32118 0.799805 1.21203C0.79988 1.10289 0.84331 0.998242 0.920541 0.921117C0.997772 0.843993 1.10248 0.800706 1.21162 0.800781C1.32077 0.800856 1.42542 0.844286 1.50254 0.921517L15.0793 14.4983C15.1565 14.5754 15.1998 14.68 15.1998 14.7891C15.1998 14.8982 15.1565 15.0028 15.0793 15.0799C15.0022 15.157 14.8976 15.2004 14.7885 15.2004C14.6795 15.2004 14.5749 15.157 14.4977 15.0799L0.920141 1.50312Z" fill="#D32F2F"/>
</g>
<defs>
<clipPath id="clip0_3114_16066">
<rect width="16" height="16" fill="white"/>
</clipPath>
</defs>
</svg>
