<svg width="68" height="68" viewBox="0 0 68 68" fill="none" xmlns="http://www.w3.org/2000/svg">
<g filter="url(#filter0_d_3122_24246)">
<circle cx="34" cy="30" r="30" fill="#EFEBF8"/>
</g>
<path d="M47.333 21.9993V25.226C47.333 27.3327 45.9997 28.666 43.893 28.666H39.333V19.346C39.333 17.866 40.5463 16.666 42.0263 16.666C43.4797 16.6793 44.813 17.266 45.773 18.226C46.733 19.1993 47.333 20.5327 47.333 21.9993Z" stroke="#7B55D3" stroke-width="1.5" stroke-miterlimit="10" stroke-linecap="round" stroke-linejoin="round"/>
<path d="M20.667 23.3327V41.9993C20.667 43.106 21.9203 43.7327 22.8003 43.066L25.0803 41.3593C25.6137 40.9593 26.3603 41.0127 26.8403 41.4927L29.0537 43.7194C29.5737 44.2394 30.427 44.2394 30.947 43.7194L33.187 41.4794C33.6537 41.0127 34.4003 40.9593 34.9203 41.3593L37.2003 43.066C38.0803 43.7194 39.3337 43.0927 39.3337 41.9993V19.3327C39.3337 17.866 40.5337 16.666 42.0003 16.666H27.3337H26.0003C22.0003 16.666 20.667 19.0527 20.667 21.9993V23.3327Z" stroke="#7B55D3" stroke-width="1.5" stroke-miterlimit="10" stroke-linecap="round" stroke-linejoin="round"/>
<path d="M26.333 27.334H33.6663" stroke="#7B55D3" stroke-width="1.5" stroke-linecap="round" stroke-linejoin="round"/>
<defs>
<filter id="filter0_d_3122_24246" x="0" y="0" width="68" height="68" filterUnits="userSpaceOnUse" color-interpolation-filters="sRGB">
<feFlood flood-opacity="0" result="BackgroundImageFix"/>
<feColorMatrix in="SourceAlpha" type="matrix" values="0 0 0 0 0 0 0 0 0 0 0 0 0 0 0 0 0 0 127 0" result="hardAlpha"/>
<feOffset dy="4"/>
<feGaussianBlur stdDeviation="2"/>
<feComposite in2="hardAlpha" operator="out"/>
<feColorMatrix type="matrix" values="0 0 0 0 0.482353 0 0 0 0 0.333333 0 0 0 0 0.827451 0 0 0 0.08 0"/>
<feBlend mode="normal" in2="BackgroundImageFix" result="effect1_dropShadow_3122_24246"/>
<feBlend mode="normal" in="SourceGraphic" in2="effect1_dropShadow_3122_24246" result="shape"/>
</filter>
</defs>
</svg>
