<svg width="40" height="40" viewBox="0 0 40 40" fill="none" xmlns="http://www.w3.org/2000/svg">
<g clip-path="url(#clip0_1905_118278)">
<path d="M17.2835 19.7907L37.8415 32.2667C38.2192 32.4959 38.7112 32.3755 38.9405 31.9978C39.1697 31.6201 39.0493 31.1281 38.6716 30.8989L18.1136 18.4228C17.7359 18.1936 17.2439 18.314 17.0146 18.6917C16.7854 19.0694 16.9058 19.5614 17.2835 19.7907Z" fill="#D32F2F"/>
<path d="M18.4222 19.3908C21.1427 15.9292 26.9941 15.3822 32.0088 18.2776C37.2028 21.2762 39.6231 26.8744 37.6671 30.9903C37.4774 31.3893 37.6472 31.8666 38.0462 32.0562C38.4452 32.2459 38.9225 32.0761 39.1121 31.6771C41.4617 26.7332 38.6699 20.2757 32.8088 16.892C27.1547 13.6274 20.4221 14.2568 17.1642 18.4021C16.8912 18.7495 16.9515 19.2525 17.2989 19.5255C17.6462 19.7985 18.1492 19.7382 18.4222 19.3908L18.4222 19.3908Z" fill="#D32F2F"/>
<path d="M26.7306 25.7807L18.9941 38.7707C18.7681 39.1503 18.8925 39.6413 19.2721 39.8674C19.6517 40.0934 20.1427 39.969 20.3688 39.5894L28.1052 26.5994C28.3313 26.2198 28.2068 25.7288 27.8272 25.5027C27.4476 25.2767 26.9566 25.4011 26.7306 25.7807ZM32.9768 14.9208L31.8948 16.7948C31.6739 17.1774 31.805 17.6667 32.1877 17.8876C32.5703 18.1085 33.0596 17.9775 33.2805 17.5948L34.3625 15.7208C34.5834 15.3382 34.4523 14.8489 34.0697 14.628C33.687 14.4071 33.1977 14.5382 32.9768 14.9208ZM12.7152 9.30989C12.7152 7.50653 11.2534 6.0447 9.45001 6.0447C7.64665 6.0447 6.18481 7.50653 6.18481 9.30989C6.18481 11.1133 7.64665 12.5751 9.45001 12.5751C11.2534 12.5751 12.7152 11.1133 12.7152 9.30989ZM14.3152 9.30989C14.3152 11.9969 12.137 14.1751 9.45001 14.1751C6.76298 14.1751 4.58481 11.9969 4.58481 9.30989C4.58481 6.62286 6.76298 4.4447 9.45001 4.4447C12.137 4.4447 14.3152 6.62286 14.3152 9.30989ZM8.65001 0.80001H10.25V2.00001H8.65001V0.80001ZM10.25 2.00001C10.25 3.06669 8.65001 3.06669 8.65001 2.00001V0.80001C8.65001 -0.26667 10.25 -0.26667 10.25 0.80001V2.00001ZM8.65001 16.9H10.25V18.1H8.65001V16.9ZM10.25 18.1C10.25 19.1667 8.65001 19.1667 8.65001 18.1V16.9C8.65001 15.8333 10.25 15.8333 10.25 16.9V18.1ZM2.7677 3.89911L3.89907 2.76774L4.74786 3.61653L3.61649 4.7479L2.7677 3.89911ZM4.74786 3.61653C5.50212 4.37079 4.37075 5.50216 3.61649 4.7479L2.7677 3.89911C2.01345 3.14485 3.14481 2.01349 3.89907 2.76774L4.74786 3.61653ZM14.1521 15.2835L15.2835 14.1521L16.1323 15.0009L15.0009 16.1323L14.1521 15.2835ZM16.1323 15.0009C16.8866 15.7552 15.7552 16.8865 15.0009 16.1323L14.1522 15.2835C13.3979 14.5292 14.5293 13.3979 15.2835 14.1521L16.1323 15.0009ZM0.80001 10.25V8.65001H2.00001V10.25H0.80001ZM2.00001 8.65001C3.06669 8.65001 3.06669 10.25 2.00001 10.25H0.80001C-0.26667 10.25 -0.26667 8.65001 0.80001 8.65001H2.00001ZM18.1 8.65001C19.1667 8.65001 19.1667 10.25 18.1 10.25H16.9C15.8333 10.25 15.8333 8.65001 16.9 8.65001H18.1ZM3.61653 14.1521C4.37079 13.3979 5.50216 14.5292 4.7479 15.2835L3.89911 16.1323C3.14485 16.8865 2.01349 15.7552 2.76774 15.0009L3.61653 14.1521ZM15.0009 2.7677C15.7552 2.01345 16.8865 3.14481 16.1323 3.89907L15.2835 4.74786C14.5292 5.50212 13.3979 4.37075 14.1521 3.61649L15.0009 2.7677Z" fill="#D32F2F"/>
<path d="M11.4695 31.4083C11.0034 31.0176 10.4108 30.8102 9.80279 30.825H5.89446C5.71626 30.8295 5.53899 30.798 5.37325 30.7324C5.20751 30.6668 5.05672 30.5684 4.9299 30.4431C4.80308 30.3178 4.70284 30.1683 4.63518 30.0034C4.56752 29.8384 4.53383 29.6616 4.53613 29.4833C4.53178 29.414 4.53178 29.3444 4.53613 29.275C4.58867 28.9565 4.75568 28.6681 5.00579 28.4641C5.25589 28.26 5.5719 28.1542 5.89446 28.1667H9.74446C10.0585 28.1664 10.3625 28.2777 10.6021 28.4807C10.8417 28.6837 11.0014 28.9652 11.0528 29.275H12.3028C12.2505 28.6324 11.9582 28.0331 11.4842 27.5962C11.0102 27.1592 10.3891 26.9166 9.74446 26.9167H8.42779V25H7.38613V26.9167H5.89446C5.24978 26.9166 4.62869 27.1592 4.15468 27.5962C3.68067 28.0331 3.38845 28.6324 3.33613 29.275C3.33197 29.3444 3.33197 29.414 3.33613 29.4833C3.33613 29.8193 3.4023 30.152 3.53087 30.4624C3.65944 30.7728 3.84788 31.0548 4.08544 31.2923C4.56522 31.7721 5.21595 32.0417 5.89446 32.0417H9.84446C10.0212 32.0372 10.1971 32.0682 10.3618 32.1328C10.5264 32.1974 10.6764 32.2943 10.803 32.4178C10.9296 32.5412 11.0302 32.6888 11.0988 32.8518C11.1675 33.0148 11.2028 33.1898 11.2028 33.3667C11.2114 33.4609 11.2114 33.5558 11.2028 33.65C11.1366 33.9432 10.9727 34.2052 10.738 34.393C10.5033 34.5808 10.2117 34.6831 9.91113 34.6833H5.99446C5.69388 34.6831 5.40229 34.5808 5.16757 34.393C4.93285 34.2052 4.76896 33.9432 4.70279 33.65H3.44446C3.51607 34.2761 3.81554 34.854 4.28581 35.2736C4.75607 35.6931 5.36425 35.925 5.99446 35.925H7.38613V37.8167H8.42779V35.925H9.84446C10.4747 35.925 11.0829 35.6931 11.5531 35.2736C12.0234 34.854 12.3228 34.2761 12.3945 33.65V33.3667C12.3935 32.9924 12.3101 32.6229 12.1502 32.2844C11.9903 31.946 11.7579 31.6469 11.4695 31.4083Z" fill="#D32F2F"/>
</g>
<defs>
<clipPath id="clip0_1905_118278">
<rect width="40" height="40" fill="white"/>
</clipPath>
</defs>
</svg>
