<svg width="68" height="68" viewBox="0 0 68 68" fill="none" xmlns="http://www.w3.org/2000/svg">
<g filter="url(#filter0_d_3122_24416)">
<circle cx="34" cy="30" r="30" fill="#D32F2F" fill-opacity="0.1" shape-rendering="crispEdges"/>
</g>
<g clip-path="url(#clip0_3122_24416)">
<path d="M45 40C45.2708 40 45.5052 40.099 45.7031 40.2969C45.901 40.4948 46 40.7292 46 41C46 41.2708 45.901 41.5052 45.7031 41.7031C45.5052 41.901 45.2708 42 45 42H33C32.7292 42 32.4948 41.901 32.2969 41.7031C32.099 41.5052 32 41.2708 32 41C32 40.7292 32.099 40.4948 32.2969 40.2969C32.4948 40.099 32.7292 40 33 40H45ZM43 44C43.2708 44 43.5052 44.099 43.7031 44.2969C43.901 44.4948 44 44.7292 44 45C44 45.2708 43.901 45.5052 43.7031 45.7031C43.5052 45.901 43.2708 46 43 46H35C34.7292 46 34.4948 45.901 34.2969 45.7031C34.099 45.5052 34 45.2708 34 45C34 44.7292 34.099 44.4948 34.2969 44.2969C34.4948 44.099 34.7292 44 35 44H43ZM46.7188 36H50V38H26.3906C26.2865 38.6667 26.2135 39.3333 26.1719 40C26.1302 40.6667 26.0938 41.3281 26.0625 41.9844C26.0312 42.6406 26.0156 43.3073 26.0156 43.9844C26.0156 44.6615 26.0104 45.3333 26 46H20V42.9844C20 42.1406 20.0312 41.3073 20.0938 40.4844C20.1562 39.6615 20.2448 38.8333 20.3594 38H18V36H20.6875C21.2083 33.4479 21.9948 30.9948 23.0469 28.6406C24.099 26.2865 25.401 24.0625 26.9531 21.9688C25.4323 21.9167 24.0365 21.599 22.7656 21.0156C21.4948 20.4323 20.3333 19.599 19.2812 18.5156L18.5781 17.7969L19.3125 17.1094C20.3958 16.099 21.5833 15.3333 22.875 14.8125C24.1667 14.2917 25.5573 14.026 27.0469 14.0156C28.6719 14.0156 30.1615 14.3177 31.5156 14.9219C32.8698 15.526 34.1146 16.401 35.25 17.5469C36.0521 17.5677 36.8281 17.6927 37.5781 17.9219C38.3281 18.151 39.026 18.4635 39.6719 18.8594C40.3177 19.2552 40.9062 19.724 41.4375 20.2656C41.9688 20.8073 42.4219 21.4062 42.7969 22.0625C43.1719 22.7188 43.4688 23.4219 43.6875 24.1719C43.9062 24.9219 44.0104 25.7031 44 26.5156V27.5156H43C41.625 27.5156 40.3385 27.224 39.1406 26.6406C37.9427 26.0573 36.9062 25.2292 36.0312 24.1562C35.2396 25.5938 34.2448 26.776 33.0469 27.7031C31.849 28.6302 30.4479 29.2812 28.8438 29.6562C28.3958 30.6875 28 31.7292 27.6562 32.7812C27.3125 33.8333 27.0156 34.9062 26.7656 36H31.2812C31.5104 35.125 31.8698 34.3229 32.3594 33.5938C32.849 32.8646 33.4323 32.2292 34.1094 31.6875C34.7865 31.1458 35.5469 30.7344 36.3906 30.4531C37.2344 30.1719 38.1042 30.0208 39 30C39.9062 30 40.776 30.1458 41.6094 30.4375C42.4427 30.7292 43.1979 31.1458 43.875 31.6875C44.5521 32.2292 45.1406 32.8594 45.6406 33.5781C46.1406 34.2969 46.5 35.1042 46.7188 36ZM37.3438 19.9375C37.2812 20.6146 37.1458 21.3021 36.9375 22C37.4688 22.9167 38.1667 23.6771 39.0312 24.2812C39.8958 24.8854 40.8594 25.2708 41.9219 25.4375C41.8177 24.8021 41.6354 24.2031 41.375 23.6406C41.1146 23.0781 40.7865 22.5521 40.3906 22.0625C39.9948 21.5729 39.5365 21.1562 39.0156 20.8125C38.4948 20.4688 37.9375 20.1771 37.3438 19.9375ZM35.375 20.0469C34.3125 20.1302 33.3125 20.3906 32.375 20.8281C31.4375 21.2656 30.599 21.8385 29.8594 22.5469C29.1198 23.2552 28.5104 24.0729 28.0312 25C27.5521 25.9271 27.2344 26.9115 27.0781 27.9531C27.9635 27.8802 28.8021 27.6927 29.5938 27.3906C30.3854 27.0885 31.1094 26.6823 31.7656 26.1719C32.4219 25.6615 33.0052 25.0781 33.5156 24.4219C34.026 23.7656 34.4479 23.0156 34.7812 22.1719C34.9271 21.8281 35.0469 21.4792 35.1406 21.125C35.2344 20.7708 35.3125 20.4115 35.375 20.0469ZM21.5 17.8594C22.3333 18.5469 23.2552 19.0729 24.2656 19.4375C25.276 19.8021 26.3229 19.9844 27.4062 19.9844C28.4167 19.9844 29.3906 19.8281 30.3281 19.5156C31.2656 19.2031 32.1406 18.7448 32.9531 18.1406C32.1198 17.4531 31.1979 16.9271 30.1875 16.5625C29.1771 16.1979 28.1302 16.0156 27.0469 16.0156C26.0365 16.0156 25.0625 16.1719 24.125 16.4844C23.1875 16.7969 22.3125 17.2552 21.5 17.8594ZM26.4688 29.9688C26.3854 29.9896 26.3021 30 26.2188 30C26.1354 30 26.0521 30 25.9688 30H25.4688C25.3021 30 25.1354 29.9896 24.9688 29.9688V29.2344C24.4167 30.4635 23.9531 31.6719 23.5781 32.8594C23.2031 34.0469 22.8958 35.2448 22.6562 36.4531C22.4167 37.6615 22.25 38.8854 22.1562 40.125C22.0625 41.3646 22.0104 42.6562 22 44H24C24 42.7396 24.0417 41.5208 24.125 40.3438C24.2083 39.1667 24.349 38.0052 24.5469 36.8594C24.7448 35.7135 25 34.5729 25.3125 33.4375C25.625 32.3021 26.0104 31.1458 26.4688 29.9688ZM33.375 36H44.625C44.4167 35.4062 44.125 34.8646 43.75 34.375C43.375 33.8854 42.9427 33.4635 42.4531 33.1094C41.9635 32.7552 41.4219 32.4844 40.8281 32.2969C40.2344 32.1094 39.625 32.0104 39 32C38.3646 32 37.7552 32.0938 37.1719 32.2812C36.5885 32.4688 36.0521 32.7396 35.5625 33.0938C35.0729 33.4479 34.6354 33.8698 34.25 34.3594C33.8646 34.849 33.5729 35.3958 33.375 36Z" fill="#D32F2F"/>
</g>
<defs>
<filter id="filter0_d_3122_24416" x="0" y="0" width="68" height="68" filterUnits="userSpaceOnUse" color-interpolation-filters="sRGB">
<feFlood flood-opacity="0" result="BackgroundImageFix"/>
<feColorMatrix in="SourceAlpha" type="matrix" values="0 0 0 0 0 0 0 0 0 0 0 0 0 0 0 0 0 0 127 0" result="hardAlpha"/>
<feOffset dy="4"/>
<feGaussianBlur stdDeviation="2"/>
<feComposite in2="hardAlpha" operator="out"/>
<feColorMatrix type="matrix" values="0 0 0 0 0.827451 0 0 0 0 0.184314 0 0 0 0 0.184314 0 0 0 0.08 0"/>
<feBlend mode="normal" in2="BackgroundImageFix" result="effect1_dropShadow_3122_24416"/>
<feBlend mode="normal" in="SourceGraphic" in2="effect1_dropShadow_3122_24416" result="shape"/>
</filter>
<clipPath id="clip0_3122_24416">
<rect width="32" height="32" fill="white" transform="translate(18 14)"/>
</clipPath>
</defs>
</svg>
