<svg width="104" height="80" viewBox="0 0 104 80" fill="none" xmlns="http://www.w3.org/2000/svg">
<path d="M5.69782 79.6921V63.8394H1.7872e-05V62.4387C-0.00109919 62.1736 0.0501592 61.9108 0.150836 61.6656C0.251514 61.4204 0.399616 61.1976 0.586597 61.0101C0.773578 60.8226 0.995736 60.6741 1.24025 60.5731C1.48477 60.4722 1.7468 60.4208 2.01123 60.4219H15.3064V63.8385H9.66396V79.6921H5.69782Z" fill="#7B58CA"/>
<path d="M21.7142 79.8287C20.9447 79.9181 20.1709 79.9649 19.3962 79.9689C18.1363 79.9946 16.9019 79.6115 15.8766 78.8767C15.3481 78.4455 14.9339 77.8901 14.6707 77.2597C14.4076 76.6294 14.3037 75.9438 14.3682 75.2635C14.308 74.634 14.4012 73.9993 14.6395 73.4138C14.8779 72.8284 15.2545 72.3097 15.7369 71.9024C16.7764 71.1801 17.9739 70.719 19.2283 70.5581C19.6036 70.5581 20.1223 70.4048 20.7921 70.3342C22.4262 70.1104 23.2498 69.6202 23.2498 68.878C23.2607 68.622 23.1792 68.3706 23.0201 68.17C22.8611 67.9693 22.6352 67.833 22.384 67.7859C21.8671 67.6262 21.3301 67.5413 20.7893 67.5338C19.7415 67.5338 18.8756 67.7718 18.4985 68.5986H14.7556C14.8842 67.4779 15.4455 66.4523 16.3194 65.7418C17.5542 64.812 19.0794 64.355 20.6204 64.453C22.254 64.3416 23.8844 64.7117 25.3107 65.5179C25.8268 65.8571 26.247 66.324 26.5308 66.8736C26.8146 67.4231 26.9523 68.0366 26.9308 68.6551V73.7527C27.0009 74.9735 26.7199 76.1888 26.1212 77.254C25.6516 78.022 24.9861 78.6503 24.1935 79.0743C23.4208 79.4775 22.5801 79.7333 21.7142 79.8287ZM23.3089 72.1827C22.6126 72.5079 21.8815 72.7522 21.1298 72.9108C20.278 73.0933 19.8456 73.193 19.8456 73.193C19.3079 73.3095 18.8082 73.5599 18.3925 73.9211C18.1443 74.2845 18.0083 74.7131 18.0013 75.1535C17.9897 75.4 18.0282 75.6464 18.1147 75.8775C18.2011 76.1086 18.3336 76.3196 18.5041 76.4977C18.9177 76.8192 19.434 76.9784 19.9563 76.9455C20.4063 76.9847 20.8593 76.9246 21.2837 76.7695C21.7081 76.6145 22.0935 76.3682 22.4129 76.0479C22.7323 75.7276 22.9779 75.3411 23.1325 74.9155C23.2871 74.4899 23.347 74.0356 23.308 73.5844L23.3089 72.1827Z" fill="#7B58CA"/>
<path d="M27.1601 74.7623H30.9584C30.9588 75.0883 31.0346 75.4097 31.18 75.7012C31.3254 75.9928 31.5363 76.2465 31.7961 76.4424C32.4678 76.8505 33.2462 77.0471 34.0305 77.0068C34.6315 77.0246 35.2272 76.8896 35.7622 76.6145C35.9617 76.5171 36.1301 76.3659 36.2486 76.1778C36.3671 75.9897 36.4309 75.7721 36.4329 75.5497C36.4329 74.878 35.6512 74.3741 34.0877 74.038C33.5775 73.9625 33.0733 73.8499 32.5793 73.7012C31.1349 73.4587 29.7725 72.8622 28.6132 71.9647C28.243 71.6251 27.9513 71.2086 27.7583 70.7442C27.5653 70.2799 27.4758 69.7788 27.496 69.2761C27.4853 68.6039 27.6254 67.9378 27.9058 67.3271C28.1862 66.7164 28.5997 66.1766 29.116 65.7476C30.3849 64.8437 31.9183 64.3902 33.4733 64.4588C35.117 64.3762 36.7434 64.8282 38.1102 65.7476C38.6387 66.1976 39.0663 66.7548 39.3647 67.3824C39.6632 68.01 39.8258 68.6939 39.8418 69.389H37.4404C37.1088 69.3972 36.7814 69.3125 36.4952 69.1443C36.209 68.9761 35.9753 68.7312 35.8204 68.437L35.3738 67.9893C34.8303 67.6249 34.1833 67.4479 33.5305 67.4851C32.9524 67.45 32.3751 67.566 31.8552 67.8218C31.6906 67.931 31.5575 68.0816 31.4692 68.2586C31.381 68.4356 31.3407 68.6327 31.3523 68.8303C31.3523 69.4323 32.3167 69.9365 34.2604 70.3429C34.5994 70.4763 34.9583 70.552 35.3222 70.5668C36.7465 70.8445 38.0973 71.4171 39.2884 72.2478C39.6455 72.5947 39.9248 73.0139 40.1079 73.4775C40.291 73.941 40.3736 74.4383 40.3503 74.9363C40.3847 75.6692 40.2398 76.3994 39.9283 77.0633C39.6169 77.7271 39.1482 78.3046 38.5632 78.7452C37.057 79.6733 35.2985 80.1043 33.5352 79.9775C31.8526 80.1025 30.1778 79.6478 28.7877 78.6888C28.2423 78.2352 27.8113 77.659 27.5298 77.007C27.2483 76.355 27.1242 75.6455 27.1676 74.9363L27.1601 74.7623Z" fill="#7B58CA"/>
<path d="M44.8699 64.7915V70.2777L49.6183 64.7878H54.3087L49.002 70.5016L54.3649 79.6884H49.6746L46.9374 74.6463C46.3745 73.6379 45.8905 73.2042 45.4852 73.3585C45.08 73.5128 44.8708 73.7348 44.8708 74.0311V79.6884H40.9609V60.422H42.9721C43.2222 60.419 43.4703 60.4675 43.7008 60.5646C43.9314 60.6617 44.1397 60.8053 44.3126 60.9864C44.49 61.1505 44.6316 61.3496 44.7284 61.5713C44.8253 61.7929 44.8754 62.0323 44.8755 62.2742L44.8699 64.7915Z" fill="#7B58CA"/>
<path d="M67.6727 75.0986C67.3508 76.5395 66.5172 77.8137 65.3275 78.6837C64.053 79.5761 62.5236 80.0284 60.9702 79.9724C60.0397 80.0242 59.1095 79.865 58.2488 79.5067C57.388 79.1484 56.6189 78.6002 55.9984 77.9029C54.7112 76.2674 54.0742 74.2116 54.2105 72.1326C54.0866 70.116 54.7026 68.1236 55.9422 66.5308C56.5627 65.8335 57.3318 65.2854 58.1926 64.9271C59.0533 64.5688 59.9834 64.4096 60.9139 64.4612C61.8734 64.4036 62.8341 64.554 63.7305 64.902C64.627 65.25 65.4382 65.7876 66.1089 66.4781C67.3832 68.1203 68.0183 70.1712 67.8959 72.2483V72.8645C67.9072 72.9978 67.8882 73.1318 67.8406 73.2567H58.1785C58.1421 74.1888 58.4396 75.1031 59.0171 75.8343C59.2864 76.1426 59.6234 76.384 60.0015 76.5395C60.3797 76.6951 60.7886 76.7605 61.1963 76.7307C61.7617 76.7493 62.3216 76.6137 62.8163 76.3385C63.0565 76.2191 63.2666 76.0468 63.4307 75.8343C63.5319 75.6529 63.6759 75.4992 63.85 75.3865C64.1544 75.1828 64.5165 75.0838 64.8819 75.1043L67.6727 75.0986ZM63.8744 70.7291C63.8727 69.9152 63.597 69.1256 63.0921 68.4883C62.5323 67.9834 61.8061 67.7041 61.0532 67.7041C60.3003 67.7041 59.5741 67.9834 59.0143 68.4883C58.4617 69.1017 58.162 69.9026 58.1757 70.7291H63.8744Z" fill="#7B58CA"/>
<path d="M78.8345 60.3672H80.7332C80.9852 60.3657 81.2348 60.4172 81.4657 60.5185C81.6966 60.6197 81.9037 60.7685 82.0737 60.9552C82.2507 61.1257 82.3917 61.3301 82.4884 61.5563C82.5851 61.7826 82.6354 62.026 82.6365 62.2721V73.1936C82.6365 75.8408 81.8682 77.6328 80.3458 78.5716C78.8531 79.4986 77.1297 79.9841 75.374 79.9723C74.4046 79.9739 73.4417 79.813 72.5251 79.4963C71.6447 79.2156 70.8671 78.6793 70.2906 77.9555C69.1314 76.3061 68.5607 74.3129 68.6706 72.2981C68.5712 70.2842 69.141 68.2941 70.2906 66.6398C70.7784 65.9544 71.4244 65.3977 72.1734 65.0171C72.9224 64.6366 73.7521 64.4435 74.5917 64.4545C75.4449 64.4353 76.2895 64.6292 77.0494 65.019C77.7742 65.4475 78.3871 66.0427 78.8374 66.7555L78.8345 60.3672ZM73.2999 75.5482C73.5687 75.9319 73.93 76.241 74.3501 76.4467C74.7701 76.6525 75.2354 76.7483 75.7023 76.725C76.1604 76.7429 76.6156 76.6444 77.0256 76.4387C77.4356 76.2329 77.7871 75.9267 78.0475 75.5482C78.6312 74.5084 78.9029 73.3216 78.8298 72.1306C78.8902 71.0048 78.5972 69.8882 77.9922 68.9379C77.7074 68.5756 77.3417 68.2854 76.9246 68.0908C76.5074 67.8961 76.0505 67.8026 75.5907 67.8175C75.1411 67.8044 74.6953 67.9052 74.2949 68.1108C73.8944 68.3163 73.5522 68.6199 73.2999 68.9934C72.6892 69.9205 72.3952 71.0215 72.4622 72.1306C72.3859 73.3287 72.6801 74.5212 73.3046 75.5454L73.2999 75.5482Z" fill="#7B58CA"/>
<path d="M85.9854 64.7891H87.9965C88.4996 64.7913 88.9814 64.9927 89.337 65.3495C89.6926 65.7063 89.8932 66.1895 89.8952 66.694V79.6897H85.9854V64.7891Z" fill="#65C7C3"/>
<path d="M103.999 79.6957H102.047C101.795 79.7072 101.543 79.6658 101.307 79.5741C101.072 79.4824 100.858 79.3425 100.679 79.1633C100.5 78.984 100.361 78.7694 100.27 78.533C100.178 78.2967 100.137 78.0439 100.149 77.7907V70.1711C100.182 69.8029 100.126 69.4322 99.9844 69.0907C99.8432 68.7493 99.6215 68.4473 99.3383 68.2107C98.8179 67.8096 98.1795 67.5929 97.5231 67.5945C96.8743 67.5885 96.2432 67.806 95.7352 68.2107C95.4614 68.4537 95.2481 68.7575 95.1122 69.0979C94.9764 69.4382 94.9218 69.8058 94.9528 70.1711V79.6947H91.043V70.9594C91.043 68.4252 91.6996 66.7159 93.0261 65.8617C94.3351 65.0067 95.8504 64.5227 97.4115 64.461C99.0107 64.4536 100.579 64.9005 101.936 65.7498C103.318 66.604 104 68.3405 104 70.9594L103.999 79.6957Z" fill="#65C7C3"/>
<path d="M87.6825 63.7099C88.7621 63.7099 89.6374 62.8322 89.6374 61.7495C89.6374 60.6668 88.7621 59.7891 87.6825 59.7891C86.6028 59.7891 85.7275 60.6668 85.7275 61.7495C85.7275 62.8322 86.6028 63.7099 87.6825 63.7099Z" fill="#65C7C3"/>
<path d="M76.8099 20.4413C76.4358 18.712 75.8948 17.0234 75.1945 15.3992C74.0791 12.8602 72.5751 10.5115 70.7369 8.43799C67.3887 4.6548 62.9793 1.97374 58.0861 0.745902C56.7558 0.450904 55.4087 0.237596 54.0524 0.107167C52.2219 -0.0817569 50.3742 -0.0206805 48.5601 0.288723C47.2715 0.494814 45.9963 0.77752 44.7412 1.13535C42.2184 1.8768 39.8362 3.03433 37.6926 4.56044C35.4774 6.11092 33.5332 8.01804 31.9385 10.2046C29.747 13.1567 28.2645 16.5761 27.6065 20.1967C27.356 21.5168 27.1869 22.851 27.0999 24.1919C27.0028 26.2738 27.167 28.3597 27.5887 30.4005C27.8816 31.888 28.2989 33.3481 28.8363 34.7653C29.3443 36.0955 29.9664 37.3791 30.6955 38.6015L26.085 49.6923L37.6438 46.16C39.8294 47.7677 42.2742 48.9867 44.8716 49.7638C45.2468 49.8805 45.289 49.8532 45.289 49.4478C45.289 47.1318 45.2965 44.8148 45.289 42.4988C45.2803 42.4263 45.2557 42.3567 45.2171 42.2947C45.1786 42.2328 45.1269 42.1801 45.0658 42.1404C44.3153 41.7209 43.5292 41.3625 42.7985 40.9175C40.3893 39.441 38.3806 37.3911 36.9506 34.9497C35.538 32.6095 34.6816 29.9746 34.4478 27.2491C34.2448 25.2197 34.3597 23.1708 34.7883 21.1769C35.2131 19.2913 35.9358 17.4859 36.929 15.8291C39.0712 12.2722 42.4006 9.59126 46.3265 8.26208C48.0259 7.66147 49.8126 7.34649 51.6144 7.32985C52.4024 7.3355 53.1913 7.38065 53.9755 7.45214C54.7405 7.50034 55.501 7.60345 56.2513 7.76069C58.1166 8.20617 59.8942 8.96233 61.5101 9.99767C63.6584 11.3614 65.497 13.1625 66.9067 15.2844C68.6794 17.9037 69.7588 20.932 70.0436 24.0846C70.248 26.0792 70.1343 28.0937 69.7069 30.0524C69.334 31.8081 68.6805 33.4917 67.7716 35.0381C67.145 36.1997 66.2862 37.2191 65.2488 38.0326C64.2115 38.8461 63.0179 39.4362 61.7427 39.7661C60.8623 40.0045 59.9373 40.0242 59.0476 39.8235C58.0264 39.5657 57.0737 39.0868 56.2567 38.4205C55.4396 37.7542 54.7778 36.9167 54.3179 35.9666C53.762 34.9052 53.4073 33.7496 53.272 32.5585C53.1219 31.28 53.0421 29.9941 52.9352 28.711C52.9155 28.4758 52.9352 28.2707 53.2616 28.2651C53.8123 28.2548 54.362 28.2134 54.9126 28.2096C56.3263 28.2011 57.74 28.2096 59.1536 28.2096C59.617 28.2096 59.6227 28.2021 59.6227 27.7534C59.6227 25.6443 59.617 23.5353 59.6302 21.4262C59.6302 21.0829 59.5364 20.9709 59.1827 20.9737C57.2287 20.9907 55.2747 20.9737 53.3217 20.9907C52.9643 20.9907 52.877 20.8797 52.8808 20.5373C52.8967 19.1168 52.8892 17.6954 52.8892 16.275C51.9219 17.2157 50.6263 17.7404 49.2788 17.737C47.9312 17.7337 46.6382 17.2026 45.6755 16.2571C45.6805 20.4589 45.6805 24.6635 45.6755 28.8709C45.6694 30.2978 45.7801 31.7227 46.0066 33.1313C46.2544 34.6859 46.6731 36.2081 47.2552 37.6702C48.2114 40.1483 49.7675 42.3489 51.7833 44.0735C53.6017 45.6427 55.8217 46.6704 58.1921 47.0405C59.7044 47.2753 61.2454 47.2501 62.7492 46.9662C64.1606 46.7084 65.5282 46.2507 66.811 45.6069C69.9252 44.0053 72.492 41.5085 74.1833 38.4359C75.3276 36.4154 76.1747 34.2397 76.6983 31.9762C77.0756 30.3875 77.3058 28.7674 77.3859 27.1363C77.4884 24.8889 77.2947 22.6378 76.8099 20.4413V20.4413Z" fill="#7B58CA"/>
<path d="M52.8832 12.3915C52.8459 11.447 52.441 10.5548 51.7553 9.90625C51.0696 9.25772 50.1577 8.90456 49.2153 8.92253C48.2729 8.9405 47.3751 9.32818 46.7144 10.0024C46.0538 10.6766 45.683 11.5836 45.6816 12.5288C45.6816 12.638 45.6882 12.7443 45.6976 12.8506C45.7794 13.7651 46.2055 14.6141 46.8892 15.2248C47.573 15.8355 48.4631 16.1621 49.3784 16.1381C50.2938 16.1142 51.1656 15.7415 51.8167 15.0958C52.4677 14.4501 52.8491 13.58 52.8832 12.6624C52.8832 12.6163 52.8897 12.5683 52.8897 12.5241C52.8897 12.4799 52.8879 12.4376 52.8832 12.3915Z" fill="#77DCD8"/>
<path d="M52.9647 28.3945C52.9647 28.3945 45.7275 30.7049 47.7331 38.8222C48.8658 41.3656 50.7242 43.5156 53.074 45.0011C55.4237 46.4865 58.1596 47.2409 60.9364 47.169L59.6062 39.92C59.6062 39.92 52.7442 39.5268 52.9647 28.3945Z" fill="#7B58CA"/>
</svg>
