<svg width="16" height="16" viewBox="0 0 16 16" fill="none" xmlns="http://www.w3.org/2000/svg">
<path d="M11.3334 6.66666C12.4379 6.66666 13.3334 5.77123 13.3334 4.66666C13.3334 3.56209 12.4379 2.66666 11.3334 2.66666C10.2288 2.66666 9.33337 3.56209 9.33337 4.66666C9.33337 5.77123 10.2288 6.66666 11.3334 6.66666Z" stroke="#999999" stroke-linecap="round" stroke-linejoin="round"/>
<path d="M4.66669 13.3333C5.77126 13.3333 6.66669 12.4379 6.66669 11.3333C6.66669 10.2287 5.77126 9.33331 4.66669 9.33331C3.56212 9.33331 2.66669 10.2287 2.66669 11.3333C2.66669 12.4379 3.56212 13.3333 4.66669 13.3333Z" stroke="#999999" stroke-linecap="round" stroke-linejoin="round"/>
<path d="M9.33335 9.33332H13.3334V12.6667C13.3334 12.8435 13.2631 13.013 13.1381 13.1381C13.0131 13.2631 12.8435 13.3333 12.6667 13.3333H10C9.82321 13.3333 9.65364 13.2631 9.52862 13.1381C9.40359 13.013 9.33335 12.8435 9.33335 12.6667V9.33332ZM2.66669 2.66666H6.66669V5.99999C6.66669 6.1768 6.59645 6.34637 6.47142 6.47139C6.3464 6.59642 6.17683 6.66666 6.00002 6.66666H3.33335C3.15654 6.66666 2.98697 6.59642 2.86195 6.47139C2.73693 6.34637 2.66669 6.1768 2.66669 5.99999V2.66666Z" stroke="#999999" stroke-linecap="round" stroke-linejoin="round"/>
</svg>
