<svg width="16" height="16" viewBox="0 0 16 16" fill="none" xmlns="http://www.w3.org/2000/svg">
<path d="M6 14.6667H10C13.3333 14.6667 14.6667 13.3334 14.6667 10V6.00004C14.6667 2.66671 13.3333 1.33337 10 1.33337H6C2.66667 1.33337 1.33334 2.66671 1.33334 6.00004V10C1.33334 13.3334 2.66667 14.6667 6 14.6667Z" stroke="#606060" stroke-width="1.5" stroke-linecap="round" stroke-linejoin="round"/>
<path d="M10.38 12.3333V9.73328" stroke="#606060" stroke-width="1.5" stroke-miterlimit="10" stroke-linecap="round" stroke-linejoin="round"/>
<path d="M10.38 4.96663V3.66663" stroke="#606060" stroke-width="1.5" stroke-miterlimit="10" stroke-linecap="round" stroke-linejoin="round"/>
<path d="M10.38 8.43334C11.3373 8.43334 12.1133 7.6573 12.1133 6.70001C12.1133 5.74271 11.3373 4.96667 10.38 4.96667C9.42271 4.96667 8.64667 5.74271 8.64667 6.70001C8.64667 7.6573 9.42271 8.43334 10.38 8.43334Z" stroke="#606060" stroke-width="1.5" stroke-miterlimit="10" stroke-linecap="round" stroke-linejoin="round"/>
<path d="M5.62 12.3333V11.0333" stroke="#606060" stroke-width="1.5" stroke-miterlimit="10" stroke-linecap="round" stroke-linejoin="round"/>
<path d="M5.62 6.26663V3.66663" stroke="#606060" stroke-width="1.5" stroke-miterlimit="10" stroke-linecap="round" stroke-linejoin="round"/>
<path d="M5.62 11.0333C6.57729 11.0333 7.35333 10.2573 7.35333 9.29998C7.35333 8.34269 6.57729 7.56665 5.62 7.56665C4.66271 7.56665 3.88667 8.34269 3.88667 9.29998C3.88667 10.2573 4.66271 11.0333 5.62 11.0333Z" stroke="#606060" stroke-width="1.5" stroke-miterlimit="10" stroke-linecap="round" stroke-linejoin="round"/>
</svg>
