<svg width="16" height="16" viewBox="0 0 16 16" fill="none" xmlns="http://www.w3.org/2000/svg">
<path d="M4.46659 12.0007H2.7666C1.81327 12.0007 1.33325 11.5206 1.33325 10.5673V2.76733C1.33325 1.814 1.81327 1.33398 2.7666 1.33398H5.63326C6.58659 1.33398 7.06657 1.814 7.06657 2.76733V4.00065" stroke="#999999" stroke-width="1.5" stroke-miterlimit="10" stroke-linecap="round" stroke-linejoin="round"/>
<path d="M11.5801 5.61332V13.0533C11.5801 14.1267 11.0468 14.6667 9.97347 14.6667H6.08012C5.00679 14.6667 4.4668 14.1267 4.4668 13.0533V5.61332C4.4668 4.53999 5.00679 4 6.08012 4H9.97347C11.0468 4 11.5801 4.53999 11.5801 5.61332Z" stroke="#999999" stroke-width="1.5" stroke-miterlimit="10" stroke-linecap="round" stroke-linejoin="round"/>
<path d="M8.93335 4.00065V2.76733C8.93335 1.814 9.41333 1.33398 10.3667 1.33398H13.2333C14.1867 1.33398 14.6667 1.814 14.6667 2.76733V10.5673C14.6667 11.5206 14.1867 12.0007 13.2333 12.0007H11.58" stroke="#999999" stroke-width="1.5" stroke-miterlimit="10" stroke-linecap="round" stroke-linejoin="round"/>
<path d="M6.66675 7.33398H9.33341" stroke="#999999" stroke-width="1.5" stroke-miterlimit="10" stroke-linecap="round" stroke-linejoin="round"/>
<path d="M6.66675 9.33398H9.33341" stroke="#999999" stroke-width="1.5" stroke-miterlimit="10" stroke-linecap="round" stroke-linejoin="round"/>
<path d="M8 14.666V12.666" stroke="#999999" stroke-width="1.5" stroke-miterlimit="10" stroke-linecap="round" stroke-linejoin="round"/>
</svg>
