<svg width="16" height="16" viewBox="0 0 16 16" fill="none" xmlns="http://www.w3.org/2000/svg">
<path d="M13.3333 9.33268C14.0697 9.33268 14.6667 8.73573 14.6667 7.99935C14.6667 7.26297 14.0697 6.66602 13.3333 6.66602C12.597 6.66602 12 7.26297 12 7.99935C12 8.73573 12.597 9.33268 13.3333 9.33268Z" stroke="#999999" stroke-width="1.5" stroke-linecap="round" stroke-linejoin="round"/>
<path d="M13.3333 4.00065C14.0697 4.00065 14.6667 3.4037 14.6667 2.66732C14.6667 1.93094 14.0697 1.33398 13.3333 1.33398C12.597 1.33398 12 1.93094 12 2.66732C12 3.4037 12.597 4.00065 13.3333 4.00065Z" stroke="#999999" stroke-width="1.5" stroke-linecap="round" stroke-linejoin="round"/>
<path d="M13.3333 14.6667C14.0697 14.6667 14.6667 14.0697 14.6667 13.3333C14.6667 12.597 14.0697 12 13.3333 12C12.597 12 12 12.597 12 13.3333C12 14.0697 12.597 14.6667 13.3333 14.6667Z" stroke="#999999" stroke-width="1.5" stroke-linecap="round" stroke-linejoin="round"/>
<path d="M2.66659 9.33268C3.40296 9.33268 3.99992 8.73573 3.99992 7.99935C3.99992 7.26297 3.40296 6.66602 2.66659 6.66602C1.93021 6.66602 1.33325 7.26297 1.33325 7.99935C1.33325 8.73573 1.93021 9.33268 2.66659 9.33268Z" stroke="#999999" stroke-width="1.5" stroke-linecap="round" stroke-linejoin="round"/>
<path d="M4 8H12" stroke="#999999" stroke-width="1.5" stroke-linecap="round" stroke-linejoin="round"/>
<path d="M11.9999 2.66602H9.33325C7.99992 2.66602 7.33325 3.33268 7.33325 4.66602V11.3327C7.33325 12.666 7.99992 13.3327 9.33325 13.3327H11.9999" stroke="#999999" stroke-width="1.5" stroke-linecap="round" stroke-linejoin="round"/>
</svg>
