<svg width="16" height="16" viewBox="0 0 16 16" fill="none" xmlns="http://www.w3.org/2000/svg">
<g clip-path="url(#clip0_2532_7444)">
<path d="M8.00001 6.50004C7.93355 6.49964 7.86784 6.48604 7.80668 6.46004C7.71552 6.42268 7.63761 6.35893 7.58297 6.27696C7.52832 6.19499 7.49943 6.09855 7.50001 6.00004V1.33337C7.50088 1.20104 7.55384 1.07437 7.64742 0.980786C7.741 0.887206 7.86767 0.834248 8.00001 0.833374C8.13235 0.834248 8.25902 0.887206 8.3526 0.980786C8.44618 1.07437 8.49913 1.20104 8.50001 1.33337V4.79337L8.98001 4.31337C9.07479 4.22505 9.20016 4.17697 9.32969 4.17926C9.45922 4.18154 9.58281 4.23402 9.67442 4.32563C9.76603 4.41723 9.81851 4.54082 9.82079 4.67036C9.82308 4.79989 9.775 4.92526 9.68668 5.02004L8.35334 6.35337C8.30698 6.39985 8.25191 6.43672 8.19128 6.46189C8.13065 6.48705 8.06565 6.50002 8.00001 6.50004Z" fill="#999999"/>
<path d="M8 6.50201C7.93431 6.50224 7.86924 6.4894 7.80858 6.46421C7.74791 6.43903 7.69287 6.40202 7.64666 6.35534L6.31333 5.02201C6.21944 4.9283 6.16663 4.80113 6.1665 4.66848C6.16638 4.53583 6.21895 4.40856 6.31266 4.31467C6.40637 4.22079 6.53354 4.16797 6.66619 4.16785C6.79884 4.16772 6.92611 4.2203 7.02 4.31401L8.35333 5.64734C8.44632 5.74143 8.49847 5.86839 8.49847 6.00067C8.49847 6.13296 8.44632 6.25992 8.35333 6.35401C8.30723 6.40093 8.25224 6.43819 8.19157 6.4636C8.1309 6.48901 8.06577 6.50207 8 6.50201Z" fill="#999999"/>
<path d="M9.17334 11.8334H6.82001C6.4792 11.8349 6.14481 11.7407 5.85488 11.5616C5.56495 11.3824 5.33113 11.1255 5.18001 10.82L4.40001 9.26003C4.38716 9.23199 4.36648 9.20827 4.34046 9.19171C4.31444 9.17515 4.28418 9.16646 4.25334 9.1667H1.32001C1.18767 9.16583 1.061 9.11287 0.967419 9.01929C0.87384 8.92571 0.820881 8.79904 0.820007 8.6667C0.820881 8.53436 0.87384 8.40769 0.967419 8.31411C1.061 8.22053 1.18767 8.16757 1.32001 8.1667H4.26001C4.47751 8.16573 4.69091 8.22582 4.87595 8.34014C5.06098 8.45446 5.21022 8.61842 5.30667 8.81337L6.08667 10.3734C6.15489 10.5128 6.26125 10.63 6.39341 10.7115C6.52557 10.7929 6.67812 10.8352 6.83334 10.8334H9.18667C9.3419 10.8352 9.49444 10.7929 9.62661 10.7115C9.75877 10.63 9.86513 10.5128 9.93334 10.3734L10.7133 8.81337C10.8098 8.61842 10.959 8.45446 11.1441 8.34014C11.3291 8.22582 11.5425 8.16573 11.76 8.1667H14.6667C14.799 8.16757 14.9257 8.22053 15.0193 8.31411C15.1128 8.40769 15.1658 8.53436 15.1667 8.6667C15.1658 8.79904 15.1128 8.92571 15.0193 9.01929C14.9257 9.11287 14.799 9.16583 14.6667 9.1667H11.76C11.729 9.16558 11.6984 9.17391 11.6722 9.19057C11.646 9.20724 11.6255 9.23146 11.6133 9.26003L10.8333 10.82C10.676 11.1247 10.4379 11.3804 10.1452 11.5591C9.85248 11.7378 9.5163 11.8327 9.17334 11.8334Z" fill="#999999"/>
<path d="M9.99998 15.1667H5.99998C2.37998 15.1667 0.833313 13.62 0.833313 10V7.33333C0.833313 4.20667 1.99331 2.64 4.59331 2.26C4.65818 2.24972 4.72445 2.25247 4.78824 2.2681C4.85203 2.28373 4.91206 2.31192 4.96482 2.35103C5.01759 2.39014 5.06202 2.43938 5.09553 2.49586C5.12904 2.55235 5.15095 2.61495 5.15998 2.68C5.16971 2.7448 5.16656 2.81088 5.15071 2.87446C5.13485 2.93804 5.10661 2.99786 5.06759 3.05051C5.02857 3.10315 4.97955 3.14757 4.92333 3.18123C4.86712 3.2149 4.80481 3.23713 4.73998 3.24667C2.64665 3.55333 1.83331 4.7 1.83331 7.33333V10C1.83331 13.0733 2.92665 14.1667 5.99998 14.1667H9.99998C13.0733 14.1667 14.1666 13.0733 14.1666 10V7.33333C14.1666 4.7 13.3533 3.55333 11.26 3.24667C11.1952 3.23704 11.1329 3.21474 11.0768 3.18105C11.0206 3.14736 10.9716 3.10294 10.9326 3.05032C10.8936 2.9977 10.8654 2.93791 10.8495 2.87437C10.8336 2.81083 10.8303 2.74479 10.84 2.68C10.8496 2.61522 10.8719 2.55296 10.9056 2.49679C10.9393 2.44062 10.9837 2.39164 11.0363 2.35264C11.0889 2.31364 11.1487 2.28538 11.2123 2.26949C11.2758 2.25359 11.3419 2.25037 11.4066 2.26C14.0066 2.64 15.1666 4.20667 15.1666 7.33333V10C15.1666 13.62 13.62 15.1667 9.99998 15.1667Z" fill="#999999"/>
</g>
<defs>
<clipPath id="clip0_2532_7444">
<rect width="16" height="16" fill="white"/>
</clipPath>
</defs>
</svg>
