<svg version="1.2" xmlns="http://www.w3.org/2000/svg" viewBox="0 0 16 16" width="16" height="16">
	<title>leave-svg</title>
	<defs>
		<clipPath clipPathUnits="userSpaceOnUse" id="cp1">
			<path d="m0 0h16v16h-16z"/>
		</clipPath>
	</defs>
	<style>
		.s0 { fill: #606060 } 
	</style>
	<g id="Clip-Path" clip-path="url(#cp1)">
		<g id="Layer">
			<path id="Layer" fill-rule="evenodd" class="s0" d="m10.4 2.5q0.2-0.3 0.4-0.3 0.3-0.1 0.5 0 0.3 0.2 0.3 0.4 0.1 0.3 0 0.5v0.1c1 0.8 1.8 1.9 2.2 3.2 0.3 1.3 0.3 2.7-0.3 3.9-0.3 0.8-1.2 1-1.8 0.6l-3.4-2-2.2 3.8h7.2q0.3 0 0.5 0.2 0.2 0.2 0.2 0.4 0 0.3-0.2 0.5-0.2 0.2-0.5 0.2h-10.6q-0.3 0-0.5-0.2-0.2-0.2-0.2-0.5 0-0.2 0.2-0.4 0.2-0.2 0.5-0.2h1.9l2.5-4.5-3.5-2c-0.6-0.3-0.9-1.2-0.4-1.8 0.8-1.1 2-1.9 3.3-2.2 1.3-0.3 2.7-0.2 3.9 0.3zm1.4 2.8v0.3c-0.2 0.8-0.5 1.8-1 2.9l-0.2 0.2 1.7 1c0.3-0.7 0.4-1.5 0.3-2.3-0.1-0.7-0.3-1.5-0.8-2.1zm-1.4-1.3h-0.1v-0.1c0 0-0.1 0-0.3 0.1q-0.4 0.1-0.9 0.5c-0.6 0.5-1.2 1.2-1.8 2l-0.1 0.3 2.3 1.3c0.5-1 0.8-2 1-2.8q0.1-0.7 0-1c-0.1-0.2-0.1-0.3-0.1-0.3zm-6.1 1.1l1.7 1c0.7-1.1 1.5-2 2.2-2.6q0.1-0.1 0.2-0.1c-0.7-0.1-1.5 0-2.2 0.3-0.8 0.3-1.4 0.8-1.9 1.4z"/>
		</g>
	</g>
</svg>