<svg width="16" height="16" viewBox="0 0 16 16" fill="none" xmlns="http://www.w3.org/2000/svg">
<path d="M7.99967 7.73073L9.66634 9.3974C9.78856 9.51962 9.84967 9.67517 9.84967 9.86406C9.84967 10.053 9.78856 10.2085 9.66634 10.3307C9.54412 10.453 9.38856 10.5141 9.19967 10.5141C9.01079 10.5141 8.85523 10.453 8.73301 10.3307L6.86634 8.46406C6.79967 8.3974 6.74967 8.32251 6.71634 8.2394C6.68301 8.15628 6.66634 8.07006 6.66634 7.98073V5.33073C6.66634 5.14184 6.73034 4.98362 6.85834 4.85606C6.98634 4.72851 7.14456 4.66451 7.33301 4.66406C7.5219 4.66406 7.68034 4.72806 7.80834 4.85606C7.93634 4.98406 8.00012 5.14228 7.99967 5.33073V7.73073ZM11.9997 3.9974H10.6663C10.4775 3.9974 10.3192 3.93362 10.1917 3.80606C10.0641 3.67851 10.0001 3.52006 9.99967 3.33073C9.99967 3.14184 10.0637 2.98362 10.1917 2.85606C10.3197 2.72851 10.4779 2.66451 10.6663 2.66406H11.9997V1.33073C11.9997 1.14184 12.0637 0.983618 12.1917 0.856062C12.3197 0.728507 12.4779 0.664507 12.6663 0.664062C12.8552 0.664062 13.0137 0.728062 13.1417 0.856062C13.2697 0.984062 13.3335 1.14228 13.333 1.33073V2.66406H14.6663C14.8552 2.66406 15.0137 2.72806 15.1417 2.85606C15.2697 2.98406 15.3335 3.14228 15.333 3.33073C15.333 3.51962 15.269 3.67806 15.141 3.80606C15.013 3.93406 14.8548 3.99784 14.6663 3.9974H13.333V5.33073C13.333 5.51962 13.269 5.67806 13.141 5.80606C13.013 5.93406 12.8548 5.99784 12.6663 5.9974C12.4775 5.9974 12.3192 5.9334 12.1917 5.8054C12.0641 5.6774 12.0001 5.51917 11.9997 5.33073V3.9974ZM7.33301 13.9974C6.49967 13.9974 5.71923 13.8418 4.99167 13.5307C4.26412 13.2196 3.6279 12.7918 3.08301 12.2474C2.53856 11.703 2.11079 11.0667 1.79967 10.3387C1.48856 9.61073 1.33301 8.83028 1.33301 7.9974C1.33301 7.16406 1.48856 6.38362 1.79967 5.65606C2.11079 4.92851 2.53856 4.29228 3.08301 3.7474C3.62745 3.20295 4.26367 2.77517 4.99167 2.46406C5.71967 2.15295 6.50012 1.9974 7.33301 1.9974C7.45523 1.9974 7.56923 2.00028 7.67501 2.00606C7.78079 2.01184 7.89456 2.02562 8.01634 2.0474C8.20523 2.0474 8.36367 2.1114 8.49167 2.2394C8.61967 2.3674 8.68345 2.52562 8.68301 2.71406C8.68301 2.90295 8.61901 3.0614 8.49101 3.1894C8.36301 3.3174 8.20479 3.38117 8.01634 3.38073C7.89412 3.38073 7.78012 3.37228 7.67434 3.3554C7.56856 3.33851 7.45479 3.33028 7.33301 3.33073C6.0219 3.33073 4.91634 3.78073 4.01634 4.68073C3.11634 5.58073 2.66634 6.68628 2.66634 7.9974C2.66634 9.30851 3.11634 10.4141 4.01634 11.3141C4.91634 12.2141 6.0219 12.6641 7.33301 12.6641C8.64412 12.6641 9.74967 12.2141 10.6497 11.3141C11.5497 10.4141 11.9997 9.30851 11.9997 7.9974C11.9997 7.80851 12.0637 7.65028 12.1917 7.52273C12.3197 7.39517 12.4779 7.33117 12.6663 7.33073C12.8552 7.33073 13.0137 7.39473 13.1417 7.52273C13.2697 7.65073 13.3335 7.80895 13.333 7.9974C13.333 8.83073 13.1775 9.61139 12.8663 10.3394C12.5552 11.0674 12.1275 11.7034 11.583 12.2474C11.0386 12.7918 10.4023 13.2196 9.67434 13.5307C8.94634 13.8418 8.1659 13.9974 7.33301 13.9974Z" fill="#606060"/>
</svg>
