<svg width="24" height="24" viewBox="0 0 24 24" fill="none" xmlns="http://www.w3.org/2000/svg">
<path d="M10.9028 19.8701H17.3728C21.0728 19.8701 21.9928 18.9501 21.9928 15.2501C20.7128 15.2501 19.6828 14.2101 19.6828 12.9401C19.6828 11.6601 20.7128 10.6201 21.9928 10.6201V9.70008C21.9928 6.00008 21.0728 5.08008 17.3728 5.08008H10.9928V11.8701" stroke="#292D32" stroke-width="1.5" stroke-linecap="round" stroke-linejoin="round"/>
<path d="M10.9941 16.87V19.87H8.22405C6.74405 19.87 5.87405 18.86 4.91405 16.54L4.73405 16.09C5.94405 15.61 6.53405 14.21 6.02405 13C5.53405 11.79 4.14405 11.21 2.92405 11.71L2.75405 11.28C1.31405 7.76 1.81405 6.53 5.33405 5.08L7.97405 4L10.9941 11.32V13.87" stroke="#292D32" stroke-width="1.5" stroke-linecap="round" stroke-linejoin="round"/>
<path d="M8.16268 19.8701H7.99268" stroke="#292D32" stroke-width="1.5" stroke-linecap="round" stroke-linejoin="round"/>
</svg>
