<svg width="24" height="24" viewBox="0 0 16 16" fill="none" xmlns="http://www.w3.org/2000/svg">
<path d="M3.5998 3.19922C3.06937 3.19922 2.56066 3.40993 2.18559 3.78501C1.81052 4.16008 1.5998 4.66879 1.5998 5.19922V7.46882C1.8478 7.35042 2.1174 7.26802 2.3998 7.22722V5.19922C2.3998 4.88096 2.52623 4.57573 2.75128 4.35069C2.97632 4.12565 3.28155 3.99922 3.5998 3.99922H9.19981C9.51807 3.99922 9.82329 4.12565 10.0483 4.35069C10.2734 4.57573 10.3998 4.88096 10.3998 5.19922V10.7992C10.3998 11.1175 10.2734 11.4227 10.0483 11.6477C9.82329 11.8728 9.51807 11.9992 9.19981 11.9992H8.79981V12.7992H9.19981C9.73024 12.7992 10.2389 12.5885 10.614 12.2134C10.9891 11.8384 11.1998 11.3297 11.1998 10.7992V9.99922L13.1198 11.4392C13.2387 11.5284 13.38 11.5826 13.528 11.596C13.6759 11.6093 13.8247 11.5812 13.9576 11.5148C14.0905 11.4483 14.2022 11.3462 14.2803 11.2198C14.3584 11.0934 14.3998 10.9478 14.3998 10.7992V5.19922C14.3998 5.05065 14.3584 4.90501 14.2803 4.77863C14.2022 4.65225 14.0905 4.55012 13.9576 4.48368C13.8247 4.41723 13.6759 4.38911 13.528 4.40245C13.38 4.41579 13.2387 4.47008 13.1198 4.55922L11.1998 5.99922V5.19922C11.1998 4.66879 10.9891 4.16008 10.614 3.78501C10.2389 3.40993 9.73024 3.19922 9.19981 3.19922H3.5998ZM11.1998 6.99922L13.5998 5.19922V10.7992L11.1998 8.99922V6.99922ZM0.799805 9.99922C0.799805 9.46879 1.01052 8.96008 1.38559 8.58501C1.76066 8.20993 2.26937 7.99922 2.7998 7.99922H5.9998C6.53024 7.99922 7.03895 8.20993 7.41402 8.58501C7.78909 8.96008 7.99981 9.46879 7.99981 9.99922V13.1992C7.99981 13.7297 7.78909 14.2384 7.41402 14.6134C7.03895 14.9885 6.53024 15.1992 5.9998 15.1992H2.7998C2.26937 15.1992 1.76066 14.9885 1.38559 14.6134C1.01052 14.2384 0.799805 13.7297 0.799805 13.1992V9.99922ZM4.01581 10.0264C3.96393 9.99079 3.90365 9.96933 3.84094 9.96413C3.77822 9.95894 3.71523 9.97021 3.6582 9.99682C3.61137 10.0172 3.56898 10.0466 3.5334 10.0832C3.45888 10.1596 3.41724 10.2621 3.4174 10.3688V12.8288C3.41687 12.8819 3.42685 12.9345 3.44676 12.9836C3.46667 13.0328 3.49612 13.0775 3.5334 13.1152C3.57017 13.1516 3.61293 13.1814 3.6598 13.2032C3.74097 13.2404 3.83307 13.2461 3.9182 13.2192C3.95509 13.2071 3.9901 13.1899 4.0222 13.168L5.859 11.9144C5.91487 11.8776 5.95988 11.8265 5.98941 11.7664C6.0198 11.7059 6.03543 11.639 6.03501 11.5713C6.03459 11.5036 6.01814 11.437 5.98701 11.3768C5.9555 11.3175 5.9092 11.2674 5.85261 11.2312L4.01581 10.0264Z" fill="#999999"/>
</svg>
