<svg width="16" height="16" viewBox="0 0 16 16" fill="none" xmlns="http://www.w3.org/2000/svg">
<g clip-path="url(#clip0_2777_10236)">
<path d="M12.2133 7.99947C13.9467 7.99947 14.6667 7.3328 14.0267 5.14614C13.7932 4.40029 13.3826 3.72207 12.83 3.16945C12.2774 2.61682 11.5992 2.20624 10.8533 1.9728C8.66667 1.3328 8 2.0528 8 3.78614V5.70614C8 7.3328 8.66667 7.99947 10 7.99947H12.2133Z" stroke="#999999" stroke-width="1.5" stroke-linecap="round" stroke-linejoin="round"/>
<path d="M13.3326 9.80049C13.1176 10.8749 12.6153 11.871 11.8792 12.6826C11.1431 13.4943 10.2007 14.0912 9.15232 14.4099C8.10394 14.7285 6.98878 14.757 5.92551 14.4923C4.86223 14.2275 3.89061 13.6795 3.11404 12.9065C2.33747 12.1334 1.78499 11.1643 1.5154 10.1023C1.24581 9.04024 1.26919 7.92496 1.58305 6.87514C1.89692 5.82531 2.48952 4.88022 3.2978 4.14041C4.10609 3.4006 5.09982 2.89377 6.17326 2.67383" stroke="#999999" stroke-width="1.5" stroke-linecap="round" stroke-linejoin="round"/>
</g>
<defs>
<clipPath id="clip0_2777_10236">
<rect width="16" height="16" fill="white"/>
</clipPath>
</defs>
</svg>
