<svg width="16" height="16" viewBox="0 0 16 16" fill="none" xmlns="http://www.w3.org/2000/svg">
<path d="M8.00001 0.833984C7.93355 0.834389 7.86784 0.847985 7.80668 0.873984C7.71552 0.911341 7.63761 0.975099 7.58297 1.05707C7.52832 1.13904 7.49943 1.23547 7.50001 1.33398V6.00065C7.50088 6.13299 7.55384 6.25966 7.64742 6.35324C7.741 6.44682 7.86767 6.49978 8.00001 6.50065C8.13235 6.49978 8.25902 6.44682 8.3526 6.35324C8.44618 6.25966 8.49913 6.13299 8.50001 6.00065V2.54065L8.98001 3.02065C9.07479 3.10897 9.20016 3.15705 9.32969 3.15477C9.45922 3.15248 9.58281 3.10001 9.67442 3.0084C9.76603 2.91679 9.81851 2.7932 9.82079 2.66367C9.82308 2.53413 9.775 2.40877 9.68668 2.31398L8.35334 0.980651C8.30698 0.934179 8.25191 0.897304 8.19128 0.872138C8.13065 0.846971 8.06565 0.834006 8.00001 0.833984V0.833984Z" fill="#999999"/>
<path d="M8.00055 0.833988C7.93487 0.833752 7.86979 0.8466 7.80913 0.871781C7.74847 0.896962 7.69342 0.933973 7.64722 0.980654L6.31388 2.31399C6.22556 2.40877 6.17748 2.53414 6.17977 2.66367C6.18205 2.7932 6.23453 2.91679 6.32613 3.0084C6.41774 3.10001 6.54133 3.15249 6.67087 3.15477C6.8004 3.15706 6.92577 3.10897 7.02055 3.02065L8.35388 1.68732C8.44687 1.59323 8.49902 1.46627 8.49902 1.33399C8.49902 1.2017 8.44687 1.07475 8.35388 0.980654C8.30767 0.933973 8.25263 0.896962 8.19197 0.871781C8.1313 0.8466 8.06623 0.833752 8.00055 0.833988Z" fill="#999999"/>
<path d="M9.17365 11.8337H6.82031C6.47951 11.8352 6.14512 11.741 5.85519 11.5619C5.56526 11.3827 5.33143 11.1258 5.18031 10.8203L4.40031 9.26034C4.38746 9.2323 4.36678 9.20857 4.34076 9.19201C4.31474 9.17545 4.28449 9.16677 4.25365 9.167H1.32031C1.18797 9.16613 1.0613 9.11317 0.967724 9.01959C0.874145 8.92601 0.821186 8.79934 0.820312 8.667C0.821186 8.53467 0.874145 8.408 0.967724 8.31442C1.0613 8.22084 1.18797 8.16788 1.32031 8.167H4.26031C4.47781 8.16603 4.69122 8.22613 4.87625 8.34045C5.06129 8.45477 5.21052 8.61873 5.30698 8.81367L6.08698 10.3737C6.15519 10.5131 6.26155 10.6303 6.39371 10.7118C6.52588 10.7932 6.67842 10.8355 6.83365 10.8337H9.18698C9.3422 10.8355 9.49475 10.7932 9.62691 10.7118C9.75907 10.6303 9.86544 10.5131 9.93365 10.3737L10.7136 8.81367C10.8101 8.61873 10.9593 8.45477 11.1444 8.34045C11.3294 8.22613 11.5428 8.16603 11.7603 8.167H14.667C14.7993 8.16788 14.926 8.22084 15.0196 8.31442C15.1131 8.408 15.1661 8.53467 15.167 8.667C15.1661 8.79934 15.1131 8.92601 15.0196 9.01959C14.926 9.11317 14.7993 9.16613 14.667 9.167H11.7603C11.7293 9.16589 11.6987 9.17421 11.6725 9.19088C11.6463 9.20754 11.6258 9.23176 11.6136 9.26034L10.8336 10.8203C10.6763 11.1251 10.4382 11.3807 10.1455 11.5594C9.85278 11.7381 9.5166 11.833 9.17365 11.8337Z" fill="#999999"/>
<path d="M10.0007 15.1667H6.00065C2.38065 15.1667 0.833984 13.62 0.833984 10V7.33333C0.833984 4.20667 1.99398 2.64 4.59398 2.26C4.65885 2.24972 4.72512 2.25247 4.78891 2.2681C4.8527 2.28373 4.91273 2.31192 4.96549 2.35103C5.01826 2.39014 5.0627 2.43938 5.0962 2.49586C5.12971 2.55235 5.15162 2.61495 5.16065 2.68C5.17038 2.7448 5.16723 2.81088 5.15138 2.87446C5.13552 2.93804 5.10728 2.99786 5.06826 3.05051C5.02925 3.10315 4.98022 3.14757 4.92401 3.18123C4.86779 3.2149 4.80548 3.23713 4.74065 3.24667C2.64732 3.55333 1.83398 4.7 1.83398 7.33333V10C1.83398 13.0733 2.92732 14.1667 6.00065 14.1667H10.0007C13.074 14.1667 14.1673 13.0733 14.1673 10V7.33333C14.1673 4.7 13.354 3.55333 11.2607 3.24667C11.1959 3.23704 11.1336 3.21474 11.0774 3.18105C11.0213 3.14736 10.9723 3.10294 10.9333 3.05032C10.8943 2.9977 10.866 2.93791 10.8501 2.87437C10.8342 2.81083 10.831 2.74479 10.8407 2.68C10.8503 2.61522 10.8726 2.55296 10.9063 2.49679C10.94 2.44062 10.9844 2.39164 11.037 2.35264C11.0896 2.31364 11.1494 2.28538 11.2129 2.26949C11.2765 2.25359 11.3425 2.25037 11.4073 2.26C14.0073 2.64 15.1673 4.20667 15.1673 7.33333V10C15.1673 13.62 13.6207 15.1667 10.0007 15.1667Z" fill="#999999"/>
</svg>
