<svg width="16" height="16" viewBox="0 0 16 16" fill="none" xmlns="http://www.w3.org/2000/svg">
<path d="M5.99967 14.6654H9.99967C13.333 14.6654 14.6663 13.332 14.6663 9.9987V5.9987C14.6663 2.66536 13.333 1.33203 9.99967 1.33203H5.99967C2.66634 1.33203 1.33301 2.66536 1.33301 5.9987V9.9987C1.33301 13.332 2.66634 14.6654 5.99967 14.6654Z" stroke="#606060" stroke-width="1.5" stroke-linecap="round" stroke-linejoin="round"/>
<path d="M11.6663 7.9987C11.6663 10.0254 10.0263 11.6654 7.99967 11.6654C5.97301 11.6654 4.73966 9.62537 4.73966 9.62537M4.73966 9.62537H6.39301M4.73966 9.62537V11.4587M4.33301 7.9987C4.33301 5.97203 5.95967 4.33203 7.99967 4.33203C10.4463 4.33203 11.6663 6.37203 11.6663 6.37203M11.6663 6.37203V4.5387M11.6663 6.37203H10.0397" stroke="#606060" stroke-width="1.5" stroke-linecap="round" stroke-linejoin="round"/>
</svg>
