<svg width="16" height="16" viewBox="0 0 16 16" fill="none" xmlns="http://www.w3.org/2000/svg">
<path d="M14.0538 5.72067V10.2807C14.0538 11.0273 13.6538 11.7207 13.0071 12.1007L9.0471 14.3873C8.40043 14.7607 7.60043 14.7607 6.9471 14.3873L2.9871 12.1007C2.34043 11.7273 1.94043 11.034 1.94043 10.2807V5.72067C1.94043 4.97401 2.34043 4.28065 2.9871 3.90065L6.9471 1.61398C7.59376 1.24065 8.39376 1.24065 9.0471 1.61398L13.0071 3.90065C13.6538 4.28065 14.0538 4.96734 14.0538 5.72067Z" stroke="#606060" stroke-width="1.5" stroke-linecap="round" stroke-linejoin="round"/>
<path d="M7.99962 7.33321C8.8575 7.33321 9.55296 6.63775 9.55296 5.77987C9.55296 4.92198 8.8575 4.22656 7.99962 4.22656C7.14174 4.22656 6.44629 4.92198 6.44629 5.77987C6.44629 6.63775 7.14174 7.33321 7.99962 7.33321Z" stroke="#606060" stroke-width="1.5" stroke-linecap="round" stroke-linejoin="round"/>
<path d="M10.6663 11.1069C10.6663 9.90689 9.47301 8.93359 7.99967 8.93359C6.52634 8.93359 5.33301 9.90689 5.33301 11.1069" stroke="#606060" stroke-width="1.5" stroke-linecap="round" stroke-linejoin="round"/>
</svg>
