<svg width="20" height="20" viewBox="0 0 20 20" fill="none" xmlns="http://www.w3.org/2000/svg">
<g clip-path="url(#clip0_6_499)">
<path d="M6.66601 18.333H13.333C16.683 18.333 17.283 16.991 17.458 15.358L18.083 8.691C18.308 6.658 17.725 5 14.166 5H5.83301C2.27401 5 1.69101 6.658 1.91601 8.692L2.54101 15.359C2.71601 16.992 3.31601 18.333 6.66601 18.333Z" stroke="#606060" stroke-width="1.3" stroke-linecap="round" stroke-linejoin="round"/>
<path d="M6.66699 4.99999V4.33399C6.66699 2.85899 6.66699 1.66699 9.33399 1.66699H10.667C13.334 1.66699 13.334 2.85899 13.334 4.33399V5.00099" stroke="#606060" stroke-width="1.3" stroke-linecap="round" stroke-linejoin="round"/>
<path d="M11.666 10.833V11.683C11.666 12.591 11.658 13.333 9.99901 13.333C8.34001 13.333 8.33301 12.6 8.33301 11.692V10.833C8.33301 10 8.33301 10 9.16601 10H10.833C11.666 10 11.666 10 11.666 10.833Z" stroke="#606060" stroke-width="1.3" stroke-linecap="round" stroke-linejoin="round"/>
<path d="M18.042 9.16699C16.1638 10.5312 13.9705 11.3971 11.667 11.684" stroke="#606060" stroke-width="1.3" stroke-linecap="round" stroke-linejoin="round"/>
<path d="M2.18298 9.39203C4.01378 10.6506 6.12561 11.4404 8.33298 11.692" stroke="#606060" stroke-width="1.3" stroke-linecap="round" stroke-linejoin="round"/>
</g>
<defs>
<clipPath id="clip0_6_499">
<rect width="20" height="20" fill="white"/>
</clipPath>
</defs>
</svg>
