<svg xmlns="http://www.w3.org/2000/svg" width="120.851" height="25" viewBox="0 0 120.851 25">
  <g id="Group_6880" data-name="Group 6880" transform="translate(-84.278 -177)">
    <g id="Group_4237" data-name="Group 4237" transform="translate(115.947 181.784)">
      <path id="Path_3145" data-name="Path 3145" d="M13.552,332V318.445H8.666v-1.2a1.718,1.718,0,0,1,1.724-1.724h11.4v2.922H16.953V332Z" transform="translate(-8.666 -315.475)" fill="#7b58ca"/>
      <path id="Path_3146" data-name="Path 3146" d="M81.646,347.338a18.088,18.088,0,0,1-1.988.12,5.016,5.016,0,0,1-3.018-.934,3.55,3.55,0,0,1-1.293-3.09,3.34,3.34,0,0,1,1.173-2.874,6.763,6.763,0,0,1,2.994-1.15c.323,0,.766-.131,1.341-.192,1.4-.191,2.107-.611,2.107-1.245a.911.911,0,0,0-.742-.934,4.873,4.873,0,0,0-1.365-.216c-.9,0-1.641.2-1.964.91H75.682a3.687,3.687,0,0,1,1.341-2.443,5.556,5.556,0,0,1,3.688-1.1,7.2,7.2,0,0,1,4.024.91,3.079,3.079,0,0,1,1.389,2.682v4.359a5.458,5.458,0,0,1-.694,2.994,4.329,4.329,0,0,1-1.653,1.557A6.035,6.035,0,0,1,81.646,347.338Zm1.365-6.538a8.636,8.636,0,0,1-1.868.623c-.73.156-1.1.239-1.1.239a2.808,2.808,0,0,0-1.246.622,1.918,1.918,0,0,0-.335,1.054,1.554,1.554,0,0,0,.431,1.15,1.844,1.844,0,0,0,1.245.383A2.652,2.652,0,0,0,83.011,342Z" transform="translate(-63.026 -330.693)" fill="#7b58ca"/>
      <path id="Path_3147" data-name="Path 3147" d="M134.718,343h3.257a1.8,1.8,0,0,0,.718,1.437,3.365,3.365,0,0,0,1.916.479,3.056,3.056,0,0,0,1.485-.335,1.023,1.023,0,0,0,.575-.91q0-.862-2.012-1.293a9.14,9.14,0,0,1-1.293-.288,7.625,7.625,0,0,1-3.4-1.485,2.955,2.955,0,0,1-.958-2.3,3.839,3.839,0,0,1,1.389-3.017,6,6,0,0,1,3.736-1.1,6.549,6.549,0,0,1,3.976,1.1,4.213,4.213,0,0,1,1.485,3.114h-2.059a1.531,1.531,0,0,1-1.389-.814l-.383-.383a2.58,2.58,0,0,0-1.581-.431,2.868,2.868,0,0,0-1.437.288.966.966,0,0,0-.431.862c0,.515.827.946,2.491,1.293a2.8,2.8,0,0,0,.91.192,8.947,8.947,0,0,1,3.4,1.437,3,3,0,0,1,.91,2.3,3.847,3.847,0,0,1-1.533,3.257,7.246,7.246,0,0,1-4.311,1.054,6.355,6.355,0,0,1-4.071-1.1,3.862,3.862,0,0,1-1.389-3.209Z" transform="translate(-111.428 -330.693)" fill="#7b58ca"/>
      <path id="Path_3148" data-name="Path 3148" d="M202.108,319.259v4.695l4.072-4.695H210.2l-4.55,4.886,4.6,7.856h-4.024l-2.347-4.311c-.479-.862-.9-1.233-1.245-1.1s-.527.323-.527.575V332h-3.353V315.523h1.724a1.565,1.565,0,0,1,1.15.479,1.5,1.5,0,0,1,.479,1.1Z" transform="translate(-163.633 -315.475)" fill="#7b58ca"/>
      <path id="Path_3149" data-name="Path 3149" d="M271.793,343.29a5.2,5.2,0,0,1-2.012,3.066,6.141,6.141,0,0,1-3.736,1.1,5.318,5.318,0,0,1-4.263-1.772,7.2,7.2,0,0,1-1.533-4.934,7.08,7.08,0,0,1,1.485-4.79A5.32,5.32,0,0,1,266,334.189a5.74,5.74,0,0,1,4.455,1.724,7.33,7.33,0,0,1,1.533,4.934v.527a.759.759,0,0,1-.048.335H263.65a3.339,3.339,0,0,0,.719,2.2,2.265,2.265,0,0,0,1.868.766,2.683,2.683,0,0,0,1.389-.336,1.52,1.52,0,0,0,.527-.431,1.088,1.088,0,0,1,.359-.383,1.444,1.444,0,0,1,.886-.24Zm-3.257-3.736a3.09,3.09,0,0,0-.671-1.916,2.615,2.615,0,0,0-3.5,0,2.789,2.789,0,0,0-.719,1.916Z" transform="translate(-213.764 -330.693)" fill="#7b58ca"/>
      <path id="Path_3150" data-name="Path 3150" d="M336.064,315.265h1.628a1.544,1.544,0,0,1,1.15.5,1.571,1.571,0,0,1,.479,1.126v9.341c0,2.263-.659,3.8-1.964,4.6a8,8,0,0,1-4.263,1.2,7.462,7.462,0,0,1-2.443-.407,4.005,4.005,0,0,1-1.916-1.317,7.67,7.67,0,0,1-1.389-4.838,7.789,7.789,0,0,1,1.389-4.838,4.459,4.459,0,0,1,3.688-1.868,4.411,4.411,0,0,1,2.108.479,4.551,4.551,0,0,1,1.533,1.485Zm-4.742,12.981a2.373,2.373,0,0,0,2.06,1.006,2.33,2.33,0,0,0,2.012-1.006,5.294,5.294,0,0,0,.671-2.922,4.613,4.613,0,0,0-.719-2.73,2.518,2.518,0,0,0-2.059-.958,2.291,2.291,0,0,0-1.964,1.006,4.385,4.385,0,0,0-.718,2.682A4.988,4.988,0,0,0,331.322,328.246Z" transform="translate(-268.464 -315.265)" fill="#7b58ca"/>
      <path id="Path_3151" data-name="Path 3151" d="M407.7,335.743h1.725a1.635,1.635,0,0,1,1.628,1.629v11.113H407.7Z" transform="translate(-333.967 -331.959)" fill="#65c7c3"/>
      <path id="Path_3152" data-name="Path 3152" d="M442.3,347.218h-1.677A1.559,1.559,0,0,1,439,345.589v-6.515a1.953,1.953,0,0,0-.695-1.676,2.545,2.545,0,0,0-1.557-.527,2.428,2.428,0,0,0-1.533.527,2.008,2.008,0,0,0-.671,1.676v8.143h-3.353v-7.472c0-2.167.563-3.628,1.7-4.359a7.425,7.425,0,0,1,3.76-1.2,7.262,7.262,0,0,1,3.88,1.1c1.185.731,1.772,2.215,1.772,4.455Z" transform="translate(-353.12 -330.693)" fill="#65c7c3"/>
    </g>
    <g id="Group_4239" data-name="Group 4239" transform="translate(84.278 177)">
      <g id="Group_4238" data-name="Group 4238">
        <path id="Path_3153" data-name="Path 3153" d="M160.52,61.082a13.687,13.687,0,0,0-.813-2.53,13.368,13.368,0,0,0-2.244-3.495A12.6,12.6,0,0,0,151.1,51.2a16.849,16.849,0,0,0-2.029-.32,10.233,10.233,0,0,0-2.763.091,16.568,16.568,0,0,0-1.921.426,11.914,11.914,0,0,0-3.546,1.718,12.329,12.329,0,0,0-2.895,2.83,12,12,0,0,0-2.179,5.016,16.422,16.422,0,0,0-.255,2,12.476,12.476,0,0,0,.246,3.116,13.546,13.546,0,0,0,.628,2.19,12.367,12.367,0,0,0,.935,1.925L135,75.757l5.815-1.773a11.9,11.9,0,0,0,3.637,1.808c.191.059.21.045.21-.158,0-1.162,0-2.324,0-3.486a.25.25,0,0,0-.112-.18c-.377-.211-.773-.39-1.141-.615a8.634,8.634,0,0,1-2.942-2.994,8.94,8.94,0,0,1-1.259-3.863,9.81,9.81,0,0,1,.171-3.046,9.1,9.1,0,0,1,1.077-2.683,8.819,8.819,0,0,1,4.728-3.8,8.232,8.232,0,0,1,2.66-.468c.4,0,.793.026,1.188.061a8.07,8.07,0,0,1,1.145.155,8.625,8.625,0,0,1,2.646,1.122,9.131,9.131,0,0,1,2.715,2.653,9.367,9.367,0,0,1,1.578,4.415,9.475,9.475,0,0,1-.169,2.994,8.352,8.352,0,0,1-.974,2.5,4.816,4.816,0,0,1-3.033,2.372,2.824,2.824,0,0,1-1.356.029,3.63,3.63,0,0,1-2.38-1.937,4.859,4.859,0,0,1-.526-1.71c-.075-.641-.116-1.286-.169-1.93-.01-.118,0-.221.164-.224.277,0,.554-.026.831-.028.711,0,1.422,0,2.134,0,.233,0,.237,0,.237-.229,0-1.058,0-2.116,0-3.174,0-.172-.047-.229-.225-.227-.983.009-1.966,0-2.949.008-.18,0-.224-.056-.222-.228.008-.713,0-1.426,0-2.139a2.6,2.6,0,0,1-3.629-.009q0,3.164,0,6.329a13.073,13.073,0,0,0,.166,2.138,10.694,10.694,0,0,0,.628,2.277,8.034,8.034,0,0,0,2.278,3.213,6.47,6.47,0,0,0,3.224,1.489,6.783,6.783,0,0,0,2.293-.037,7.618,7.618,0,0,0,2.043-.682,8.849,8.849,0,0,0,3.709-3.6,12.1,12.1,0,0,0,1.266-3.241,13.3,13.3,0,0,0,.346-2.428A12.828,12.828,0,0,0,160.52,61.082Z" transform="translate(-135 -50.823)" fill="#7b58ca"/>
        <path id="Path_3154" data-name="Path 3154" d="M230.049,94.081a1.812,1.812,0,0,0-3.623.069c0,.055,0,.108.008.161a1.812,1.812,0,0,0,3.615-.092c0-.023,0-.046,0-.069S230.05,94.1,230.049,94.081Z" transform="translate(-216.565 -87.859)" fill="#77dcd8"/>
      </g>
      <path id="Path_3155" data-name="Path 3155" d="M237.159,182.947a4.175,4.175,0,0,0-2.632,5.232,7.075,7.075,0,0,0,6.643,4.188l-.669-3.637S237.047,188.532,237.159,182.947Z" transform="translate(-223.634 -168.697)" fill="#7b58ca"/>
    </g>
    <circle id="Ellipse_287" data-name="Ellipse 287" cx="1.677" cy="1.677" r="1.677" transform="translate(189.675 181.291)" fill="#65c7c3"/>
  </g>
</svg>
