<svg width="24" height="24" viewBox="0 0 24 24" fill="none" xmlns="http://www.w3.org/2000/svg">
<path d="M5.3999 4.79999C4.60425 4.79999 3.84119 5.11606 3.27858 5.67867C2.71597 6.24128 2.3999 7.00434 2.3999 7.79999V16.2C2.3999 16.9956 2.71597 17.7587 3.27858 18.3213C3.84119 18.8839 4.60425 19.2 5.3999 19.2H13.7999C14.5956 19.2 15.3586 18.8839 15.9212 18.3213C16.4838 17.7587 16.7999 16.9956 16.7999 16.2V15L19.6799 17.16C19.8582 17.2937 20.0702 17.3751 20.2921 17.3951C20.5141 17.4152 20.7372 17.373 20.9366 17.2733C21.1359 17.1736 21.3035 17.0204 21.4207 16.8309C21.5378 16.6413 21.5999 16.4228 21.5999 16.2V7.79999C21.5999 7.57713 21.5378 7.35868 21.4207 7.16911C21.3035 6.97954 21.1359 6.82634 20.9366 6.72668C20.7372 6.62701 20.5141 6.58482 20.2921 6.60484C20.0702 6.62485 19.8582 6.70627 19.6799 6.83999L16.7999 8.99999V7.79999C16.7999 7.00434 16.4838 6.24128 15.9212 5.67867C15.3586 5.11606 14.5956 4.79999 13.7999 4.79999H5.3999ZM16.7999 10.5L20.3999 7.79999V16.2L16.7999 13.5V10.5ZM15.5999 7.79999V16.2C15.5999 16.6774 15.4103 17.1352 15.0727 17.4728C14.7351 17.8103 14.2773 18 13.7999 18H5.3999C4.92251 18 4.46468 17.8103 4.12711 17.4728C3.78954 17.1352 3.5999 16.6774 3.5999 16.2V7.79999C3.5999 7.3226 3.78954 6.86476 4.12711 6.5272C4.46468 6.18963 4.92251 5.99999 5.3999 5.99999H13.7999C14.2773 5.99999 14.7351 6.18963 15.0727 6.5272C15.4103 6.86476 15.5999 7.3226 15.5999 7.79999Z" fill="#999999"/>
</svg>
