<svg xmlns="http://www.w3.org/2000/svg" width="24" height="24" viewBox="0 0 24 24">
  <g id="head" transform="translate(-561 -387)">
    <path id="_18857545201582985676" data-name="18857545201582985676" d="M30,13.394a1.411,1.411,0,0,0-.255-.441c-.112-.137-.937-.916-1.216-1.191a2.182,2.182,0,0,1-.716-1.126c0-.429,0-.7,0-.748a8.167,8.167,0,0,0-6.573-8.015l-.05,6.921a2.96,2.96,0,0,1,.342,4.625,9.366,9.366,0,0,0,2.415,1.676,1.046,1.046,0,0,1,.136-.141,1.029,1.029,0,0,1,.672-.247h1.084a1.036,1.036,0,0,1,1.037,1.031v.007a1.034,1.034,0,0,1-.488.879,1.02,1.02,0,0,1-.549.158H24.759a1.033,1.033,0,0,1-1.021-.879,10.076,10.076,0,0,1-2.9-2A2.962,2.962,0,1,1,18.2,8.595l.932-6.863a8.174,8.174,0,0,0-7,11.391,15.982,15.982,0,0,1,1.352,6.325v1.738a.651.651,0,0,0,.525.637l9.568,1.9a.3.3,0,0,0,.36-.273c.076-1.092.2-3.063.219-3.144h.086l1.277,0c.6,0,1.352.105,1.831-.333a1.508,1.508,0,0,0,.414-.97c.006-.04.669-4.413.669-4.413l.037-.046a1.19,1.19,0,0,1,.262-.122c.164-.071.328-.14.49-.217a4.365,4.365,0,0,0,.5-.261C29.949,13.811,30.094,13.675,30,13.394Z" transform="translate(552.529 386.268)" fill="none" stroke="#999999" stroke-width="1.5"/>
    <rect id="Rectangle_1" data-name="Rectangle 1" width="24" height="24" transform="translate(561 387)" fill="none"/>
  </g>
</svg>
