<svg width="22" height="22" viewBox="0 0 22 22" fill="none" xmlns="http://www.w3.org/2000/svg">
<path d="M10.25 9.5H11V16.25H11.75M20.75 11C20.75 13.5859 19.7228 16.0658 17.8943 17.8943C16.0658 19.7228 13.5859 20.75 11 20.75C8.41414 20.75 5.93419 19.7228 4.10571 17.8943C2.27723 16.0658 1.25 13.5859 1.25 11C1.25 8.41414 2.27723 5.93419 4.10571 4.10571C5.93419 2.27723 8.41414 1.25 11 1.25C13.5859 1.25 16.0658 2.27723 17.8943 4.10571C19.7228 5.93419 20.75 8.41414 20.75 11Z" stroke="black" stroke-width="1.5" stroke-linecap="round" stroke-linejoin="round"/>
<path d="M11.75 6.125C11.75 6.32391 11.671 6.51468 11.5303 6.65533C11.3897 6.79598 11.1989 6.875 11 6.875C10.8011 6.875 10.6103 6.79598 10.4697 6.65533C10.329 6.51468 10.25 6.32391 10.25 6.125C10.25 5.92609 10.329 5.73532 10.4697 5.59467C10.6103 5.45402 10.8011 5.375 11 5.375C11.1989 5.375 11.3897 5.45402 11.5303 5.59467C11.671 5.73532 11.75 5.92609 11.75 6.125Z" fill="black" stroke="black" stroke-width="0.75"/>
</svg>
