<svg width="24" height="24" viewBox="0 0 24 24" fill="none" xmlns="http://www.w3.org/2000/svg">
<path d="M5.5 7C5.5 6.33696 5.76339 5.70107 6.23223 5.23223C6.70107 4.76339 7.33696 4.5 8 4.5C8.66304 4.5 9.29893 4.76339 9.76777 5.23223C10.2366 5.70107 10.5 6.33696 10.5 7C10.5 7.66304 10.2366 8.29893 9.76777 8.76777C9.29893 9.23661 8.66304 9.5 8 9.5C7.33696 9.5 6.70107 9.23661 6.23223 8.76777C5.76339 8.29893 5.5 7.66304 5.5 7ZM8 3C6.93913 3 5.92172 3.42143 5.17157 4.17157C4.42143 4.92172 4 5.93913 4 7C4 8.06087 4.42143 9.07828 5.17157 9.82843C5.92172 10.5786 6.93913 11 8 11C9.06087 11 10.0783 10.5786 10.8284 9.82843C11.5786 9.07828 12 8.06087 12 7C12 5.93913 11.5786 4.92172 10.8284 4.17157C10.0783 3.42143 9.06087 3 8 3ZM15.5 8C15.5 7.60218 15.658 7.22064 15.9393 6.93934C16.2206 6.65804 16.6022 6.5 17 6.5C17.3978 6.5 17.7794 6.65804 18.0607 6.93934C18.342 7.22064 18.5 7.60218 18.5 8C18.5 8.39782 18.342 8.77936 18.0607 9.06066C17.7794 9.34196 17.3978 9.5 17 9.5C16.6022 9.5 16.2206 9.34196 15.9393 9.06066C15.658 8.77936 15.5 8.39782 15.5 8ZM17 5C16.2044 5 15.4413 5.31607 14.8787 5.87868C14.3161 6.44129 14 7.20435 14 8C14 8.79565 14.3161 9.55871 14.8787 10.1213C15.4413 10.6839 16.2044 11 17 11C17.7956 11 18.5587 10.6839 19.1213 10.1213C19.6839 9.55871 20 8.79565 20 8C20 7.20435 19.6839 6.44129 19.1213 5.87868C18.5587 5.31607 17.7956 5 17 5ZM4.25 13C3.65326 13 3.08097 13.2371 2.65901 13.659C2.23705 14.081 2 14.6533 2 15.25V15.528C2.00118 15.5975 2.00585 15.6669 2.014 15.736C2.09658 16.4801 2.36404 17.1917 2.792 17.806C3.61 18.974 5.172 20 8 20C9.369 20 10.441 19.76 11.276 19.38C11.1241 18.8761 11.0341 18.3556 11.008 17.83C10.363 18.21 9.413 18.5 8 18.5C5.578 18.5 4.514 17.65 4.02 16.945C3.73974 16.5411 3.56353 16.0743 3.507 15.586C3.50398 15.5597 3.50165 15.5334 3.5 15.507V15.25C3.5 15.0511 3.57902 14.8603 3.71967 14.7197C3.86032 14.579 4.05109 14.5 4.25 14.5H11.732C11.981 14.023 12.287 13.581 12.641 13.183C12.3596 13.0618 12.0564 12.9995 11.75 13H4.25ZM14.277 13.976C14.3516 14.2345 14.3733 14.5055 14.3407 14.7726C14.3082 15.0397 14.222 15.2975 14.0875 15.5306C13.953 15.7636 13.7728 15.9671 13.5577 16.1289C13.3427 16.2906 13.0972 16.4073 12.836 16.472L12.252 16.617C12.1584 17.2159 12.1604 17.8258 12.258 18.424L12.798 18.554C13.0616 18.6175 13.3095 18.7339 13.5267 18.8962C13.7439 19.0585 13.9258 19.2632 14.0614 19.4979C14.1971 19.7327 14.2835 19.9926 14.3156 20.2618C14.3477 20.531 14.3247 20.8039 14.248 21.064L14.061 21.695C14.501 22.081 15.001 22.395 15.546 22.617L16.039 22.098C16.2258 21.9015 16.4507 21.745 16.6998 21.6381C16.949 21.5312 17.2173 21.476 17.4885 21.476C17.7597 21.476 18.028 21.5312 18.2772 21.6381C18.5263 21.745 18.7512 21.9015 18.938 22.098L19.437 22.624C19.9781 22.4037 20.4789 22.0952 20.919 21.711L20.721 21.025C20.6464 20.7664 20.6248 20.4954 20.6574 20.2282C20.69 19.961 20.7762 19.7032 20.9109 19.4701C21.0455 19.2371 21.2258 19.0336 21.441 18.8719C21.6561 18.7102 21.9017 18.5935 22.163 18.529L22.746 18.384C22.8396 17.7851 22.8376 17.1752 22.74 16.577L22.2 16.447C21.9365 16.3834 21.6887 16.2669 21.4716 16.1046C21.2545 15.9423 21.0727 15.7375 20.9372 15.5028C20.8017 15.268 20.7153 15.0082 20.6833 14.739C20.6513 14.4698 20.6743 14.197 20.751 13.937L20.937 13.306C20.497 12.9184 19.9955 12.6068 19.453 12.384L18.96 12.902C18.7732 13.0987 18.5483 13.2553 18.299 13.3623C18.0497 13.4693 17.7813 13.5245 17.51 13.5245C17.2387 13.5245 16.9703 13.4693 16.721 13.3623C16.4717 13.2553 16.2468 13.0987 16.06 12.902L15.562 12.377C15.018 12.597 14.518 12.907 14.079 13.29L14.277 13.976ZM17.5 19C16.7 19 16.05 18.329 16.05 17.5C16.05 16.672 16.7 16 17.5 16C18.3 16 18.95 16.672 18.95 17.5C18.95 18.329 18.3 19 17.5 19Z" fill="#999999"/>
</svg>
