<svg width="24" height="24" viewBox="0 0 24 24" fill="none" xmlns="http://www.w3.org/2000/svg">
<path d="M11.8151 10.8869C11.7053 10.8769 11.5949 10.8769 11.4851 10.8869C10.3213 10.8437 9.22094 10.3455 8.42069 9.49936C7.62045 8.65325 7.18423 7.52688 7.20584 6.36249C7.22746 5.19809 7.7052 4.08869 8.5363 3.27287C9.3674 2.45706 10.4855 2 11.6501 2C12.8147 2 13.9328 2.45706 14.7639 3.27287C15.595 4.08869 16.0727 5.19809 16.0943 6.36249C16.1159 7.52688 15.6797 8.65325 14.8795 9.49936C14.0792 10.3455 12.9789 10.8437 11.8151 10.8869Z" stroke="#999999" stroke-width="1.5" stroke-linecap="round" stroke-linejoin="round"/>
<path d="M6.815 14.5776C4.395 16.1976 4.395 18.8376 6.815 20.4476C8.32826 21.3507 10.0577 21.8276 11.82 21.8276C13.5823 21.8276 15.3117 21.3507 16.825 20.4476C19.245 18.8276 19.245 16.1876 16.825 14.5776C15.3101 13.6792 13.5813 13.2051 11.82 13.2051C10.0587 13.2051 8.32991 13.6792 6.815 14.5776V14.5776Z" stroke="#999999" stroke-width="1.5" stroke-linecap="round" stroke-linejoin="round"/>
</svg>
