<svg width="16" height="16" viewBox="0 0 16 16" fill="none" xmlns="http://www.w3.org/2000/svg">
<path d="M8.10668 7.24668C8.04001 7.24001 7.96001 7.24001 7.88668 7.24668C6.30001 7.19334 5.04001 5.89334 5.04001 4.29334C5.04001 2.66001 6.36001 1.33334 8.00001 1.33334C9.63334 1.33334 10.96 2.66001 10.96 4.29334C10.9533 5.89334 9.69334 7.19334 8.10668 7.24668Z" stroke="#606060" stroke-width="1.5" stroke-linecap="round" stroke-linejoin="round"/>
<path d="M4.77332 9.70666C3.15999 10.7867 3.15999 12.5467 4.77332 13.62C6.60666 14.8467 9.61332 14.8467 11.4467 13.62C13.06 12.54 13.06 10.78 11.4467 9.70666C9.61999 8.48666 6.61332 8.48666 4.77332 9.70666Z" stroke="#606060" stroke-width="1.5" stroke-linecap="round" stroke-linejoin="round"/>
</svg>
