<svg width="16" height="16" viewBox="0 0 16 16" fill="none" xmlns="http://www.w3.org/2000/svg">
<path d="M4.66667 6.66666H8V9.99999H4.66667M12.6667 12.6667H3.33333V5.33332H12.6667M12.6667 1.99999H12V0.666656H10.6667V1.99999H5.33333V0.666656H4V1.99999H3.33333C2.97971 1.99999 2.64057 2.14047 2.39052 2.39051C2.14048 2.64056 2 2.9797 2 3.33332V12.6667C2 13.0203 2.14048 13.3594 2.39052 13.6095C2.64057 13.8595 2.97971 14 3.33333 14H12.6667C13.0203 14 13.3594 13.8595 13.6095 13.6095C13.8595 13.3594 14 13.0203 14 12.6667V3.33332C14 2.9797 13.8595 2.64056 13.6095 2.39051C13.3594 2.14047 13.0203 1.99999 12.6667 1.99999Z" fill="#606060"/>
</svg>
