<svg width="16" height="16" viewBox="0 0 16 16" fill="none" xmlns="http://www.w3.org/2000/svg">
<path d="M3.33301 6V10.6667" stroke="#606060" stroke-width="1.5" stroke-linecap="round" stroke-linejoin="round"/>
<path d="M3.49967 5.66634C4.69629 5.66634 5.66634 4.69629 5.66634 3.49967C5.66634 2.30306 4.69629 1.33301 3.49967 1.33301C2.30306 1.33301 1.33301 2.30306 1.33301 3.49967C1.33301 4.69629 2.30306 5.66634 3.49967 5.66634Z" stroke="#606060" stroke-width="1.5" stroke-linecap="round" stroke-linejoin="round"/>
<path d="M3.33301 14.667C4.43758 14.667 5.33301 13.7716 5.33301 12.667C5.33301 11.5624 4.43758 10.667 3.33301 10.667C2.22844 10.667 1.33301 11.5624 1.33301 12.667C1.33301 13.7716 2.22844 14.667 3.33301 14.667Z" stroke="#606060" stroke-width="1.5" stroke-linecap="round" stroke-linejoin="round"/>
<path d="M12.667 14.667C13.7716 14.667 14.667 13.7716 14.667 12.667C14.667 11.5624 13.7716 10.667 12.667 10.667C11.5624 10.667 10.667 11.5624 10.667 12.667C10.667 13.7716 11.5624 14.667 12.667 14.667Z" stroke="#606060" stroke-width="1.5" stroke-linecap="round" stroke-linejoin="round"/>
<path d="M3.41992 6C3.71992 7.16667 4.78659 8.03334 6.04659 8.02667L8.33326 8.02C10.0799 8.01333 11.5666 9.13334 12.1133 10.6933" stroke="#606060" stroke-width="1.5" stroke-linecap="round" stroke-linejoin="round"/>
</svg>
