<svg width="48" height="48" viewBox="0 0 48 48" fill="none" xmlns="http://www.w3.org/2000/svg">
<circle cx="24" cy="24" r="24" fill="#7B55D3" fill-opacity="0.1"/>
<path d="M17.4916 14.1493C17.3946 14.246 17.3176 14.361 17.2651 14.4875C17.2126 14.6141 17.1855 14.7498 17.1855 14.8868C17.1855 15.0238 17.2126 15.1594 17.2651 15.286C17.3176 15.4126 17.3946 15.5275 17.4916 15.6243L24.4166 22.5493C24.4937 22.6265 24.5852 22.6878 24.6861 22.7296C24.7869 22.7714 24.8949 22.793 25.0041 22.793C25.1132 22.793 25.2213 22.7714 25.3221 22.7296C25.4229 22.6878 25.5145 22.6265 25.5916 22.5493L32.5166 15.6243C32.9249 15.2159 32.9249 14.5576 32.5166 14.1493C32.1082 13.7409 31.4499 13.7409 31.0416 14.1493L24.9999 20.1826L18.9582 14.1409C18.5582 13.7409 17.8916 13.7409 17.4916 14.1493Z" fill="#7B55D3"/>
<path d="M17.4916 26.1493C17.3946 26.246 17.3176 26.361 17.2651 26.4875C17.2126 26.6141 17.1855 26.7498 17.1855 26.8868C17.1855 27.0238 17.2126 27.1594 17.2651 27.286C17.3176 27.4126 17.3946 27.5275 17.4916 27.6243L24.4166 34.5493C24.4937 34.6265 24.5852 34.6878 24.6861 34.7296C24.7869 34.7714 24.8949 34.793 25.0041 34.793C25.1132 34.793 25.2213 34.7714 25.3221 34.7296C25.4229 34.6878 25.5145 34.6265 25.5916 34.5493L32.5166 27.6243C32.9249 27.2159 32.9249 26.5576 32.5166 26.1493C32.1082 25.7409 31.4499 25.7409 31.0416 26.1493L24.9999 32.1826L18.9582 26.1409C18.5582 25.7409 17.8916 25.7409 17.4916 26.1493Z" fill="#7B55D3"/>
</svg>
