<svg width="24" height="24" viewBox="0 0 24 24" fill="none" xmlns="http://www.w3.org/2000/svg">
<path d="M21.2673 10.3522C21.1834 10.3385 21.0984 10.3322 21.0133 10.3332H6.55135L6.86635 10.1862C7.17471 10.0402 7.45525 9.84159 7.69535 9.59922L11.7513 5.54322C12.01 5.29631 12.1732 4.96602 12.2122 4.61056C12.2512 4.2551 12.1634 3.8973 11.9643 3.60022C11.8408 3.4315 11.6826 3.29115 11.5003 3.18858C11.3181 3.08601 11.116 3.02359 10.9077 3.0055C10.6993 2.98741 10.4895 3.01408 10.2924 3.0837C10.0952 3.15333 9.91514 3.26432 9.76435 3.40922L2.42935 10.7442C2.15443 11.0193 2 11.3923 2 11.7812C2 12.1701 2.15443 12.5431 2.42935 12.8182L9.76335 20.1522C9.91118 20.2995 10.0887 20.4136 10.2842 20.4868C10.4796 20.56 10.6884 20.5907 10.8966 20.5768C11.1049 20.5629 11.3077 20.5047 11.4917 20.4061C11.6756 20.3076 11.8364 20.1709 11.9633 20.0052C12.1632 19.7079 12.2514 19.3494 12.2124 18.9933C12.1735 18.6372 12.0098 18.3063 11.7503 18.0592L7.69935 14.0002C7.48424 13.7849 7.23695 13.6045 6.96635 13.4652L6.52635 13.2652H20.9263C21.2889 13.2786 21.6442 13.1617 21.928 12.9357C22.2118 12.7097 22.4052 12.3895 22.4734 12.0332C22.5352 11.6505 22.4431 11.2589 22.2171 10.9439C21.9911 10.629 21.6497 10.4162 21.2673 10.3522Z" fill="black"/>
</svg>
