<svg width="20" height="20" viewBox="0 0 20 20" fill="none" xmlns="http://www.w3.org/2000/svg">
<path d="M8.96693 11.4292L13.0149 7.19115C13.0711 7.13041 13.1392 7.08194 13.215 7.04879C13.2908 7.01565 13.3727 6.99854 13.4554 6.99854C13.5382 6.99854 13.62 7.01565 13.6958 7.04879C13.7716 7.08194 13.8398 7.13041 13.8959 7.19115C14.0133 7.31613 14.0787 7.48117 14.0787 7.65265C14.0787 7.82414 14.0133 7.98917 13.8959 8.11415L8.96693 13.2752L6.10393 10.2752C5.98651 10.1502 5.92114 9.98514 5.92114 9.81365C5.92114 9.64217 5.98651 9.47713 6.10393 9.35215C6.1601 9.29141 6.22823 9.24294 6.30404 9.20979C6.37985 9.17665 6.46169 9.15954 6.54443 9.15954C6.62716 9.15954 6.70901 9.17665 6.78481 9.20979C6.86062 9.24294 6.92875 9.29141 6.98493 9.35215L8.96693 11.4292Z" fill="#FCFCFC"/>
<path d="M10 17.5C14.1421 17.5 17.5 14.1421 17.5 10C17.5 5.85786 14.1421 2.5 10 2.5C5.85786 2.5 2.5 5.85786 2.5 10C2.5 14.1421 5.85786 17.5 10 17.5Z" stroke="#FCFCFC"/>
</svg>
