<svg width="24" height="24" viewBox="0 0 24 24" fill="none" xmlns="http://www.w3.org/2000/svg">
<circle cx="9" cy="13.3506" r="8.25" fill="#FCFCFC" stroke="#29CC99" stroke-width="1.5"/>
<line x1="5.75" y1="1.60059" x2="12.25" y2="1.60059" stroke="#29CC99" stroke-width="1.5" stroke-linecap="round"/>
<path d="M21 13.8506C21.2761 13.8506 21.5 13.6267 21.5 13.3506C21.5 13.0744 21.2761 12.8506 21 12.8506V13.8506ZM9.64645 12.997C9.45118 13.1923 9.45118 13.5089 9.64645 13.7041L12.8284 16.8861C13.0237 17.0814 13.3403 17.0814 13.5355 16.8861C13.7308 16.6909 13.7308 16.3743 13.5355 16.179L10.7071 13.3506L13.5355 10.5222C13.7308 10.3269 13.7308 10.0103 13.5355 9.81505C13.3403 9.61979 13.0237 9.61979 12.8284 9.81505L9.64645 12.997ZM21 12.8506L10 12.8506V13.8506L21 13.8506V12.8506Z" fill="#29CC99"/>
</svg>
