<svg width="11" height="20" viewBox="0 0 11 20" fill="none" xmlns="http://www.w3.org/2000/svg">
<path d="M0.379996 19.01C0.496111 19.1264 0.634049 19.2187 0.785913 19.2817C0.937776 19.3448 1.10058 19.3772 1.265 19.3772C1.42942 19.3772 1.59222 19.3448 1.74408 19.2817C1.89594 19.2187 2.03388 19.1264 2.15 19.01L10.46 10.7C10.5527 10.6074 10.6262 10.4976 10.6764 10.3766C10.7266 10.2556 10.7524 10.1259 10.7524 9.99496C10.7524 9.86399 10.7266 9.73431 10.6764 9.61334C10.6262 9.49236 10.5527 9.38248 10.46 9.28996L2.15 0.979961C1.66 0.489962 0.869996 0.489962 0.379996 0.979961C-0.110003 1.46996 -0.110003 2.25996 0.379996 2.74996L7.62 9.99996L0.369998 17.25C-0.110002 17.73 -0.110003 18.53 0.379996 19.01Z" fill="#7B55D3"/>
</svg>
