<svg xmlns="http://www.w3.org/2000/svg" width="15.503" height="15.507" viewBox="0 0 15.503 15.507">
  <g id="electronics" transform="translate(0.753 0.75)">
    <path id="Vector" d="M8.291,1.176,1.025,8.443A2.529,2.529,0,0,0,.409,9.654l-.39,2.771a1.3,1.3,0,0,0,1.56,1.56l2.771-.39a2.442,2.442,0,0,0,1.211-.616l7.266-7.266c1.252-1.252,1.847-2.71,0-4.557C11-.671,9.543-.076,8.291,1.176Z" transform="translate(0 0)" fill="none" stroke="#7b58ca" stroke-linecap="round" stroke-linejoin="round" stroke-width="1.5"/>
    <path id="Vector-2" data-name="Vector" d="M0,0A5.829,5.829,0,0,0,4.063,4.063" transform="translate(8.558 1.394)" fill="none" stroke="#7b58ca" stroke-linecap="round" stroke-linejoin="round" stroke-width="1.5"/>
  </g>
</svg>
