<svg id="vuesax_linear_briefcase" data-name="vuesax/linear/briefcase" xmlns="http://www.w3.org/2000/svg" width="20" height="20" viewBox="0 0 20 20">
  <g id="briefcase">
    <path id="Vector" d="M4.792,13.333h6.667c3.35,0,3.95-1.342,4.125-2.975l.625-6.667C16.434,1.658,15.851,0,12.292,0H3.959C.4,0-.183,1.658.042,3.692l.625,6.667C.842,11.992,1.442,13.333,4.792,13.333Z" transform="translate(1.874 5)" fill="none" stroke="#606060" stroke-linecap="round" stroke-linejoin="round" stroke-width="1.3"/>
    <path id="Vector-2" data-name="Vector" d="M0,3.333V2.667C0,1.192,0,0,2.667,0H4C6.667,0,6.667,1.192,6.667,2.667v.667" transform="translate(6.667 1.667)" fill="none" stroke="#606060" stroke-linecap="round" stroke-linejoin="round" stroke-width="1.3"/>
    <path id="Vector-3" data-name="Vector" d="M3.333.833v.85c0,.908-.008,1.65-1.667,1.65S0,2.6,0,1.692V.833C0,0,0,0,.833,0H2.5C3.333,0,3.333,0,3.333.833Z" transform="translate(8.333 10)" fill="none" stroke="#606060" stroke-linecap="round" stroke-linejoin="round" stroke-width="1.3"/>
    <path id="Vector-4" data-name="Vector" d="M6.375,0A13.737,13.737,0,0,1,0,2.517" transform="translate(11.667 9.167)" fill="none" stroke="#606060" stroke-linecap="round" stroke-linejoin="round" stroke-width="1.3"/>
    <path id="Vector-5" data-name="Vector" d="M0,0A13.569,13.569,0,0,0,6.15,2.3" transform="translate(2.183 9.392)" fill="none" stroke="#606060" stroke-linecap="round" stroke-linejoin="round" stroke-width="1.3"/>
    <path id="Vector-6" data-name="Vector" d="M0,0H20V20H0Z" transform="translate(20 20) rotate(180)" fill="none" opacity="0"/>
  </g>
</svg>
