<svg width="16" height="16" viewBox="0 0 16 16" fill="none" xmlns="http://www.w3.org/2000/svg">
<g clip-path="url(#clip0_4652_22240)">
<path fill-rule="evenodd" clip-rule="evenodd" d="M4.48329 4.35528C3.93031 4.90012 3.5076 5.56288 3.24675 6.29404C2.98589 7.0252 2.89364 7.80586 2.97689 8.57768C2.98464 8.68136 2.95172 8.78398 2.8851 8.86379C2.81849 8.94361 2.72341 8.99436 2.62002 9.00528C2.51663 9.0162 2.41305 8.98644 2.33123 8.9223C2.24941 8.85816 2.19577 8.76469 2.18169 8.66168C2.08567 7.77024 2.19229 6.86862 2.49359 6.02416C2.79489 5.1797 3.28307 4.41422 3.92169 3.78488C6.27129 1.46728 10.0617 1.50488 12.3873 3.86328C14.7129 6.22088 14.6977 10.0113 12.3473 12.3289C11.2594 13.4037 9.7988 14.0175 8.26969 14.0425C7.69157 14.0528 7.11499 13.9798 6.55769 13.8257C6.45542 13.7975 6.36855 13.7298 6.31619 13.6375C6.26383 13.5452 6.25027 13.436 6.27849 13.3337C6.30671 13.2314 6.3744 13.1445 6.46667 13.0922C6.55893 13.0398 6.66822 13.0263 6.77049 13.0545C7.25382 13.1882 7.7539 13.2515 8.25529 13.2425C9.57922 13.2213 10.8439 12.69 11.7857 11.7593C13.8185 9.75448 13.8353 6.47128 11.8177 4.42488C9.80009 2.37848 6.51609 2.35048 4.48329 4.35528Z" fill="#FCFCFC"/>
<path fill-rule="evenodd" clip-rule="evenodd" d="M2.87531 9.08362C2.84033 9.1228 2.79797 9.15472 2.75065 9.17754C2.70334 9.20035 2.65199 9.21362 2.59954 9.2166C2.54709 9.21957 2.49457 9.21218 2.44498 9.19485C2.39539 9.17753 2.3497 9.1506 2.31051 9.11562L0.934512 7.89162C0.892213 7.85766 0.857262 7.81546 0.831783 7.76757C0.806305 7.71968 0.790833 7.66712 0.786307 7.61306C0.781781 7.55901 0.788296 7.5046 0.805456 7.45315C0.822616 7.40169 0.850062 7.35426 0.886125 7.31374C0.922189 7.27323 0.966116 7.24047 1.01524 7.21746C1.06436 7.19445 1.11764 7.18167 1.17186 7.1799C1.22607 7.17813 1.28008 7.18741 1.33059 7.20716C1.38111 7.22692 1.42708 7.25674 1.46571 7.29482L2.84171 8.51882C2.88101 8.55369 2.91306 8.59596 2.93602 8.64323C2.95898 8.69049 2.9724 8.74181 2.97552 8.79426C2.97864 8.84671 2.9714 8.89926 2.9542 8.94891C2.93701 8.99855 2.9102 9.04433 2.87531 9.08362Z" fill="#FCFCFC"/>
<path fill-rule="evenodd" clip-rule="evenodd" d="M2.25603 9.03531C2.28754 9.07734 2.32703 9.11274 2.37223 9.1395C2.41743 9.16627 2.46746 9.18386 2.51946 9.19129C2.57146 9.19872 2.62441 9.19583 2.6753 9.1828C2.72618 9.16976 2.774 9.14683 2.81603 9.11531L4.41603 7.91531C4.5009 7.85166 4.557 7.7569 4.57201 7.65188C4.58701 7.54686 4.55968 7.44018 4.49603 7.35531C4.43237 7.27044 4.33762 7.21434 4.2326 7.19933C4.12757 7.18433 4.0209 7.21166 3.93603 7.27531L2.33603 8.47531C2.25116 8.53896 2.19505 8.63372 2.18005 8.73874C2.16504 8.84376 2.19238 8.95044 2.25603 9.03531ZM8.00003 5.19531C8.10611 5.19531 8.20786 5.23746 8.28287 5.31247C8.35788 5.38748 8.40003 5.48923 8.40003 5.59531V8.39531C8.40003 8.5014 8.35788 8.60314 8.28287 8.67816C8.20786 8.75317 8.10611 8.79531 8.00003 8.79531C7.89394 8.79531 7.7922 8.75317 7.71718 8.67816C7.64217 8.60314 7.60003 8.5014 7.60003 8.39531V5.59531C7.60003 5.48923 7.64217 5.38748 7.71718 5.31247C7.7922 5.23746 7.89394 5.19531 8.00003 5.19531Z" fill="#FCFCFC"/>
<path fill-rule="evenodd" clip-rule="evenodd" d="M10.8001 8.39219C10.8001 8.49827 10.758 8.60002 10.6829 8.67503C10.6079 8.75005 10.5062 8.79219 10.4001 8.79219H8.0001C7.89401 8.79219 7.79227 8.75005 7.71725 8.67503C7.64224 8.60002 7.6001 8.49827 7.6001 8.39219C7.6001 8.2861 7.64224 8.18436 7.71725 8.10934C7.79227 8.03433 7.89401 7.99219 8.0001 7.99219H10.4001C10.5062 7.99219 10.6079 8.03433 10.6829 8.10934C10.758 8.18436 10.8001 8.2861 10.8001 8.39219Z" fill="#FCFCFC"/>
<path d="M0.920141 1.49921C0.843016 1.42198 0.79973 1.31727 0.799805 1.20813C0.79988 1.09898 0.84331 0.994336 0.920541 0.917211C0.997772 0.840086 1.10248 0.7968 1.21162 0.796875C1.32077 0.79695 1.42542 0.84038 1.50254 0.917611L15.0793 14.4944C15.1565 14.5715 15.1998 14.6761 15.1998 14.7852C15.1998 14.8943 15.1565 14.9989 15.0793 15.076C15.0022 15.1531 14.8976 15.1965 14.7885 15.1965C14.6795 15.1965 14.5749 15.1531 14.4977 15.076L0.920141 1.49921Z" fill="#FCFCFC"/>
</g>
<defs>
<clipPath id="clip0_4652_22240">
<rect width="16" height="16" fill="white"/>
</clipPath>
</defs>
</svg>
