<svg width="24" height="24" viewBox="0 0 24 24" fill="none" xmlns="http://www.w3.org/2000/svg">
<path d="M5.375 4C4.47989 4 3.62145 4.36122 2.98851 5.00421C2.35558 5.64719 2 6.51926 2 7.42857V16.5714C2 17.4807 2.35558 18.3528 2.98851 18.9958C3.62145 19.6388 4.47989 20 5.375 20H14.375C15.2701 20 16.1285 19.6388 16.7615 18.9958C17.3944 18.3528 17.75 17.4807 17.75 16.5714V15.4286L20.9 17.8286C21.7648 18.4876 23 17.8606 23 16.7619V7.2381C23 6.13943 21.7648 5.51238 20.9 6.17143L17.75 8.57143V7.42857C17.75 6.51926 17.3944 5.64719 16.7615 5.00421C16.1285 4.36122 15.2701 4 14.375 4H5.375ZM17.75 10.4762L21.5 7.61905V16.381L17.75 13.5238V10.4762ZM16.25 7.42857V16.5714C16.25 17.0766 16.0525 17.5611 15.7008 17.9183C15.3492 18.2755 14.8723 18.4762 14.375 18.4762H5.375C4.87772 18.4762 4.40081 18.2755 4.04917 17.9183C3.69754 17.5611 3.5 17.0766 3.5 16.5714V7.42857C3.5 6.9234 3.69754 6.43891 4.04917 6.0817C4.40081 5.72449 4.87772 5.52381 5.375 5.52381H14.375C14.8723 5.52381 15.3492 5.72449 15.7008 6.0817C16.0525 6.43891 16.25 6.9234 16.25 7.42857Z" fill="#FCFCFC"/>
</svg>
