<svg xmlns="http://www.w3.org/2000/svg" width="30" height="30" viewBox="0 0 30 30">
  <g id="Group_5880" data-name="Group 5880" transform="translate(-24 -996)">
    <rect id="Rectangle_2272" data-name="Rectangle 2272" width="30" height="30" rx="15" transform="translate(24 996)" fill="#7b58ca"/>
    <g id="vuesax_linear_microphone" data-name="vuesax/linear/microphone" transform="translate(30.429 1002.429)">
      <g id="microphone" transform="translate(0 0)">
        <path id="Vector" d="M4.286,12.143A4.289,4.289,0,0,0,8.571,7.857V4.286A4.286,4.286,0,0,0,0,4.286V7.857A4.289,4.289,0,0,0,4.286,12.143Z" transform="translate(4.286 1.429)" fill="none" stroke="#fff" stroke-linecap="round" stroke-linejoin="round" stroke-width="1"/>
        <path id="Vector-2" data-name="Vector" d="M0,0V1.429a6.429,6.429,0,0,0,12.857,0V0" transform="translate(2.143 7.857)" fill="none" stroke="#fff" stroke-linecap="round" stroke-linejoin="round" stroke-width="1"/>
        <path id="Vector-3" data-name="Vector" d="M0,.348a5.714,5.714,0,0,1,3.929,0" transform="translate(6.507 4.995)" fill="none" stroke="#fff" stroke-linecap="round" stroke-linejoin="round" stroke-width="1"/>
        <path id="Vector-4" data-name="Vector" d="M0,.177a4.947,4.947,0,0,1,2.621,0" transform="translate(7.164 7.309)" fill="none" stroke="#fff" stroke-linecap="round" stroke-linejoin="round" stroke-width="1"/>
        <path id="Vector-5" data-name="Vector" d="M0,0H17.143V17.143H0Z" fill="none" opacity="0"/>
      </g>
    </g>
  </g>
</svg>
