<svg width="16" height="16" viewBox="0 0 16 16" fill="none" xmlns="http://www.w3.org/2000/svg">
<path d="M11.3333 13.6667H4.66659C2.66659 13.6667 1.33325 12.6667 1.33325 10.3333V5.66667C1.33325 3.33333 2.66659 2.33333 4.66659 2.33333H11.3333C13.3333 2.33333 14.6666 3.33333 14.6666 5.66667V10.3333C14.6666 12.6667 13.3333 13.6667 11.3333 13.6667Z" stroke="#323232" stroke-miterlimit="10" stroke-linecap="round" stroke-linejoin="round"/>
<path d="M8 10C9.10457 10 10 9.10457 10 8C10 6.89543 9.10457 6 8 6C6.89543 6 6 6.89543 6 8C6 9.10457 6.89543 10 8 10Z" stroke="#323232" stroke-miterlimit="10" stroke-linecap="round" stroke-linejoin="round"/>
<path d="M1.33325 6H1.99992C3.99992 6 4.66659 5.33333 4.66659 3.33333V2.66667" stroke="#323232" stroke-miterlimit="10" stroke-linecap="round" stroke-linejoin="round"/>
<path d="M14.6666 6H13.9999C11.9999 6 11.3333 5.33333 11.3333 3.33333V2.66667" stroke="#323232" stroke-miterlimit="10" stroke-linecap="round" stroke-linejoin="round"/>
<path d="M1.33325 10H1.99992C3.99992 10 4.66659 10.6667 4.66659 12.6667V13.3333" stroke="#323232" stroke-miterlimit="10" stroke-linecap="round" stroke-linejoin="round"/>
<path d="M14.6666 10H13.9999C11.9999 10 11.3333 10.6667 11.3333 12.6667V13.3333" stroke="#323232" stroke-miterlimit="10" stroke-linecap="round" stroke-linejoin="round"/>
</svg>
