<svg xmlns="http://www.w3.org/2000/svg" xmlns:xlink="http://www.w3.org/1999/xlink" width="215" height="168" viewBox="0 0 215 168">
  <defs>
    <clipPath id="clip-path">
      <rect id="Rectangle_2889" data-name="Rectangle 2889" width="215" height="168" transform="translate(100 349)" fill="#fff"/>
    </clipPath>
    <clipPath id="clip-path-2">
      <circle id="Ellipse_720" data-name="Ellipse 720" cx="73.5" cy="73.5" r="73.5" transform="translate(102 301)" fill="#fff"/>
    </clipPath>
    <clipPath id="clip-path-3">
      <path id="Path_57998" data-name="Path 57998" d="M1440.074,2749.31s-3.872,10.6-4.056,13.92,0,8.85,0,8.85l6.269,1.29-1.844-6.176s2.857,3.319,4.425,5.071l2.213.646,14.2-.185s-.184-3.41-1.567-3.779a34.3,34.3,0,0,0-6.269-.83l-7.006-8.2,3.779-11.062Z" transform="translate(-1435.936 -2748.849)" fill="#ff4f79"/>
    </clipPath>
    <clipPath id="clip-path-4">
      <path id="Path_58001" data-name="Path 58001" d="M1725.825,2350.849a18.618,18.618,0,0,0,13.828,1.66l6.637.829-4.7,22.586s2.95,9.126-15.21,5.807Z" transform="translate(-1725.825 -2350.849)" fill="#ffb061"/>
    </clipPath>
    <clipPath id="clip-path-5">
      <path id="Path_58008" data-name="Path 58008" d="M1393.441,1203.588c-.41-1.281-1.259-3.01-1.183-4.354-1.069-.214-2.2-.095-3.288-.248-1.35-.19-2.727-.287-4.07-.508-2.763-.456-9.39-3.039-13.223-4.848a7.574,7.574,0,0,0-2.66-1.529c-4.332-1.4-15.214-1.8-19.463-1.9a7.718,7.718,0,0,0-4.315,1.163,3.584,3.584,0,0,0-1.2,1.107s-2.581,4.332,4.148,10.509c4.134,3.795,13.367,10.048,14.842,13.828s1.475,4.7,1.475,4.7l13.182.184-1.488-17.073c1.342.111,2.7.266,3.054.335a43,43,0,0,0,5.718.793c2.235.136,4.474.026,6.709.125.667.029,1.772.233,2.284-.257A18.819,18.819,0,0,1,1393.441,1203.588Z" transform="translate(-1343.548 -1190.196)" fill="#8e43ba"/>
    </clipPath>
    <clipPath id="clip-path-6">
      <path id="Path_58015" data-name="Path 58015" d="M1261.99,1530.033s10.325,30.236,10.97,43.88-6.177,25.535-4.886,31.527,1.936,20.834-.83,26.918-4.978,8.849-14.012,10.048a64.18,64.18,0,0,1-14.473.553,14.474,14.474,0,0,1-14.288,1.844c-8.2-3.319-9.772-3.411-7.283-11.247s16.685-47.291,17.607-61.211c0,0,1.659-31.988,14.012-42.5Z" transform="translate(-1216.108 -1529.849)" fill="#cfbeb8"/>
    </clipPath>
    <clipPath id="clip-path-7">
      <path id="Path_58018" data-name="Path 58018" d="M1373.083,911.036c.579-.277,1.936-.369,2.028-1.659a13.894,13.894,0,0,0-4.378-12.161c-1.027-1.026-2.178-1.9-2.668-3.323a9.678,9.678,0,0,1,.395-6.138,8.853,8.853,0,0,1,5.931-5.034c2.149-.523,4.543-.48,6.209,1.066,1.939,1.8,2.441,4.574,3.531,6.9a25.5,25.5,0,0,1,2.14,4.741c.345,1.409.827,4.586-.273,5.8-1.532,1.693-4.484-.549-5.045,2.083-.576,2.7,1.2,7.243,2.824,9.383-2.3.092-5.992-1.567-10.417-1.567" transform="translate(-1367.727 -882.419)" fill="#fef2e6"/>
    </clipPath>
    <clipPath id="clip-path-8">
      <path id="Path_58022" data-name="Path 58022" d="M1182.961,721.632a13.381,13.381,0,0,0-4.6-.18,9.766,9.766,0,0,0-3.111.813,8.508,8.508,0,0,0,3.043-6.174,10.192,10.192,0,0,0-6.76-10.488c-7.969-1.56-9.444.652-13.592,2.772-4.1,3.278-6.508,8.724-4.83,13.878,2.569,7.894,12.2,6.119,18.133,3.338a6.607,6.607,0,0,0-1.016,4.659c.007.046.015.092.023.138a8.039,8.039,0,0,0,5.1,5.653c-.427-1-1.61-1.868-1.986-3.083a1.532,1.532,0,0,1,.845-1.9,3.214,3.214,0,0,1,2.435.343c.665.273,2.06,1.282,2.738.493.557-.648-.343-1.718-.667-2.276-.8-1.372-1.447-3.256-.808-4.812.663-1.612,2.678-2.153,4.246-2.309a9.538,9.538,0,0,0,2.364-.166C1184.452,721.886,1183.289,721.717,1182.961,721.632Z" transform="translate(-1152.571 -705.078)" fill="#4345ba"/>
    </clipPath>
    <clipPath id="clip-path-9">
      <path id="Path_58068" data-name="Path 58068" d="M1239.825,2228.725s12.445.092,16.685,2.3l6.084-24.8-12.168-1.383Z" transform="translate(-1239.825 -2204.849)" fill="#fff"/>
    </clipPath>
    <clipPath id="clip-path-10">
      <path id="Path_58073" data-name="Path 58073" d="M1212.909,2759.849s.922,1.752-1.936,7.928-4.148,9.5-4.148,14.749h4.425l.922-4.056a14.881,14.881,0,0,0,4.794,3.78c3.595,2.028,17.331,1.106,17.331,1.106s1.567-2.4-2.673-3.5a49.831,49.831,0,0,1-7.283-2.489l-3.78-8.113,2.766-8.02Z" transform="translate(-1206.825 -2759.849)" fill="#ff4f79"/>
    </clipPath>
    <clipPath id="clip-path-11">
      <path id="Path_58079" data-name="Path 58079" d="M1504.367,896.268l30.421-3.042a4.322,4.322,0,0,1,3.688,1.106l7.375-.738s5.347-.092,5.808,4.886c.4,4.323-1.475,7.1-7.559,6.637a36.138,36.138,0,0,1-5.807-.737s-1.752,1.475-7.1.83c-5.037-.608-26.088-3.134-26.088-3.134s-2.283.349-2.673-2.673C1502.063,896.545,1504.367,896.268,1504.367,896.268Z" transform="translate(-1502.391 -893.163)" fill="#ff4f79"/>
    </clipPath>
    <clipPath id="clip-path-12">
      <ellipse id="Ellipse_663" data-name="Ellipse 663" cx="3.503" cy="5.162" rx="3.503" ry="5.162" fill="#fff"/>
    </clipPath>
    <clipPath id="clip-path-13">
      <ellipse id="Ellipse_665" data-name="Ellipse 665" cx="3.365" cy="4.959" rx="3.365" ry="4.959" fill="#fff"/>
    </clipPath>
  </defs>
  <g id="Mask_Group_5" data-name="Mask Group 5" transform="translate(-100 -349)" clip-path="url(#clip-path)">
    <g id="Group_7157" data-name="Group 7157" transform="translate(30.418 68)">
      <circle id="Ellipse_719" data-name="Ellipse 719" cx="66" cy="66" r="66" transform="translate(110.586 316)" fill="#faf9fd"/>
      <g id="Mask_Group_4" data-name="Mask Group 4" clip-path="url(#clip-path-2)">
        <g id="Group_7135" data-name="Group 7135" transform="translate(-82.438 182.631)">
          <g id="Livello_2" data-name="Livello 2" transform="translate(173.953 102.823)">
            <g id="Group_7059" data-name="Group 7059" transform="translate(0 0)">
              <g id="Group_7056" data-name="Group 7056" transform="translate(0 66.642)">
                <circle id="Ellipse_661" data-name="Ellipse 661" cx="3.376" cy="3.376" r="3.376" transform="translate(0 0)" fill="#fff"/>
              </g>
              <g id="Group_7058" data-name="Group 7058" transform="translate(174.996 147.519)">
                <g id="Group_7057" data-name="Group 7057">
                  <path id="Path_57995" data-name="Path 57995" d="M2505.035,1704.023a72.415,72.415,0,0,1,3.024,9.694,28.48,28.48,0,0,1,.666,3.91.054.054,0,0,0,.065.051l9.338-.8,1.321-.114c.1-.009.44-.144.416-.288a76.085,76.085,0,0,0-2.257-10.037,22.027,22.027,0,0,0-1.262-3.339.065.065,0,0,0-.059-.023l-9.494.552-1.347.078c-.137.008-.526.349-.351.339l8.882-.517,1.724-.1a.58.58,0,0,1,.17-.01c.117.042-.035-.043.064.091a6.239,6.239,0,0,1,.614,1.462,51.385,51.385,0,0,1,1.93,7.032c.338,1.562.65,3.132.906,4.71l.416-.288-8.583.736-1.761.151c-.035,0-.283.054-.311.027.034.034.035-.2.035-.219,0-.128-.027-.259-.043-.387q-.06-.489-.14-.975a52.8,52.8,0,0,0-1.9-7.456c-.49-1.536-1.01-3.067-1.591-4.572C2505.461,1703.619,2504.976,1703.87,2505.035,1704.023Z" transform="translate(-2505.03 -1703.075)" fill="#fff"/>
                </g>
              </g>
            </g>
            <g id="Group_7126" data-name="Group 7126" transform="translate(50.32 55.519)">
              <g id="Group_7062" data-name="Group 7062" transform="translate(26.122 188.404)">
                <path id="Path_57996" data-name="Path 57996" d="M1440.074,2749.31s-3.872,10.6-4.056,13.92,0,8.85,0,8.85l6.269,1.29-1.844-6.176s2.857,3.319,4.425,5.071l2.213.646,14.2-.185s-.184-3.41-1.567-3.779a34.3,34.3,0,0,0-6.269-.83l-7.006-8.2,3.779-11.062Z" transform="translate(-1435.936 -2748.849)" fill="#ff4f79"/>
                <g id="Group_7061" data-name="Group 7061" clip-path="url(#clip-path-3)">
                  <g id="Group_7060" data-name="Group 7060" transform="translate(-3.464 -2.784)" style="mix-blend-mode: multiply;isolation: isolate">
                    <path id="Path_57997" data-name="Path 57997" d="M1417.671,2723.754l-11.333,7.024,5.746,12.77,5.587-1.277,5.746,4.15-23.305.32-1.756-14.845,5.587-13.249,14.7,1.648Z" transform="translate(-1398.356 -2718.646)" fill="#cfbeb8"/>
                  </g>
                </g>
              </g>
              <g id="Group_7065" data-name="Group 7065" transform="translate(52.845 151.715)">
                <path id="Path_57999" data-name="Path 57999" d="M1725.825,2350.849a18.618,18.618,0,0,0,13.828,1.66l6.637.829-4.7,22.586s2.95,9.126-15.21,5.807Z" transform="translate(-1725.825 -2350.849)" fill="#ffb061"/>
                <g id="Group_7064" data-name="Group 7064" clip-path="url(#clip-path-4)">
                  <g id="Group_7063" data-name="Group 7063" transform="translate(0 -1.028)" style="mix-blend-mode: multiply;isolation: isolate">
                    <path id="Path_58000" data-name="Path 58000" d="M1729.377,2360.61l14.245-20.912-17.8,1.028Z" transform="translate(-1725.825 -2339.697)" fill="#ffb061"/>
                  </g>
                </g>
              </g>
              <g id="Group_7072" data-name="Group 7072" transform="translate(17.605 44.72)">
                <path id="Path_58005" data-name="Path 58005" d="M1393.441,1203.588c-.41-1.281-1.259-3.01-1.183-4.354-1.069-.214-2.2-.095-3.288-.248-1.35-.19-2.727-.287-4.07-.508-2.763-.456-9.39-3.039-13.223-4.848a7.574,7.574,0,0,0-2.66-1.529c-4.332-1.4-15.214-1.8-19.463-1.9a7.718,7.718,0,0,0-4.315,1.163,3.584,3.584,0,0,0-1.2,1.107s-2.581,4.332,4.148,10.509c4.134,3.795,13.367,10.048,14.842,13.828s1.475,4.7,1.475,4.7l13.182.184-1.488-17.073c1.342.111,2.7.266,3.054.335a43,43,0,0,0,5.718.793c2.235.136,4.474.026,6.709.125.667.029,1.772.233,2.284-.257A18.819,18.819,0,0,1,1393.441,1203.588Z" transform="translate(-1343.548 -1190.196)" fill="#8e43ba"/>
                <g id="Group_7071" data-name="Group 7071" clip-path="url(#clip-path-5)">
                  <g id="Group_7069" data-name="Group 7069" transform="translate(-1.982 -1.46)" style="mix-blend-mode: multiply;isolation: isolate">
                    <path id="Path_58006" data-name="Path 58006" d="M1337.888,1176.5c.813.013,1.794-.075,2.251.605-1.15,1-3.243,1.156-4.774,1.176-3.113.04-7.376-3.727-9.651.59-1.867,3.543,4.122,6.885,6.464,8.228,4.306,2.469,9.128,3.378,14.079,3.74,2.927.214,6.444,1.188,9.136-.18-.982-1.568-.874-4.387-2.214-5.822,3.4,2.321,6.6,4.06,10.778,4.5,1.916.2,3.678-.191,4.82-1.827.852-1.221,2.052-4.167,1.32-5.56,2.285,3.475,4.681,6.958,6.852,10.515a48.563,48.563,0,0,1-5.391,1.264c-2.173.252-4.38,0-6.549.214-1.93.19-3.863.314-5.81.314-2.2,0-4.195-.093-6.391-.172a48.477,48.477,0,0,1-5.923-.733c-2.268-.365-5.934.509-4.832,3.4,1.095,2.877,3.867,4.486,6.041,6.463a6.029,6.029,0,0,1,2.228,4.1c-.053,3.284-5.184,2.5-7.206,2.27-2.271-.264-4.614-.194-6.884-.643-8.307-1.642-10.687-12.735-12.546-19.616-.888-3.289-2.522-8.178-1.047-11.52,1.4-3.183,4.09-4.252,7.337-2.846" transform="translate(-1322.045 -1174.358)" fill="#cfbeb8"/>
                  </g>
                </g>
              </g>
              <g id="Group_7082" data-name="Group 7082" transform="translate(5.857 76.031)">
                <path id="Path_58009" data-name="Path 58009" d="M1261.99,1530.033s10.325,30.236,10.97,43.88-6.177,25.535-4.886,31.527,1.936,20.834-.83,26.918-4.978,8.849-14.012,10.048a64.18,64.18,0,0,1-14.473.553,14.474,14.474,0,0,1-14.288,1.844c-8.2-3.319-9.772-3.411-7.283-11.247s16.685-47.291,17.607-61.211c0,0,1.659-31.988,14.012-42.5Z" transform="translate(-1216.108 -1529.849)" fill="#00c4c4"/>
                <g id="Group_7081" data-name="Group 7081" clip-path="url(#clip-path-6)">
                  <g id="Group_7073" data-name="Group 7073" transform="translate(-4.681 -0.557)" style="mix-blend-mode: multiply;isolation: isolate">
                    <path id="Path_58010" data-name="Path 58010" d="M1209.619,1523.807a39.115,39.115,0,0,0-14.379,25.278,51.923,51.923,0,0,0-.414,6.188,23.289,23.289,0,0,1,4.749-4.844c.2,2.91.4,5.8.628,8.727.4,5.049-.126,10.244.839,15.2-.653.126-7.271,1.352-7.292,1.443-.293,1.234-2.556,13.947-3.789,13.88,1.744.094,3.524-.011,5.194,0a55.335,55.335,0,0,0-2.45,10.56,59.594,59.594,0,0,0-.868,6.3c-.168,3.224.208,6.745-.164,9.911-.9-.22-4.095-1-6.642-1.433a3.708,3.708,0,0,0-3.893,1.888c-.464.864-.99,1.72-1.356,2.568-.873,2.021-1.62,4.037-2.309,6.135A23.992,23.992,0,0,0,1176.2,1631c-.444,5.391,5.189,6.293,9.341,6.5,2.973.145,6.183.04,8.763-1.541,6.478-3.97,9.115-12.242,9.219-19.54.043-3.056-.771-6.048.139-9.079a26.811,26.811,0,0,1,2.793-5.923,15,15,0,0,0,1.969-3.617c-1.667,3.2-3.329,7.084-3.045,10.76.264,3.415,2,6.335,2.433,9.662.443,3.388-.585,6.478-1.8,9.6a25.953,25.953,0,0,1-1.577,3.511,2.871,2.871,0,0,0,2.652,4.275c1.277-.067,2.507-.239,3.442-.376a24.325,24.325,0,0,0,9.535-3.256c-2.849,5.943-11.439,8.234-17.376,8.7-3.271.254-6.677-.313-9.9.5-3.772.956-6.987,2.283-10.878,2.455-4.3.19-7.254.071-11.138-2.143-9.027-5.143-4.647-19.261-2.325-27.416,2.574-9.04,4.984-18.024,7.142-27.184,1.692-7.18,3.575-14.369,5.542-21.463,2.008-7.241,2.78-14.663,5.733-21.666a74.871,74.871,0,0,1,6.817-12.467c2.7-4,5.566-4.256,9.714-6.482" transform="translate(-1165.325 -1523.807)" fill="#cfbeb8"/>
                  </g>
                  <g id="Group_7074" data-name="Group 7074" transform="translate(41.556 27.019)" style="mix-blend-mode: multiply;isolation: isolate">
                    <path id="Path_58011" data-name="Path 58011" d="M1666.895,1864.248c3.057-9.763,3.071-18,2.094-27.933-.438-4.456-.8-8.964-.95-13.374a137.851,137.851,0,0,1,2.788,15.846c.559,5.009.926,11.927-1.157,16.673" transform="translate(-1666.895 -1822.941)" fill="#cfbeb8"/>
                  </g>
                  <g id="Group_7076" data-name="Group 7076" transform="translate(47.499 56.09)">
                    <g id="Group_7075" data-name="Group 7075">
                      <path id="Path_58012" data-name="Path 58012" d="M1748.909,2146.889a8.678,8.678,0,0,0-5.963-8.181,9.048,9.048,0,0,0-9.587,2.882,8.6,8.6,0,0,0,8.651,13.884,9.013,9.013,0,0,0,6.9-8.585c0-.134-.479.082-.48.238a8.28,8.28,0,0,1-5.622,7.869,8.483,8.483,0,0,1-9.843-12.347,8.163,8.163,0,0,1,9.023-3.764,8.586,8.586,0,0,1,6.442,8.242C1748.43,2147.263,1748.91,2147.044,1748.909,2146.889Z" transform="translate(-1731.365 -2138.306)" fill="#fff"/>
                    </g>
                  </g>
                  <g id="Group_7078" data-name="Group 7078" transform="translate(13.375 101.532)">
                    <g id="Group_7077" data-name="Group 7077">
                      <path id="Path_58013" data-name="Path 58013" d="M1378.745,2639.833a8.678,8.678,0,0,0-5.963-8.181,9.048,9.048,0,0,0-9.587,2.882,8.6,8.6,0,0,0,8.651,13.884,9.013,9.013,0,0,0,6.9-8.585c0-.134-.479.083-.48.237a8.279,8.279,0,0,1-5.622,7.869,8.483,8.483,0,0,1-9.843-12.347,8.164,8.164,0,0,1,9.023-3.764,8.587,8.587,0,0,1,6.442,8.242C1378.265,2640.207,1378.746,2639.987,1378.745,2639.833Z" transform="translate(-1361.201 -2631.249)" fill="#fff"/>
                    </g>
                  </g>
                  <g id="Group_7080" data-name="Group 7080" transform="translate(21.381 6.01)">
                    <g id="Group_7079" data-name="Group 7079">
                      <path id="Path_58014" data-name="Path 58014" d="M1465.586,1603.63a8.677,8.677,0,0,0-5.962-8.181,9.048,9.048,0,0,0-9.588,2.881,8.6,8.6,0,0,0,8.651,13.884,9.012,9.012,0,0,0,6.9-8.585c0-.134-.479.082-.481.237a8.278,8.278,0,0,1-5.622,7.869,8.483,8.483,0,0,1-9.843-12.347,8.164,8.164,0,0,1,9.023-3.764,8.586,8.586,0,0,1,6.441,8.242C1465.106,1604,1465.587,1603.784,1465.586,1603.63Z" transform="translate(-1448.042 -1595.047)" fill="#fff"/>
                    </g>
                  </g>
                </g>
              </g>
              <g id="Group_7085" data-name="Group 7085" transform="translate(19.834 16.348)">
                <path id="Path_58016" data-name="Path 58016" d="M1373.083,911.036c.579-.277,1.936-.369,2.028-1.659a13.894,13.894,0,0,0-4.378-12.161c-1.027-1.026-2.178-1.9-2.668-3.323a9.678,9.678,0,0,1,.395-6.138,8.853,8.853,0,0,1,5.931-5.034c2.149-.523,4.543-.48,6.209,1.066,1.939,1.8,2.441,4.574,3.531,6.9a25.5,25.5,0,0,1,2.14,4.741c.345,1.409.827,4.586-.273,5.8-1.532,1.693-4.484-.549-5.045,2.083-.576,2.7,1.2,7.243,2.824,9.383-2.3.092-5.992-1.567-10.417-1.567" transform="translate(-1367.727 -882.419)" fill="#f1c69c"/>
                <g id="Group_7084" data-name="Group 7084" clip-path="url(#clip-path-7)">
                  <g id="Group_7083" data-name="Group 7083" transform="translate(-0.852 3.028)" style="mix-blend-mode: multiply;isolation: isolate">
                    <path id="Path_58017" data-name="Path 58017" d="M1361.621,915.933a9.6,9.6,0,0,1,6.6-.168,13.549,13.549,0,0,1,2.976,1.5c.753.475,1.2.23,2.09.341a5.062,5.062,0,0,1,4.048,4.256c.108.622.231,1.373-.528,1.252-.2-.031-.44-.327-.642-.4-1.734-.666-2.786,1.215-4.324.98s-2.73-1.656-3.936-2.53c-1.125,1.18.217,2.733,1.224,3.489,2.412,1.81,5.564,3.175,6.36,6.392.418,1.688-.274.827-1.357,1.139-1.221.352-.95,1.723-.76,2.812.155.883,1.617,3.358.1,3.084-2.217-.4-2.089-5.361-4.759-5.393-1.938-.023-1.353,3.387-1.015,4.676a7.884,7.884,0,0,0,3.65,5.105c-1.221.348-3.5-.109-4.752-.335a5.038,5.038,0,0,1-2.756-1.161c1.337-1.555.887-4.763.395-6.527-.76-2.722-2.659-4.761-4.153-7.068-2.513-3.882-1.782-7.285.124-11.266" transform="translate(-1358.481 -915.262)" fill="#fef2e6"/>
                  </g>
                </g>
              </g>
              <g id="Group_7086" data-name="Group 7086" transform="translate(51.002 28.003)">
                <path id="Path_58019" data-name="Path 58019" d="M1712,1009.679c.038.961-.382,4.636.07,5.743.129.313.554.581.843.834,1.224,1.073,2.256,2.283,3.4,3.444,2.1,2.124,4.077,4.452,5.989,6.738,1.835,2.194,3.817,4.227,5.521,6.525.835,1.127,3.01,4.417,1.875,5.846-.779.98-6.822,2.212-6.822,2.212-3.227-4.148-5.243-9.791-6.375-11.667-1.677-2.778-3.393-5.515-5.172-8.235-1.451-2.217-2.794-4.51-4.151-6.794a14.24,14.24,0,0,1-1.355-5.477" transform="translate(-1705.825 -1008.849)" fill="#f1c69c"/>
              </g>
              <g id="Group_7089" data-name="Group 7089">
                <path id="Path_58020" data-name="Path 58020" d="M1182.961,721.632a13.381,13.381,0,0,0-4.6-.18,9.766,9.766,0,0,0-3.111.813,8.508,8.508,0,0,0,3.043-6.174,10.192,10.192,0,0,0-6.76-10.488c-7.969-1.56-9.444.652-13.592,2.772-4.1,3.278-6.508,8.724-4.83,13.878,2.569,7.894,12.2,6.119,18.133,3.338a6.607,6.607,0,0,0-1.016,4.659c.007.046.015.092.023.138a8.039,8.039,0,0,0,5.1,5.653c-.427-1-1.61-1.868-1.986-3.083a1.532,1.532,0,0,1,.845-1.9,3.214,3.214,0,0,1,2.435.343c.665.273,2.06,1.282,2.738.493.557-.648-.343-1.718-.667-2.276-.8-1.372-1.447-3.256-.808-4.812.663-1.612,2.678-2.153,4.246-2.309a9.538,9.538,0,0,0,2.364-.166C1184.452,721.886,1183.289,721.717,1182.961,721.632Z" transform="translate(-1152.571 -705.078)" fill="#4345ba"/>
                <g id="Group_7088" data-name="Group 7088" clip-path="url(#clip-path-8)">
                  <g id="Group_7087" data-name="Group 7087" transform="translate(-3.633 10.41)" style="mix-blend-mode: multiply;isolation: isolate">
                    <path id="Path_58021" data-name="Path 58021" d="M1115.587,822.159a18.847,18.847,0,0,1,7.459-3.323,48.833,48.833,0,0,1,5.2-.729,21.773,21.773,0,0,1,5.7.166c1.627.307,3.741.66,5.056,1.753,2.527,2.1-.146,5.981-1.959,7.753,3.623-2.136,7,.174,7.823,4.061a6.9,6.9,0,0,1-1.456,5.962c-2.239,2.476-6.992,1.846-9.209-.242-1.481-1.394-2.312-3.376-3.914-4.666-1.824-1.47-3.879-.608-6.043-.707-5.235-.238-8.976-3.616-11.077-8.244" transform="translate(-1113.165 -818)" fill="#4345ba"/>
                  </g>
                </g>
              </g>
              <g id="Group_7104" data-name="Group 7104" transform="translate(8.043 138.256)">
                <path id="Path_58027" data-name="Path 58027" d="M1239.825,2228.725s12.445.092,16.685,2.3l6.084-24.8-12.168-1.383Z" transform="translate(-1239.825 -2204.849)" fill="#fff"/>
                <g id="Group_7103" data-name="Group 7103" clip-path="url(#clip-path-9)">
                  <g id="Group_7094" data-name="Group 7094" transform="translate(-137.92 -50.749)">
                    <path id="Path_58028" data-name="Path 58028" d="M-256.3,1654.333h.1v.334h0a.181.181,0,0,1,.07-.069.2.2,0,0,1,.1-.027c.072,0,.187.044.187.229v.318h-.1v-.308c0-.086-.032-.159-.124-.159a.139.139,0,0,0-.13.1.121.121,0,0,0-.007.046v.323h-.1Z" transform="translate(256.299 -1654.333)"/>
                    <path id="Path_58029" data-name="Path 58029" d="M-250.168,1655.376v.154h.139v.074h-.139v.289c0,.067.019.1.073.1a.212.212,0,0,0,.056-.007l0,.073a.239.239,0,0,1-.086.013.134.134,0,0,1-.105-.041.2.2,0,0,1-.038-.139v-.292h-.083v-.074h.083v-.128Z" transform="translate(250.895 -1655.28)"/>
                    <path id="Path_58030" data-name="Path 58030" d="M-246.2,1655.376v.154h.139v.074h-.139v.289c0,.067.019.1.073.1a.213.213,0,0,0,.056-.007l0,.073a.239.239,0,0,1-.086.013.134.134,0,0,1-.1-.041.2.2,0,0,1-.038-.139v-.292h-.083v-.074h.083v-.128Z" transform="translate(247.29 -1655.28)"/>
                    <path id="Path_58031" data-name="Path 58031" d="M-241.787,1657.1c0-.068,0-.124,0-.175h.087l0,.092h0a.21.21,0,0,1,.19-.1.242.242,0,0,1,.227.272.253.253,0,0,1-.243.287.188.188,0,0,1-.165-.084h0v.291h-.1Zm.1.143a.223.223,0,0,0,0,.04.15.15,0,0,0,.146.114c.1,0,.163-.084.163-.207,0-.107-.056-.2-.159-.2a.155.155,0,0,0-.147.12.16.16,0,0,0-.007.04Z" transform="translate(243.129 -1656.673)"/>
                    <path id="Path_58032" data-name="Path 58032" d="M-235.3,1657.359a.255.255,0,0,0,.128.039c.071,0,.1-.035.1-.08s-.028-.072-.1-.1c-.1-.034-.142-.087-.142-.152a.165.165,0,0,1,.185-.157.263.263,0,0,1,.132.033l-.024.071a.209.209,0,0,0-.109-.031c-.057,0-.089.033-.089.073s.032.064.1.091c.093.035.14.082.14.162s-.073.16-.2.16a.306.306,0,0,1-.15-.036Z" transform="translate(237.257 -1656.673)"/>
                    <path id="Path_58033" data-name="Path 58033" d="M-230.415,1657.317a.066.066,0,0,1,.066-.07.065.065,0,0,1,.065.07.064.064,0,0,1-.066.068A.064.064,0,0,1-230.415,1657.317Zm0,.39a.065.065,0,0,1,.066-.069.065.065,0,0,1,.065.069.065.065,0,0,1-.066.069A.065.065,0,0,1-230.415,1657.707Z" transform="translate(232.801 -1656.978)"/>
                    <path id="Path_58034" data-name="Path 58034" d="M-228.567,1655.433l.308-.8h.075l-.309.8Z" transform="translate(231.123 -1654.604)"/>
                    <path id="Path_58035" data-name="Path 58035" d="M-224.451,1655.433l.308-.8h.075l-.309.8Z" transform="translate(227.387 -1654.604)"/>
                    <path id="Path_58036" data-name="Path 58036" d="M-220.008,1657.043l.071.272c.016.06.03.115.04.171h0c.012-.054.03-.112.048-.169l.087-.273h.082l.083.268c.02.064.035.12.048.175h0a1.621,1.621,0,0,1,.041-.174l.076-.269h.1l-.172.535h-.089l-.082-.255a1.764,1.764,0,0,1-.048-.176h0a1.584,1.584,0,0,1-.049.177l-.086.255h-.088l-.161-.535Z" transform="translate(223.443 -1656.793)"/>
                    <path id="Path_58037" data-name="Path 58037" d="M-211.033,1657.043l.071.272c.015.06.03.115.04.171h0c.012-.054.03-.112.047-.169l.087-.273h.082l.083.268c.02.064.035.12.047.175h0a1.594,1.594,0,0,1,.041-.174l.076-.269h.1l-.172.535h-.089l-.082-.255a1.759,1.759,0,0,1-.048-.176h0a1.565,1.565,0,0,1-.049.177l-.086.255h-.089l-.161-.535Z" transform="translate(215.296 -1656.793)"/>
                    <path id="Path_58038" data-name="Path 58038" d="M-202.056,1657.043l.071.272c.015.06.03.115.04.171h0c.012-.054.03-.112.048-.169l.087-.273h.082l.083.268c.02.064.035.12.048.175h0a1.594,1.594,0,0,1,.041-.174l.076-.269h.1l-.172.535h-.089l-.082-.255a1.793,1.793,0,0,1-.048-.176h0a1.588,1.588,0,0,1-.049.177l-.086.255h-.088l-.161-.535Z" transform="translate(207.146 -1656.793)"/>
                    <path id="Path_58039" data-name="Path 58039" d="M-193.383,1661.537a.065.065,0,0,1,.066-.07.064.064,0,0,1,.065.07.065.065,0,0,1-.066.07A.065.065,0,0,1-193.383,1661.537Z" transform="translate(199.183 -1660.81)"/>
                    <path id="Path_58040" data-name="Path 58040" d="M-190.659,1654.813a.058.058,0,0,1-.062.06.058.058,0,0,1-.059-.06.059.059,0,0,1,.061-.061A.058.058,0,0,1-190.659,1654.813Zm-.108.686v-.535h.1v.535Z" transform="translate(196.82 -1654.713)"/>
                    <path id="Path_58041" data-name="Path 58041" d="M-187.884,1657.068c0-.055,0-.1,0-.145h.086l.006.089h0a.2.2,0,0,1,.177-.1c.074,0,.189.044.189.228v.32h-.1v-.308c0-.086-.032-.158-.124-.158a.138.138,0,0,0-.13.1.14.14,0,0,0-.007.045v.322h-.1Z" transform="translate(194.194 -1656.673)"/>
                    <path id="Path_58042" data-name="Path 58042" d="M-181.564,1657.359a.255.255,0,0,0,.128.039c.071,0,.1-.035.1-.08s-.028-.072-.1-.1c-.1-.034-.141-.087-.141-.152a.165.165,0,0,1,.185-.157.263.263,0,0,1,.132.033l-.024.071a.209.209,0,0,0-.109-.031c-.057,0-.089.033-.089.073s.032.064.1.091c.093.035.14.082.14.162s-.073.16-.2.16a.307.307,0,0,1-.15-.036Z" transform="translate(188.475 -1656.673)"/>
                    <path id="Path_58043" data-name="Path 58043" d="M-176.91,1655.376v.154h.139v.074h-.139v.289c0,.067.019.1.073.1a.212.212,0,0,0,.056-.007l0,.073a.239.239,0,0,1-.086.013.134.134,0,0,1-.1-.041.2.2,0,0,1-.038-.139v-.292h-.083v-.074h.083v-.128Z" transform="translate(184.39 -1655.28)"/>
                    <path id="Path_58044" data-name="Path 58044" d="M-172.574,1657.458l-.008-.068h0a.2.2,0,0,1-.164.08.152.152,0,0,1-.164-.153c0-.13.115-.2.322-.2v-.011a.11.11,0,0,0-.122-.124.266.266,0,0,0-.139.04l-.022-.064a.329.329,0,0,1,.176-.048c.164,0,.2.112.2.219v.2a.765.765,0,0,0,.009.128Zm-.014-.273c-.106,0-.227.017-.227.121a.086.086,0,0,0,.092.093.133.133,0,0,0,.129-.09.1.1,0,0,0,.006-.031Z" transform="translate(180.599 -1656.673)"/>
                    <path id="Path_58045" data-name="Path 58045" d="M-166.592,1656.923c0,.039,0,.082,0,.147v.31a.307.307,0,0,1-.076.244.283.283,0,0,1-.195.064.345.345,0,0,1-.178-.044l.024-.074a.3.3,0,0,0,.157.042c.1,0,.172-.052.172-.187v-.06h0a.191.191,0,0,1-.17.089.239.239,0,0,1-.228-.261.257.257,0,0,1,.241-.284.178.178,0,0,1,.167.093h0l0-.081Zm-.1.211a.141.141,0,0,0-.005-.044.14.14,0,0,0-.136-.1c-.093,0-.159.078-.159.2,0,.1.053.192.158.192a.142.142,0,0,0,.135-.1.171.171,0,0,0,.008-.052Z" transform="translate(175.316 -1656.673)"/>
                    <path id="Path_58046" data-name="Path 58046" d="M-160.08,1657.09c0-.063,0-.117,0-.167H-160l0,.105h0a.161.161,0,0,1,.148-.117.1.1,0,0,1,.028,0v.092a.148.148,0,0,0-.033,0,.137.137,0,0,0-.13.125.274.274,0,0,0,0,.045v.285h-.1Z" transform="translate(168.954 -1656.673)"/>
                    <path id="Path_58047" data-name="Path 58047" d="M-156.29,1657.458l-.008-.068h0a.2.2,0,0,1-.164.08.152.152,0,0,1-.164-.153c0-.13.115-.2.322-.2v-.011a.11.11,0,0,0-.122-.124.266.266,0,0,0-.139.04l-.022-.064a.329.329,0,0,1,.176-.048c.164,0,.2.112.2.219v.2a.763.763,0,0,0,.009.128Zm-.014-.273c-.106,0-.227.017-.227.121a.086.086,0,0,0,.092.093.133.133,0,0,0,.129-.09.1.1,0,0,0,.006-.031Z" transform="translate(165.816 -1656.673)"/>
                    <path id="Path_58048" data-name="Path 58048" d="M-150.432,1657.068c0-.055,0-.1,0-.145h.085l0,.086h0a.185.185,0,0,1,.168-.1.158.158,0,0,1,.151.107h0a.22.22,0,0,1,.06-.07.182.182,0,0,1,.118-.038c.071,0,.176.047.176.232v.315h-.1v-.3c0-.1-.038-.165-.116-.165a.126.126,0,0,0-.115.088.158.158,0,0,0-.008.049v.331h-.1v-.32c0-.085-.038-.147-.112-.147a.132.132,0,0,0-.12.1.132.132,0,0,0-.008.047v.323h-.1Z" transform="translate(160.195 -1656.673)"/>
                    <path id="Path_58049" data-name="Path 58049" d="M-140.632,1661.537a.065.065,0,0,1,.066-.07.064.064,0,0,1,.065.07.065.065,0,0,1-.066.07A.065.065,0,0,1-140.632,1661.537Z" transform="translate(151.295 -1660.81)"/>
                    <path id="Path_58050" data-name="Path 58050" d="M-137.9,1657.448a.356.356,0,0,1-.154.031.254.254,0,0,1-.266-.273.272.272,0,0,1,.287-.284.329.329,0,0,1,.135.027l-.022.075a.227.227,0,0,0-.113-.025.185.185,0,0,0-.189.2.183.183,0,0,0,.186.2.28.28,0,0,0,.119-.026Z" transform="translate(149.192 -1656.683)"/>
                    <path id="Path_58051" data-name="Path 58051" d="M-132.49,1657.186a.261.261,0,0,1-.266.284.254.254,0,0,1-.257-.275.261.261,0,0,1,.265-.284A.253.253,0,0,1-132.49,1657.186Zm-.424.006c0,.117.067.206.163.206s.162-.087.162-.208c0-.091-.045-.206-.16-.206S-132.915,1657.09-132.915,1657.192Z" transform="translate(144.378 -1656.673)"/>
                    <path id="Path_58052" data-name="Path 58052" d="M-126.049,1657.068c0-.055,0-.1,0-.145h.085l0,.086h0a.185.185,0,0,1,.168-.1.158.158,0,0,1,.151.107h0a.221.221,0,0,1,.06-.07.182.182,0,0,1,.118-.038c.071,0,.176.047.176.232v.315h-.1v-.3c0-.1-.038-.165-.116-.165a.126.126,0,0,0-.115.088.159.159,0,0,0-.008.049v.331h-.1v-.32c0-.085-.038-.147-.112-.147a.133.133,0,0,0-.12.1.132.132,0,0,0-.008.047v.323h-.1Z" transform="translate(138.061 -1656.673)"/>
                    <path id="Path_58053" data-name="Path 58053" d="M-116.885,1655.433l.308-.8h.075l-.309.8Z" transform="translate(129.737 -1654.604)"/>
                    <path id="Path_58054" data-name="Path 58054" d="M-111.881,1654.333h.1v.334h0a.181.181,0,0,1,.07-.069.2.2,0,0,1,.1-.027c.072,0,.187.044.187.229v.318h-.1v-.308c0-.086-.032-.159-.124-.159a.139.139,0,0,0-.13.1.121.121,0,0,0-.007.046v.323h-.1Z" transform="translate(125.194 -1654.333)"/>
                    <path id="Path_58055" data-name="Path 58055" d="M-104.806,1657.432c0,.055,0,.1,0,.146h-.086l-.006-.087h0a.2.2,0,0,1-.177.1c-.084,0-.185-.046-.185-.235v-.313h.1v.3c0,.1.031.17.119.17a.141.141,0,0,0,.128-.089.143.143,0,0,0,.009-.05v-.328h.1Z" transform="translate(119.181 -1656.793)"/>
                    <path id="Path_58056" data-name="Path 58056" d="M-98.652,1657.09c0-.063,0-.117,0-.167h.085l0,.105h0a.16.16,0,0,1,.148-.117.1.1,0,0,1,.028,0v.092a.148.148,0,0,0-.033,0,.137.137,0,0,0-.13.125.274.274,0,0,0,0,.045v.285h-.1Z" transform="translate(113.189 -1656.673)"/>
                    <path id="Path_58057" data-name="Path 58057" d="M-94.8,1657.448a.356.356,0,0,1-.154.031.254.254,0,0,1-.266-.273.272.272,0,0,1,.288-.284.329.329,0,0,1,.135.027l-.022.075a.226.226,0,0,0-.113-.025.185.185,0,0,0-.189.2.183.183,0,0,0,.186.2.28.28,0,0,0,.119-.026Z" transform="translate(110.074 -1656.683)"/>
                    <path id="Path_58058" data-name="Path 58058" d="M-89.547,1657.458l-.008-.068h0a.2.2,0,0,1-.164.08.152.152,0,0,1-.164-.153c0-.13.115-.2.322-.2v-.011a.11.11,0,0,0-.122-.124.266.266,0,0,0-.139.04l-.022-.064a.329.329,0,0,1,.176-.048c.164,0,.2.112.2.219v.2a.765.765,0,0,0,.009.128Zm-.014-.273c-.106,0-.227.017-.227.121a.086.086,0,0,0,.092.093.133.133,0,0,0,.129-.09.1.1,0,0,0,.006-.031Z" transform="translate(105.226 -1656.673)"/>
                    <path id="Path_58059" data-name="Path 58059" d="M-83.644,1654.333h.1v.785h-.1Z" transform="translate(99.56 -1654.333)"/>
                    <path id="Path_58060" data-name="Path 58060" d="M-80.93,1657.458l-.008-.068h0a.2.2,0,0,1-.164.08.152.152,0,0,1-.164-.153c0-.13.115-.2.322-.2v-.011a.11.11,0,0,0-.122-.124.266.266,0,0,0-.139.04l-.022-.064a.329.329,0,0,1,.176-.048c.164,0,.2.112.2.219v.2a.756.756,0,0,0,.009.128Zm-.014-.273c-.106,0-.227.017-.227.121a.086.086,0,0,0,.092.093.133.133,0,0,0,.129-.09.1.1,0,0,0,.005-.031Z" transform="translate(97.403 -1656.673)"/>
                    <path id="Path_58061" data-name="Path 58061" d="M-75.072,1657.068c0-.055,0-.1,0-.145h.086l.006.089h0a.2.2,0,0,1,.177-.1c.074,0,.189.044.189.228v.32h-.1v-.308c0-.086-.032-.158-.124-.158a.138.138,0,0,0-.13.1.14.14,0,0,0-.007.045v.322h-.1Z" transform="translate(91.783 -1656.673)"/>
                    <path id="Path_58062" data-name="Path 58062" d="M-68.287,1654.333v.646c0,.048,0,.1,0,.138h-.087l0-.093h0a.2.2,0,0,1-.182.1.244.244,0,0,1-.229-.272.256.256,0,0,1,.24-.287.179.179,0,0,1,.161.082h0v-.319Zm-.1.467a.17.17,0,0,0,0-.041.143.143,0,0,0-.14-.113c-.1,0-.16.088-.16.207s.053.2.158.2a.146.146,0,0,0,.143-.116.165.165,0,0,0,0-.042Z" transform="translate(86.074 -1654.333)"/>
                  </g>
                  <g id="Group_7095" data-name="Group 7095" transform="translate(2.562 -4.24)">
                    <path id="Path_58063" data-name="Path 58063" d="M1280.359,2166.593c.738-4.609-2.088-7.744-5.346-7.744s-6.453,2.028-7.283,6.637c-.64,3.558,1.555,6.739,4.793,7.1A7.038,7.038,0,0,0,1280.359,2166.593Z" transform="translate(-1267.619 -2158.849)" fill="#ff4f79"/>
                  </g>
                  <g id="Group_7096" data-name="Group 7096" transform="translate(3.677 0.896)">
                    <path id="Path_58064" data-name="Path 58064" d="M1279.711,2225.209c3.478,1.475,5.7,2.056,8.7-.347a7.013,7.013,0,0,0,2.383-4.071c.387-1.838.309-4.5-1.538-5.617C1284.273,2212.159,1280.456,2221.2,1279.711,2225.209Z" transform="translate(-1279.711 -2214.569)" fill="#cfbeb8"/>
                  </g>
                  <g id="Group_7098" data-name="Group 7098" transform="translate(1.786 12.602)">
                    <g id="Group_7097" data-name="Group 7097">
                      <path id="Path_58065" data-name="Path 58065" d="M1259.41,2345.163c1.156-.763,2.43-1.794,3.838-2,.733-.106,1.365.424,1.031,1.2a2.293,2.293,0,0,1-.566.745,2.922,2.922,0,0,1-.513.375c-.141.082-.5.317-.654.26-.367-.137.561-1.245.735-1.408a5.724,5.724,0,0,1,2.372-1.288c.151-.043.488-.186.628-.087.183.13.124.47.073.662a3.368,3.368,0,0,1-.755,1.213c-.106.129.09.089.152.062a11.323,11.323,0,0,0,1.812-1.31,3.009,3.009,0,0,1,.64-.364c.163-.064.682-.256.844-.147s-.411,1.325-.465,1.567c-.018.083.168.009.181,0a12.017,12.017,0,0,0,3.714-2.994c.052-.06.022-.116-.059-.095a3.862,3.862,0,0,0-1.656,1.038c-.351.348-.951,1.014-.673,1.558.327.638,1.275.459,1.793.232.87-.381,1.6-1.224,2.544-1.406.1-.02.416-.3.2-.259a4.544,4.544,0,0,0-1.6.8c-.615.413-1.394,1.036-2.175.721-1.361-.549.671-2.246,1.365-2.428l-.059-.095a10.954,10.954,0,0,1-3.376,2.735h.181c.123-.553.427-1.043.543-1.6.006-.031-.031-.039-.051-.04a3.059,3.059,0,0,0-1.927.6,12.472,12.472,0,0,1-1.755,1.285l.152.061c.481-.58,1.109-1.336.732-2.121-.012-.026-.066-.017-.083-.014a7.072,7.072,0,0,0-3.041,1.28,3.2,3.2,0,0,0-1.456,2.084c0,.05.06.04.088.036a3.563,3.563,0,0,0,2.277-1.452c.318-.455.491-1.17-.049-1.548a1.814,1.814,0,0,0-1.541.024,10.146,10.146,0,0,0-1.983.966c-.526.315-1.028.665-1.54,1-.212.139-.133.277.084.134Z" transform="translate(-1259.202 -2341.555)" fill="#cfbeb8"/>
                    </g>
                  </g>
                  <g id="Group_7100" data-name="Group 7100" transform="translate(1.315 17.933)">
                    <g id="Group_7099" data-name="Group 7099">
                      <path id="Path_58066" data-name="Path 58066" d="M1254.3,2401.354q1.026-.621,2.1-1.159l-.176.021c.157.414-.076.8-.1,1.213-.006.083.157.015.181,0,.456-.251.867-.568,1.312-.835.208-.125.815-.5,1.076-.372.239.119-.039.644-.093.83-.024.083.172.006.181,0,.419-.2.795-.461,1.192-.7.144-.085.713-.443.836-.319.07.07-.116.563-.129.684-.007.065.107.032.132.022a14.086,14.086,0,0,0,1.3-.667c.175-.09.724-.406.926-.285.169.1-.084.7-.115.848-.006.03.03.04.051.04,1.021-.021,1.821-.8,2.785-1.036.1-.023.412-.309.2-.258a7.05,7.05,0,0,0-1.489.627,3.9,3.9,0,0,1-.909.368c-.3.063-.22-.026-.192-.223s.1-.38.117-.586c0-.031-.026-.038-.051-.04-.945-.051-1.677.656-2.509.981l.132.023c.029-.27.152-.51.156-.783,0-.048-.057-.042-.088-.035a10.217,10.217,0,0,0-2.329,1.146l.181,0a2.229,2.229,0,0,0,.175-.867c0-.03-.021-.039-.051-.039-1.092-.03-1.885.787-2.781,1.279l.181,0c.03-.437.259-.825.095-1.258-.019-.052-.153.009-.176.02q-1.124.565-2.2,1.216c-.218.132-.137.268.084.135Z" transform="translate(-1254.088 -2399.383)" fill="#cfbeb8"/>
                    </g>
                  </g>
                  <g id="Group_7102" data-name="Group 7102" transform="translate(5.112 20.029)">
                    <g id="Group_7101" data-name="Group 7101">
                      <path id="Path_58067" data-name="Path 58067" d="M1295.394,2423.488c.431-.138.864-.269,1.3-.384a2.1,2.1,0,0,1,.51-.131c.353.055.2.447.1.66-.017.037,0,.072.042.068a3.16,3.16,0,0,0,1.437-.605,2.844,2.844,0,0,1,1.044-.492c.217-.035.385-.06.353.192a2.986,2.986,0,0,1-.251.577c-.05.133.185.025.223,0a3.923,3.923,0,0,1,2.527-.949c.012-.043.025-.086.038-.128-.357.322-.853.587-.952,1.1-.009.049.065.039.089.036a13.384,13.384,0,0,0,1.924-.772c.159-.049.654-.179.784,0s-.121.427-.256.546c-.118.1-.836.608-.724.118.1-.427.982-.619,1.332-.717a4.059,4.059,0,0,1,1.276-.216c.109.006.426-.259.277-.268-.6-.035-3.809.639-3.2,1.689.015.026.063.017.084.014.637-.1,1.644-.659,1.642-1.4a.032.032,0,0,0-.022-.035,2.313,2.313,0,0,0-1.719.31c-.152.074-.945.562-1.078.452s.681-.747.8-.858c.016-.015.1-.116.038-.129-1.009-.2-2.141.557-2.945,1.073h.223a2.752,2.752,0,0,0,.306-.859c0-.033-.026-.036-.051-.04a2.464,2.464,0,0,0-1.644.492,3.822,3.822,0,0,1-.952.539c-.242.062-.187.024-.167-.166a.615.615,0,0,0-.118-.519c-.017-.024-.061-.02-.084-.014q-1.046.253-2.069.582c-.12.039-.38.319-.114.233Z" transform="translate(-1295.278 -2422.123)" fill="#cfbeb8"/>
                    </g>
                  </g>
                </g>
              </g>
              <g id="Group_7105" data-name="Group 7105" transform="translate(10.606 134.015)">
                <path id="Path_58069" data-name="Path 58069" d="M1280.359,2166.593c.738-4.609-2.088-7.744-5.346-7.744s-6.453,2.028-7.283,6.637c-.64,3.558,1.555,6.739,4.793,7.1A7.038,7.038,0,0,0,1280.359,2166.593Z" transform="translate(-1267.619 -2158.849)" fill="#ff4f79"/>
              </g>
              <g id="Group_7106" data-name="Group 7106" transform="translate(62.34 144.617)">
                <path id="Path_58070" data-name="Path 58070" d="M1834.264,2273.849s3.964.185,5.992,2.213-.738,12.26-.738,12.26l-4.754,20.947s-.5-4.169-5.939-4.353C1828.825,2304.916,1833.342,2284.082,1834.264,2273.849Z" transform="translate(-1828.825 -2273.849)" fill="#fff"/>
              </g>
              <g id="Group_7109" data-name="Group 7109" transform="translate(5.001 189.418)">
                <path id="Path_58071" data-name="Path 58071" d="M1212.909,2759.849s.922,1.752-1.936,7.928-4.148,9.5-4.148,14.749h4.425l.922-4.056a14.881,14.881,0,0,0,4.794,3.78c3.595,2.028,17.331,1.106,17.331,1.106s1.567-2.4-2.673-3.5a49.831,49.831,0,0,1-7.283-2.489l-3.78-8.113,2.766-8.02Z" transform="translate(-1206.825 -2759.849)" fill="#ff4f79"/>
                <g id="Group_7108" data-name="Group 7108" clip-path="url(#clip-path-10)">
                  <g id="Group_7107" data-name="Group 7107" transform="translate(-2.512 -1)" style="mix-blend-mode: multiply;isolation: isolate">
                    <path id="Path_58072" data-name="Path 58072" d="M1199.162,2752.859l-10.686,3.859-4.75,10.39,4.75.149,7.273,7.569-16.178.593,2.672-26.419,17.959.594Z" transform="translate(-1179.571 -2749)" fill="#cfbeb8"/>
                  </g>
                </g>
              </g>
              <g id="Group_7120" data-name="Group 7120" transform="translate(32.248 17.339)">
                <path id="Path_58074" data-name="Path 58074" d="M1504.367,896.268l30.421-3.042a4.322,4.322,0,0,1,3.688,1.106l7.375-.738s5.347-.092,5.808,4.886c.4,4.323-1.475,7.1-7.559,6.637a36.138,36.138,0,0,1-5.807-.737s-1.752,1.475-7.1.83c-5.037-.608-26.088-3.134-26.088-3.134s-2.283.349-2.673-2.673C1502.063,896.545,1504.367,896.268,1504.367,896.268Z" transform="translate(-1502.391 -893.163)" fill="#e87d7d"/>
                <g id="Group_7119" data-name="Group 7119" clip-path="url(#clip-path-11)">
                  <g id="Group_7112" data-name="Group 7112" transform="translate(30.461 0.985)">
                    <ellipse id="Ellipse_662" data-name="Ellipse 662" cx="3.503" cy="5.162" rx="3.503" ry="5.162" fill="#fff"/>
                    <g id="Group_7111" data-name="Group 7111" clip-path="url(#clip-path-12)">
                      <g id="Group_7110" data-name="Group 7110" transform="translate(-2.489 -2.489)">
                        <path id="Path_58075" data-name="Path 58075" d="M1807.356,887.189l7.964-6.838-5.162-3.5-4.333,7.375,1.531,2.966" transform="translate(-1805.825 -876.849)" fill="#ffea80"/>
                      </g>
                    </g>
                  </g>
                  <g id="Group_7115" data-name="Group 7115" transform="translate(41.892 1.3)">
                    <ellipse id="Ellipse_664" data-name="Ellipse 664" cx="3.365" cy="4.959" rx="3.365" ry="4.959" fill="#fff"/>
                    <g id="Group_7114" data-name="Group 7114" clip-path="url(#clip-path-13)">
                      <g id="Group_7113" data-name="Group 7113" transform="translate(-2.072 -3.818)">
                        <path id="Path_58076" data-name="Path 58076" d="M1935.593,877.187l8.481-6.176-3.872-5.162-5.851,3.146,1.242,7.087" transform="translate(-1934.351 -865.848)" fill="#ffea80"/>
                      </g>
                    </g>
                  </g>
                  <g id="Group_7116" data-name="Group 7116" transform="translate(-1.435 6.424)" style="mix-blend-mode: multiply;isolation: isolate">
                    <path id="Path_58077" data-name="Path 58077" d="M1486.825,963.218l30.421-.369s.286,4.477,3.416,5.6h0l3.5-.256s2.489-.369,2.858-5.07h1.844l3.612,5.207-5.456,4.38-38.349-3.779Z" transform="translate(-1486.825 -962.849)" fill="#ffea80"/>
                  </g>
                  <g id="Group_7118" data-name="Group 7118" transform="translate(22.178 0.216)">
                    <g id="Group_7117" data-name="Group 7117">
                      <path id="Path_58078" data-name="Path 58078" d="M1746.5,895.51c-1.377.025-2.382,1.273-2.885,2.434a9.291,9.291,0,0,0-.284,5.979,11.721,11.721,0,0,0,2.021,4.072c.091.122.55-.186.469-.293a10.953,10.953,0,0,1-2.311-7.685,7.072,7.072,0,0,1,.894-2.89,2.206,2.206,0,0,1,1.744-1.277c.138,0,.531-.342.351-.339Z" transform="translate(-1742.975 -895.51)" fill="#cfbeb8"/>
                    </g>
                  </g>
                </g>
              </g>
              <g id="Group_7121" data-name="Group 7121" transform="translate(37.45 18.657)">
                <path id="Path_58080" data-name="Path 58080" d="M1573.572,951.193a40.93,40.93,0,0,0-1.2-15.487,114.455,114.455,0,0,0-4.837-12.7c-1.209-2.587-3.135-5.205-2.849-8.192.211-2.21,1.371-4.421,1.233-6.667a2.121,2.121,0,0,0-2.3.184c-.738.41-.542-.34-1.325-.739-.9-.461-1.137.437-1.5,1.146-.345.671-.622,1.375-.9,2.075a8.822,8.822,0,0,0-1.061,2.611,3.976,3.976,0,0,0,.715,1.86,38.729,38.729,0,0,1,4.094,12.527,61.358,61.358,0,0,1,1.091,13.153c-.077,1.618-.1,6.93.461,8.481C1566.012,951.747,1573.378,952.567,1573.572,951.193Z" transform="translate(-1558.822 -907.462)" fill="#f1c69c"/>
              </g>
              <g id="Group_7123" data-name="Group 7123" transform="translate(16.447 13.857)">
                <g id="Group_7122" data-name="Group 7122">
                  <path id="Path_58081" data-name="Path 58081" d="M1331.468,862.838a14.194,14.194,0,0,1,2.351-5.3,4.909,4.909,0,0,1,2.444-1.695c.349-.1.813-.2,1.062.144a1.614,1.614,0,0,1,.023,1.357,8.649,8.649,0,0,1-1.521,2.563,23.842,23.842,0,0,1-1.736,2.018,4.619,4.619,0,0,1-.517.47,1.08,1.08,0,0,1-.4.24c-.26.026-.076.077-.173-.054-.145-.194-.047-.686,0-.894a4.817,4.817,0,0,1,1.024-1.936c.889-1.109,2.693-2.776,4.264-2.149.145.058.543-.281.424-.328-1.476-.588-3.232.7-4.244,1.646-.973.91-2.447,2.617-1.891,4.078.013.034.087.02.106.017,1.269-.19,2.2-1.577,2.968-2.479a9.276,9.276,0,0,0,2.257-3.708c.1-.47.109-1.192-.444-1.379a2.552,2.552,0,0,0-1.617.3,6.6,6.6,0,0,0-2.993,2.664,16.7,16.7,0,0,0-1.863,4.66c-.025.094.438-.078.481-.237Z" transform="translate(-1330.986 -855.395)" fill="#fff"/>
                </g>
              </g>
              <g id="Group_7125" data-name="Group 7125" transform="translate(13.285 137.248)">
                <g id="Group_7124" data-name="Group 7124">
                  <path id="Path_58082" data-name="Path 58082" d="M1296.688,2195.854l2.4,3.226c.081.109.341-.094.4-.146l5.439-4.886c.263-.236-.213-.1-.329,0l-5.439,4.886.4-.147-2.4-3.226c-.09-.121-.55.185-.469.293Z" transform="translate(-1296.679 -2193.915)" fill="#fff"/>
                </g>
              </g>
            </g>
            <g id="Group_7132" data-name="Group 7132" transform="translate(232.459 124.42)">
              <rect id="Rectangle_2870" data-name="Rectangle 2870" width="25.932" height="9.762" fill="#fff"/>
            </g>
            <g id="Group_7133" data-name="Group 7133" transform="translate(205.586 108.074)" opacity="0.37">
              <rect id="Rectangle_2871" data-name="Rectangle 2871" width="25.932" height="6.478" fill="#fff"/>
            </g>
          </g>
        </g>
      </g>
      <g id="Group_7147" data-name="Group 7147" transform="translate(256.047 364.281)">
        <rect id="Rectangle_2865" data-name="Rectangle 2865" width="26.861" height="6.209" fill="#77dcd8"/>
      </g>
      <g id="Group_7149" data-name="Group 7149" transform="translate(242.064 372.734)">
        <rect id="Rectangle_2867" data-name="Rectangle 2867" width="17.842" height="5.721" fill="#f9ade8"/>
      </g>
      <g id="Group_7150" data-name="Group 7150" transform="translate(227.635 398.541)" style="mix-blend-mode: multiply;isolation: isolate">
        <rect id="Rectangle_2868" data-name="Rectangle 2868" width="23.299" height="10.918" transform="translate(0.026 0.026)" fill="#e87d7d"/>
        <path id="Path_58083" data-name="Path 58083" d="M3407.311,1303.862H3383.96v-10.969h23.351Zm-23.3-.051h23.248v-10.867h-23.248Z" transform="translate(-3383.96 -1292.893)" fill="#e87d7d"/>
      </g>
      <g id="Group_7151" data-name="Group 7151" transform="translate(221.848 344.075)" style="mix-blend-mode: multiply;isolation: isolate">
        <rect id="Rectangle_2869" data-name="Rectangle 2869" width="44.583" height="8.895" fill="#7b58ca"/>
      </g>
      <g id="Group_7152" data-name="Group 7152" transform="translate(87.584 377.736)">
        <path id="Path_58084" data-name="Path 58084" d="M345.072,938.74s9.944,4.315,14.447,9.568l.75-4.128S349.542,935.3,345.648,933.5Z" transform="translate(-345.072 -933.504)" fill="#ffa95c"/>
      </g>
      <g id="Group_7154" data-name="Group 7154" transform="translate(152.182 285.454)">
        <path id="Path_57993" data-name="Path 57993" d="M1264.808,115.913l10.6,1.659s11.707-8.2,15.211-14.75h-10.878S1277.253,109.645,1264.808,115.913Z" transform="translate(-1264.808 -102.823)" fill="#77dcd8"/>
      </g>
      <g id="Group_7155" data-name="Group 7155" transform="translate(206.049 305.556)">
        <path id="Path_57991" data-name="Path 57991" d="M1853.1,320.877s-1.407,9.094-3.958,13.7l11.809,6.544s3.79-8.682,3.987-13.34Z" transform="translate(-1849.147 -320.877)" fill="#8be0ad"/>
      </g>
      <g id="Group_7156" data-name="Group 7156" transform="translate(103.133 336.064)">
        <path id="Path_57994" data-name="Path 57994" d="M738.071,683.145a28.794,28.794,0,0,1,6.2-24.593l-7.559-6.729s-6.822,12.629-2.581,23.507Z" transform="translate(-732.74 -651.823)" fill="#ffa95c"/>
      </g>
    </g>
  </g>
</svg>
