<svg width="16" height="17" viewBox="0 0 16 17" fill="none" xmlns="http://www.w3.org/2000/svg">
<path d="M2.66699 11.8346V5.16797L7.33366 11.8346V5.16797M10.0003 11.8346H13.3337M10.0003 7.16797C10.0003 7.6984 10.1759 8.20711 10.4885 8.58218C10.801 8.95726 11.225 9.16797 11.667 9.16797C12.109 9.16797 12.5329 8.95726 12.8455 8.58218C13.1581 8.20711 13.3337 7.6984 13.3337 7.16797C13.3337 6.63754 13.1581 6.12883 12.8455 5.75376C12.5329 5.37868 12.109 5.16797 11.667 5.16797C11.225 5.16797 10.801 5.37868 10.4885 5.75376C10.1759 6.12883 10.0003 6.63754 10.0003 7.16797Z" stroke="#606060" stroke-linecap="round" stroke-linejoin="round"/>
</svg>
