<svg width="16" height="16" viewBox="0 0 16 16" fill="none" xmlns="http://www.w3.org/2000/svg">
<path d="M6.66674 10.1181L12.8667 3.62473C12.9532 3.53235 13.0578 3.4587 13.1739 3.40836C13.29 3.35801 13.4152 3.33203 13.5417 3.33203C13.6683 3.33203 13.7935 3.35801 13.9096 3.40836C14.0257 3.4587 14.1303 3.53235 14.2167 3.62473C14.3963 3.81625 14.4962 4.0689 14.4962 4.3314C14.4962 4.59389 14.3963 4.84655 14.2167 5.03806L6.66674 12.9447L2.27941 8.35273C2.0999 8.16121 2 7.90856 2 7.64606C2 7.38357 2.0999 7.13091 2.27941 6.9394C2.3659 6.84701 2.47044 6.77337 2.58655 6.72302C2.70265 6.67268 2.82786 6.6467 2.95441 6.6467C3.08096 6.6467 3.20617 6.67268 3.32227 6.72302C3.43838 6.77337 3.54292 6.84701 3.62941 6.9394L6.66674 10.1181Z" fill="#606060"/>
</svg>
