<svg id="shapes" xmlns="http://www.w3.org/2000/svg" width="16" height="16" viewBox="0 0 16 16">
  <path id="Vector" d="M10,3.5v3C10,9,9,10,6.5,10h-3C1,10,0,9,0,6.5v-3C0,1,1,0,3.5,0h3C9,0,10,1,10,3.5Z" transform="translate(1.313 4.667)" fill="none" stroke="#606060" stroke-linecap="round" stroke-linejoin="round" stroke-width="1"/>
  <path id="Vector-2" data-name="Vector" d="M7.313,3.667A3.657,3.657,0,0,1,3.98,7.313v-.48c0-2.5-1-3.5-3.5-3.5H0A3.66,3.66,0,0,1,7.273,3.18,2.877,2.877,0,0,1,7.313,3.667Z" transform="translate(7.333 1.333)" fill="none" stroke="#606060" stroke-linecap="round" stroke-linejoin="round" stroke-width="1"/>
  <path id="Vector-3" data-name="Vector" d="M0,0H16V16H0Z" fill="none" opacity="0"/>
</svg>
