<svg width="40" height="40" viewBox="0 0 40 40" fill="none" xmlns="http://www.w3.org/2000/svg">
<circle cx="20" cy="20" r="20" fill="#7B55D3" fill-opacity="0.1"/>
<path d="M20 30.75C14.76 30.75 10.5 26.49 10.5 21.25C10.5 16.01 14.76 11.75 20 11.75C25.24 11.75 29.5 16.01 29.5 21.25C29.5 26.49 25.24 30.75 20 30.75ZM20 13.25C15.59 13.25 12 16.84 12 21.25C12 25.66 15.59 29.25 20 29.25C24.41 29.25 28 25.66 28 21.25C28 16.84 24.41 13.25 20 13.25Z" fill="#7B55D3"/>
<path d="M20 21.75C19.59 21.75 19.25 21.41 19.25 21V16C19.25 15.59 19.59 15.25 20 15.25C20.41 15.25 20.75 15.59 20.75 16V21C20.75 21.41 20.41 21.75 20 21.75Z" fill="#7B55D3"/>
<path d="M23 10.75H17C16.59 10.75 16.25 10.41 16.25 10C16.25 9.59 16.59 9.25 17 9.25H23C23.41 9.25 23.75 9.59 23.75 10C23.75 10.41 23.41 10.75 23 10.75Z" fill="#7B55D3"/>
</svg>
