<svg xmlns="http://www.w3.org/2000/svg" width="245" height="17.218" viewBox="0 0 245 17.218">
  <path id="Union_224" data-name="Union 224" d="M103.23,16.529V.688a.688.688,0,1,1,1.377,0V16.529a.688.688,0,1,1-1.377,0ZM123.877,14.7V2.52a.688.688,0,1,1,1.376,0V14.7a.688.688,0,1,1-1.376,0ZM99.1,14.7V2.52a.689.689,0,0,1,1.377,0V14.7a.689.689,0,0,1-1.377,0Zm12.389-.916V3.435a.688.688,0,0,1,1.376,0V13.782a.688.688,0,1,1-1.376,0ZM198.2,12.317V4.9a.688.688,0,1,1,1.376,0v7.415a.688.688,0,1,1-1.376,0Zm-20.646,0V4.9a.688.688,0,1,1,1.376,0v7.415a.688.688,0,1,1-1.376,0Zm-24.775,0V4.9a.688.688,0,1,1,1.376,0v7.415a.688.688,0,1,1-1.376,0Zm-82.585,0V4.9a.688.688,0,1,1,1.377,0v7.415a.688.688,0,1,1-1.377,0Zm-4.129-1.282V6.184a.688.688,0,1,1,1.377,0v4.851a.688.688,0,1,1-1.377,0Zm144.523,0V6.183a.688.688,0,0,1,1.376,0v4.852a.688.688,0,0,1-1.376,0Zm-4.129,0V6.183a.688.688,0,0,1,1.376,0v4.852a.688.688,0,0,1-1.376,0Zm-4.129,0V6.183a.688.688,0,0,1,1.376,0v4.852a.688.688,0,0,1-1.376,0Zm-8.258,0V6.183a.688.688,0,0,1,1.376,0v4.852a.688.688,0,0,1-1.376,0Zm-8.258,0V6.183a.688.688,0,0,1,1.376,0v4.852a.688.688,0,0,1-1.376,0Zm-12.388,0V6.183a.688.688,0,0,1,1.376,0v4.852a.688.688,0,0,1-1.376,0Zm-4.129,0V6.183a.688.688,0,0,1,1.376,0v4.852a.688.688,0,0,1-1.376,0Zm-12.388,0V6.183a.688.688,0,0,1,1.376,0v4.852a.688.688,0,0,1-1.376,0Zm-8.258,0V6.183a.688.688,0,0,1,1.376,0v4.852a.688.688,0,0,1-1.376,0Zm-8.258,0V6.183a.688.688,0,0,1,1.376,0v4.852a.688.688,0,0,1-1.376,0Zm-20.646,0V6.183a.688.688,0,0,1,1.376,0v4.852a.688.688,0,0,1-1.376,0Zm-4.129,0V6.183a.688.688,0,0,1,1.376,0v4.852a.688.688,0,0,1-1.376,0Zm-8.258,0V6.183a.688.688,0,0,1,1.376,0v4.852a.688.688,0,0,1-1.376,0Zm-12.388,0V6.183a.689.689,0,0,1,1.377,0v4.852a.689.689,0,0,1-1.377,0Zm-4.129,0V6.183a.689.689,0,0,1,1.377,0v4.852a.689.689,0,0,1-1.377,0Zm-4.129,0V6.183a.689.689,0,0,1,1.377,0v4.852a.689.689,0,0,1-1.377,0Zm-12.388,0V6.183a.689.689,0,0,1,1.377,0v4.852a.689.689,0,0,1-1.377,0Zm-20.646,0V6.183a.689.689,0,0,1,1.377,0v4.852a.689.689,0,0,1-1.377,0Zm-4.129,0V6.183a.689.689,0,0,1,1.377,0v4.852a.689.689,0,0,1-1.377,0Zm-4.129,0V6.183a.689.689,0,0,1,1.377,0v4.852a.689.689,0,0,1-1.377,0Zm-4.129,0V6.183a.689.689,0,0,1,1.377,0v4.852a.689.689,0,0,1-1.377,0ZM222.978,9.752V7.466a.688.688,0,1,1,1.376,0V9.752a.688.688,0,1,1-1.376,0Zm-4.129,0V7.466a.688.688,0,1,1,1.376,0V9.752a.688.688,0,1,1-1.376,0Zm-4.129,0V7.466a.688.688,0,1,1,1.376,0V9.752a.688.688,0,1,1-1.376,0Zm-24.775,0V7.466a.688.688,0,1,1,1.376,0V9.752a.688.688,0,1,1-1.376,0Zm-8.258,0v-2.1a.688.688,0,0,1,1.376,0v2.1a.688.688,0,1,1-1.376,0Zm-16.517,0v-2.1a.688.688,0,0,1,1.376,0v2.1a.688.688,0,1,1-1.376,0Zm-4.129,0V7.466a.688.688,0,1,1,1.376,0V9.752a.688.688,0,1,1-1.376,0Zm-16.517,0v-2.1a.688.688,0,1,1,1.376,0v2.1a.688.688,0,1,1-1.376,0Zm-8.258,0v-2.1a.688.688,0,1,1,1.376,0v2.1a.688.688,0,1,1-1.376,0Zm-8.258,0v-2.1a.688.688,0,0,1,1.376,0v2.1a.688.688,0,1,1-1.376,0Zm-45.422,0V7.466a.688.688,0,1,1,1.377,0V9.752a.688.688,0,0,1-1.377,0Zm-45.421,0v-2.1a.689.689,0,0,1,1.377,0v2.1a.689.689,0,0,1-1.377,0Zm-12.388,0v-2.1a.688.688,0,1,1,1.376,0v2.1a.688.688,0,1,1-1.376,0Zm107.36-.915V8.565a.688.688,0,1,1,1.376,0v.272a.688.688,0,1,1-1.376,0Zm-53.68,0V8.564a.688.688,0,1,1,1.377,0v.273a.689.689,0,0,1-1.377,0Zm-16.517,0V8.564a.689.689,0,0,1,1.377,0v.272a.689.689,0,0,1-1.377,0Zm-4.129,0V8.564a.689.689,0,0,1,1.377,0v.272a.689.689,0,0,1-1.377,0Zm-24.775,0V8.564a.688.688,0,1,1,1.376,0v.273a.688.688,0,0,1-1.376,0Zm-4.129,0V8.564a.688.688,0,1,1,1.376,0v.273a.688.688,0,0,1-1.376,0Zm-8.258,0V8.564a.688.688,0,1,1,1.376,0v.273a.688.688,0,0,1-1.376,0Zm223.344.139a.367.367,0,0,1,0-.734h.643a.367.367,0,0,1,0,.734Zm-4.129,0a.367.367,0,0,1,0-.734h.643a.367.367,0,0,1,0,.734Zm-4.129,0a.367.367,0,0,1,0-.734h.643a.367.367,0,0,1,0,.734Zm-4.129,0a.367.367,0,0,1,0-.734h.644a.367.367,0,0,1,0,.734Zm-4.129,0a.367.367,0,0,1,0-.734h.643a.367.367,0,0,1,0,.734Zm-210.59,0a.366.366,0,1,1,0-.733h.643a.366.366,0,1,1,0,.733Zm-4.129,0a.366.366,0,1,1,0-.733H13.4a.366.366,0,1,1,0,.733Zm-4.129,0a.366.366,0,1,1,0-.733h.643a.366.366,0,1,1,0,.733Zm-4.129,0a.366.366,0,1,1,0-.733h.643a.366.366,0,1,1,0,.733Zm-4.129,0a.366.366,0,0,1,0-.733H1.01a.366.366,0,0,1,0,.733Z" fill="#707070"/>
</svg>
