<svg width="16" height="16" viewBox="0 0 16 16" fill="none" xmlns="http://www.w3.org/2000/svg">
<path d="M6.10666 7.24668C6.03348 7.24001 5.95984 7.24001 5.88666 7.24668C5.1108 7.21786 4.37723 6.88569 3.84374 6.32162C3.31024 5.75755 3.01942 5.00664 3.03384 4.23038C3.04825 3.45411 3.36674 2.71451 3.92081 2.17063C4.47487 1.62676 5.22026 1.32205 5.99666 1.32205C6.77306 1.32205 7.51844 1.62676 8.07251 2.17063C8.62658 2.71451 8.94507 3.45411 8.95948 4.23038C8.97389 5.00664 8.68308 5.75755 8.14958 6.32162C7.61608 6.88569 6.88252 7.21786 6.10666 7.24668Z" stroke="#606060" stroke-width="1.5" stroke-linecap="round" stroke-linejoin="round"/>
<path d="M10.9402 2.66699C11.559 2.66699 12.1525 2.91282 12.5901 3.35041C13.0277 3.78799 13.2735 4.38149 13.2735 5.00033C13.2739 5.60444 13.04 6.18516 12.621 6.62034C12.202 7.05552 11.6305 7.31122 11.0268 7.33366C10.9693 7.32698 10.9111 7.32698 10.8535 7.33366" stroke="#606060" stroke-width="1.5" stroke-linecap="round" stroke-linejoin="round"/>
<path d="M2.77348 9.70699C1.16014 10.787 1.16014 12.547 2.77348 13.6203C3.78232 14.2224 4.93528 14.5403 6.11014 14.5403C7.285 14.5403 8.43797 14.2224 9.44681 13.6203C11.0601 12.5403 11.0601 10.7803 9.44681 9.70699C8.43687 9.10805 7.28433 8.79199 6.11014 8.79199C4.93596 8.79199 3.78342 9.10805 2.77348 9.70699V9.70699Z" stroke="#606060" stroke-width="1.5" stroke-linecap="round" stroke-linejoin="round"/>
<path d="M12.2266 13.333C12.7 13.2399 13.1466 13.0417 13.5332 12.753C13.7723 12.6004 13.9691 12.39 14.1054 12.1412C14.2417 11.8924 14.3132 11.6133 14.3132 11.3297C14.3132 11.046 14.2417 10.7669 14.1054 10.5182C13.9691 10.2694 13.7723 10.059 13.5332 9.90634C13.1504 9.62527 12.7116 9.42975 12.2466 9.33301" stroke="#606060" stroke-width="1.5" stroke-linecap="round" stroke-linejoin="round"/>
</svg>
