<svg width="16" height="16" viewBox="0 0 16 16" fill="none" xmlns="http://www.w3.org/2000/svg">
<path d="M13.3333 9.33332C14.0697 9.33332 14.6667 8.73637 14.6667 7.99999C14.6667 7.26361 14.0697 6.66666 13.3333 6.66666C12.597 6.66666 12 7.26361 12 7.99999C12 8.73637 12.597 9.33332 13.3333 9.33332Z" stroke="#606060" stroke-width="1.5" stroke-linecap="round" stroke-linejoin="round"/>
<path d="M13.3333 4.00001C14.0697 4.00001 14.6667 3.40306 14.6667 2.66668C14.6667 1.9303 14.0697 1.33334 13.3333 1.33334C12.597 1.33334 12 1.9303 12 2.66668C12 3.40306 12.597 4.00001 13.3333 4.00001Z" stroke="#606060" stroke-width="1.5" stroke-linecap="round" stroke-linejoin="round"/>
<path d="M13.3333 14.6667C14.0697 14.6667 14.6667 14.0697 14.6667 13.3333C14.6667 12.597 14.0697 12 13.3333 12C12.597 12 12 12.597 12 13.3333C12 14.0697 12.597 14.6667 13.3333 14.6667Z" stroke="#606060" stroke-width="1.5" stroke-linecap="round" stroke-linejoin="round"/>
<path d="M2.66666 9.33332C3.40304 9.33332 3.99999 8.73637 3.99999 7.99999C3.99999 7.26361 3.40304 6.66666 2.66666 6.66666C1.93028 6.66666 1.33333 7.26361 1.33333 7.99999C1.33333 8.73637 1.93028 9.33332 2.66666 9.33332Z" stroke="#606060" stroke-width="1.5" stroke-linecap="round" stroke-linejoin="round"/>
<path d="M4 8H12" stroke="#606060" stroke-width="1.5" stroke-linecap="round" stroke-linejoin="round"/>
<path d="M12 2.66666H9.33333C7.99999 2.66666 7.33333 3.33332 7.33333 4.66666V11.3333C7.33333 12.6667 7.99999 13.3333 9.33333 13.3333H12" stroke="#606060" stroke-width="1.5" stroke-linecap="round" stroke-linejoin="round"/>
</svg>
