<svg width="16" height="16" viewBox="0 0 16 16" fill="none" xmlns="http://www.w3.org/2000/svg">
<path d="M8.04967 8.0007C8.42009 8.0007 8.7822 7.89086 9.0902 7.68506C9.3982 7.47926 9.63825 7.18675 9.78001 6.84453C9.92177 6.5023 9.95886 6.12572 9.88659 5.76241C9.81432 5.3991 9.63595 5.06538 9.37401 4.80345C9.11208 4.54152 8.77836 4.36314 8.41505 4.29087C8.05175 4.2186 7.67517 4.25569 7.33294 4.39745C6.99071 4.53921 6.6982 4.77926 6.4924 5.08726C6.2866 5.39526 6.17676 5.75737 6.17676 6.12779C6.17761 6.62426 6.3752 7.10015 6.72626 7.4512C7.07731 7.80226 7.5532 7.99985 8.04967 8.0007V8.0007Z" stroke="#606060" stroke-width="1.5" stroke-linecap="round" stroke-linejoin="round"/>
<path d="M4.69227 12.9978C5.00977 12.9978 5.32015 12.9037 5.58415 12.7273C5.84815 12.5509 6.05391 12.3001 6.17542 12.0068C6.29692 11.7135 6.32871 11.3907 6.26677 11.0793C6.20483 10.7679 6.05193 10.4818 5.82742 10.2573C5.60291 10.0328 5.31686 9.8799 5.00545 9.81796C4.69405 9.75601 4.37126 9.7878 4.07792 9.90931C3.78458 10.0308 3.53386 10.2366 3.35746 10.5006C3.18107 10.7646 3.08691 11.075 3.08691 11.3925C3.08762 11.818 3.25698 12.2259 3.55789 12.5268C3.8588 12.8277 4.26672 12.9971 4.69227 12.9978V12.9978Z" stroke="#606060" stroke-width="1.5" stroke-linecap="round" stroke-linejoin="round"/>
<path d="M11.6395 12.9978C11.957 12.9978 12.2674 12.9037 12.5314 12.7273C12.7954 12.5509 13.0012 12.3001 13.1227 12.0068C13.2442 11.7135 13.276 11.3907 13.214 11.0793C13.1521 10.7679 12.9992 10.4818 12.7747 10.2573C12.5502 10.0328 12.2641 9.8799 11.9527 9.81796C11.6413 9.75601 11.3185 9.7878 11.0252 9.90931C10.7319 10.0308 10.4811 10.2366 10.3047 10.5006C10.1283 10.7646 10.0342 11.075 10.0342 11.3925C10.0349 11.818 10.2042 12.2259 10.5052 12.5268C10.8061 12.8277 11.214 12.9971 11.6395 12.9978V12.9978Z" stroke="#606060" stroke-width="1.5" stroke-linecap="round" stroke-linejoin="round"/>
</svg>
