<svg width="16" height="16" viewBox="0 0 16 16" fill="none" xmlns="http://www.w3.org/2000/svg">
<path d="M11.334 6.6665C12.4386 6.6665 13.334 5.77107 13.334 4.6665C13.334 3.56193 12.4386 2.6665 11.334 2.6665C10.2294 2.6665 9.33398 3.56193 9.33398 4.6665C9.33398 5.77107 10.2294 6.6665 11.334 6.6665Z" stroke="#606060" stroke-width="1.5" stroke-linecap="round" stroke-linejoin="round"/>
<path d="M4.66699 13.3332C5.77156 13.3332 6.66699 12.4377 6.66699 11.3332C6.66699 10.2286 5.77156 9.33316 4.66699 9.33316C3.56242 9.33316 2.66699 10.2286 2.66699 11.3332C2.66699 12.4377 3.56242 13.3332 4.66699 13.3332Z" stroke="#606060" stroke-width="1.5" stroke-linecap="round" stroke-linejoin="round"/>
<path d="M9.33366 9.33317H13.3337V12.6665C13.3337 12.8433 13.2634 13.0129 13.1384 13.1379C13.0134 13.2629 12.8438 13.3332 12.667 13.3332H10.0003C9.82351 13.3332 9.65395 13.2629 9.52892 13.1379C9.4039 13.0129 9.33366 12.8433 9.33366 12.6665V9.33317ZM2.66699 2.6665H6.66699V5.99984C6.66699 6.17665 6.59675 6.34622 6.47173 6.47124C6.34671 6.59627 6.17714 6.6665 6.00033 6.6665H3.33366C3.15685 6.6665 2.98728 6.59627 2.86225 6.47124C2.73723 6.34622 2.66699 6.17665 2.66699 5.99984V2.6665Z" stroke="#606060" stroke-width="1.5" stroke-linecap="round" stroke-linejoin="round"/>
</svg>
