<svg width="68" height="68" viewBox="0 0 68 68" fill="none" xmlns="http://www.w3.org/2000/svg">
<g filter="url(#filter0_d_3223_21372)">
<circle cx="34" cy="30" r="30" fill="#D32F2F" fill-opacity="0.1" shape-rendering="crispEdges"/>
</g>
<path d="M22 30C22 27.6266 22.7038 25.3066 24.0224 23.3332C25.3409 21.3598 27.2151 19.8217 29.4078 18.9135C31.6005 18.0052 34.0133 17.7676 36.3411 18.2306C38.6689 18.6936 40.807 19.8365 42.4853 21.5147C44.1635 23.193 45.3064 25.3311 45.7694 27.6589C46.2324 29.9867 45.9948 32.3995 45.0866 34.5922C44.1783 36.7849 42.6402 38.6591 40.6668 39.9776C38.6935 41.2962 36.3734 42 34 42C30.8174 42 27.7652 40.7357 25.5147 38.4853C23.2643 36.2348 22 33.1826 22 30Z" fill="#D32F2F"/>
<path d="M38.4277 36.2858L34.3137 32.1718L30.1998 36.2858C29.9952 36.4904 29.7177 36.6053 29.4283 36.6053C29.139 36.6053 28.8615 36.4904 28.6569 36.2858C28.4523 36.0812 28.3373 35.8037 28.3373 35.5143C28.3373 35.225 28.4523 34.9475 28.6569 34.7429L32.7708 30.6289L28.6569 26.515C28.5555 26.4137 28.4752 26.2934 28.4204 26.161C28.3655 26.0286 28.3373 25.8868 28.3373 25.7435C28.3373 25.6002 28.3655 25.4584 28.4204 25.326C28.4752 25.1936 28.5555 25.0734 28.6569 24.9721C28.7582 24.8707 28.8784 24.7904 29.0108 24.7356C29.1432 24.6807 29.285 24.6525 29.4283 24.6525C29.5716 24.6525 29.7134 24.6807 29.8458 24.7356C29.9782 24.7904 30.0985 24.8707 30.1998 24.9721L34.3137 29.086L38.4277 24.9721C38.6323 24.7674 38.9098 24.6525 39.1991 24.6525C39.4885 24.6525 39.766 24.7675 39.9706 24.9721C40.1752 25.1767 40.2901 25.4542 40.2901 25.7435C40.2901 26.0329 40.1752 26.3104 39.9706 26.515L35.8566 30.6289L39.9706 34.7429C40.1752 34.9475 40.2901 35.225 40.2901 35.5143C40.2901 35.8037 40.1752 36.0812 39.9706 36.2858C39.766 36.4904 39.4885 36.6053 39.1991 36.6053C38.9098 36.6053 38.6323 36.4904 38.4277 36.2858Z" fill="#FCFCFC"/>
<defs>
<filter id="filter0_d_3223_21372" x="0" y="0" width="68" height="68" filterUnits="userSpaceOnUse" color-interpolation-filters="sRGB">
<feFlood flood-opacity="0" result="BackgroundImageFix"/>
<feColorMatrix in="SourceAlpha" type="matrix" values="0 0 0 0 0 0 0 0 0 0 0 0 0 0 0 0 0 0 127 0" result="hardAlpha"/>
<feOffset dy="4"/>
<feGaussianBlur stdDeviation="2"/>
<feComposite in2="hardAlpha" operator="out"/>
<feColorMatrix type="matrix" values="0 0 0 0 0.827451 0 0 0 0 0.184314 0 0 0 0 0.184314 0 0 0 0.08 0"/>
<feBlend mode="normal" in2="BackgroundImageFix" result="effect1_dropShadow_3223_21372"/>
<feBlend mode="normal" in="SourceGraphic" in2="effect1_dropShadow_3223_21372" result="shape"/>
</filter>
</defs>
</svg>
