<svg width="21" height="20" viewBox="0 0 21 20" fill="none" xmlns="http://www.w3.org/2000/svg">
<path d="M0.5 10C0.5 8.02219 1.08649 6.08879 2.1853 4.4443C3.28412 2.79981 4.8459 1.51809 6.67317 0.761209C8.50043 0.00433289 10.5111 -0.1937 12.4509 0.192152C14.3907 0.578004 16.1725 1.53041 17.5711 2.92894C18.9696 4.32746 19.922 6.10929 20.3079 8.0491C20.6937 9.98891 20.4957 11.9996 19.7388 13.8268C18.9819 15.6541 17.7002 17.2159 16.0557 18.3147C14.4112 19.4135 12.4778 20 10.5 20C7.84783 20 5.3043 18.9464 3.42893 17.0711C1.55357 15.1957 0.5 12.6522 0.5 10Z" fill="#D32F2F"/>
<path d="M14.1894 15.2375L10.7611 11.8092L7.33281 15.2375C7.16231 15.408 6.93106 15.5038 6.68993 15.5038C6.4488 15.5038 6.21755 15.408 6.04705 15.2375C5.87655 15.067 5.78076 14.8357 5.78076 14.5946C5.78076 14.3535 5.87655 14.1222 6.04705 13.9517L9.47534 10.5234L6.04705 7.09515C5.96263 7.01072 5.89566 6.9105 5.84997 6.80019C5.80428 6.68989 5.78076 6.57166 5.78076 6.45227C5.78076 6.33288 5.80428 6.21465 5.84997 6.10435C5.89566 5.99404 5.96263 5.89382 6.04705 5.80939C6.13148 5.72497 6.2317 5.658 6.34201 5.61231C6.45231 5.56662 6.57054 5.5431 6.68993 5.5431C6.80932 5.5431 6.92755 5.56662 7.03785 5.61231C7.14816 5.658 7.24838 5.72497 7.33281 5.80939L10.7611 9.23768L14.1894 5.80939C14.3599 5.63889 14.5911 5.5431 14.8323 5.5431C15.0734 5.5431 15.3046 5.63889 15.4751 5.80939C15.6456 5.97989 15.7414 6.21114 15.7414 6.45227C15.7414 6.6934 15.6456 6.92465 15.4751 7.09515L12.0469 10.5234L15.4751 13.9517C15.6456 14.1222 15.7414 14.3535 15.7414 14.5946C15.7414 14.8357 15.6456 15.067 15.4751 15.2375C15.3046 15.408 15.0734 15.5038 14.8323 15.5038C14.5911 15.5038 14.3599 15.408 14.1894 15.2375Z" fill="#FCFCFC"/>
</svg>
