<svg width="68" height="68" viewBox="0 0 68 68" fill="none" xmlns="http://www.w3.org/2000/svg">
<g filter="url(#filter0_d_3223_21354)">
<circle cx="34" cy="30" r="30" fill="#A28838" fill-opacity="0.15" shape-rendering="crispEdges"/>
</g>
<circle cx="30.1" cy="33.9008" r="7.35" stroke="#A28838" stroke-width="1.5"/>
<line x1="27.25" y1="23.25" x2="32.95" y2="23.25" stroke="#A28838" stroke-width="1.5" stroke-linecap="round"/>
<path d="M43.3536 34.3536C43.5488 34.1583 43.5488 33.8417 43.3536 33.6464L40.1716 30.4645C39.9763 30.2692 39.6597 30.2692 39.4645 30.4645C39.2692 30.6597 39.2692 30.9763 39.4645 31.1716L42.2929 34L39.4645 36.8284C39.2692 37.0237 39.2692 37.3403 39.4645 37.5355C39.6597 37.7308 39.9763 37.7308 40.1716 37.5355L43.3536 34.3536ZM32 33.5C31.7239 33.5 31.5 33.7239 31.5 34C31.5 34.2761 31.7239 34.5 32 34.5V33.5ZM43 33.5H32V34.5H43V33.5Z" fill="#A28838"/>
<path d="M41.8986 18C41.1298 18 40.3925 18.3054 39.849 18.849C39.3054 19.3925 39 20.1298 39 20.8986C39 21.0523 39.0611 21.1998 39.1698 21.3085C39.2785 21.4172 39.426 21.4783 39.5797 21.4783C39.7335 21.4783 39.8809 21.4172 39.9896 21.3085C40.0983 21.1998 40.1594 21.0523 40.1594 20.8986C40.1594 19.9374 40.9374 19.1594 41.8986 19.1594C42.8597 19.1594 43.6377 19.9374 43.6377 20.8986C43.6377 21.3716 43.5223 21.6487 43.3838 21.8429C43.2319 22.0545 43.0214 22.2128 42.7299 22.4139L42.6626 22.4591C42.4035 22.6365 42.0696 22.8643 41.811 23.182C41.5055 23.5577 41.3188 24.0325 41.3188 24.6667V24.9565C41.3188 25.1103 41.3799 25.2577 41.4886 25.3664C41.5974 25.4752 41.7448 25.5362 41.8986 25.5362C42.0523 25.5362 42.1998 25.4752 42.3085 25.3664C42.4172 25.2577 42.4783 25.1103 42.4783 24.9565V24.6667C42.4783 24.2864 42.5814 24.073 42.7101 23.9136C42.8591 23.7316 43.0597 23.5936 43.3559 23.3901L43.3867 23.3687C43.6742 23.1716 44.0435 22.913 44.3258 22.5177C44.6232 22.1049 44.7971 21.5843 44.7971 20.8986C44.7971 20.1298 44.4917 19.3925 43.9481 18.849C43.4046 18.3054 42.6673 18 41.8986 18ZM41.8986 28C42.0907 28 42.2751 27.9237 42.4109 27.7878C42.5468 27.6519 42.6232 27.4675 42.6232 27.2754C42.6232 27.0832 42.5468 26.8989 42.4109 26.763C42.2751 26.6271 42.0907 26.5507 41.8986 26.5507C41.7064 26.5507 41.5221 26.6271 41.3862 26.763C41.2503 26.8989 41.1739 27.0832 41.1739 27.2754C41.1739 27.4675 41.2503 27.6519 41.3862 27.7878C41.5221 27.9237 41.7064 28 41.8986 28Z" fill="#A28838"/>
<defs>
<filter id="filter0_d_3223_21354" x="0" y="0" width="68" height="68" filterUnits="userSpaceOnUse" color-interpolation-filters="sRGB">
<feFlood flood-opacity="0" result="BackgroundImageFix"/>
<feColorMatrix in="SourceAlpha" type="matrix" values="0 0 0 0 0 0 0 0 0 0 0 0 0 0 0 0 0 0 127 0" result="hardAlpha"/>
<feOffset dy="4"/>
<feGaussianBlur stdDeviation="2"/>
<feComposite in2="hardAlpha" operator="out"/>
<feColorMatrix type="matrix" values="0 0 0 0 0.635294 0 0 0 0 0.533333 0 0 0 0 0.219608 0 0 0 0.08 0"/>
<feBlend mode="normal" in2="BackgroundImageFix" result="effect1_dropShadow_3223_21354"/>
<feBlend mode="normal" in="SourceGraphic" in2="effect1_dropShadow_3223_21354" result="shape"/>
</filter>
</defs>
</svg>
