<svg width="40" height="40" viewBox="0 0 40 40" fill="none" xmlns="http://www.w3.org/2000/svg">
<circle cx="20" cy="20" r="20" fill="#557FDE" fill-opacity="0.15"/>
<path d="M12.2855 11.4291C12.2855 12.072 11.9998 12.5631 11.4284 12.9023V29.8577C11.4284 29.9738 11.386 30.0742 11.3011 30.159C11.2163 30.2439 11.1159 30.2863 10.9998 30.2863H10.1426C10.0266 30.2863 9.92613 30.2439 9.84131 30.159C9.75649 30.0742 9.71408 29.9738 9.71408 29.8577V12.9023C9.14265 12.5631 8.85693 12.072 8.85693 11.4291C8.85693 10.9559 9.02434 10.5519 9.35917 10.2171C9.69399 9.88225 10.098 9.71484 10.5712 9.71484C11.0444 9.71484 11.4485 9.88225 11.7833 10.2171C12.1181 10.5519 12.2855 10.9559 12.2855 11.4291ZM31.9998 12.2863V22.505C31.9998 22.7282 31.944 22.9001 31.8324 23.0206C31.7208 23.1412 31.5444 23.264 31.3034 23.389C29.3837 24.4247 27.7364 24.9425 26.3614 24.9425C25.8168 24.9425 25.2654 24.8443 24.7074 24.6479C24.1493 24.4515 23.665 24.2372 23.2543 24.005C22.8435 23.7729 22.3279 23.5586 21.7074 23.3622C21.0868 23.1657 20.4507 23.0675 19.7989 23.0675C18.0846 23.0675 16.0132 23.7193 13.5846 25.0229C13.4328 25.1032 13.2855 25.1434 13.1426 25.1434C12.9105 25.1434 12.7096 25.0586 12.54 24.889C12.3703 24.7193 12.2855 24.5184 12.2855 24.2863V14.3488C12.2855 14.0631 12.4239 13.8175 12.7007 13.6122C12.8882 13.4872 13.2409 13.2952 13.7587 13.0363C15.8659 11.9648 17.7453 11.4291 19.3971 11.4291C20.3525 11.4291 21.2453 11.5586 22.0757 11.8175C22.906 12.0765 23.8837 12.4693 25.0087 12.9961C25.348 13.1657 25.7409 13.2506 26.1873 13.2506C26.6694 13.2506 27.194 13.1568 27.761 12.9693C28.3279 12.7818 28.819 12.572 29.2342 12.3398C29.6493 12.1077 30.0422 11.8979 30.4127 11.7104C30.7833 11.5229 31.0266 11.4291 31.1426 11.4291C31.3748 11.4291 31.5757 11.514 31.7453 11.6836C31.915 11.8532 31.9998 12.0541 31.9998 12.2863Z" fill="#557FDE"/>
</svg>
