<svg width="68" height="68" viewBox="0 0 68 68" fill="none" xmlns="http://www.w3.org/2000/svg">
<g filter="url(#filter0_d_3223_21382)">
<circle cx="34" cy="30" r="30" fill="#FCEFE4"/>
</g>
<path d="M33 40C37.9706 40 42 35.9706 42 31C42 26.0294 37.9706 22 33 22C28.0294 22 24 26.0294 24 31C24 35.9706 28.0294 40 33 40Z" stroke="#FFA95C" stroke-width="1.5" stroke-linecap="round" stroke-linejoin="round"/>
<path d="M32 27V32H37" stroke="#FFA95C" stroke-width="1.5" stroke-linecap="round" stroke-linejoin="round"/>
<g clip-path="url(#clip0_3223_21382)">
<path d="M39.317 28.718C41.747 28.718 43.717 26.748 43.717 24.318C43.717 21.8879 41.747 19.918 39.317 19.918C36.8869 19.918 34.917 21.8879 34.917 24.318C34.917 26.748 36.8869 28.718 39.317 28.718Z" fill="#FFA95C" stroke="#FFA95C" stroke-width="1.5" stroke-linecap="round" stroke-linejoin="round"/>
<path d="M39.3174 26.5566V24.5566M39.3174 22.5566H39.3218" stroke="#FCEFE4" stroke-width="1.5" stroke-linecap="round" stroke-linejoin="round"/>
</g>
<defs>
<filter id="filter0_d_3223_21382" x="0" y="0" width="68" height="68" filterUnits="userSpaceOnUse" color-interpolation-filters="sRGB">
<feFlood flood-opacity="0" result="BackgroundImageFix"/>
<feColorMatrix in="SourceAlpha" type="matrix" values="0 0 0 0 0 0 0 0 0 0 0 0 0 0 0 0 0 0 127 0" result="hardAlpha"/>
<feOffset dy="4"/>
<feGaussianBlur stdDeviation="2"/>
<feComposite in2="hardAlpha" operator="out"/>
<feColorMatrix type="matrix" values="0 0 0 0 1 0 0 0 0 0.662745 0 0 0 0 0.360784 0 0 0 0.08 0"/>
<feBlend mode="normal" in2="BackgroundImageFix" result="effect1_dropShadow_3223_21382"/>
<feBlend mode="normal" in="SourceGraphic" in2="effect1_dropShadow_3223_21382" result="shape"/>
</filter>
<clipPath id="clip0_3223_21382">
<rect width="11" height="11" fill="white" transform="translate(34 19)"/>
</clipPath>
</defs>
</svg>
