<svg width="68" height="68" viewBox="0 0 68 68" fill="none" xmlns="http://www.w3.org/2000/svg">
<g filter="url(#filter0_d_3223_21319)">
<circle cx="34" cy="30" r="30" fill="#DCF5ED"/>
</g>
<path d="M22 30C22 27.6266 22.7038 25.3066 24.0224 23.3332C25.3409 21.3598 27.2151 19.8217 29.4078 18.9135C31.6005 18.0052 34.0133 17.7676 36.3411 18.2306C38.6689 18.6936 40.807 19.8365 42.4853 21.5147C44.1635 23.193 45.3064 25.3311 45.7694 27.6589C46.2324 29.9867 45.9948 32.3995 45.0866 34.5922C44.1783 36.7849 42.6402 38.6591 40.6668 39.9776C38.6935 41.2962 36.3734 42 34 42C30.8174 42 27.7652 40.7357 25.5147 38.4853C23.2643 36.2348 22 33.1826 22 30V30Z" fill="#29CC99"/>
<path d="M32.5535 32.56L39.0047 25.8052C39.0945 25.7089 39.2032 25.6321 39.3239 25.5796C39.4447 25.5271 39.575 25.5 39.7067 25.5C39.8383 25.5 39.9686 25.5271 40.0894 25.5796C40.2102 25.6321 40.3188 25.7089 40.4087 25.8052C40.5942 26.0049 40.6973 26.2675 40.6973 26.5402C40.6973 26.8128 40.5942 27.0754 40.4087 27.2752L32.5535 35.5L27.9899 30.7228C27.8043 30.523 27.7012 30.2604 27.7012 29.9878C27.7012 29.7151 27.8043 29.4525 27.9899 29.2528C28.0797 29.1565 28.1884 29.0797 28.3091 29.0272C28.4299 28.9747 28.5602 28.9476 28.6919 28.9476C28.8235 28.9476 28.9538 28.9747 29.0746 29.0272C29.1954 29.0797 29.304 29.1565 29.3939 29.2528L32.5535 32.56Z" fill="white"/>
<defs>
<filter id="filter0_d_3223_21319" x="0" y="0" width="68" height="68" filterUnits="userSpaceOnUse" color-interpolation-filters="sRGB">
<feFlood flood-opacity="0" result="BackgroundImageFix"/>
<feColorMatrix in="SourceAlpha" type="matrix" values="0 0 0 0 0 0 0 0 0 0 0 0 0 0 0 0 0 0 127 0" result="hardAlpha"/>
<feOffset dy="4"/>
<feGaussianBlur stdDeviation="2"/>
<feComposite in2="hardAlpha" operator="out"/>
<feColorMatrix type="matrix" values="0 0 0 0 0.160784 0 0 0 0 0.8 0 0 0 0 0.6 0 0 0 0.08 0"/>
<feBlend mode="normal" in2="BackgroundImageFix" result="effect1_dropShadow_3223_21319"/>
<feBlend mode="normal" in="SourceGraphic" in2="effect1_dropShadow_3223_21319" result="shape"/>
</filter>
</defs>
</svg>
