<svg width="40" height="40" viewBox="0 0 40 40" fill="none" xmlns="http://www.w3.org/2000/svg">
<path d="M20.0003 20.0007C24.6027 20.0007 28.3337 16.2697 28.3337 11.6673C28.3337 7.06494 24.6027 3.33398 20.0003 3.33398C15.398 3.33398 11.667 7.06494 11.667 11.6673C11.667 16.2697 15.398 20.0007 20.0003 20.0007Z" stroke="#7B55D3" stroke-width="1.5" stroke-linecap="round" stroke-linejoin="round"/>
<path d="M32.0171 26.2324L26.117 32.1325C25.8837 32.3658 25.667 32.7991 25.617 33.1157L25.3004 35.3657C25.1837 36.1824 25.7504 36.749 26.5671 36.6324L28.817 36.3157C29.1337 36.2657 29.5837 36.0491 29.8004 35.8157L35.7004 29.9158C36.717 28.8991 37.2004 27.7157 35.7004 26.2157C34.217 24.7324 33.0338 25.2157 32.0171 26.2324Z" stroke="#7B55D3" stroke-width="1.5" stroke-miterlimit="10" stroke-linecap="round" stroke-linejoin="round"/>
<path d="M31.167 27.082C31.667 28.882 33.0669 30.282 34.8669 30.782" stroke="#7B55D3" stroke-width="1.5" stroke-miterlimit="10" stroke-linecap="round" stroke-linejoin="round"/>
<path d="M5.68359 36.6667C5.68359 30.2167 12.1003 25 20.0003 25C21.7336 25 23.4003 25.25 24.9503 25.7167" stroke="#7B55D3" stroke-width="1.5" stroke-linecap="round" stroke-linejoin="round"/>
</svg>
