<svg width="40" height="40" viewBox="0 0 40 40" fill="none" xmlns="http://www.w3.org/2000/svg">
<path d="M36.6667 29.166H25" stroke="#7B55D3" stroke-width="1.5" stroke-miterlimit="10" stroke-linecap="round" stroke-linejoin="round"/>
<path d="M8.33301 29.166H3.33301" stroke="#7B55D3" stroke-width="1.5" stroke-miterlimit="10" stroke-linecap="round" stroke-linejoin="round"/>
<path d="M36.667 10.834H31.667" stroke="#7B55D3" stroke-width="1.5" stroke-miterlimit="10" stroke-linecap="round" stroke-linejoin="round"/>
<path d="M14.9997 10.834H3.33301" stroke="#7B55D3" stroke-width="1.5" stroke-miterlimit="10" stroke-linecap="round" stroke-linejoin="round"/>
<path d="M11.6663 24.166H21.6663C23.4997 24.166 24.9997 24.9993 24.9997 27.4993V30.8327C24.9997 33.3327 23.4997 34.166 21.6663 34.166H11.6663C9.83301 34.166 8.33301 33.3327 8.33301 30.8327V27.4993C8.33301 24.9993 9.83301 24.166 11.6663 24.166Z" stroke="#7B55D3" stroke-width="1.5" stroke-miterlimit="10" stroke-linecap="round" stroke-linejoin="round"/>
<path d="M18.3333 5.83398H28.3333C30.1667 5.83398 31.6667 6.66732 31.6667 9.16732V12.5007C31.6667 15.0007 30.1667 15.834 28.3333 15.834H18.3333C16.5 15.834 15 15.0007 15 12.5007V9.16732C15 6.66732 16.5 5.83398 18.3333 5.83398Z" stroke="#7B55D3" stroke-width="1.5" stroke-miterlimit="10" stroke-linecap="round" stroke-linejoin="round"/>
</svg>
