<svg width="16" height="16" viewBox="0 0 16 16" fill="none" xmlns="http://www.w3.org/2000/svg">
<path d="M6.99343 1.48703L3.66677 2.7337C2.9001 3.02036 2.27344 3.92703 2.27344 4.74703V9.70036C2.27344 10.487 2.79344 11.5204 3.42678 11.9937L6.29344 14.1337C7.23344 14.8404 8.78009 14.8404 9.72009 14.1337L12.5868 11.9937C13.2201 11.5204 13.7401 10.487 13.7401 9.70036V4.74703C13.7401 3.92703 13.1134 3.02036 12.3468 2.7337L9.0201 1.48703C8.45343 1.28036 7.54676 1.28036 6.99343 1.48703Z" stroke="#606060" stroke-linecap="round" stroke-linejoin="round"/>
<path d="M7.99992 10.3333C9.47268 10.3333 10.6666 9.13943 10.6666 7.66667C10.6666 6.19391 9.47268 5 7.99992 5C6.52716 5 5.33325 6.19391 5.33325 7.66667C5.33325 9.13943 6.52716 10.3333 7.99992 10.3333Z" stroke="#606060" stroke-miterlimit="10" stroke-linecap="round" stroke-linejoin="round"/>
<path d="M8.16659 6.83301V7.45301C8.16659 7.68634 8.04659 7.90634 7.83993 8.02634L7.33325 8.33301" stroke="#606060" stroke-miterlimit="10" stroke-linecap="round" stroke-linejoin="round"/>
</svg>
