<svg width="16" height="16" viewBox="0 0 16 16" fill="none" xmlns="http://www.w3.org/2000/svg">
<g clip-path="url(#clip0_2532_7311)">
<path d="M1 8C1 9.85652 1.7375 11.637 3.05025 12.9497C4.36301 14.2625 6.14348 15 8 15C9.85652 15 11.637 14.2625 12.9497 12.9497C14.2625 11.637 15 9.85652 15 8C15 6.14348 14.2625 4.36301 12.9497 3.05025C11.637 1.7375 9.85652 1 8 1C6.14348 1 4.36301 1.7375 3.05025 3.05025C1.7375 4.36301 1 6.14348 1 8ZM16 8C16 10.1217 15.1571 12.1566 13.6569 13.6569C12.1566 15.1571 10.1217 16 8 16C5.87827 16 3.84344 15.1571 2.34315 13.6569C0.842855 12.1566 0 10.1217 0 8C0 5.87827 0.842855 3.84344 2.34315 2.34315C3.84344 0.842855 5.87827 0 8 0C10.1217 0 12.1566 0.842855 13.6569 2.34315C15.1571 3.84344 16 5.87827 16 8ZM5.408 5.89C4.578 5.89 4.09 6.53 4.09 7.643V8.385C4.09 9.493 4.569 10.112 5.408 10.112C6.098 10.112 6.546 9.677 6.595 9.062H7.742V9.176C7.684 10.323 6.713 11.114 5.399 11.114C3.787 11.114 2.881 10.086 2.881 8.385V7.638C2.881 5.938 3.795 4.888 5.399 4.888C6.718 4.888 7.689 5.7 7.742 6.887V6.997H6.595C6.546 6.359 6.089 5.89 5.408 5.89ZM10.812 5.89C9.981 5.89 9.493 6.53 9.493 7.643V8.385C9.493 9.493 9.973 10.112 10.812 10.112C11.502 10.112 11.95 9.677 11.998 9.062H13.145V9.176C13.088 10.323 12.117 11.114 10.803 11.114C9.19 11.114 8.285 10.086 8.285 8.385V7.638C8.285 5.938 9.199 4.888 10.803 4.888C12.121 4.888 13.093 5.7 13.145 6.887V6.997H11.998C11.95 6.359 11.493 5.89 10.812 5.89Z" fill="#999999"/>
</g>
<defs>
<clipPath id="clip0_2532_7311">
<rect width="16" height="16" fill="white"/>
</clipPath>
</defs>
</svg>
