<svg width="16" height="16" viewBox="0 0 16 16" fill="none" xmlns="http://www.w3.org/2000/svg">
<path d="M4 6.66732V5.33398C4 3.12732 4.66667 1.33398 8 1.33398C11.3333 1.33398 12 3.12732 12 5.33398V6.66732" stroke="#606060" stroke-width="1.5" stroke-linecap="round" stroke-linejoin="round"/>
<path d="M7.99998 12.3333C8.92045 12.3333 9.66665 11.5871 9.66665 10.6667C9.66665 9.74619 8.92045 9 7.99998 9C7.07951 9 6.33331 9.74619 6.33331 10.6667C6.33331 11.5871 7.07951 12.3333 7.99998 12.3333Z" stroke="#606060" stroke-width="1.5" stroke-linecap="round" stroke-linejoin="round"/>
<path d="M11.3333 14.666H4.66665C1.99998 14.666 1.33331 13.9993 1.33331 11.3327V9.99935C1.33331 7.33268 1.99998 6.66602 4.66665 6.66602H11.3333C14 6.66602 14.6666 7.33268 14.6666 9.99935V11.3327C14.6666 13.9993 14 14.666 11.3333 14.666Z" stroke="#606060" stroke-width="1.5" stroke-linecap="round" stroke-linejoin="round"/>
</svg>
