<svg width="16" height="16" viewBox="0 0 16 16" fill="none" xmlns="http://www.w3.org/2000/svg">
<path d="M5.78125 9.55322C5.78125 10.4132 6.44125 11.1066 7.26125 11.1066H8.93458C9.64792 11.1066 10.2279 10.4999 10.2279 9.75322C10.2279 8.93989 9.87458 8.65322 9.34792 8.46655L6.66125 7.53322C6.13458 7.34655 5.78125 7.05989 5.78125 6.24655C5.78125 5.49989 6.36125 4.89322 7.07458 4.89322H8.74792C9.56792 4.89322 10.2279 5.58655 10.2279 6.44655" stroke="#606060" stroke-width="1.5" stroke-linecap="round" stroke-linejoin="round"/>
<path d="M8 4V12" stroke="#606060" stroke-width="1.5" stroke-linecap="round" stroke-linejoin="round"/>
<path d="M7.99998 14.6667C11.6819 14.6667 14.6666 11.6819 14.6666 8.00001C14.6666 4.31811 11.6819 1.33334 7.99998 1.33334C4.31808 1.33334 1.33331 4.31811 1.33331 8.00001C1.33331 11.6819 4.31808 14.6667 7.99998 14.6667Z" stroke="#606060" stroke-width="1.5" stroke-linecap="round" stroke-linejoin="round"/>
</svg>
