<svg width="16" height="16" viewBox="0 0 16 16" fill="none" xmlns="http://www.w3.org/2000/svg">
<g clip-path="url(#clip0_3855_26808)">
<path d="M3.332 4.66797V0.667969H13L15.3333 3.0013V15.3346H11.3333M12 0.667969V4.0013H15.3333M6.66667 8.0013V10.668L8.66667 12.668M6.66667 15.3346C7.90434 15.3346 9.09133 14.843 9.9665 13.9678C10.8417 13.0926 11.3333 11.9056 11.3333 10.668C11.3333 9.43029 10.8417 8.24331 9.9665 7.36814C9.09133 6.49297 7.90434 6.0013 6.66667 6.0013C5.42899 6.0013 4.242 6.49297 3.36683 7.36814C2.49167 8.24331 2 9.43029 2 10.668C2 11.9056 2.49167 13.0926 3.36683 13.9678C4.242 14.843 5.42899 15.3346 6.66667 15.3346Z" stroke="#606060" stroke-width="1.5"/>
</g>
<defs>
<clipPath id="clip0_3855_26808">
<rect width="16" height="16" fill="white"/>
</clipPath>
</defs>
</svg>
