<svg width="16" height="16" viewBox="0 0 16 16" fill="none" xmlns="http://www.w3.org/2000/svg">
<path d="M5.33301 7.59688C5.33301 8.11021 5.73301 8.53021 6.21967 8.53021H7.21967C7.64634 8.53021 7.99301 8.16354 7.99301 7.71688C7.99301 7.23021 7.77967 7.05688 7.46634 6.94354L5.86634 6.38354C5.54634 6.27021 5.33301 6.09688 5.33301 5.61021C5.33301 5.16354 5.67967 4.79688 6.10634 4.79688H7.10634C7.59967 4.80354 7.99967 5.21688 7.99967 5.73021" stroke="#606060" stroke-width="1.5" stroke-linecap="round" stroke-linejoin="round"/>
<path d="M6.66699 8.57031V9.06365" stroke="#606060" stroke-width="1.5" stroke-linecap="round" stroke-linejoin="round"/>
<path d="M6.66699 4.27344V4.79344" stroke="#606060" stroke-width="1.5" stroke-linecap="round" stroke-linejoin="round"/>
<path d="M6.65967 11.9893C9.60151 11.9893 11.9863 9.60444 11.9863 6.6626C11.9863 3.72077 9.60151 1.33594 6.65967 1.33594C3.71784 1.33594 1.33301 3.72077 1.33301 6.6626C1.33301 9.60444 3.71784 11.9893 6.65967 11.9893Z" stroke="#606060" stroke-width="1.5" stroke-linecap="round" stroke-linejoin="round"/>
<path d="M8.65332 13.2507C9.25332 14.0974 10.2333 14.6507 11.3533 14.6507C13.1733 14.6507 14.6533 13.1707 14.6533 11.3507C14.6533 10.2441 14.1067 9.26406 13.2733 8.66406" stroke="#606060" stroke-width="1.5" stroke-linecap="round" stroke-linejoin="round"/>
</svg>
