<svg width="16" height="16" viewBox="0 0 16 16" fill="none" xmlns="http://www.w3.org/2000/svg">
<path d="M8.10671 7.24665C8.04004 7.23998 7.96004 7.23998 7.88671 7.24665C6.30004 7.19331 5.04004 5.89331 5.04004 4.29331C5.04004 2.65998 6.36004 1.33331 8.00004 1.33331C9.63337 1.33331 10.96 2.65998 10.96 4.29331C10.9534 5.89331 9.69337 7.19331 8.10671 7.24665Z" stroke="#999999" stroke-linecap="round" stroke-linejoin="round"/>
<path d="M4.77323 9.70669C3.1599 10.7867 3.1599 12.5467 4.77323 13.62C6.60657 14.8467 9.61323 14.8467 11.4466 13.62C13.0599 12.54 13.0599 10.78 11.4466 9.70669C9.6199 8.48669 6.61323 8.48669 4.77323 9.70669Z" stroke="#999999" stroke-linecap="round" stroke-linejoin="round"/>
</svg>
