<svg width="16" height="16" viewBox="0 0 16 16" fill="none" xmlns="http://www.w3.org/2000/svg">
<g clip-path="url(#clip0_2768_10402)">
<path d="M12.725 0.75H3.65501C3.58871 0.75 3.52512 0.776339 3.47824 0.823223C3.43135 0.870107 3.40501 0.933696 3.40501 1V1.25H2.96251C2.89621 1.25 2.83262 1.27634 2.78574 1.32322C2.73885 1.37011 2.71251 1.4337 2.71251 1.5V1.75H2.27251C2.20621 1.75 2.14262 1.77634 2.09574 1.82322C2.04885 1.87011 2.02251 1.9337 2.02251 2V3.5H1.82001C1.59312 3.49992 1.37518 3.58849 1.21265 3.74681C1.05013 3.90513 0.955881 4.12068 0.950013 4.3475V14.1275L0.872513 14.3375C0.834249 14.4393 0.821144 14.5488 0.834315 14.6568C0.847486 14.7647 0.886543 14.8679 0.948162 14.9575C1.00978 15.0471 1.09214 15.1205 1.18822 15.1714C1.2843 15.2223 1.39127 15.2493 1.50001 15.25H11.945C12.2245 15.2511 12.4969 15.1622 12.722 14.9965C12.9471 14.8308 13.1129 14.5972 13.195 14.33L15.125 8.135C15.1583 8.03336 15.1669 7.92528 15.1502 7.81964C15.1336 7.71401 15.092 7.61385 15.029 7.52743C14.966 7.441 14.8834 7.37078 14.7879 7.32254C14.6925 7.27431 14.587 7.24945 14.48 7.25H14.0275V6.1125C14.0275 5.84728 13.9222 5.59293 13.7346 5.40539C13.5471 5.21786 13.2927 5.1125 13.0275 5.1125H12.975V1C12.975 0.933696 12.9487 0.870107 12.9018 0.823223C12.8549 0.776339 12.7913 0.75 12.725 0.75ZM3.90501 1.25H12.475V7.25H3.90501V1.25ZM3.21251 1.75H3.40251V7.4625L3.21251 7.9775V1.75ZM2.52251 2.25H2.71251V9.35L2.52251 9.865V2.25ZM1.81751 4H2.02251V11.2075L1.45001 12.7625V4.3475C1.45067 4.2498 1.48995 4.15633 1.55926 4.08749C1.62858 4.01864 1.72232 3.98 1.82001 3.98L1.81751 4ZM14.62 7.85C14.6364 7.8724 14.6471 7.89835 14.6515 7.92574C14.6558 7.95312 14.6536 7.98114 14.645 8.0075L12.7175 14.1825C12.6666 14.3474 12.564 14.4916 12.4249 14.5938C12.2858 14.6959 12.1176 14.7507 11.945 14.75H1.50001C1.47151 14.7503 1.44338 14.7435 1.41806 14.7304C1.39275 14.7173 1.37101 14.6983 1.35475 14.6749C1.33849 14.6514 1.32819 14.6244 1.32475 14.5961C1.32131 14.5678 1.32483 14.5391 1.33501 14.5125L1.43001 14.2625C1.43085 14.2517 1.43085 14.2408 1.43001 14.23L3.82751 7.75H14.48C14.5083 7.75046 14.536 7.75775 14.5608 7.77124C14.5856 7.78474 14.6068 7.80404 14.6225 7.8275L14.62 7.85ZM13.035 5.645C13.1676 5.645 13.2948 5.69768 13.3886 5.79145C13.4823 5.88521 13.535 6.01239 13.535 6.145V7.25H12.975V5.6225L13.035 5.645Z" fill="#999999"/>
<path d="M5.22998 6.69005H11.115C11.1813 6.69005 11.2449 6.66371 11.2918 6.61683C11.3386 6.56994 11.365 6.50635 11.365 6.44005C11.365 6.37374 11.3386 6.31016 11.2918 6.26327C11.2449 6.21639 11.1813 6.19005 11.115 6.19005H5.22998C5.16368 6.19005 5.10009 6.21639 5.0532 6.26327C5.00632 6.31016 4.97998 6.37374 4.97998 6.44005C4.97998 6.50635 5.00632 6.56994 5.0532 6.61683C5.10009 6.66371 5.16368 6.69005 5.22998 6.69005ZM5.22998 4.93255H11.115C11.1813 4.93255 11.2449 4.90621 11.2918 4.85933C11.3386 4.81244 11.365 4.74885 11.365 4.68255C11.365 4.61624 11.3386 4.55266 11.2918 4.50577C11.2449 4.45889 11.1813 4.43255 11.115 4.43255H5.22998C5.16368 4.43255 5.10009 4.45889 5.0532 4.50577C5.00632 4.55266 4.97998 4.61624 4.97998 4.68255C4.97998 4.74885 5.00632 4.81244 5.0532 4.85933C5.10009 4.90621 5.16368 4.93255 5.22998 4.93255ZM5.22998 3.17505H7.79498C7.86128 3.17505 7.92487 3.14871 7.97176 3.10183C8.01864 3.05494 8.04498 2.99135 8.04498 2.92505C8.04498 2.85874 8.01864 2.79516 7.97176 2.74827C7.92487 2.70139 7.86128 2.67505 7.79498 2.67505H5.22998C5.16368 2.67505 5.10009 2.70139 5.0532 2.74827C5.00632 2.79516 4.97998 2.85874 4.97998 2.92505C4.97998 2.99135 5.00632 3.05494 5.0532 3.10183C5.10009 3.14871 5.16368 3.17505 5.22998 3.17505Z" fill="#999999"/>
</g>
<defs>
<clipPath id="clip0_2768_10402">
<rect width="16" height="16" fill="white"/>
</clipPath>
</defs>
</svg>
