<svg width="16" height="16" viewBox="0 0 16 16" fill="none" xmlns="http://www.w3.org/2000/svg">
<path d="M14.667 4.0026V5.61594C14.667 6.66927 14.0003 7.33594 12.947 7.33594H10.667V2.67594C10.667 1.93594 11.2737 1.33594 12.0137 1.33594C12.7403 1.3426 13.407 1.63594 13.887 2.11594C14.367 2.6026 14.667 3.26927 14.667 4.0026Z" stroke="#606060" stroke-width="1.5" stroke-miterlimit="10" stroke-linecap="round" stroke-linejoin="round"/>
<path d="M1.33301 4.66927V14.0026C1.33301 14.5559 1.95967 14.8693 2.39967 14.5359L3.53967 13.6826C3.80634 13.4826 4.17967 13.5093 4.41967 13.7493L5.52634 14.8626C5.78634 15.1226 6.21301 15.1226 6.47301 14.8626L7.59301 13.7426C7.82634 13.5093 8.19968 13.4826 8.45968 13.6826L9.59968 14.5359C10.0397 14.8626 10.6663 14.5493 10.6663 14.0026V2.66927C10.6663 1.93594 11.2663 1.33594 11.9997 1.33594H4.66634H3.99967C1.99967 1.33594 1.33301 2.52927 1.33301 4.0026V4.66927Z" stroke="#606060" stroke-width="1.5" stroke-miterlimit="10" stroke-linecap="round" stroke-linejoin="round"/>
<path d="M4.16699 6.66406H7.83366" stroke="#606060" stroke-width="1.5" stroke-linecap="round" stroke-linejoin="round"/>
</svg>
