<svg id="directbox-send" xmlns="http://www.w3.org/2000/svg" width="19.97" height="19.97" viewBox="0 0 19.97 19.97">
  <path id="Vector" d="M1.664,4.992V0L0,1.664" transform="translate(8.321 1.664)" fill="none" stroke="#7b58ca" stroke-linecap="round" stroke-linejoin="round" stroke-width="1"/>
  <path id="Vector-2" data-name="Vector" d="M0,0,1.664,1.664" transform="translate(9.985 1.664)" fill="none" stroke="#7b58ca" stroke-linecap="round" stroke-linejoin="round" stroke-width="1"/>
  <path id="Vector-3" data-name="Vector" d="M3.328,0C0,0,0,1.489,0,3.328V4.16c0,2.3,0,4.16,4.16,4.16h6.657c3.328,0,4.16-1.864,4.16-4.16V3.328c0-1.839,0-3.328-3.328-3.328a1.965,1.965,0,0,0-1.5.5L9.3,1.4a2.5,2.5,0,0,1-3.636,0L4.826.5A1.965,1.965,0,0,0,3.328,0Z" transform="translate(2.496 9.985)" fill="none" stroke="#7b58ca" stroke-linecap="round" stroke-linejoin="round" stroke-width="1"/>
  <path id="Vector-4" data-name="Vector" d="M0,4.959V3.3C0,1.623,0,.241,2.5,0" transform="translate(4.16 5.026)" fill="none" stroke="#7b58ca" stroke-linecap="round" stroke-linejoin="round" stroke-width="1"/>
  <path id="Vector-5" data-name="Vector" d="M2.5,4.959V3.3C2.5,1.623,2.5.241,0,0" transform="translate(13.313 5.026)" fill="none" stroke="#7b58ca" stroke-linecap="round" stroke-linejoin="round" stroke-width="1"/>
  <path id="Vector-6" data-name="Vector" d="M0,0H19.97V19.97H0Z" fill="none" opacity="0"/>
</svg>
