<svg width="149" height="152" viewBox="0 0 149 152" fill="none" xmlns="http://www.w3.org/2000/svg">
<g opacity="0.3">
<path d="M28.4292 97.6299C28.2255 96.3987 26.6506 94.0851 26.6506 94.082C26.6506 94.079 25.4346 95.5839 25.3768 95.6903C24.632 96.9064 23.9114 99.6851 24.9512 100.895C25.1301 101.091 25.3485 101.247 25.592 101.353C25.8355 101.459 26.0986 101.512 26.3641 101.51C26.6296 101.507 26.8915 101.448 27.1326 101.337C27.3737 101.226 27.5887 101.065 27.7634 100.865C28.5325 100.062 28.6024 98.6788 28.4292 97.6299Z" fill="#323232"/>
<path d="M34.7012 92.4063C34.2026 91.3179 32.2356 89.6154 32.0775 89.4816C33.0479 88.3585 33.9426 87.1722 34.756 85.9307C35.2363 85.2101 35.6954 84.4683 36.1484 83.7204C35.9933 84.0913 35.8443 84.4258 35.8443 84.4744C35.4491 85.8425 35.4886 88.7307 36.8111 89.6093C37.0347 89.7514 37.2858 89.8447 37.5479 89.8832C37.81 89.9218 38.0772 89.9046 38.3322 89.8329C38.5873 89.7612 38.8243 89.6365 39.0279 89.467C39.2315 89.2975 39.3971 89.087 39.5139 88.8493C40.0459 87.8582 39.748 86.5053 39.3041 85.5385C38.8602 84.5717 37.2064 83.0759 36.7625 82.6898C36.9358 82.3858 37.1091 82.1122 37.2793 81.8234C38.0911 80.434 38.8967 79.0416 39.7297 77.7039C40.0337 77.2296 40.3378 76.7766 40.6418 76.3206C40.5019 76.652 40.3894 76.9286 40.3773 76.9773C39.979 78.3423 40.0185 81.2184 41.341 82.1091C41.5646 82.2508 41.8154 82.3439 42.0773 82.3824C42.3391 82.4209 42.6061 82.4039 42.861 82.3325C43.1158 82.2611 43.3528 82.137 43.5566 81.9681C43.7604 81.7992 43.9263 81.5893 44.0438 81.3521C44.5758 80.358 44.2779 79.0051 43.834 78.0383C43.3901 77.0715 41.8943 75.7217 41.3714 75.2596C41.6998 74.8035 42.0251 74.3475 42.3625 73.9158C42.5966 73.6118 42.8064 73.3351 43.0587 73.0585L43.7884 72.2346C44.2687 71.7269 44.7643 71.1979 45.2477 70.7145C45.5791 70.377 45.9044 70.0608 46.2297 69.7386C45.9256 70.2068 45.3693 71.134 45.3176 71.2161C44.7096 72.5082 44.3235 75.3538 45.4939 76.4361C45.6936 76.6102 45.9276 76.7404 46.1808 76.8181C46.4341 76.8959 46.7008 76.9194 46.9638 76.8873C47.2267 76.8552 47.48 76.7681 47.707 76.6317C47.9341 76.4953 48.1299 76.3127 48.2818 76.0956C48.9567 75.1836 48.8686 73.8124 48.5858 72.7909C48.2636 71.6661 46.6523 69.7507 46.4577 69.5197C46.9958 68.9937 47.5278 68.483 48.0355 67.9996C48.4125 67.65 48.7743 67.3186 49.127 67.0024L48.5858 66.1694C48.1997 66.5312 47.8014 66.9112 47.3849 67.3155C46.8347 67.8506 46.257 68.4313 45.6672 69.0332C45.0107 68.5699 44.3275 68.1456 43.6212 67.7624C43.9252 66.598 43.6485 64.2814 43.6212 63.9835C44.363 63.8406 45.0835 63.7099 45.7676 63.5974L46.8164 63.4302L46.2449 62.5485L45.6034 62.6671C44.8494 62.8069 44.0468 62.9711 43.226 63.1535C43.1135 62.8677 42.1953 60.5389 41.3562 59.7181C40.5962 58.9763 39.4196 58.2436 38.316 58.4108C38.0531 58.4418 37.7997 58.5277 37.5721 58.6629C37.3446 58.7982 37.148 58.9798 36.9952 59.196C36.8424 59.4122 36.7368 59.658 36.6851 59.9177C36.6335 60.1773 36.6371 60.4449 36.6956 60.7031C37.0939 62.2475 39.7875 63.2477 41.2103 63.3329C41.2924 63.3329 42.2075 63.2903 42.7851 63.2538C42.4507 63.3268 42.1224 63.3967 41.7788 63.4758C41.0948 63.6308 40.4198 63.8071 39.6902 63.9926L38.6353 64.2966C38.2795 64.3939 37.9178 64.5398 37.5529 64.6614C36.7169 64.9655 35.8869 65.2999 35.0539 65.6617C34.9171 65.0536 34.3972 62.9498 33.7557 62.0986C33.1143 61.2473 32.0654 60.3444 30.9375 60.3444C30.6728 60.3352 30.4092 60.3817 30.1637 60.4811C29.9182 60.5804 29.6963 60.7303 29.5125 60.9209C29.3288 61.1116 29.1871 61.3388 29.0969 61.5878C29.0066 61.8368 28.9698 62.1019 28.9887 62.3661C29.1498 63.95 31.661 65.3485 33.0534 65.6465C33.1386 65.6647 34.1631 65.7681 34.7256 65.8137C34.227 66.0356 33.7284 66.2545 33.2328 66.4977C31.8009 67.1939 30.372 67.9418 28.9431 68.6836L27.6297 69.3525C27.5841 69.1397 27.0217 66.6163 26.3012 65.6586C25.6597 64.8104 24.6108 63.9075 23.4829 63.9044C23.2184 63.8952 22.9548 63.9418 22.7095 64.0411C22.4641 64.1405 22.2425 64.2904 22.0589 64.4811C21.8754 64.6719 21.734 64.8991 21.6441 65.1481C21.5542 65.3971 21.5178 65.6622 21.5372 65.9262C21.6953 67.5101 24.2065 68.9086 25.5989 69.2065C25.7022 69.2309 27.1737 69.3768 27.5507 69.395C26.5839 69.8845 25.6202 70.3649 24.6473 70.7996C23.3377 71.3927 21.9911 71.9005 20.616 72.3197C20.5947 72.2194 20.008 69.5835 19.2813 68.6015C18.6429 67.7533 17.591 66.8473 16.4661 66.8473C16.2015 66.8372 15.9377 66.8831 15.692 66.9819C15.4462 67.0807 15.2242 67.2303 15.0402 67.4208C14.8563 67.6114 14.7146 67.8386 14.6245 68.0876C14.5344 68.3367 14.4979 68.6019 14.5174 68.866C14.6754 70.453 17.1866 71.8515 18.5791 72.1494C18.6885 72.1738 20.2725 72.3288 20.5613 72.3379C20.4792 72.3592 20.4001 72.3927 20.3211 72.417C18.9283 72.8006 17.5038 73.058 16.0648 73.1862C15.2744 73.2682 14.5113 73.3017 13.7695 73.3199C13.7117 72.8183 13.4259 70.5229 12.8574 69.5683C12.2889 68.6137 11.3707 67.6408 10.252 67.5162C9.99001 67.4776 9.72286 67.4946 9.46791 67.5661C9.21297 67.6376 8.97596 67.762 8.77231 67.9312C8.56866 68.1005 8.40296 68.3107 8.28598 68.5482C8.16901 68.7858 8.10339 69.0453 8.09341 69.3099C8.07517 70.903 10.4192 72.569 11.769 73.0189C11.842 73.0433 12.6172 73.2105 13.1827 73.323C12.8483 73.323 12.5017 73.323 12.1794 73.323C10.9634 73.323 9.87193 73.2257 8.89603 73.1406C8.34271 73.0889 7.84108 73.0311 7.37593 72.9733C7.07191 72.5082 5.77678 70.6537 4.85256 70.0791C3.92834 69.5045 2.64538 69.0545 1.59347 69.471C1.34318 69.5575 1.11392 69.6958 0.920638 69.8768C0.727356 70.0578 0.574387 70.2776 0.471699 70.5217C0.369012 70.7658 0.318912 71.0288 0.324663 71.2935C0.330415 71.5583 0.391888 71.8188 0.505079 72.0582C1.22257 73.478 4.07123 73.8824 5.4758 73.6543C5.59741 73.6331 7.46409 73.1162 7.44889 73.0919L7.43065 73.0645C7.87756 73.1314 8.36095 73.1953 8.88995 73.2561C9.86585 73.3625 10.9694 73.4719 12.1794 73.5115C13.4817 73.5674 14.7862 73.5471 16.0861 73.4507C17.5439 73.352 18.9898 73.122 20.4062 72.7636L20.4579 72.7484C20.0596 72.9977 18.9773 73.7243 18.8983 73.7912C17.816 74.7032 16.2624 77.1354 16.8705 78.6038C16.979 78.8455 17.1371 79.0617 17.3346 79.2384C17.532 79.4151 17.7644 79.5484 18.0166 79.6295C18.2689 79.7106 18.5354 79.7378 18.7988 79.7093C19.0622 79.6808 19.3168 79.5973 19.5458 79.4642C20.5339 78.9291 21.0325 77.6401 21.1967 76.5851C21.3791 75.3994 20.6768 72.8973 20.619 72.6997C22.0517 72.3007 23.4563 71.8071 24.8236 71.2222C25.6202 70.8847 26.4137 70.5199 27.2071 70.146C26.8697 70.3709 26.5717 70.5746 26.5322 70.6081C25.4499 71.5201 23.8964 73.9523 24.5044 75.4207C24.6114 75.6608 24.7674 75.8758 24.9624 76.052C25.1574 76.2282 25.3871 76.3616 25.6368 76.4438C25.8864 76.526 26.1505 76.555 26.412 76.5291C26.6736 76.5032 26.9268 76.4228 27.1555 76.2932C28.1466 75.7612 28.6452 74.4691 28.8093 73.4172C28.9735 72.3653 28.4171 70.2037 28.2621 69.6382C28.5661 69.4923 28.8701 69.3494 29.1742 69.2005C30.6213 68.489 32.0593 67.7746 33.4943 67.1149C33.9989 66.8838 34.5067 66.674 35.0144 66.4612C34.7104 66.6619 34.4671 66.8321 34.4307 66.8625C33.3483 67.7746 31.7948 70.2068 32.4028 71.6752C32.511 71.9172 32.6689 72.1338 32.8663 72.3108C33.0637 72.4877 33.2962 72.6211 33.5486 72.7023C33.8009 72.7835 34.0676 72.8106 34.3312 72.7818C34.5947 72.7531 34.8492 72.6692 35.0782 72.5356C36.0663 72.0005 36.5649 70.7114 36.729 69.6565C36.8932 68.6015 36.3916 66.6558 36.2092 65.9809C36.7351 65.7802 37.258 65.5765 37.7749 65.4063C38.1306 65.2968 38.465 65.1661 38.8298 65.0749L39.8939 64.7891C40.5749 64.631 41.2772 64.4638 41.946 64.327C42.4112 64.2297 42.8581 64.1446 43.305 64.0564C42.8003 64.2814 41.8183 64.7435 41.7423 64.7922C40.7009 65.4876 39.856 66.4393 39.2889 67.5557C39.1694 67.6289 39.0565 67.7123 38.9514 67.805C38.7493 67.976 38.5854 68.1876 38.4704 68.426C38.3554 68.6645 38.2918 68.9245 38.2837 69.1891C38.2757 69.4537 38.3234 69.7171 38.4238 69.9621C38.5242 70.207 38.6749 70.4282 38.8663 70.6111C40.0489 71.6782 42.849 71.0246 44.0802 70.3071C44.1532 70.2645 44.8889 69.7203 45.3511 69.3707C45.1109 69.617 44.8768 69.8541 44.6336 70.1125C44.1502 70.6202 43.682 71.1401 43.1773 71.6965L42.4659 72.5386C42.2227 72.8122 42.0038 73.1466 41.7667 73.4507C41.2346 74.159 40.7269 74.9039 40.2466 75.667C39.8027 75.2444 38.2035 73.7668 37.2064 73.4111C36.2092 73.0554 34.8289 72.8821 33.8895 73.4993C33.6634 73.6372 33.4689 73.8213 33.3186 74.0395C33.1684 74.2576 33.0659 74.505 33.0177 74.7655C32.9695 75.026 32.9767 75.2936 33.039 75.5511C33.1012 75.8086 33.2169 76.0501 33.3787 76.2598C34.3851 77.4972 37.252 77.2752 38.5775 76.7584C38.6596 76.7249 39.5686 76.2476 40.0641 75.974C39.7601 76.4331 39.4774 76.8861 39.1977 77.3664C38.386 78.7376 37.6077 80.1482 36.8263 81.5558C36.5862 81.9875 36.3429 82.4132 36.0997 82.8388C35.9447 82.6868 34.081 80.89 32.9531 80.4918C31.9499 80.136 30.5757 79.9628 29.6363 80.583C29.4101 80.7209 29.2156 80.905 29.0654 81.1231C28.9152 81.3413 28.8126 81.5887 28.7645 81.8492C28.7163 82.1096 28.7235 82.3773 28.7857 82.6348C28.8479 82.8923 28.9637 83.1337 29.1255 83.3435C30.1318 84.5778 32.9987 84.3558 34.3242 83.839C34.4246 83.7995 35.7319 83.1094 36.0541 82.927C35.5221 83.8694 34.9809 84.8028 34.4094 85.7027C33.6451 86.9197 32.8022 88.0855 31.886 89.1928C31.813 89.1229 29.8764 87.238 28.7242 86.8306C27.7209 86.4749 26.3468 86.3016 25.4073 86.9187C25.1812 87.0567 24.9867 87.2407 24.8365 87.4589C24.6863 87.6771 24.5837 87.9245 24.5355 88.1849C24.4873 88.4454 24.4946 88.7131 24.5568 88.9706C24.619 89.228 24.7348 89.4695 24.8966 89.6792C25.9029 90.9166 28.7698 90.6947 30.0953 90.1778C30.1987 90.1353 31.6154 89.3935 31.8495 89.2384C31.7978 89.3053 31.7492 89.3752 31.6945 89.4391C30.7455 90.5249 29.7016 91.524 28.5752 92.4245C27.9672 92.9322 27.3592 93.3792 26.7329 93.8017C26.4076 93.4156 24.9088 91.6736 23.9055 91.175C22.9022 90.6764 21.601 90.3876 20.6008 90.9014C20.3617 91.0116 20.1484 91.1707 19.9746 91.3684C19.8008 91.5661 19.6703 91.7979 19.5915 92.0491C19.5128 92.3003 19.4875 92.5652 19.5173 92.8267C19.5471 93.0883 19.6314 93.3407 19.7647 93.5676C20.6312 94.9053 23.5042 94.9996 24.8784 94.6317C24.9544 94.6135 25.6901 94.3277 26.2252 94.1058C25.9455 94.2943 25.6627 94.4919 25.3921 94.6652C24.3798 95.3188 23.413 95.8569 22.5526 96.3251C22.0601 96.5866 21.6101 96.8146 21.1876 97.0244C20.6707 96.8085 18.576 95.9724 17.4876 96.0028C16.3992 96.0333 15.0798 96.3646 14.4261 97.2828C14.2653 97.493 14.1505 97.7347 14.0892 97.9923C14.028 98.2498 14.0217 98.5174 14.0708 98.7775C14.1198 99.0376 14.2231 99.2845 14.3739 99.5021C14.5247 99.7197 14.7196 99.903 14.946 100.04C16.3293 100.831 18.9226 99.5903 19.9745 98.6296C20.0657 98.5475 21.3335 97.0852 21.3092 97.073H21.2757C21.6861 96.8815 22.127 96.6687 22.6012 96.4285C23.4738 95.9785 24.4558 95.4617 25.4834 94.8263C26.6021 94.1548 27.6802 93.4178 28.712 92.6191C29.8725 91.7325 30.9511 90.7435 31.9347 89.664L31.9681 89.6245C31.7735 90.0471 31.2719 91.2541 31.2445 91.3513C30.8493 92.7194 30.8888 95.5924 32.2083 96.4832C32.4318 96.6249 32.6826 96.718 32.9445 96.7565C33.2063 96.795 33.4734 96.778 33.7282 96.7066C33.9831 96.6352 34.2201 96.511 34.4238 96.3421C34.6276 96.1732 34.7936 95.9634 34.911 95.7262C35.443 94.726 35.1451 93.3731 34.7012 92.4063Z" fill="#323232"/>
<path d="M13.5368 73.5558C13.5368 73.5254 11.7127 74.1395 11.5911 74.1942C10.3021 74.8023 8.16479 76.7176 8.36241 78.3015C8.40481 78.5621 8.50139 78.8109 8.6459 79.0318C8.79042 79.2527 8.97966 79.4409 9.20141 79.5841C9.42315 79.7274 9.67248 79.8225 9.93328 79.8634C10.1941 79.9043 10.4606 79.8901 10.7155 79.8216C11.81 79.5693 12.6339 78.4535 13.0686 77.4837C13.5763 76.3558 13.5368 73.5588 13.5368 73.5558Z" fill="#323232"/>
</g>
<g opacity="0.3">
<path d="M93.6703 9.2742C94.4395 10.2562 96.9325 11.53 96.9355 11.53C96.9385 11.53 97.276 9.63294 97.2791 9.51134C97.349 8.08852 96.6467 5.30066 95.1509 4.73822C94.9005 4.65173 94.6347 4.6189 94.3708 4.64188C94.1069 4.66486 93.8507 4.74312 93.619 4.87158C93.3873 5.00004 93.1853 5.17583 93.026 5.38751C92.8667 5.59919 92.7537 5.84203 92.6944 6.10023C92.4117 7.18862 93.0167 8.44119 93.6703 9.2742Z" fill="#323232"/>
<path d="M90.6769 16.8644C91.6376 17.5789 94.1792 18.1261 94.3829 18.1717C94.0669 19.6237 93.8506 21.0955 93.7353 22.577C93.6593 23.4404 93.6106 24.3099 93.5742 25.1854C93.5316 24.7841 93.489 24.4254 93.4799 24.3767C93.1759 22.9843 91.7561 20.4823 90.1691 20.3363C89.905 20.319 89.6403 20.3575 89.392 20.4493C89.1438 20.5411 88.9177 20.6842 88.7284 20.8691C88.5391 21.0541 88.3909 21.2769 88.2934 21.5229C88.1959 21.769 88.1514 22.0328 88.1626 22.2973C88.1626 23.4221 89.0747 24.468 89.935 25.1003C90.7954 25.7327 92.957 26.2556 93.5316 26.3833C93.5316 26.7177 93.5042 27.0521 93.4951 27.3896C93.4495 29.0009 93.407 30.6061 93.3218 32.1809C93.2914 32.7373 93.2397 33.2815 93.1911 33.8287C93.1546 33.473 93.1181 33.172 93.109 33.1264C92.805 31.7371 91.3883 29.235 89.7982 29.086C89.5341 29.0687 89.2694 29.1072 89.0211 29.199C88.7729 29.2908 88.5468 29.4338 88.3575 29.6188C88.1682 29.8038 88.02 30.0266 87.9225 30.2726C87.825 30.5187 87.7805 30.7825 87.7917 31.0469C87.7917 32.1718 88.7038 33.2176 89.5641 33.853C90.4245 34.4884 92.3794 34.9566 93.0573 35.1087C92.9904 35.668 92.9266 36.2274 92.8354 36.7625C92.7655 37.1304 92.7259 37.4861 92.6347 37.8479C92.5435 38.2097 92.4706 38.5684 92.3915 38.9241C92.2121 39.599 92.0328 40.3013 91.8412 40.955C91.7105 41.414 91.5768 41.8457 91.446 42.2835C91.4825 41.7302 91.5312 40.6479 91.5251 40.5567C91.4308 39.1369 90.4124 36.4494 88.8679 36.0633C88.6092 36.0057 88.3413 36.0034 88.0816 36.0564C87.8219 36.1094 87.5763 36.2165 87.3608 36.3709C87.1454 36.5252 86.9649 36.7233 86.8312 36.9521C86.6974 37.181 86.6135 37.4354 86.5847 37.6989C86.4236 38.8116 87.1654 39.9821 87.9133 40.7391C88.7372 41.5721 91.066 42.472 91.3579 42.5815C91.1359 43.305 90.914 44.0043 90.6951 44.664C90.533 45.1504 90.3738 45.6166 90.2178 46.0625L91.0934 46.5337C91.2575 46.0321 91.4247 45.5061 91.595 44.9498C91.823 44.2171 92.051 43.4297 92.276 42.621C93.0744 42.7113 93.8773 42.7549 94.6808 42.7517C94.9848 43.9161 96.3286 45.8193 96.5049 46.0625C95.9212 46.5459 95.3527 47.0049 94.8054 47.4336C94.5166 47.6616 94.24 47.8714 93.9664 48.0842L94.8784 48.5798L95.3861 48.1693C95.979 47.686 96.6022 47.1539 97.2376 46.6036C97.4717 46.8013 99.3961 48.4034 100.524 48.7318C101.549 49.0176 102.932 49.0966 103.829 48.4278C104.045 48.2743 104.226 48.077 104.361 47.8489C104.495 47.6207 104.581 47.3667 104.611 47.1035C104.641 46.8402 104.615 46.5736 104.535 46.3209C104.456 46.0682 104.324 45.8352 104.148 45.6369C103.06 44.4725 100.214 44.889 98.9279 45.497C98.8519 45.5335 98.0706 46.0138 97.5842 46.3239C97.8426 46.099 98.0949 45.8801 98.3594 45.6429C98.8854 45.1808 99.3931 44.7005 99.9434 44.1897C100.199 43.9313 100.46 43.6729 100.722 43.4114C100.983 43.15 101.235 42.852 101.497 42.5723C102.087 41.9096 102.652 41.2103 103.206 40.4959C103.613 40.9519 105.084 42.5571 106.057 42.998C107.03 43.4388 108.383 43.7246 109.371 43.1865C109.608 43.0675 109.816 42.9 109.984 42.695C110.152 42.4901 110.274 42.2521 110.344 41.9967C110.414 41.7412 110.429 41.4739 110.388 41.2122C110.348 40.9505 110.253 40.7003 110.11 40.4776C109.198 39.1612 106.337 39.143 104.972 39.5473C104.887 39.5717 103.938 39.973 103.424 40.204C103.753 39.7693 104.084 39.3376 104.406 38.8876C105.318 37.5895 106.231 36.2487 107.118 34.9141L107.948 33.698C108.094 33.8652 109.8 35.8261 110.888 36.3034C111.858 36.7412 113.214 37.0301 114.202 36.4889C114.439 36.3706 114.648 36.2036 114.816 35.999C114.984 35.7943 115.106 35.5565 115.176 35.3012C115.246 35.0458 115.261 34.7786 115.22 34.517C115.18 34.2554 115.084 34.0054 114.941 33.7831C114.029 32.4667 111.168 32.4485 109.803 32.8528C109.699 32.8832 108.337 33.4609 108 33.625C108.608 32.7312 109.216 31.8465 109.873 30.9983C110.736 29.8492 111.674 28.7575 112.679 27.7301C112.746 27.8061 114.518 29.8582 115.634 30.3507C116.604 30.7885 117.96 31.0773 118.948 30.5392C119.184 30.4202 119.393 30.2528 119.561 30.0478C119.728 29.8428 119.851 29.6049 119.921 29.3494C119.99 29.094 120.005 28.8267 119.965 28.565C119.925 28.3033 119.83 28.053 119.686 27.8304C118.774 26.514 115.91 26.4958 114.548 26.9001C114.439 26.9305 112.977 27.5538 112.724 27.6875C112.782 27.6267 112.837 27.5598 112.898 27.5021C113.93 26.5002 115.049 25.5917 116.242 24.7872C116.899 24.3342 117.552 23.939 118.194 23.5711C118.498 23.9846 119.835 25.8604 120.79 26.4258C121.745 26.9913 123.022 27.4017 124.061 26.9761C124.31 26.8847 124.536 26.7419 124.726 26.557C124.916 26.3721 125.064 26.1493 125.162 25.9031C125.259 25.6569 125.304 25.3928 125.292 25.1282C125.281 24.8637 125.213 24.6045 125.095 24.3676C124.344 22.96 121.489 22.6256 120.091 22.8779C120.015 22.8779 119.255 23.1151 118.704 23.2884C119.008 23.1242 119.297 22.9509 119.58 22.8019C120.644 22.2334 121.653 21.7804 122.55 21.3852C123.061 21.1633 123.526 20.9748 123.967 20.8045C124.463 21.0599 126.481 22.0692 127.57 22.13C128.658 22.1908 130.002 21.9689 130.725 21.1116C130.904 20.9159 131.039 20.6847 131.122 20.4333C131.205 20.1818 131.234 19.9156 131.207 19.6522C131.18 19.3888 131.097 19.134 130.965 18.9046C130.833 18.6751 130.654 18.4762 130.44 18.3207C129.126 17.4086 126.439 18.4332 125.311 19.3027C125.214 19.3787 123.827 20.7285 123.851 20.7437H123.882C123.456 20.9018 123 21.0751 122.508 21.2757C121.596 21.6497 120.58 22.0844 119.501 22.6317C118.333 23.2037 117.2 23.8453 116.108 24.5531C114.878 25.3404 113.72 26.2357 112.648 27.2285L112.612 27.2649C112.84 26.8575 113.442 25.6992 113.478 25.605C113.989 24.2764 114.19 21.4065 112.949 20.4093C112.739 20.2488 112.496 20.1346 112.238 20.074C111.98 20.0135 111.713 20.008 111.452 20.0579C111.192 20.1078 110.946 20.212 110.728 20.3637C110.511 20.5154 110.328 20.7112 110.192 20.9383C109.584 21.8807 109.76 23.2549 110.122 24.2551C110.529 25.3831 112.347 27.2406 112.493 27.3896C111.428 28.4261 110.433 29.5321 109.514 30.7004C108.976 31.3814 108.456 32.0806 107.942 32.789C108.128 32.4302 108.292 32.108 108.31 32.0593C108.818 30.7308 109.021 27.8639 107.778 26.8667C107.567 26.7062 107.325 26.592 107.068 26.5315C106.81 26.471 106.542 26.4655 106.283 26.5155C106.023 26.5654 105.776 26.6696 105.559 26.8213C105.342 26.9729 105.16 27.1687 105.024 27.3957C104.416 28.3381 104.592 29.7123 104.954 30.7125C105.315 31.7127 106.839 33.3423 107.246 33.7527C107.051 34.0263 106.854 34.2969 106.662 34.5705C105.732 35.8869 104.814 37.2064 103.871 38.4711C103.54 38.918 103.196 39.3467 102.856 39.7754C103.02 39.4713 103.16 39.1856 103.175 39.143C103.683 37.8144 103.883 34.9475 102.643 33.9473C102.432 33.7868 102.19 33.6726 101.932 33.612C101.674 33.5515 101.406 33.546 101.146 33.5959C100.886 33.6458 100.639 33.75 100.422 33.9017C100.205 34.0534 100.022 34.2492 99.8856 34.4763C99.2776 35.4188 99.4569 36.7929 99.8187 37.7931C100.181 38.7934 101.555 40.2648 102.038 40.7695C101.673 41.1982 101.311 41.6268 100.941 42.0281C100.679 42.2926 100.448 42.5663 100.171 42.8216L99.3779 43.5817C98.855 44.0499 98.3169 44.5333 97.797 44.9741C97.4352 45.2781 97.0856 45.5821 96.736 45.8649C97.0704 45.424 97.7088 44.5485 97.7544 44.4694C98.3322 43.3585 98.6168 42.1185 98.5814 40.8668C98.6508 40.7458 98.7088 40.6185 98.7547 40.4868C98.8503 40.2399 98.8929 39.9757 98.8796 39.7112C98.8664 39.4468 98.7976 39.1882 98.6777 38.9521C98.5578 38.716 98.3895 38.5079 98.1838 38.3412C97.9781 38.1745 97.7396 38.053 97.4839 37.9847C95.9334 37.6138 93.79 39.5291 93.0543 40.7452C93.0087 40.8181 92.6226 41.6572 92.3885 42.1771C92.4797 41.8457 92.5709 41.5235 92.6591 41.183C92.8415 40.505 93.0026 39.827 93.1789 39.0944C93.2519 38.7386 93.3249 38.3799 93.3978 38.0151C93.4708 37.6503 93.5194 37.2672 93.5802 36.8902C93.7079 36.0116 93.7961 35.1178 93.863 34.2118C94.4558 34.3699 96.5657 34.8989 97.6207 34.7286C98.6756 34.5584 99.9616 34.0507 100.488 33.0565C100.619 32.827 100.701 32.5723 100.728 32.309C100.755 32.0458 100.726 31.7798 100.643 31.5284C100.561 31.277 100.426 31.0458 100.249 30.8497C100.071 30.6536 99.8541 30.4971 99.612 30.3903C98.1345 29.7822 95.7266 31.3601 94.8115 32.4485C94.7538 32.5184 94.1852 33.3605 93.8812 33.85C93.9177 33.3058 93.9572 32.7647 93.9755 32.2113C94.0302 30.6213 94.0332 29.007 94.0454 27.3987C94.0454 26.9062 94.0454 26.4167 94.0667 25.9242C94.2764 25.982 96.7725 26.663 97.9551 26.4745C99.004 26.3042 100.293 25.7965 100.819 24.8024C100.951 24.5729 101.033 24.3182 101.06 24.0549C101.088 23.7915 101.059 23.5254 100.976 23.2738C100.894 23.0223 100.759 22.791 100.581 22.5949C100.403 22.3989 100.186 22.2426 99.9434 22.1361C98.4658 21.5281 96.058 23.1059 95.1429 24.1943C95.076 24.2764 94.2582 25.5107 94.0667 25.833C94.0849 24.7507 94.1092 23.6745 94.1792 22.6104C94.2661 21.1754 94.4458 19.7476 94.7173 18.3359C94.8146 18.3632 97.417 19.0868 98.627 18.8922C99.6758 18.722 100.968 18.2143 101.494 17.2201C101.626 16.9907 101.708 16.736 101.735 16.4726C101.762 16.2092 101.734 15.9431 101.651 15.6916C101.569 15.44 101.434 15.2087 101.256 15.0127C101.078 14.8167 100.861 14.6603 100.618 14.5539C99.1408 13.9458 96.7329 15.5237 95.8178 16.6121C95.7449 16.7002 94.8693 18.0258 94.7264 18.2781C94.7416 18.196 94.7507 18.1109 94.769 18.0288C95.0798 16.6208 95.5153 15.2432 96.0702 13.9124C96.3742 13.1736 96.6934 12.4835 97.0278 11.8207C97.4991 12.0031 99.6606 12.824 100.767 12.7662C101.874 12.7085 103.166 12.3528 103.807 11.4225C103.962 11.209 104.07 10.9656 104.124 10.708C104.179 10.4504 104.179 10.1841 104.125 9.92643C104.07 9.66874 103.963 9.42528 103.808 9.2117C103.654 8.99812 103.457 8.81915 103.23 8.68628C101.828 7.92927 99.2624 9.2244 98.2348 10.2064C98.177 10.2611 97.6693 10.8661 97.3045 11.313C97.4595 11.009 97.6085 10.705 97.7666 10.4253C98.3412 9.36425 98.931 8.4309 99.463 7.60701C99.767 7.13882 100.053 6.72535 100.323 6.33925C100.88 6.27844 103.12 6.00787 104.06 5.45759C104.999 4.90731 105.999 3.98309 106.13 2.86734C106.171 2.60554 106.155 2.33817 106.086 2.08261C106.016 1.82705 105.893 1.58903 105.725 1.38401C105.558 1.17899 105.349 1.01156 105.112 0.892615C104.875 0.773667 104.616 0.705858 104.352 0.693598C102.759 0.666236 101.077 2.99807 100.618 4.34184C100.579 4.4604 100.165 6.35141 100.196 6.34837H100.229C99.9586 6.71319 99.6758 7.10842 99.3749 7.56445C98.8276 8.37618 98.2135 9.30344 97.6146 10.3523C96.9564 11.4792 96.3646 12.6435 95.8421 13.8394C95.2505 15.1742 94.7784 16.5589 94.4315 17.9771V18.0288C94.3981 17.5637 94.2582 16.2655 94.2369 16.1652C93.9329 14.7758 92.5162 12.2737 90.9292 12.1247C90.6647 12.1074 90.3995 12.146 90.1509 12.238C89.9023 12.3299 89.6759 12.4732 89.4863 12.6585C89.2967 12.8437 89.1483 13.0668 89.0507 13.3132C88.953 13.5597 88.9084 13.8239 88.9196 14.0887C88.9105 15.1862 89.8226 16.229 90.6769 16.8644Z" fill="#323232"/>
<path d="M118.287 23.2461C118.303 23.2705 119.616 21.8507 119.689 21.7534C120.531 20.6042 121.483 17.8924 120.549 16.5851C120.388 16.3751 120.185 16.2015 119.952 16.0754C119.719 15.9493 119.463 15.8736 119.199 15.8532C118.935 15.8329 118.67 15.8683 118.421 15.9572C118.171 16.0461 117.944 16.1865 117.752 16.3692C116.91 17.1171 116.725 18.4974 116.81 19.5493C116.91 20.8079 118.287 23.2431 118.287 23.2461Z" fill="#323232"/>
</g>
<path d="M101.027 82.9598L75.9883 70.3186L101.456 19.5625L126.495 32.2036L101.027 82.9598Z" fill="#29CC99" stroke="#29CC99" stroke-miterlimit="10"/>
<path d="M120.939 37.1766C120.54 36.9761 120.186 36.6989 119.895 36.3609C119.604 36.023 119.383 35.6309 119.244 35.2072C119.105 34.7835 119.051 34.3365 119.085 33.8919C119.119 33.4473 119.241 33.0138 119.443 32.6163C119.507 32.493 119.578 32.3732 119.656 32.2576L105.291 25.0098C105.246 25.142 105.192 25.271 105.13 25.3959C104.725 26.1969 104.019 26.8045 103.167 27.085C102.315 27.3655 101.386 27.2959 100.585 26.8916C100.522 26.8608 100.461 26.8263 100.402 26.7883L81.1699 65.1708L81.3615 65.2559C82.1625 65.6604 82.77 66.3664 83.0505 67.2187C83.331 68.0711 83.2615 68.9999 82.8572 69.801C82.7936 69.9264 82.7215 70.0473 82.6414 70.1628L97.0185 77.4198C97.0644 77.2879 97.1182 77.159 97.1796 77.0337C97.3804 76.6357 97.6578 76.2812 97.9958 75.9905C98.3338 75.6999 98.7259 75.4787 99.1495 75.3398C99.5731 75.2008 100.02 75.1468 100.464 75.1808C100.909 75.2148 101.342 75.3361 101.74 75.5379C101.864 75.6015 101.984 75.6736 102.099 75.7537L121.325 37.3287C121.193 37.2868 121.064 37.236 120.939 37.1766ZM98.5051 56.2326C97.5264 55.738 96.7162 54.9643 96.1772 54.0092C95.6381 53.0542 95.3943 51.9608 95.4766 50.8673C95.5589 49.7737 95.9636 48.7291 96.6395 47.8655C97.3154 47.0019 98.2322 46.3582 99.274 46.0156C100.316 45.673 101.436 45.647 102.492 45.9409C103.549 46.2347 104.494 46.8353 105.21 47.6666C105.925 48.4978 106.378 49.5225 106.511 50.6111C106.644 51.6997 106.451 52.8032 105.957 53.7822C105.293 55.0949 104.135 56.0905 102.738 56.55C101.341 57.0095 99.8183 56.8953 98.5051 56.2326Z" fill="white" stroke="#29CC99" stroke-linecap="round" stroke-linejoin="round"/>
<path d="M100.676 83.0706L77.1543 67.7936L107.967 20.0898L131.489 35.3668L100.676 83.0706Z" fill="#29CC99" stroke="#29CC99" stroke-miterlimit="10"/>
<path d="M125.429 39.7083C124.676 39.2193 124.149 38.4516 123.962 37.5737C123.775 36.6958 123.944 35.7796 124.432 35.0264C124.51 34.9106 124.594 34.799 124.684 34.692L111.18 25.918C111.119 26.0444 111.051 26.1673 110.976 26.2858C110.735 26.6598 110.423 26.9826 110.057 27.2358C109.691 27.489 109.279 27.6676 108.844 27.7613C108.409 27.8551 107.96 27.8622 107.523 27.7822C107.085 27.7022 106.668 27.5367 106.294 27.2952C106.236 27.2587 106.182 27.2131 106.124 27.1736L82.8633 63.2334C82.9241 63.2668 82.9849 63.3003 83.0427 63.3398C83.4173 63.5817 83.7405 63.8952 83.9936 64.2624C84.2466 64.6296 84.4246 65.0432 84.5173 65.4795C84.61 65.9157 84.6155 66.3659 84.5336 66.8043C84.4516 67.2427 84.2838 67.6605 84.0398 68.0338C83.9624 68.1511 83.8781 68.2638 83.7875 68.3713L97.2921 77.1423C97.3534 77.0162 97.4214 76.8934 97.4957 76.7744C97.9852 76.0222 98.7532 75.495 99.631 75.3086C100.509 75.1222 101.425 75.2919 102.178 75.7803C102.293 75.8585 102.405 75.9427 102.512 76.0326L125.794 39.912C125.668 39.8513 125.547 39.7832 125.429 39.7083ZM101.065 56.2257C100.144 55.6283 99.4216 54.7714 98.988 53.7632C98.5545 52.755 98.4297 51.6409 98.6294 50.5618C98.8291 49.4826 99.3443 48.487 100.11 47.7007C100.875 46.9144 101.857 46.3728 102.93 46.1445C104.004 45.9161 105.121 46.0112 106.14 46.4177C107.16 46.8242 108.036 47.5239 108.657 48.4282C109.279 49.3326 109.619 50.401 109.633 51.4984C109.647 52.5957 109.336 53.6727 108.738 54.5931C107.937 55.827 106.679 56.6921 105.24 56.9983C103.801 57.3044 102.299 57.0265 101.065 56.2257Z" fill="white" stroke="#29CC99" stroke-linecap="round" stroke-linejoin="round"/>
<path d="M100.217 83.1524L79.0332 64.7653L116.154 21.7891L137.335 40.1731L100.217 83.1524Z" fill="#29CC99" stroke="#29CC99" stroke-miterlimit="10"/>
<path d="M130.732 43.6325C130.368 43.3191 130.075 42.9316 129.874 42.496C129.672 42.0604 129.565 41.5867 129.561 41.1066C129.557 40.6265 129.656 40.1511 129.85 39.7122C130.045 39.2732 130.331 38.8809 130.689 38.5614L118.528 28.0059C118.451 28.1222 118.367 28.2338 118.276 28.3403C117.985 28.6763 117.63 28.9515 117.232 29.1504C116.835 29.3492 116.402 29.4676 115.958 29.499C115.514 29.5303 115.069 29.4739 114.647 29.333C114.225 29.1921 113.836 28.9694 113.5 28.6777C113.445 28.6291 113.397 28.5805 113.348 28.5318L85.3203 61.0407C85.375 61.0832 85.4328 61.1227 85.4845 61.1714C85.8482 61.4848 86.1408 61.8723 86.3427 62.3079C86.5445 62.7435 86.6511 63.2172 86.6551 63.6973C86.6591 64.1774 86.5606 64.6528 86.366 65.0917C86.1715 65.5307 85.8854 65.923 85.527 66.2424L97.6878 76.798C97.7658 76.682 97.8501 76.5704 97.9402 76.4636C98.2511 76.0959 98.6377 75.7996 99.0736 75.5951C99.5095 75.3906 99.9844 75.2826 100.466 75.2786C100.947 75.2746 101.424 75.3745 101.863 75.5717C102.303 75.7689 102.694 76.0586 103.011 76.421L131.066 43.8909C130.949 43.8129 130.837 43.7266 130.732 43.6325ZM104.319 56.6202C103.49 55.901 102.892 54.9522 102.603 53.8936C102.313 52.8351 102.344 51.7144 102.691 50.6733C103.039 49.6323 103.687 48.7176 104.554 48.045C105.421 47.3724 106.468 46.9721 107.563 46.8947C108.658 46.8173 109.751 47.0663 110.704 47.6102C111.657 48.1541 112.428 48.9684 112.918 49.9502C113.409 50.9321 113.597 52.0372 113.459 53.126C113.321 54.2148 112.864 55.2382 112.144 56.0669C111.667 56.6173 111.086 57.0682 110.434 57.3939C109.782 57.7196 109.073 57.9137 108.346 57.9651C107.619 58.0164 106.889 57.9241 106.198 57.6934C105.507 57.4626 104.869 57.098 104.319 56.6202Z" fill="white" stroke="#29CC99" stroke-linecap="round" stroke-linejoin="round"/>
<path d="M100.156 84.5315L81.623 63.4812L124.155 25.8496L142.688 46.903L100.156 84.5315Z" fill="#29CC99" stroke="#29CC99" stroke-miterlimit="10"/>
<path d="M135.692 49.4476C135.1 48.7736 134.799 47.8921 134.856 46.9966C134.913 46.1011 135.323 45.2649 135.996 44.6714C136.102 44.5792 136.213 44.4939 136.33 44.4161L125.69 32.3282C125.374 32.6906 124.984 32.9811 124.547 33.1802C124.11 33.3792 123.635 33.4822 123.154 33.4822C122.674 33.4822 122.199 33.3792 121.761 33.1802C121.324 32.9811 120.934 32.6906 120.619 32.3282C120.57 32.2735 120.53 32.2188 120.488 32.1641L88.3469 60.6264C88.3955 60.6781 88.4472 60.7237 88.4928 60.7784C88.7865 61.112 89.0116 61.5001 89.1553 61.9207C89.2989 62.3412 89.3584 62.7859 89.3301 63.2295C89.3019 63.673 89.1866 64.1066 88.9907 64.5055C88.7949 64.9045 88.5224 65.2609 88.1888 65.5546C88.0832 65.6459 87.9726 65.7311 87.8574 65.8099L98.4981 77.8978C98.5922 77.7894 98.6937 77.6878 98.8021 77.5938C99.1355 77.2997 99.5236 77.0743 99.9442 76.9304C100.365 76.7865 100.81 76.727 101.253 76.7552C101.697 76.7834 102.131 76.8989 102.53 77.0949C102.929 77.291 103.285 77.5638 103.578 77.8978C103.67 78.0028 103.756 78.1134 103.834 78.2292L135.987 49.7364C135.883 49.6461 135.784 49.5497 135.692 49.4476ZM107.78 58.784C107.055 57.9607 106.592 56.9411 106.447 55.854C106.302 54.767 106.482 53.6614 106.966 52.6771C107.449 51.6927 108.213 50.8737 109.162 50.3237C110.111 49.7737 111.201 49.5174 112.296 49.5871C113.39 49.6568 114.439 50.0494 115.311 50.7153C116.182 51.3813 116.836 52.2906 117.191 53.3283C117.545 54.366 117.584 55.4856 117.303 56.5454C117.021 57.6053 116.431 58.5578 115.608 59.2826C115.061 59.7661 114.424 60.1367 113.733 60.3733C113.042 60.61 112.312 60.7079 111.583 60.6616C110.854 60.6153 110.142 60.4256 109.487 60.1034C108.831 59.7812 108.246 59.3329 107.765 58.784H107.78Z" fill="white" stroke="#29CC99" stroke-linecap="round" stroke-linejoin="round"/>
<path d="M94.7196 107.776L146.886 85.9684C147.329 85.7811 147.68 85.4266 147.863 84.982C148.045 84.5373 148.045 84.0386 147.862 83.594L134.868 52.505C134.681 52.0615 134.326 51.7101 133.881 51.5273C133.435 51.3445 132.936 51.3451 132.491 51.5291L80.3242 73.3303C79.8815 73.5177 79.5306 73.8722 79.3479 74.3168C79.1651 74.7614 79.1653 75.2602 79.3483 75.7047L92.3421 106.8C92.5294 107.243 92.8845 107.595 93.3298 107.778C93.7751 107.96 94.2747 107.96 94.7196 107.776Z" fill="#FFA95C" stroke="#FFA95C" stroke-linecap="round" stroke-linejoin="round"/>
<path d="M85.8414 79.7783L88.9824 81.1439C89.7547 81.4797 90.6531 81.1258 90.9889 80.3535L92.3546 77.2125C92.6904 76.4401 92.3365 75.5417 91.5641 75.2059L88.4231 73.8403C87.6507 73.5045 86.7524 73.8584 86.4166 74.6307L85.0509 77.7717C84.7151 78.5441 85.069 79.4424 85.8414 79.7783Z" fill="white" stroke="#FFA95C" stroke-width="1.00319" stroke-miterlimit="10"/>
<path d="M136.399 84.6473L142.275 82.1914L141.259 79.7594L135.382 82.2152L136.399 84.6473Z" fill="white" stroke="#FFA95C" stroke-miterlimit="10"/>
<path d="M128.596 87.9109L134.473 85.4551L133.456 83.023L127.58 85.4789L128.596 87.9109Z" fill="white" stroke="#FFA95C" stroke-miterlimit="10"/>
<path d="M120.797 91.1668L126.674 88.7109L125.657 86.2789L119.781 88.7348L120.797 91.1668Z" fill="white" stroke="#FFA95C" stroke-miterlimit="10"/>
<path d="M112.996 94.4266L118.873 91.9707L117.857 89.5387L111.98 91.9945L112.996 94.4266Z" fill="white" stroke="#FFA95C" stroke-miterlimit="10"/>
<path d="M105.194 97.6883L111.07 95.2324L110.054 92.8004L104.177 95.2563L105.194 97.6883Z" fill="white" stroke="#FFA95C" stroke-miterlimit="10"/>
<path d="M97.3909 100.95L103.268 98.4941L102.251 96.0621L96.3745 98.518L97.3909 100.95Z" fill="white" stroke="#FFA95C" stroke-miterlimit="10"/>
<path d="M127.051 79.0348L137.96 74.4759C138.473 74.2616 138.715 73.6722 138.501 73.1594L135.297 65.493C135.083 64.9802 134.493 64.7383 133.98 64.9526L123.071 69.5114C122.559 69.7257 122.317 70.3152 122.531 70.828L125.735 78.4943C125.949 79.0071 126.538 79.2491 127.051 79.0348Z" fill="white" stroke="#FFA95C" stroke-miterlimit="10"/>
<path d="M104.235 69.7643L132.199 58.0781L131.606 56.6587L103.642 68.3449L104.235 69.7643Z" fill="white" stroke="#FFA95C" stroke-miterlimit="10"/>
<path d="M95.6156 18.6769V113.379C95.6148 114.627 95.1188 115.824 94.2363 116.706C93.3539 117.588 92.1573 118.085 90.9094 118.085H49.9914C48.7435 118.085 47.5469 117.588 46.6645 116.706C45.7821 115.824 45.286 114.627 45.2852 113.379V18.6739C45.2852 17.4265 45.7807 16.2303 46.6627 15.3482C47.5447 14.4662 48.741 13.9707 49.9883 13.9707H67.5516V14.0254C67.9894 15.6002 68.9957 16.6248 70.1145 16.6248H70.7559C71.8747 16.6248 72.8841 15.6002 73.3188 14.0254L73.3371 13.9707H90.9094C91.5275 13.9707 92.1394 14.0924 92.7104 14.3289C93.2814 14.5655 93.8002 14.9121 94.2372 15.3491C94.6742 15.7861 95.0209 16.3049 95.2574 16.8759C95.4939 17.4469 95.6156 18.0589 95.6156 18.6769Z" fill="white" stroke="#323232" stroke-linecap="round" stroke-linejoin="round"/>
<path d="M95.6156 41.673V18.6769C95.6156 18.0589 95.4939 17.4469 95.2574 16.8759C95.0209 16.3049 94.6742 15.7861 94.2372 15.3491C93.8002 14.9121 93.2814 14.5655 92.7104 14.3289C92.1394 14.0924 91.5275 13.9707 90.9094 13.9707H73.3675L73.3492 14.0254C72.9114 15.6002 71.9051 16.6248 70.7863 16.6248H70.1449C69.0261 16.6248 68.0167 15.6002 67.582 14.0254V13.9707H49.9883C48.741 13.9707 47.5447 14.4662 46.6627 15.3482C45.7807 16.2303 45.2852 17.4265 45.2852 18.6739V41.673H95.6156Z" fill="#7B55D3" stroke="#323232" stroke-miterlimit="10"/>
<path d="M85.1711 72.3164H55.4166C53.8047 72.3164 52.498 73.6231 52.498 75.235V84.4924C52.498 86.1043 53.8047 87.411 55.4166 87.411H85.1711C86.783 87.411 88.0897 86.1043 88.0897 84.4924V75.235C88.0897 73.6231 86.783 72.3164 85.1711 72.3164Z" fill="#7B55D3" stroke="#323232" stroke-miterlimit="10"/>
<path d="M95.6156 23.0822V18.6769C95.6156 18.0589 95.4939 17.4469 95.2574 16.8759C95.0209 16.3049 94.6742 15.7861 94.2372 15.3491C93.8002 14.9121 93.2814 14.5655 92.7104 14.3289C92.1394 14.0924 91.5275 13.9707 90.9094 13.9707H73.3675L73.3492 14.0254C72.9114 15.6002 71.9051 16.6248 70.7863 16.6248H70.1449C69.0261 16.6248 68.0167 15.6002 67.582 14.0254V13.9707H49.9883C48.741 13.9707 47.5447 14.4662 46.6627 15.3482C45.7807 16.2303 45.2852 17.4265 45.2852 18.6739V23.0822H95.6156Z" fill="#DBDBDB" stroke="#323232" stroke-linecap="round" stroke-linejoin="round"/>
<path d="M45.2852 112.639V113.38C45.286 114.628 45.7821 115.825 46.6645 116.707C47.5469 117.59 48.7435 118.086 49.9914 118.087H90.9094C92.1573 118.086 93.3539 117.59 94.2363 116.707C95.1188 115.825 95.6148 114.628 95.6156 113.38V112.639H45.2852Z" fill="#DBDBDB" stroke="#323232" stroke-linecap="round" stroke-linejoin="round"/>
<path d="M98.8183 41.2965V31.8536H97.964V19.7293C97.9632 17.7495 97.1762 15.8511 95.776 14.4515C94.3758 13.0519 92.4771 12.2656 90.4973 12.2656H50.4062C48.4264 12.2656 46.5277 13.0519 45.1275 14.4515C43.7273 15.8511 42.9403 17.7495 42.9395 19.7293V115.952C42.9403 117.931 43.7273 119.83 45.1275 121.229C46.5277 122.629 48.4264 123.415 50.4062 123.415H90.4973C92.4771 123.415 94.3758 122.629 95.776 121.229C97.1762 119.83 97.9632 117.931 97.964 115.952V49.3713H98.8183V43.7682H97.964V41.2965H98.8183ZM95.617 110.613C95.617 112.593 94.8307 114.492 93.4311 115.892C92.0315 117.292 90.1331 118.079 88.1533 118.08H52.7502C50.7704 118.079 48.872 117.292 47.4724 115.892C46.0727 114.492 45.2865 112.593 45.2865 110.613V21.4349C45.2865 19.4554 46.0728 17.557 47.4725 16.1572C48.8723 14.7575 50.7707 13.9712 52.7502 13.9712H67.5529V14.0259C67.9907 15.6007 68.997 16.6253 70.1158 16.6253H70.7573C71.8761 16.6253 72.8854 15.6007 73.3202 14.0259L73.3384 13.9712H88.1381C90.1176 13.9712 92.016 14.7575 93.4157 16.1572C94.8154 17.557 95.6018 19.4554 95.6018 21.4349L95.617 110.613Z" fill="#7B55D3" stroke="#323232" stroke-linecap="round" stroke-linejoin="round"/>
<path d="M89.8991 13.3086H51.0058C49.0965 13.3086 47.2653 14.0671 45.9152 15.4172C44.5651 16.7673 43.8066 18.5984 43.8066 20.5078V115.189C43.8066 117.098 44.5651 118.929 45.9152 120.279C47.2653 121.629 49.0965 122.388 51.0058 122.388H89.8991C91.8084 122.388 93.6396 121.629 94.9897 120.279C96.3398 118.929 97.0983 117.098 97.0983 115.189V20.4926C97.0943 18.5859 96.334 16.7586 94.9843 15.4118C93.6347 14.065 91.8058 13.3086 89.8991 13.3086ZM95.6177 110.899C95.6177 112.809 94.8593 114.64 93.5093 115.991C92.1593 117.341 90.3281 118.1 88.4185 118.101H52.4864C50.5768 118.1 48.7457 117.341 47.3956 115.991C46.0456 114.64 45.2872 112.809 45.2872 110.899V21.1675C45.2872 20.2225 45.4734 19.2867 45.835 18.4137C46.1966 17.5406 46.7267 16.7473 47.3949 16.0791C48.0631 15.4108 48.8564 14.8808 49.7295 14.5191C50.6026 14.1575 51.5384 13.9714 52.4834 13.9714H67.5536V14.0261C67.9914 15.6009 68.9977 16.6255 70.1165 16.6255H70.758C71.8768 16.6255 72.8861 15.6009 73.3209 14.0261L73.3391 13.9714H88.4185C90.3279 13.9714 92.159 14.7298 93.5091 16.08C94.8592 17.4301 95.6177 19.2612 95.6177 21.1705V110.899Z" fill="#323232" stroke="#323232" stroke-linecap="round" stroke-linejoin="round"/>
<path d="M70.9983 14.3273C70.9983 14.1883 70.9571 14.0524 70.8797 13.9368C70.8024 13.8212 70.6926 13.7312 70.5641 13.6782C70.4356 13.6251 70.2942 13.6114 70.1579 13.6387C70.0216 13.6661 69.8965 13.7333 69.7984 13.8318C69.7003 13.9303 69.6336 14.0557 69.6069 14.1921C69.5801 14.3286 69.5945 14.4699 69.6481 14.5981C69.7017 14.7264 69.7922 14.8359 69.9081 14.9127C70.024 14.9895 70.16 15.0302 70.2991 15.0296C70.3912 15.0296 70.4823 15.0114 70.5674 14.976C70.6524 14.9407 70.7296 14.8889 70.7946 14.8237C70.8596 14.7584 70.911 14.681 70.946 14.5958C70.9809 14.5106 70.9987 14.4194 70.9983 14.3273Z" fill="white"/>
<path d="M49.7572 17.0132C49.7572 17.7216 48.9607 17.9769 48.9576 18.5333V18.5698H49.7298V18.7796H48.6992V18.5789C48.6992 17.8189 49.4957 17.6668 49.4957 17.0102C49.4957 16.7669 49.4167 16.6393 49.2221 16.6393C49.0276 16.6393 48.9455 16.7791 48.9455 16.9858V17.1956H48.6992V17.0162C48.6992 16.6575 48.8634 16.4082 49.2282 16.4082C49.593 16.4082 49.7572 16.6514 49.7572 17.0132Z" fill="#323232"/>
<path d="M51.0465 17.0123V17.0701C51.0577 17.1712 51.0359 17.2731 50.9844 17.3608C50.9329 17.4485 50.8545 17.5171 50.7607 17.5565C50.8548 17.5955 50.9335 17.6641 50.9851 17.7519C51.0367 17.8396 51.0582 17.9418 51.0465 18.043V18.2254C51.0465 18.5841 50.8762 18.8334 50.5145 18.8334C50.1527 18.8334 49.9885 18.5993 49.9885 18.2254V18.0612H50.2317V18.2406C50.2317 18.4534 50.3199 18.5811 50.5084 18.5811C50.6969 18.5811 50.785 18.4564 50.785 18.2163V18.0369C50.785 17.8028 50.6847 17.6933 50.481 17.6873H50.3412V17.4501H50.4962C50.5369 17.4505 50.5772 17.4421 50.6144 17.4255C50.6515 17.4089 50.6847 17.3845 50.7115 17.3539C50.7384 17.3233 50.7583 17.2872 50.7699 17.2482C50.7816 17.2092 50.7846 17.1682 50.779 17.1279V17.0215C50.779 16.7782 50.6938 16.6536 50.5023 16.6536C50.3108 16.6536 50.2256 16.7874 50.2256 16.9971V17.1187H49.9824V17.0123C49.9824 16.6506 50.1496 16.4043 50.5084 16.4043C50.8671 16.4043 51.0465 16.6536 51.0465 17.0123Z" fill="#323232"/>
<path d="M51.5551 17.1895V17.5148H51.3027V17.1895H51.5551ZM51.5551 18.4694V18.7825H51.3027V18.4785L51.5551 18.4694Z" fill="#323232"/>
<path d="M52.087 17.401C52.1214 17.3393 52.1724 17.2884 52.2341 17.254C52.2959 17.2196 52.366 17.2032 52.4366 17.2064C52.7406 17.2064 52.8744 17.4284 52.8744 17.7628V18.2249C52.8744 18.5837 52.7041 18.833 52.3424 18.833C51.9806 18.833 51.8164 18.5989 51.8164 18.2249V18.0668H52.0596V18.2401C52.0596 18.4529 52.1478 18.5806 52.3363 18.5806C52.5248 18.5806 52.6129 18.4529 52.6129 18.2401V17.7841C52.6129 17.5713 52.5248 17.4436 52.3363 17.4436C52.3022 17.4424 52.2683 17.448 52.2365 17.4601C52.2046 17.4722 52.1755 17.4905 52.1509 17.514C52.1262 17.5375 52.1065 17.5657 52.0929 17.597C52.0794 17.6282 52.0722 17.6619 52.0718 17.6959V17.7506H51.8255L51.8894 16.4434H52.8014V16.6775H52.1083L52.087 17.401Z" fill="#323232"/>
<path d="M54.1806 17.0063V17.0519H53.9344V16.9911C53.9344 16.7782 53.8492 16.6536 53.6577 16.6536C53.4662 16.6536 53.3719 16.7813 53.3719 17.0336V17.5657C53.3988 17.4884 53.4502 17.422 53.5182 17.3764C53.5862 17.3309 53.6672 17.3088 53.7489 17.3133C54.0529 17.3133 54.1867 17.5322 54.1867 17.8697V18.2284C54.1867 18.5872 54.0104 18.8365 53.6486 18.8365C53.2868 18.8365 53.1074 18.6024 53.1074 18.2284V17.0123C53.1074 16.6384 53.2777 16.4043 53.6486 16.4043C54.0195 16.4043 54.1806 16.6536 54.1806 17.0063ZM53.3719 17.8879V18.2406C53.3719 18.4534 53.457 18.5811 53.6486 18.5811C53.8401 18.5811 53.9283 18.4534 53.9283 18.2406V17.8879C53.9283 17.6751 53.8371 17.5474 53.6486 17.5474C53.4601 17.5474 53.3719 17.6751 53.3719 17.8879Z" fill="#323232"/>
<path d="M79.8542 17.1094H79.1914V18.7693H79.8542V17.1094Z" fill="#323232"/>
<path d="M80.737 16.7773H80.0742V18.7687H80.737V16.7773Z" fill="#323232"/>
<path d="M81.6237 16.5391H80.9609V18.7675H81.6237V16.5391Z" fill="#323232"/>
<path d="M82.5104 16.1289H81.8477V18.7678H82.5104V16.1289Z" fill="#323232"/>
<path d="M90.7307 18.7251H86.748V16.293H90.7307V18.7251ZM86.9669 18.5032H90.5088V16.5088H86.9669V18.5032Z" fill="#323232"/>
<path d="M89.4007 16.7539H87.2969V18.2649H89.4007V16.7539Z" fill="#323232"/>
<path d="M91.0915 17.2207H90.5898V17.7953H91.0915V17.2207Z" fill="#323232"/>
<path d="M85.2827 18.1929C85.2559 18.1934 85.2294 18.186 85.2067 18.1716C84.395 17.6913 83.8599 18.1382 83.8356 18.1716C83.8212 18.1847 83.8044 18.1947 83.7861 18.201C83.7677 18.2073 83.7483 18.2099 83.729 18.2084C83.7096 18.207 83.6908 18.2017 83.6736 18.1927C83.6563 18.1838 83.6411 18.1714 83.6289 18.1564C83.6153 18.1429 83.6045 18.1268 83.5971 18.109C83.5897 18.0913 83.5859 18.0723 83.5859 18.0531C83.5859 18.0339 83.5897 18.0148 83.5971 17.9971C83.6045 17.9794 83.6153 17.9633 83.6289 17.9497C83.6593 17.9223 84.3433 17.3417 85.3466 17.9315C85.3804 17.9517 85.4048 17.9845 85.4144 18.0226C85.4241 18.0608 85.4183 18.1013 85.3983 18.1351C85.3849 18.1532 85.3675 18.1678 85.3474 18.1778C85.3273 18.1879 85.3052 18.193 85.2827 18.1929Z" fill="#323232"/>
<path d="M85.5856 17.697C85.5587 17.6979 85.5321 17.6905 85.5096 17.6757C84.3361 16.9795 83.5487 17.6514 83.5395 17.6757C83.5248 17.6887 83.5076 17.6987 83.489 17.705C83.4704 17.7113 83.4507 17.7139 83.4311 17.7127C83.4114 17.7114 83.3923 17.7063 83.3746 17.6976C83.357 17.6889 83.3412 17.6768 83.3282 17.6621C83.3153 17.6473 83.3053 17.6301 83.299 17.6115C83.2927 17.5929 83.2901 17.5732 83.2913 17.5536C83.2926 17.534 83.2977 17.5148 83.3064 17.4971C83.3151 17.4795 83.3271 17.4637 83.3419 17.4508C83.3419 17.4508 84.3026 16.6299 85.6616 17.4508C85.6948 17.4715 85.7187 17.5043 85.7283 17.5422C85.7379 17.5802 85.7326 17.6204 85.7133 17.6545C85.6964 17.6705 85.6763 17.6826 85.6542 17.69C85.6321 17.6974 85.6087 17.6998 85.5856 17.697Z" fill="#323232"/>
<path d="M85.8562 17.114C85.8293 17.1142 85.803 17.1068 85.7802 17.0928C84.2965 16.2111 83.3085 17.0411 83.2659 17.0776C83.2523 17.0916 83.236 17.1028 83.218 17.1104C83.2 17.1181 83.1806 17.122 83.161 17.122C83.1414 17.122 83.1221 17.1181 83.1041 17.1104C83.086 17.1028 83.0697 17.0916 83.0561 17.0776C83.0313 17.0479 83.019 17.0097 83.0219 16.9711C83.0247 16.9325 83.0425 16.8966 83.0713 16.8708C83.0713 16.8708 84.254 15.8554 85.9322 16.8526C85.966 16.8728 85.9904 16.9056 86 16.9438C86.0097 16.9819 86.0039 17.0224 85.9838 17.0563C85.9693 17.0761 85.9499 17.0918 85.9276 17.1019C85.9052 17.112 85.8806 17.1162 85.8562 17.114Z" fill="#323232"/>
<path d="M84.8358 18.4451C84.8364 18.5192 84.8149 18.5918 84.7742 18.6537C84.7335 18.7156 84.6753 18.764 84.607 18.7928C84.5388 18.8215 84.4635 18.8294 84.3908 18.8153C84.318 18.8012 84.2511 18.7658 84.1985 18.7137C84.1459 18.6615 84.11 18.5949 84.0953 18.5222C84.0806 18.4496 84.0878 18.3743 84.1161 18.3058C84.1443 18.2373 84.1922 18.1787 84.2538 18.1375C84.3153 18.0962 84.3877 18.0742 84.4618 18.0742C84.5605 18.0742 84.6551 18.1132 84.7252 18.1827C84.7952 18.2521 84.835 18.3465 84.8358 18.4451Z" fill="#323232"/>
<path d="M61.3182 57.7273V50.4545H61.7841V57.7273H61.3182ZM62.8864 52.6364C62.8523 52.3485 62.714 52.125 62.4716 51.9659C62.2292 51.8068 61.9318 51.7273 61.5795 51.7273C61.322 51.7273 61.0966 51.7689 60.9034 51.8523C60.7121 51.9356 60.5625 52.0502 60.4545 52.196C60.3485 52.3419 60.2955 52.5076 60.2955 52.6932C60.2955 52.8485 60.3324 52.982 60.4062 53.0938C60.482 53.2036 60.5786 53.2955 60.696 53.3693C60.8134 53.4413 60.9366 53.5009 61.0653 53.5483C61.1941 53.5937 61.3125 53.6307 61.4205 53.6591L62.0114 53.8182C62.1629 53.858 62.3314 53.9129 62.517 53.983C62.7045 54.053 62.8835 54.1487 63.054 54.2699C63.2263 54.3892 63.3684 54.5426 63.4801 54.7301C63.5919 54.9176 63.6477 55.1477 63.6477 55.4205C63.6477 55.7348 63.5653 56.0189 63.4006 56.2727C63.2377 56.5265 62.9991 56.7282 62.6847 56.8778C62.3722 57.0275 61.9924 57.1023 61.5455 57.1023C61.1288 57.1023 60.768 57.035 60.4631 56.9006C60.16 56.7661 59.9214 56.5786 59.7472 56.3381C59.5748 56.0975 59.4773 55.8182 59.4545 55.5H60.1818C60.2008 55.7197 60.2746 55.9015 60.4034 56.0455C60.5341 56.1875 60.6989 56.2936 60.8977 56.3636C61.0985 56.4318 61.3144 56.4659 61.5455 56.4659C61.8144 56.4659 62.0559 56.4223 62.2699 56.3352C62.4839 56.2462 62.6534 56.1231 62.7784 55.9659C62.9034 55.8068 62.9659 55.6212 62.9659 55.4091C62.9659 55.2159 62.9119 55.0587 62.804 54.9375C62.696 54.8163 62.554 54.7178 62.3778 54.642C62.2017 54.5663 62.0114 54.5 61.8068 54.4432L61.0909 54.2386C60.6364 54.108 60.2765 53.9214 60.0114 53.679C59.7462 53.4366 59.6136 53.1193 59.6136 52.7273C59.6136 52.4015 59.7017 52.1174 59.8778 51.875C60.0559 51.6307 60.2945 51.4413 60.5938 51.3068C60.8949 51.1705 61.2311 51.1023 61.6023 51.1023C61.9773 51.1023 62.3106 51.1695 62.6023 51.304C62.8939 51.4366 63.125 51.6184 63.2955 51.8494C63.4678 52.0805 63.5587 52.3428 63.5682 52.6364H62.8864ZM66.5675 57.0795C66.1773 57.0795 65.8326 57.0104 65.5334 56.8722C65.236 56.732 65.004 56.5398 64.8374 56.2955C64.6707 56.0492 64.5883 55.7689 64.5902 55.4545C64.5883 55.2083 64.6366 54.9811 64.7351 54.7727C64.8336 54.5625 64.968 54.3873 65.1385 54.2472C65.3108 54.1051 65.5031 54.0152 65.7152 53.9773V53.9432C65.4368 53.8712 65.2152 53.715 65.0504 53.4744C64.8857 53.232 64.8042 52.9564 64.8061 52.6477C64.8042 52.3523 64.879 52.0881 65.0305 51.8551C65.1821 51.6222 65.3904 51.4384 65.6555 51.304C65.9226 51.1695 66.2266 51.1023 66.5675 51.1023C66.9046 51.1023 67.2057 51.1695 67.4709 51.304C67.736 51.4384 67.9444 51.6222 68.0959 51.8551C68.2493 52.0881 68.3269 52.3523 68.3288 52.6477C68.3269 52.9564 68.2427 53.232 68.076 53.4744C67.9112 53.715 67.6925 53.8712 67.4197 53.9432V53.9773C67.63 54.0152 67.8194 54.1051 67.9879 54.2472C68.1565 54.3873 68.291 54.5625 68.3913 54.7727C68.4917 54.9811 68.5429 55.2083 68.5447 55.4545C68.5429 55.7689 68.4576 56.0492 68.2891 56.2955C68.1224 56.5398 67.8904 56.732 67.593 56.8722C67.2976 57.0104 66.9557 57.0795 66.5675 57.0795ZM66.5675 56.4545C66.8307 56.4545 67.058 56.4119 67.2493 56.3267C67.4406 56.2415 67.5883 56.1212 67.6925 55.9659C67.7966 55.8106 67.8497 55.6288 67.8516 55.4205C67.8497 55.2008 67.7929 55.0066 67.6811 54.8381C67.5694 54.6695 67.4169 54.5369 67.2237 54.4403C67.0324 54.3437 66.8137 54.2955 66.5675 54.2955C66.3194 54.2955 66.0978 54.3437 65.9027 54.4403C65.7095 54.5369 65.5571 54.6695 65.4453 54.8381C65.3355 55.0066 65.2815 55.2008 65.2834 55.4205C65.2815 55.6288 65.3317 55.8106 65.4339 55.9659C65.5381 56.1212 65.6868 56.2415 65.88 56.3267C66.0732 56.4119 66.3023 56.4545 66.5675 56.4545ZM66.5675 53.6932C66.7758 53.6932 66.9605 53.6515 67.1214 53.5682C67.2843 53.4848 67.4122 53.3684 67.505 53.2188C67.5978 53.0691 67.6451 52.8939 67.647 52.6932C67.6451 52.4962 67.5987 52.3248 67.5078 52.179C67.4169 52.0312 67.291 51.9176 67.13 51.8381C66.969 51.7566 66.7815 51.7159 66.5675 51.7159C66.3497 51.7159 66.1593 51.7566 65.9964 51.8381C65.8336 51.9176 65.7076 52.0312 65.6186 52.179C65.5296 52.3248 65.486 52.4962 65.4879 52.6932C65.486 52.8939 65.5305 53.0691 65.6214 53.2188C65.7143 53.3684 65.8421 53.4848 66.005 53.5682C66.1679 53.6515 66.3554 53.6932 66.5675 53.6932ZM71.5312 57.0795C71.1032 57.0795 70.7386 56.9631 70.4375 56.7301C70.1364 56.4953 69.9063 56.1553 69.7472 55.7102C69.5881 55.2633 69.5085 54.7235 69.5085 54.0909C69.5085 53.4621 69.5881 52.9252 69.7472 52.4801C69.9081 52.0331 70.1392 51.6922 70.4403 51.4574C70.7434 51.2206 71.107 51.1023 71.5312 51.1023C71.9555 51.1023 72.3182 51.2206 72.6193 51.4574C72.9223 51.6922 73.1534 52.0331 73.3125 52.4801C73.4735 52.9252 73.554 53.4621 73.554 54.0909C73.554 54.7235 73.4744 55.2633 73.3153 55.7102C73.1562 56.1553 72.9261 56.4953 72.625 56.7301C72.3239 56.9631 71.9593 57.0795 71.5312 57.0795ZM71.5312 56.4545C71.9555 56.4545 72.285 56.25 72.5199 55.8409C72.7547 55.4318 72.8722 54.8485 72.8722 54.0909C72.8722 53.5871 72.8182 53.1581 72.7102 52.804C72.6042 52.4498 72.4508 52.1799 72.25 51.9943C72.0511 51.8087 71.8116 51.7159 71.5312 51.7159C71.1108 51.7159 70.7822 51.9233 70.5455 52.3381C70.3087 52.7509 70.1903 53.3352 70.1903 54.0909C70.1903 54.5947 70.2434 55.0227 70.3494 55.375C70.4555 55.7273 70.608 55.9953 70.8068 56.179C71.0076 56.3627 71.2491 56.4545 71.5312 56.4545ZM74.9304 57.0455C74.7902 57.0455 74.67 56.9953 74.5696 56.8949C74.4692 56.7945 74.419 56.6742 74.419 56.5341C74.419 56.3939 74.4692 56.2737 74.5696 56.1733C74.67 56.0729 74.7902 56.0227 74.9304 56.0227C75.0705 56.0227 75.1908 56.0729 75.2912 56.1733C75.3916 56.2737 75.4418 56.3939 75.4418 56.5341C75.4418 56.6269 75.4181 56.7121 75.3707 56.7898C75.3253 56.8674 75.2637 56.9299 75.1861 56.9773C75.1103 57.0227 75.0251 57.0455 74.9304 57.0455ZM78.4311 51.1023C78.6697 51.1042 78.9084 51.1496 79.147 51.2386C79.3857 51.3277 79.6035 51.4754 79.8004 51.6818C79.9974 51.8864 80.1555 52.1657 80.2749 52.5199C80.3942 52.8741 80.4538 53.3182 80.4538 53.8523C80.4538 54.3693 80.4046 54.8286 80.3061 55.2301C80.2095 55.6297 80.0694 55.9669 79.8857 56.2415C79.7038 56.5161 79.4822 56.7244 79.2209 56.8665C78.9614 57.0085 78.6679 57.0795 78.3402 57.0795C78.0144 57.0795 77.7237 57.0152 77.468 56.8864C77.2143 56.7557 77.0059 56.5748 76.843 56.3438C76.6821 56.1108 76.5788 55.8409 76.5334 55.5341H77.2266C77.2891 55.8011 77.4131 56.0218 77.5987 56.196C77.7862 56.3684 78.0334 56.4545 78.3402 56.4545C78.7891 56.4545 79.1432 56.2585 79.4027 55.8665C79.6641 55.4744 79.7947 54.9205 79.7947 54.2045H79.7493C79.6432 54.3636 79.5173 54.5009 79.3714 54.6165C79.2256 54.732 79.0637 54.821 78.8857 54.8835C78.7076 54.946 78.5182 54.9773 78.3175 54.9773C77.9841 54.9773 77.6783 54.8949 77.3999 54.7301C77.1233 54.5634 76.9018 54.3352 76.7351 54.0455C76.5703 53.7538 76.4879 53.4205 76.4879 53.0455C76.4879 52.6894 76.5675 52.3636 76.7266 52.0682C76.8875 51.7708 77.1129 51.5341 77.4027 51.358C77.6944 51.1818 78.0372 51.0966 78.4311 51.1023ZM78.4311 51.7273C78.1925 51.7273 77.9775 51.7869 77.7862 51.9062C77.5968 52.0237 77.4463 52.1828 77.3345 52.3835C77.2247 52.5824 77.1697 52.803 77.1697 53.0455C77.1697 53.2879 77.2228 53.5085 77.3288 53.7074C77.4368 53.9044 77.5836 54.0616 77.7692 54.179C77.9567 54.2945 78.1697 54.3523 78.4084 54.3523C78.5883 54.3523 78.7559 54.3172 78.9112 54.2472C79.0665 54.1752 79.2019 54.0777 79.3175 53.9545C79.4349 53.8295 79.5268 53.6884 79.593 53.5312C79.6593 53.3722 79.6925 53.2064 79.6925 53.0341C79.6925 52.8068 79.6375 52.5937 79.5277 52.3949C79.4197 52.196 79.2701 52.035 79.0788 51.9119C78.8894 51.7888 78.6735 51.7273 78.4311 51.7273ZM83.4233 51.1023C83.6619 51.1042 83.9006 51.1496 84.1392 51.2386C84.3778 51.3277 84.5956 51.4754 84.7926 51.6818C84.9896 51.8864 85.1477 52.1657 85.267 52.5199C85.3864 52.8741 85.446 53.3182 85.446 53.8523C85.446 54.3693 85.3968 54.8286 85.2983 55.2301C85.2017 55.6297 85.0616 55.9669 84.8778 56.2415C84.696 56.5161 84.4744 56.7244 84.2131 56.8665C83.9536 57.0085 83.66 57.0795 83.3324 57.0795C83.0066 57.0795 82.7159 57.0152 82.4602 56.8864C82.2064 56.7557 81.9981 56.5748 81.8352 56.3438C81.6742 56.1108 81.571 55.8409 81.5256 55.5341H82.2188C82.2812 55.8011 82.4053 56.0218 82.5909 56.196C82.7784 56.3684 83.0256 56.4545 83.3324 56.4545C83.7813 56.4545 84.1354 56.2585 84.3949 55.8665C84.6563 55.4744 84.7869 54.9205 84.7869 54.2045H84.7415C84.6354 54.3636 84.5095 54.5009 84.3636 54.6165C84.2178 54.732 84.0559 54.821 83.8778 54.8835C83.6998 54.946 83.5104 54.9773 83.3097 54.9773C82.9763 54.9773 82.6705 54.8949 82.392 54.7301C82.1155 54.5634 81.8939 54.3352 81.7273 54.0455C81.5625 53.7538 81.4801 53.4205 81.4801 53.0455C81.4801 52.6894 81.5597 52.3636 81.7188 52.0682C81.8797 51.7708 82.1051 51.5341 82.3949 51.358C82.6866 51.1818 83.0294 51.0966 83.4233 51.1023ZM83.4233 51.7273C83.1847 51.7273 82.9697 51.7869 82.7784 51.9062C82.589 52.0237 82.4384 52.1828 82.3267 52.3835C82.2169 52.5824 82.1619 52.803 82.1619 53.0455C82.1619 53.2879 82.215 53.5085 82.321 53.7074C82.429 53.9044 82.5758 54.0616 82.7614 54.179C82.9489 54.2945 83.1619 54.3523 83.4006 54.3523C83.5805 54.3523 83.7481 54.3172 83.9034 54.2472C84.0587 54.1752 84.1941 54.0777 84.3097 53.9545C84.4271 53.8295 84.5189 53.6884 84.5852 53.5312C84.6515 53.3722 84.6847 53.2064 84.6847 53.0341C84.6847 52.8068 84.6297 52.5937 84.5199 52.3949C84.4119 52.196 84.2623 52.035 84.071 51.9119C83.8816 51.7888 83.6657 51.7273 83.4233 51.7273Z" fill="#323232"/>
<path d="M59.6602 35.2243V30.1016H61.5116V30.4725H60.1466V32.3969H61.2593V32.7678H60.1466V34.896H61.5238V35.2547L59.6602 35.2243Z" fill="#FAF9FD"/>
<path d="M62.0098 33.3453V32.9805H63.3505V33.3453H62.0098Z" fill="#FAF9FD"/>
<path d="M64.7043 35.2243L63.8379 30.1016H64.2483L64.9263 34.2636L65.6985 30.1776H66.0968L66.8872 34.2697L67.5135 30.1016H67.9178L67.0909 35.2243H66.717L65.8991 30.9984L65.0965 35.2243H64.7043Z" fill="#FAF9FD"/>
<path d="M68.1152 35.2243L69.1975 30.1016H69.7022L70.7906 35.2243H70.3285L70.0762 33.8532H68.8601L68.6017 35.2243H68.1152ZM68.9118 33.5035H70.0002L69.4499 30.74L68.9118 33.5035Z" fill="#FAF9FD"/>
<path d="M71.4102 35.2243V30.1016H71.8905V34.8656H73.3468V35.2243H71.4102Z" fill="#FAF9FD"/>
<path d="M73.8281 35.2243V30.1016H74.3085V34.8656H75.7647V35.2243H73.8281Z" fill="#FAF9FD"/>
<path d="M76.2402 35.2243V30.1016H78.0948V30.4725H76.7145V32.3969H77.8272V32.7678H76.7145V34.896H78.0948V35.2547L76.2402 35.2243Z" fill="#FAF9FD"/>
<path d="M79.3945 35.2243V30.4725H78.4277V30.1016H80.8112V30.4725H79.8749V35.2243H79.3945Z" fill="#FAF9FD"/>
<path d="M65.375 82.3212V76.8488H67.1991C67.4807 76.8379 67.7601 76.903 68.0078 77.0373C68.2201 77.1596 68.3859 77.3489 68.479 77.5755C68.5893 77.8475 68.6421 78.1394 68.6341 78.4328C68.6538 78.7678 68.5823 79.1019 68.4274 79.3996C68.2975 79.614 68.0978 79.7771 67.8619 79.8617C67.6036 79.9498 67.3321 79.9929 67.0593 79.9894H66.5728V82.3212H65.375ZM66.5911 79.1594H66.9833C67.101 79.1663 67.2183 79.1389 67.3207 79.0803C67.3998 79.021 67.454 78.9343 67.4727 78.8371C67.4995 78.702 67.5117 78.5644 67.5092 78.4267C67.5111 78.3034 67.5009 78.1802 67.4788 78.0588C67.4635 77.9594 67.4114 77.8693 67.3329 77.8065C67.2287 77.735 67.1031 77.7017 66.9772 77.7123H66.5789L66.5911 79.1594Z" fill="#FAF9FD"/>
<path d="M68.6426 82.322L69.6732 76.8496H71.0474L72.0658 82.322H70.9531L70.7738 81.1697H69.9711L69.7827 82.322H68.6426ZM70.0776 80.4462H70.6582L70.3542 78.318L70.0776 80.4462Z" fill="#FAF9FD"/>
<path d="M73.0348 82.3211V80.1017L71.998 76.873H73.1351L73.655 78.5999L74.1201 76.873H75.2115L74.1931 80.1017V82.3211H73.0348Z" fill="#FAF9FD"/>
<path d="M42.435 19.6665C37.0903 17.2587 31.6149 14.2185 28.4075 9.11704C27.7022 7.99825 27.1549 6.89465 26.8053 6.38086C26.4557 6.90985 25.9115 8.01345 25.2062 9.11704C21.9896 14.2185 16.5173 17.2587 11.1756 19.6665C10.9385 19.776 7.12001 21.1076 7.12305 21.1471C7.12609 21.1866 7.9287 40.9084 14.0061 49.5608C19.1957 56.9424 25.1697 59.5661 26.8053 60.1741C28.4409 59.5661 34.4058 56.9424 39.6045 49.5608C45.6849 40.9175 46.4875 21.1501 46.4875 21.1471C46.4875 21.1441 42.663 19.776 42.435 19.6665Z" fill="#29CC99"/>
<path d="M40.7536 21.1311C35.9836 18.9847 31.098 16.2668 28.2341 11.7065C27.6048 10.7063 27.1153 9.72123 26.8052 9.25C26.5012 9.72123 26.0056 10.7063 25.3763 11.7065C22.5155 16.2607 17.6268 18.9847 12.8689 21.1311C12.6561 21.2253 9.24805 22.4141 9.24805 22.4505C9.24805 22.487 9.96857 40.0837 15.3923 47.8088C20.0134 54.3939 25.3337 56.7349 26.8052 57.2791C28.2645 56.7349 33.597 54.3939 38.2272 47.8088C43.6509 40.0959 44.3715 22.4536 44.3715 22.4505C44.3715 22.4475 40.9634 21.2253 40.7536 21.1311Z" fill="white"/>
<path d="M26.9339 47.1295C33.7189 47.1295 39.2193 41.6291 39.2193 34.844C39.2193 28.059 33.7189 22.5586 26.9339 22.5586C20.1488 22.5586 14.6484 28.059 14.6484 34.844C14.6484 41.6291 20.1488 47.1295 26.9339 47.1295Z" fill="#29CC99" stroke="#29CC99" stroke-linecap="round" stroke-linejoin="round"/>
<path d="M26.1744 38.7001H26.0619C25.8583 38.6832 25.6612 38.6195 25.4862 38.5141C25.3111 38.4086 25.1627 38.2642 25.0526 38.092L21.3831 32.2579C21.2827 32.1108 21.2129 31.945 21.178 31.7703C21.1431 31.5957 21.1438 31.4158 21.18 31.2414C21.2161 31.067 21.2871 30.9017 21.3885 30.7553C21.49 30.609 21.6199 30.4846 21.7706 30.3895C21.9212 30.2945 22.0894 30.2308 22.2652 30.2022C22.441 30.1737 22.6207 30.1808 22.7937 30.2232C22.9667 30.2657 23.1293 30.3425 23.2719 30.4492C23.4145 30.5559 23.5342 30.6902 23.6237 30.8442L26.3599 35.1856L33.9269 26.7399C34.0402 26.601 34.1804 26.4865 34.3392 26.4033C34.4979 26.3202 34.6719 26.27 34.8506 26.256C35.0293 26.242 35.2089 26.2643 35.3787 26.3217C35.5485 26.3791 35.7049 26.4703 35.8384 26.5899C35.972 26.7094 36.0799 26.8548 36.1556 27.0172C36.2314 27.1797 36.2734 27.3558 36.2792 27.5349C36.2849 27.714 36.2543 27.8925 36.1891 28.0594C36.124 28.2264 36.0256 28.3784 35.9 28.5063L27.1595 38.2592C27.0356 38.398 26.8838 38.509 26.7141 38.585C26.5443 38.6609 26.3604 38.7002 26.1744 38.7001Z" fill="#FCFCFC" stroke="#29CC99" stroke-miterlimit="10"/>
<path opacity="0.18" d="M30.7332 36.1092C23.7989 38.4032 17.7529 42.803 13.4375 48.6957C13.623 48.9997 13.8114 49.2824 14.006 49.5591C19.1956 56.9407 25.1696 59.5644 26.8053 60.1724C28.4409 59.5644 34.4058 56.9407 39.6045 49.5591C43.0582 44.6492 44.8093 36.1457 45.6849 29.7188C42.2312 31.6797 37.3912 33.9264 30.7332 36.1092Z" fill="#29CC99"/>
<path d="M42.435 19.6665C37.0903 17.2587 31.6149 14.2185 28.4075 9.11704C27.7022 7.99825 27.1549 6.89465 26.8053 6.38086C26.4557 6.90985 25.9115 8.01345 25.2062 9.11704C21.9896 14.2185 16.5173 17.2587 11.1756 19.6665C10.9385 19.776 7.12001 21.1076 7.12305 21.1471C7.12609 21.1866 7.9287 40.9084 14.0061 49.5608C19.1957 56.9424 25.1697 59.5661 26.8053 60.1741C28.4409 59.5661 34.4058 56.9424 39.6045 49.5608C45.6849 40.9175 46.4875 21.1501 46.4875 21.1471C46.4875 21.1441 42.663 19.776 42.435 19.6665Z" stroke="#29CC99" stroke-miterlimit="10"/>
<path d="M32.0398 141.24C37.9382 135.342 37.9382 125.779 32.0398 119.881C26.1414 113.982 16.5783 113.982 10.6799 119.881C4.78157 125.779 4.78157 135.342 10.6799 141.24C16.5783 147.139 26.1414 147.139 32.0398 141.24Z" fill="white" stroke="#323232" stroke-miterlimit="10"/>
<path d="M24.2509 142.912C31.0717 141.316 35.3072 134.493 33.7112 127.672C32.1151 120.851 25.292 116.616 18.4712 118.212C11.6504 119.808 7.41493 126.631 9.01096 133.452C10.607 140.272 17.4302 144.508 24.2509 142.912Z" fill="white" stroke="#323232" stroke-miterlimit="10"/>
<path d="M23.9676 142.104L23.5389 140.085C22.035 140.346 20.819 140.106 19.8907 139.364C18.9624 138.623 18.2804 137.368 17.8446 135.601L20.7936 134.43C20.9362 135.037 21.1399 135.628 21.4017 136.193C21.5692 136.582 21.8406 136.916 22.186 137.16C22.339 137.254 22.5094 137.317 22.687 137.343C22.8647 137.37 23.0459 137.36 23.2197 137.315C23.4027 137.297 23.5772 137.229 23.7237 137.118C23.8702 137.007 23.9831 136.857 24.0497 136.686C24.1538 136.345 24.1664 135.982 24.0862 135.634C23.9678 134.972 23.6495 134.362 23.1741 133.886C22.6566 133.407 22.078 132.998 21.4533 132.67L19.2705 131.475C18.7884 131.189 18.3263 130.872 17.8872 130.523C17.4598 130.181 17.092 129.77 16.7988 129.307C16.4649 128.758 16.2322 128.154 16.1117 127.523C15.83 126.169 15.9952 125.026 16.6073 124.093C17.2884 123.124 18.2967 122.433 19.4468 122.148L19.0364 120.214L20.0792 119.992L20.4896 121.926C21.168 121.794 21.8686 121.836 22.5265 122.047C23.0614 122.234 23.5397 122.554 23.9159 122.978C24.282 123.405 24.5822 123.885 24.8067 124.4C25.0333 124.91 25.2213 125.435 25.3691 125.972L22.3593 127.088C22.2499 126.613 22.1056 126.146 21.9276 125.693C21.8026 125.352 21.5934 125.049 21.3196 124.811C21.1861 124.713 21.0309 124.649 20.8674 124.624C20.7038 124.599 20.5367 124.614 20.3802 124.668C20.1986 124.705 20.0289 124.786 19.8858 124.903C19.7427 125.021 19.6306 125.172 19.5593 125.343C19.4149 125.687 19.3809 126.067 19.462 126.431C19.5571 127.012 19.8466 127.542 20.2829 127.936C20.7027 128.284 21.1489 128.6 21.6175 128.879L23.7457 130.058C24.3165 130.391 24.8604 130.768 25.3722 131.186C25.887 131.611 26.3367 132.108 26.7068 132.664C27.1067 133.284 27.3843 133.976 27.5246 134.701C27.6883 135.424 27.681 136.176 27.5033 136.896C27.3336 137.584 26.9818 138.214 26.4849 138.72C25.9481 139.254 25.2851 139.644 24.5574 139.854L24.9921 141.897L23.9676 142.104Z" fill="#323232"/>
<path d="M118.652 136.921C122.174 129.359 118.898 120.375 111.336 116.853C103.775 113.332 94.7898 116.608 91.2685 124.169C87.7472 131.731 91.0227 140.716 98.5845 144.237C106.146 147.759 115.131 144.483 118.652 136.921Z" fill="white" stroke="#323232" stroke-miterlimit="10"/>
<path d="M107.981 142.872C114.786 141.21 118.954 134.345 117.292 127.541C115.629 120.736 108.765 116.567 101.96 118.23C95.1551 119.892 90.9865 126.757 92.6491 133.562C94.3117 140.366 101.176 144.535 107.981 142.872Z" fill="white" stroke="#323232" stroke-miterlimit="10"/>
<path d="M107.571 142.104L107.139 140.085C105.637 140.347 104.421 140.106 103.491 139.365C102.561 138.623 101.878 137.368 101.442 135.601L104.394 134.43C104.535 135.038 104.739 135.628 105.002 136.194C105.168 136.582 105.44 136.917 105.786 137.16C105.939 137.255 106.109 137.317 106.286 137.344C106.463 137.37 106.644 137.361 106.817 137.315C107 137.299 107.175 137.231 107.322 137.119C107.469 137.008 107.581 136.858 107.647 136.686C107.753 136.345 107.767 135.982 107.686 135.634C107.567 134.972 107.249 134.363 106.774 133.886C106.256 133.407 105.678 132.999 105.054 132.67L102.868 131.475C102.387 131.19 101.925 130.872 101.487 130.524C101.059 130.182 100.691 129.771 100.399 129.308C100.065 128.759 99.8325 128.154 99.712 127.523C99.4221 126.163 99.5833 125.021 100.195 124.097C100.876 123.124 101.886 122.429 103.038 122.142L102.628 120.208L103.67 119.986L104.081 121.92C104.758 121.789 105.458 121.83 106.115 122.041C106.65 122.227 107.128 122.548 107.504 122.972C107.872 123.398 108.173 123.878 108.398 124.395C108.623 124.904 108.81 125.429 108.957 125.966L105.95 127.082C105.84 126.607 105.695 126.141 105.519 125.687C105.394 125.346 105.184 125.043 104.911 124.805C104.778 124.707 104.623 124.643 104.46 124.619C104.297 124.594 104.13 124.609 103.974 124.662C103.793 124.699 103.623 124.78 103.48 124.898C103.337 125.015 103.225 125.166 103.153 125.337C103.007 125.681 102.973 126.061 103.056 126.425C103.149 127.006 103.438 127.537 103.874 127.93C104.294 128.278 104.741 128.593 105.209 128.873L107.337 130.052C107.908 130.384 108.452 130.762 108.963 131.18C109.479 131.604 109.929 132.102 110.298 132.658C110.699 133.278 110.977 133.97 111.119 134.695C111.281 135.418 111.274 136.17 111.098 136.89C110.926 137.578 110.573 138.208 110.076 138.714C109.54 139.248 108.878 139.638 108.152 139.848L108.583 141.891L107.571 142.104Z" fill="#323232"/>
<path d="M143.133 109.017V108.188" stroke="#323232" stroke-miterlimit="10"/>
<path d="M143.859 107.229H118.467V109.083H143.859V107.229Z" fill="white" stroke="#323232" stroke-miterlimit="10"/>
<path d="M119.586 109.248V108.096" stroke="#323232" stroke-miterlimit="10"/>
<path d="M120.371 107.311V108.463" stroke="#323232" stroke-miterlimit="10"/>
<path d="M142.211 107.404V108.508" stroke="#323232" stroke-miterlimit="10"/>
<path d="M141.014 107.404V108.462" stroke="#323232" stroke-miterlimit="10"/>
<path d="M138.064 107.355V108.693" stroke="#323232" stroke-miterlimit="10"/>
<path d="M122.26 107.496V108.095" stroke="#323232" stroke-miterlimit="10"/>
<path d="M122.723 108.876V107.818" stroke="#323232" stroke-miterlimit="10"/>
<path d="M125.994 107.355V108.693" stroke="#323232" stroke-miterlimit="10"/>
<path d="M131.75 107.496V108.417" stroke="#323232" stroke-miterlimit="10"/>
<path d="M144.969 110.842V110.012" stroke="#323232" stroke-miterlimit="10"/>
<path d="M145.693 109.053H120.301V110.907H145.693V109.053Z" fill="white" stroke="#323232" stroke-miterlimit="10"/>
<path d="M121.422 111.068V109.916" stroke="#323232" stroke-miterlimit="10"/>
<path d="M122.207 109.135V110.287" stroke="#323232" stroke-miterlimit="10"/>
<path d="M144.045 109.225V110.331" stroke="#323232" stroke-miterlimit="10"/>
<path d="M142.848 109.225V110.286" stroke="#323232" stroke-miterlimit="10"/>
<path d="M139.898 109.18V110.517" stroke="#323232" stroke-miterlimit="10"/>
<path d="M124.096 109.316V109.915" stroke="#323232" stroke-miterlimit="10"/>
<path d="M124.559 110.701V109.643" stroke="#323232" stroke-miterlimit="10"/>
<path d="M127.83 109.18V110.517" stroke="#323232" stroke-miterlimit="10"/>
<path d="M133.586 109.316V110.241" stroke="#323232" stroke-miterlimit="10"/>
<path d="M144.326 112.662V111.832" stroke="#323232" stroke-miterlimit="10"/>
<path d="M145.05 110.875H119.658V112.73H145.05V110.875Z" fill="white" stroke="#323232" stroke-miterlimit="10"/>
<path d="M120.779 112.892V111.74" stroke="#323232" stroke-miterlimit="10"/>
<path d="M121.564 110.959V112.108" stroke="#323232" stroke-miterlimit="10"/>
<path d="M143.402 111.049V112.155" stroke="#323232" stroke-miterlimit="10"/>
<path d="M142.203 111.049V112.107" stroke="#323232" stroke-miterlimit="10"/>
<path d="M139.258 111.006V112.341" stroke="#323232" stroke-miterlimit="10"/>
<path d="M123.453 111.141V111.74" stroke="#323232" stroke-miterlimit="10"/>
<path d="M123.912 112.524V111.463" stroke="#323232" stroke-miterlimit="10"/>
<path d="M127.186 111.006V112.341" stroke="#323232" stroke-miterlimit="10"/>
<path d="M132.943 111.141V112.062" stroke="#323232" stroke-miterlimit="10"/>
<path d="M144.969 114.486V113.656" stroke="#323232" stroke-miterlimit="10"/>
<path d="M145.696 112.699H120.305V114.554H145.696V112.699Z" fill="white" stroke="#323232" stroke-miterlimit="10"/>
<path d="M121.426 114.717V113.564" stroke="#323232" stroke-miterlimit="10"/>
<path d="M122.211 112.779V113.932" stroke="#323232" stroke-miterlimit="10"/>
<path d="M144.049 112.875V113.979" stroke="#323232" stroke-miterlimit="10"/>
<path d="M142.852 112.875V113.933" stroke="#323232" stroke-miterlimit="10"/>
<path d="M139.902 112.826V114.164" stroke="#323232" stroke-miterlimit="10"/>
<path d="M124.098 112.965V113.564" stroke="#323232" stroke-miterlimit="10"/>
<path d="M124.561 114.345V113.287" stroke="#323232" stroke-miterlimit="10"/>
<path d="M127.832 112.826V114.164" stroke="#323232" stroke-miterlimit="10"/>
<path d="M133.59 112.965V113.886" stroke="#323232" stroke-miterlimit="10"/>
<path d="M143.133 116.308V115.479" stroke="#323232" stroke-miterlimit="10"/>
<path d="M143.859 114.523H118.467V116.378H143.859V114.523Z" fill="white" stroke="#323232" stroke-miterlimit="10"/>
<path d="M119.586 116.537V115.385" stroke="#323232" stroke-miterlimit="10"/>
<path d="M120.371 114.604V115.756" stroke="#323232" stroke-miterlimit="10"/>
<path d="M142.211 114.695V115.802" stroke="#323232" stroke-miterlimit="10"/>
<path d="M141.014 114.695V115.756" stroke="#323232" stroke-miterlimit="10"/>
<path d="M138.064 114.65V115.988" stroke="#323232" stroke-miterlimit="10"/>
<path d="M122.26 114.787V115.386" stroke="#323232" stroke-miterlimit="10"/>
<path d="M122.723 116.171V115.113" stroke="#323232" stroke-miterlimit="10"/>
<path d="M125.994 114.65V115.988" stroke="#323232" stroke-miterlimit="10"/>
<path d="M131.75 114.787V115.711" stroke="#323232" stroke-miterlimit="10"/>
<path d="M143.133 118.131V117.301" stroke="#323232" stroke-miterlimit="10"/>
<path d="M143.859 116.344H118.467V118.198H143.859V116.344Z" fill="white" stroke="#323232" stroke-miterlimit="10"/>
<path d="M119.586 118.363V117.211" stroke="#323232" stroke-miterlimit="10"/>
<path d="M120.371 116.426V117.578" stroke="#323232" stroke-miterlimit="10"/>
<path d="M142.211 116.52V117.626" stroke="#323232" stroke-miterlimit="10"/>
<path d="M141.014 116.52V117.578" stroke="#323232" stroke-miterlimit="10"/>
<path d="M138.064 116.475V117.809" stroke="#323232" stroke-miterlimit="10"/>
<path d="M122.26 116.611V117.21" stroke="#323232" stroke-miterlimit="10"/>
<path d="M122.723 117.995V116.934" stroke="#323232" stroke-miterlimit="10"/>
<path d="M125.994 116.475V117.809" stroke="#323232" stroke-miterlimit="10"/>
<path d="M131.75 116.611V117.533" stroke="#323232" stroke-miterlimit="10"/>
<path d="M143.133 119.955V119.125" stroke="#323232" stroke-miterlimit="10"/>
<path d="M143.859 118.168H118.467V120.022H143.859V118.168Z" fill="white" stroke="#323232" stroke-miterlimit="10"/>
<path d="M119.586 120.187V119.035" stroke="#323232" stroke-miterlimit="10"/>
<path d="M120.371 118.25V119.402" stroke="#323232" stroke-miterlimit="10"/>
<path d="M142.211 118.34V119.446" stroke="#323232" stroke-miterlimit="10"/>
<path d="M141.014 118.34V119.401" stroke="#323232" stroke-miterlimit="10"/>
<path d="M138.064 118.295V119.633" stroke="#323232" stroke-miterlimit="10"/>
<path d="M122.26 118.436V119.034" stroke="#323232" stroke-miterlimit="10"/>
<path d="M122.723 119.816V118.758" stroke="#323232" stroke-miterlimit="10"/>
<path d="M125.994 118.295V119.633" stroke="#323232" stroke-miterlimit="10"/>
<path d="M131.75 118.436V119.357" stroke="#323232" stroke-miterlimit="10"/>
<path d="M145.121 121.779V120.949" stroke="#323232" stroke-miterlimit="10"/>
<path d="M145.843 119.992H120.451V121.847H145.843V119.992Z" fill="white" stroke="#323232" stroke-miterlimit="10"/>
<path d="M121.576 122.006V120.854" stroke="#323232" stroke-miterlimit="10"/>
<path d="M122.355 120.072V121.225" stroke="#323232" stroke-miterlimit="10"/>
<path d="M144.197 120.164V121.271" stroke="#323232" stroke-miterlimit="10"/>
<path d="M143 120.164V121.225" stroke="#323232" stroke-miterlimit="10"/>
<path d="M140.049 120.119V121.454" stroke="#323232" stroke-miterlimit="10"/>
<path d="M124.248 120.256V120.855" stroke="#323232" stroke-miterlimit="10"/>
<path d="M124.707 121.638V120.58" stroke="#323232" stroke-miterlimit="10"/>
<path d="M127.979 120.119V121.454" stroke="#323232" stroke-miterlimit="10"/>
<path d="M133.738 120.256V121.18" stroke="#323232" stroke-miterlimit="10"/>
<path d="M145.812 123.598V122.768" stroke="#323232" stroke-miterlimit="10"/>
<path d="M146.538 121.812H121.146V123.667H146.538V121.812Z" fill="white" stroke="#323232" stroke-miterlimit="10"/>
<path d="M122.268 123.832V122.68" stroke="#323232" stroke-miterlimit="10"/>
<path d="M123.053 121.896V123.049" stroke="#323232" stroke-miterlimit="10"/>
<path d="M144.891 121.988V123.095" stroke="#323232" stroke-miterlimit="10"/>
<path d="M143.691 121.988V123.046" stroke="#323232" stroke-miterlimit="10"/>
<path d="M140.744 121.943V123.278" stroke="#323232" stroke-miterlimit="10"/>
<path d="M124.941 122.08V122.679" stroke="#323232" stroke-miterlimit="10"/>
<path d="M125.404 123.463V122.402" stroke="#323232" stroke-miterlimit="10"/>
<path d="M128.672 121.943V123.278" stroke="#323232" stroke-miterlimit="10"/>
<path d="M134.432 122.08V123.001" stroke="#323232" stroke-miterlimit="10"/>
<path d="M144.973 125.424V124.594" stroke="#323232" stroke-miterlimit="10"/>
<path d="M145.696 123.635H120.305V125.489H145.696V123.635Z" fill="white" stroke="#323232" stroke-miterlimit="10"/>
<path d="M121.43 125.654V124.502" stroke="#323232" stroke-miterlimit="10"/>
<path d="M122.211 123.719V124.871" stroke="#323232" stroke-miterlimit="10"/>
<path d="M144.051 123.811V124.917" stroke="#323232" stroke-miterlimit="10"/>
<path d="M142.854 123.811V124.872" stroke="#323232" stroke-miterlimit="10"/>
<path d="M139.904 123.764V125.101" stroke="#323232" stroke-miterlimit="10"/>
<path d="M124.104 123.904V124.503" stroke="#323232" stroke-miterlimit="10"/>
<path d="M124.561 125.283V124.225" stroke="#323232" stroke-miterlimit="10"/>
<path d="M127.832 123.764V125.101" stroke="#323232" stroke-miterlimit="10"/>
<path d="M133.594 123.904V124.825" stroke="#323232" stroke-miterlimit="10"/>
<path d="M143.133 127.248V126.418" stroke="#323232" stroke-miterlimit="10"/>
<path d="M143.859 125.461H118.467V127.315H143.859V125.461Z" fill="white" stroke="#323232" stroke-miterlimit="10"/>
<path d="M119.586 127.476V126.324" stroke="#323232" stroke-miterlimit="10"/>
<path d="M120.371 125.543V126.695" stroke="#323232" stroke-miterlimit="10"/>
<path d="M142.211 125.635V126.741" stroke="#323232" stroke-miterlimit="10"/>
<path d="M141.014 125.635V126.696" stroke="#323232" stroke-miterlimit="10"/>
<path d="M138.064 125.586V126.921" stroke="#323232" stroke-miterlimit="10"/>
<path d="M122.26 125.727V126.325" stroke="#323232" stroke-miterlimit="10"/>
<path d="M122.723 127.109V126.051" stroke="#323232" stroke-miterlimit="10"/>
<path d="M125.994 125.586V126.921" stroke="#323232" stroke-miterlimit="10"/>
<path d="M131.75 125.727V126.651" stroke="#323232" stroke-miterlimit="10"/>
<path d="M142.52 129.068V128.238" stroke="#323232" stroke-miterlimit="10"/>
<path d="M143.243 127.283H117.852V129.138H143.243V127.283Z" fill="white" stroke="#323232" stroke-miterlimit="10"/>
<path d="M118.977 129.299V128.146" stroke="#323232" stroke-miterlimit="10"/>
<path d="M119.758 127.365V128.517" stroke="#323232" stroke-miterlimit="10"/>
<path d="M141.598 127.459V128.563" stroke="#323232" stroke-miterlimit="10"/>
<path d="M140.398 127.459V128.517" stroke="#323232" stroke-miterlimit="10"/>
<path d="M137.451 127.412V128.747" stroke="#323232" stroke-miterlimit="10"/>
<path d="M121.648 127.549V128.148" stroke="#323232" stroke-miterlimit="10"/>
<path d="M122.107 128.932V127.871" stroke="#323232" stroke-miterlimit="10"/>
<path d="M125.379 127.412V128.747" stroke="#323232" stroke-miterlimit="10"/>
<path d="M131.139 127.549V128.47" stroke="#323232" stroke-miterlimit="10"/>
<path d="M142.398 130.892V130.062" stroke="#323232" stroke-miterlimit="10"/>
<path d="M143.12 129.105H117.729V130.96H143.12V129.105Z" fill="white" stroke="#323232" stroke-miterlimit="10"/>
<path d="M118.852 131.123V129.971" stroke="#323232" stroke-miterlimit="10"/>
<path d="M119.635 129.188V130.34" stroke="#323232" stroke-miterlimit="10"/>
<path d="M141.475 129.279V130.386" stroke="#323232" stroke-miterlimit="10"/>
<path d="M140.279 129.279V130.34" stroke="#323232" stroke-miterlimit="10"/>
<path d="M137.33 129.234V130.572" stroke="#323232" stroke-miterlimit="10"/>
<path d="M121.525 129.373V129.972" stroke="#323232" stroke-miterlimit="10"/>
<path d="M121.984 130.753V129.695" stroke="#323232" stroke-miterlimit="10"/>
<path d="M125.256 129.234V130.572" stroke="#323232" stroke-miterlimit="10"/>
<path d="M131.016 129.373V130.294" stroke="#323232" stroke-miterlimit="10"/>
<path d="M142.459 132.717V131.887" stroke="#323232" stroke-miterlimit="10"/>
<path d="M143.183 130.93H117.791V132.784H143.183V130.93Z" fill="white" stroke="#323232" stroke-miterlimit="10"/>
<path d="M118.916 132.947V131.795" stroke="#323232" stroke-miterlimit="10"/>
<path d="M119.697 131.014V132.166" stroke="#323232" stroke-miterlimit="10"/>
<path d="M141.535 131.104V132.21" stroke="#323232" stroke-miterlimit="10"/>
<path d="M140.338 131.104V132.165" stroke="#323232" stroke-miterlimit="10"/>
<path d="M137.391 131.057V132.391" stroke="#323232" stroke-miterlimit="10"/>
<path d="M121.588 131.195V131.794" stroke="#323232" stroke-miterlimit="10"/>
<path d="M122.049 132.579V131.518" stroke="#323232" stroke-miterlimit="10"/>
<path d="M125.318 131.057V132.391" stroke="#323232" stroke-miterlimit="10"/>
<path d="M131.078 131.195V132.12" stroke="#323232" stroke-miterlimit="10"/>
<path d="M142.09 134.539V133.709" stroke="#323232" stroke-miterlimit="10"/>
<path d="M142.816 132.75H117.424V134.605H142.816V132.75Z" fill="white" stroke="#323232" stroke-miterlimit="10"/>
<path d="M118.549 134.769V133.617" stroke="#323232" stroke-miterlimit="10"/>
<path d="M119.328 132.832V133.984" stroke="#323232" stroke-miterlimit="10"/>
<path d="M141.17 132.93V134.033" stroke="#323232" stroke-miterlimit="10"/>
<path d="M139.971 132.93V133.988" stroke="#323232" stroke-miterlimit="10"/>
<path d="M137.021 132.881V134.216" stroke="#323232" stroke-miterlimit="10"/>
<path d="M121.219 133.018V133.616" stroke="#323232" stroke-miterlimit="10"/>
<path d="M121.68 134.401V133.34" stroke="#323232" stroke-miterlimit="10"/>
<path d="M124.951 132.881V134.216" stroke="#323232" stroke-miterlimit="10"/>
<path d="M130.711 133.018V133.939" stroke="#323232" stroke-miterlimit="10"/>
<path d="M142.15 136.363V135.533" stroke="#323232" stroke-miterlimit="10"/>
<path d="M142.874 134.574H117.482V136.429H142.874V134.574Z" fill="white" stroke="#323232" stroke-miterlimit="10"/>
<path d="M118.607 136.594V135.441" stroke="#323232" stroke-miterlimit="10"/>
<path d="M119.389 134.656V135.808" stroke="#323232" stroke-miterlimit="10"/>
<path d="M141.23 134.748V135.855" stroke="#323232" stroke-miterlimit="10"/>
<path d="M140.033 134.748V135.809" stroke="#323232" stroke-miterlimit="10"/>
<path d="M137.084 134.705V136.043" stroke="#323232" stroke-miterlimit="10"/>
<path d="M121.279 134.844V135.443" stroke="#323232" stroke-miterlimit="10"/>
<path d="M121.74 136.222V135.164" stroke="#323232" stroke-miterlimit="10"/>
<path d="M125.012 134.705V136.043" stroke="#323232" stroke-miterlimit="10"/>
<path d="M130.773 134.844V135.765" stroke="#323232" stroke-miterlimit="10"/>
<path d="M142.398 138.182V137.355" stroke="#323232" stroke-miterlimit="10"/>
<path d="M143.12 136.4H117.729V138.255H143.12V136.4Z" fill="white" stroke="#323232" stroke-miterlimit="10"/>
<path d="M118.852 138.414V137.262" stroke="#323232" stroke-miterlimit="10"/>
<path d="M119.635 136.482V137.635" stroke="#323232" stroke-miterlimit="10"/>
<path d="M141.475 136.57V137.677" stroke="#323232" stroke-miterlimit="10"/>
<path d="M140.279 136.57V137.631" stroke="#323232" stroke-miterlimit="10"/>
<path d="M137.33 136.527V137.862" stroke="#323232" stroke-miterlimit="10"/>
<path d="M121.525 136.662V137.261" stroke="#323232" stroke-miterlimit="10"/>
<path d="M121.984 138.049V136.988" stroke="#323232" stroke-miterlimit="10"/>
<path d="M125.256 136.527V137.862" stroke="#323232" stroke-miterlimit="10"/>
<path d="M131.016 136.662V137.583" stroke="#323232" stroke-miterlimit="10"/>
<path d="M142.459 140.01V139.18" stroke="#323232" stroke-miterlimit="10"/>
<path d="M143.183 138.221H117.791V140.075H143.183V138.221Z" fill="white" stroke="#323232" stroke-miterlimit="10"/>
<path d="M118.916 140.24V139.088" stroke="#323232" stroke-miterlimit="10"/>
<path d="M119.697 138.303V139.455" stroke="#323232" stroke-miterlimit="10"/>
<path d="M141.535 138.396V139.5" stroke="#323232" stroke-miterlimit="10"/>
<path d="M140.338 138.396V139.454" stroke="#323232" stroke-miterlimit="10"/>
<path d="M137.391 138.352V139.686" stroke="#323232" stroke-miterlimit="10"/>
<path d="M121.588 138.486V139.085" stroke="#323232" stroke-miterlimit="10"/>
<path d="M122.049 139.872V138.811" stroke="#323232" stroke-miterlimit="10"/>
<path d="M125.318 138.352V139.686" stroke="#323232" stroke-miterlimit="10"/>
<path d="M131.078 138.486V139.408" stroke="#323232" stroke-miterlimit="10"/>
<path d="M143.133 141.834V141.004" stroke="#323232" stroke-miterlimit="10"/>
<path d="M143.859 140.045H118.467V141.899H143.859V140.045Z" fill="white" stroke="#323232" stroke-miterlimit="10"/>
<path d="M119.586 142.064V140.912" stroke="#323232" stroke-miterlimit="10"/>
<path d="M120.371 140.127V141.279" stroke="#323232" stroke-miterlimit="10"/>
<path d="M142.211 140.219V141.325" stroke="#323232" stroke-miterlimit="10"/>
<path d="M141.014 140.219V141.28" stroke="#323232" stroke-miterlimit="10"/>
<path d="M138.064 140.172V141.51" stroke="#323232" stroke-miterlimit="10"/>
<path d="M122.26 140.312V140.911" stroke="#323232" stroke-miterlimit="10"/>
<path d="M122.723 141.693V140.635" stroke="#323232" stroke-miterlimit="10"/>
<path d="M125.994 140.172V141.51" stroke="#323232" stroke-miterlimit="10"/>
<path d="M131.75 140.312V141.234" stroke="#323232" stroke-miterlimit="10"/>
<path d="M143.133 143.653V142.826" stroke="#323232" stroke-miterlimit="10"/>
<path d="M143.859 141.865H118.467V143.717H143.859V141.865Z" fill="white" stroke="#323232" stroke-miterlimit="10"/>
<path d="M119.586 143.885V142.732" stroke="#323232" stroke-miterlimit="10"/>
<path d="M120.371 141.949V143.101" stroke="#323232" stroke-miterlimit="10"/>
<path d="M142.211 142.041V143.148" stroke="#323232" stroke-miterlimit="10"/>
<path d="M141.014 142.041V143.102" stroke="#323232" stroke-miterlimit="10"/>
<path d="M138.064 141.996V143.331" stroke="#323232" stroke-miterlimit="10"/>
<path d="M122.26 142.133V142.732" stroke="#323232" stroke-miterlimit="10"/>
<path d="M122.723 143.516V142.455" stroke="#323232" stroke-miterlimit="10"/>
<path d="M125.994 141.996V143.331" stroke="#323232" stroke-miterlimit="10"/>
<path d="M131.75 142.133V143.054" stroke="#323232" stroke-miterlimit="10"/>
<path d="M143.133 145.478V144.648" stroke="#323232" stroke-miterlimit="10"/>
<path d="M143.859 143.689H118.467V145.541H143.859V143.689Z" fill="white" stroke="#323232" stroke-miterlimit="10"/>
<path d="M119.586 145.709V144.557" stroke="#323232" stroke-miterlimit="10"/>
<path d="M120.371 143.771V144.924" stroke="#323232" stroke-miterlimit="10"/>
<path d="M142.211 143.865V144.969" stroke="#323232" stroke-miterlimit="10"/>
<path d="M141.014 143.865V144.923" stroke="#323232" stroke-miterlimit="10"/>
<path d="M138.064 143.822V145.157" stroke="#323232" stroke-miterlimit="10"/>
<path d="M122.26 143.957V144.556" stroke="#323232" stroke-miterlimit="10"/>
<path d="M122.723 145.34V144.279" stroke="#323232" stroke-miterlimit="10"/>
<path d="M125.994 143.822V145.157" stroke="#323232" stroke-miterlimit="10"/>
<path d="M131.75 143.957V144.878" stroke="#323232" stroke-miterlimit="10"/>
<path d="M65.5255 92.252H55.5566V118.039H65.5255V92.252Z" fill="#323232" stroke="#323232" stroke-linecap="round" stroke-linejoin="round"/>
<path d="M88.8108 96.3299V96.0259C88.8108 95.0245 88.4129 94.0641 87.7048 93.3559C86.9967 92.6478 86.0363 92.25 85.0348 92.25H55.5449V92.2865C56.4536 92.404 57.2884 92.8483 57.8932 93.5366C58.498 94.2248 58.8316 95.1097 58.8314 96.0259V102.593H58.8983V141.051C58.8983 141.647 59.0157 142.238 59.2438 142.788C59.4719 143.339 59.8062 143.839 60.2277 144.261C60.6492 144.682 61.1496 145.017 61.7003 145.245C62.251 145.473 62.8412 145.59 63.4373 145.59H88.8047V96.3391L88.8108 96.3299Z" fill="#DBDBDB" stroke="#323232" stroke-linecap="round" stroke-linejoin="round"/>
<path d="M68.8413 138.848V141.818C68.8405 142.664 68.5553 143.486 68.0316 144.151C67.5078 144.816 66.7758 145.285 65.9531 145.484V145.594H78.9804V138.848H68.8413Z" fill="#323232" stroke="#323232" stroke-linecap="round" stroke-linejoin="round"/>
<path d="M70.8752 135.25V141.817C70.8742 142.732 70.5407 143.616 69.9367 144.304C69.3327 144.992 68.4994 145.437 67.5918 145.556V145.59H93.7375C94.2334 145.59 94.7244 145.492 95.1825 145.302C95.6406 145.113 96.0569 144.834 96.4075 144.484C96.7581 144.133 97.0362 143.717 97.226 143.259C97.4158 142.801 97.5134 142.31 97.5134 141.814V135.25H70.8752Z" fill="#DBDBDB" stroke="#323232" stroke-linecap="round" stroke-linejoin="round"/>
<path d="M64.7109 97.3887H84.3597" stroke="#323232" stroke-miterlimit="10"/>
<path d="M64.7109 100.971H84.3597" stroke="#323232" stroke-miterlimit="10"/>
<path d="M64.7109 104.008H84.3597" stroke="#323232" stroke-miterlimit="10"/>
<path d="M64.7109 125.178H84.3597" stroke="#323232" stroke-miterlimit="10"/>
<path d="M64.7109 130.393H84.3597" stroke="#323232" stroke-miterlimit="10"/>
<path d="M64.7109 107.158H76.437" stroke="#323232" stroke-miterlimit="10"/>
<path d="M64.7109 109.982H76.437" stroke="#323232" stroke-miterlimit="10"/>
<path d="M64.7109 112.801H76.437" stroke="#323232" stroke-miterlimit="10"/>
<path d="M64.7109 115.625H76.437" stroke="#323232" stroke-miterlimit="10"/>
<path d="M64.7109 118.449H76.437" stroke="#323232" stroke-miterlimit="10"/>
<path d="M64.7109 121.271H76.437" stroke="#323232" stroke-miterlimit="10"/>
<path d="M37.0893 141.115C37.0893 141.115 38.4391 142.973 39.0289 143.225C39.6187 143.477 40.7162 143.648 41.0537 144.408C41.2411 144.777 41.3567 145.178 41.3942 145.59H33.0367C33.0367 145.59 32.6992 144.493 33.0367 143.818C33.2448 143.392 33.3872 142.937 33.4593 142.468L37.0893 141.115Z" fill="white" stroke="#323232" stroke-linecap="round" stroke-linejoin="round"/>
<path d="M32.8926 144.744H41.1893C41.3003 145.014 41.3691 145.299 41.393 145.589H33.0355C32.9575 145.314 32.9096 145.03 32.8926 144.744Z" fill="white" stroke="#323232" stroke-linecap="round" stroke-linejoin="round"/>
<path d="M28.1433 142.972L27.9761 145.672H23.9235C23.8289 145.166 23.8581 144.644 24.0086 144.152C24.261 143.392 24.5164 142.717 24.5164 142.717L28.1433 142.972Z" fill="white" stroke="#323232" stroke-linecap="round" stroke-linejoin="round"/>
<path d="M27.9744 145.673H23.9218C23.8597 145.339 23.8505 144.997 23.8944 144.66H28.0382L27.9744 145.673Z" fill="white" stroke="#323232" stroke-linecap="round" stroke-linejoin="round"/>
<path d="M40.3794 101.777C40.3794 101.777 39.7045 110.554 39.5372 113.677C39.37 116.799 37.0899 141.108 37.0899 141.108C37.0899 141.108 33.7974 143.136 33.3748 143.136C32.9522 143.136 32.4627 113.847 32.4627 113.847L28.1426 142.972C27.6779 143.121 27.1952 143.206 26.7076 143.224C26.0327 143.224 24.5156 142.72 24.5156 142.72L25.9415 107.608V101.777C25.9415 101.777 34.454 102.96 36.7433 102.623C37.9797 102.458 39.1974 102.175 40.3794 101.777Z" fill="#323232" stroke="#323232" stroke-linecap="round" stroke-linejoin="round"/>
<path d="M30.084 107.102L31.9385 108.537L32.4462 113.854" stroke="#808080" stroke-linecap="round" stroke-linejoin="round"/>
<path d="M29.319 66.1223C29.319 66.1223 32.7605 65.6905 33.7728 66.8671C34.7852 68.0437 34.9889 70.3238 35.6912 70.871C36.3935 71.4183 36.7857 70.7373 37.0988 71.4487C37.412 72.1601 36.9012 73.0387 36.9012 73.0387C36.9012 73.0387 36.9863 76.465 36.5972 76.6292C36.208 76.7934 34.4691 76.7964 34.4691 76.7964L34.7518 78.204L30.3982 78.3864L30.0182 76.915C30.0182 76.915 26.7074 74.9936 25.8136 73.5373C24.9198 72.081 25.1326 68.8554 26.0264 67.7275C26.9202 66.5996 29.319 66.1223 29.319 66.1223Z" fill="white" stroke="#323232" stroke-linecap="round" stroke-linejoin="round"/>
<path d="M36.8994 73.0384C36.8994 73.0384 34.8807 72.403 34.7712 72.704C34.6618 73.005 35.0114 76.8478 35.0114 76.8478C35.0114 76.8478 36.4372 77.0119 36.5953 76.6289C36.7534 76.2458 37.0574 75.7746 36.8994 73.0384ZM36.4737 76.2641C36.3582 76.5681 35.3367 76.4404 35.3367 76.4404C35.3367 76.4404 35.0783 73.3455 35.1634 73.0962C35.2485 72.8469 36.6835 73.3667 36.6835 73.3667C36.8081 75.577 36.5801 75.957 36.4737 76.2641Z" fill="#323232"/>
<path d="M34.6509 70.7049C34.7573 70.9633 34.9276 71.1366 35.031 71.0941C35.1343 71.0515 35.1313 70.8083 35.031 70.5499C34.9306 70.2915 34.7543 70.1182 34.6509 70.1607C34.5476 70.2033 34.5445 70.4465 34.6509 70.7049Z" fill="#323232"/>
<path d="M36.5539 73.5931C36.3726 73.685 36.1632 73.7047 35.968 73.6483C35.7728 73.5919 35.6062 73.4635 35.502 73.2891" stroke="#323232" stroke-linecap="round" stroke-linejoin="round"/>
<path d="M34.6136 69.5064C34.6136 69.5064 34.1728 69.2662 34.1211 69.9989" stroke="#323232" stroke-linecap="round" stroke-linejoin="round"/>
<path d="M26.0261 67.7275C26.9199 66.6026 29.3186 66.1223 29.3186 66.1223C29.3186 66.1223 32.7601 65.6905 33.7725 66.8671C33.7725 66.8671 31.8693 66.3868 32.1156 67.1985C32.3618 68.0102 34.3349 69.2506 33.657 69.731C32.979 70.2113 32.2159 69.8465 32.5321 70.5579C32.8483 71.2693 33.2435 71.9655 32.9121 72.0294C32.5807 72.0932 31.6535 71.3362 31.2582 71.5004C30.863 71.6645 30.4131 72.8745 30.7931 73.4887C31.0486 73.8649 31.4416 74.1258 31.8876 74.2153C31.8876 74.2153 31.2096 75.9877 30.6137 76.4498C30.3555 76.6541 30.03 76.7539 29.7017 76.7295C28.8595 76.2157 26.5307 74.723 25.8041 73.5373C24.9194 72.081 25.1322 68.8554 26.0261 67.7275Z" fill="#323232" stroke="#323232" stroke-linecap="round" stroke-linejoin="round"/>
<path d="M25.8098 80.6875C25.8098 80.6875 23.3564 82.2927 22.6967 83.5179C22.037 84.7431 20.4317 96.2503 20.2432 97.4785C20.0548 98.7068 22.9338 107.338 22.9338 107.338C22.9338 107.338 22.6967 109.314 22.9338 110.378C23.171 111.442 23.8732 112.062 24.2289 112.123C24.5846 112.184 24.8856 111.111 24.8856 111.111C25.1228 111.348 25.4207 111.05 25.4207 110.755C25.4207 110.46 25.6001 108.323 25.5393 108.019C25.4785 107.715 25.214 106.733 25.214 106.733L25.822 99.1689L25.8098 80.6875Z" fill="white" stroke="#323232" stroke-linecap="round" stroke-linejoin="round"/>
<path d="M20.4688 96.4076C21.4623 96.8119 22.5191 97.0383 23.591 97.0765C25.1537 97.0765 25.5976 96.8545 25.5976 96.8545L25.6736 94.848C25.6736 94.848 22.1044 94.848 21.7213 94.699C21.3382 94.5501 20.6785 94.3281 20.6785 94.3281L20.4688 96.4076Z" fill="#7B55D3" stroke="#323232" stroke-linecap="round" stroke-linejoin="round"/>
<path d="M22.6985 83.5179C22.1907 84.4573 21.1327 91.4224 20.5703 95.1953C22.2573 95.7406 24.0354 95.9473 25.8025 95.8034V80.6875C25.8025 80.6875 23.3582 82.2927 22.6985 83.5179Z" fill="#7B55D3" stroke="#323232" stroke-linecap="round" stroke-linejoin="round"/>
<path d="M24.2933 90.8641L22.1621 89.5508" stroke="#323232" stroke-linecap="round" stroke-linejoin="round"/>
<path d="M22.9785 91.6182L24.4804 91.4297" stroke="#323232" stroke-linecap="round" stroke-linejoin="round"/>
<path d="M24.764 108.262C24.6998 108.554 24.5556 108.822 24.3475 109.037L24.0435 109.274L23.8672 110.347C23.8672 110.347 23.9858 111.001 24.0435 111.357" stroke="#323232" stroke-linecap="round" stroke-linejoin="round"/>
<path d="M24.887 111.12L24.8262 109.572" stroke="#323232" stroke-linecap="round" stroke-linejoin="round"/>
<path d="M24.7052 94.4538C24.5896 90.2826 23.6745 86.7773 23.6046 86.0932C23.5256 85.2876 23.3188 83.2385 24.8389 81.4539C25.6121 80.7008 26.4959 80.0702 27.4596 79.5842C27.9977 79.423 28.4112 79.347 28.4112 79.347L28.1406 79.2619C28.6115 79.0598 29.0961 78.8911 29.5907 78.7572C30.8585 78.4198 34.2331 78.2495 35.2455 79.1798C35.2455 79.1798 38.1702 80.0919 39.6082 81.1377C40.3323 82.0421 40.7856 83.133 40.9155 84.2843C41.0675 85.9595 41.3654 94.0586 41.4749 97.117C41.4992 97.8102 41.5539 98.4942 41.6391 99.1813C41.8306 100.701 42.0768 105.918 42.0768 105.918C42.0768 105.918 38.8755 107.025 33.7254 106.858C28.5753 106.691 25.4348 105.368 25.4348 105.368L24.6778 104.967C24.6778 104.967 24.6778 100.02 24.6778 99.1904C24.6869 97.57 24.7234 94.4811 24.7052 94.4538Z" fill="#7B55D3" stroke="#323232" stroke-linecap="round" stroke-linejoin="round"/>
<path d="M33.8438 91.2324C34.0705 91.6474 34.3384 92.0385 34.6433 92.3999L33.8438 91.2324Z" fill="#7B55D3"/>
<path d="M33.8438 91.2324C34.0705 91.6474 34.3384 92.0385 34.6433 92.3999" stroke="#323232" stroke-linecap="round" stroke-linejoin="round"/>
<path d="M31.4941 84.6191C31.9534 86.601 32.5988 88.535 33.4216 90.3955L31.4941 84.6191Z" fill="#7B55D3"/>
<path d="M31.4941 84.6191C31.9534 86.601 32.5988 88.535 33.4216 90.3955" stroke="#323232" stroke-linecap="round" stroke-linejoin="round"/>
<path d="M31.6836 88.2305C31.8873 88.6196 32.0758 88.9723 32.2247 89.2429L31.6836 88.2305Z" fill="#7B55D3"/>
<path d="M31.6836 88.2305C31.8873 88.6196 32.0758 88.9723 32.2247 89.2429" stroke="#323232" stroke-linecap="round" stroke-linejoin="round"/>
<path d="M29.875 84.6914C29.875 84.6914 30.5195 85.9805 31.1792 87.2634L29.875 84.6914Z" fill="#7B55D3"/>
<path d="M29.875 84.6914C29.875 84.6914 30.5195 85.9805 31.1792 87.2634" stroke="#323232" stroke-linecap="round" stroke-linejoin="round"/>
<path d="M37.2838 79.906C37.2838 79.906 36.0495 78.1396 35.7972 77.9724C35.5448 77.8052 30.4251 77.261 29.3276 77.5985C28.2301 77.9359 27.4609 79.5837 27.4609 79.5837C27.4609 79.5837 32.8938 79.228 37.2838 79.906Z" fill="white" stroke="#323232" stroke-linecap="round" stroke-linejoin="round"/>
<path d="M38.3652 88.9647L43.2691 93.303C43.2691 93.303 45.908 95.1879 46.9477 94.8231C47.8598 94.4887 56.0258 87.2804 57.9228 85.5992L58.6616 85.1796C58.6616 85.1796 59.7166 85.1796 60.0236 84.985C60.3307 84.7905 60.7898 84.4226 60.7898 84.4226H61.0451C61.3005 84.4226 61.4556 84.0639 61.5589 83.7051C61.6623 83.3464 61.9663 82.3249 61.8629 82.0695C61.7596 81.8141 60.428 80.9416 60.428 80.9416C60.428 80.9416 60.7867 80.4308 60.9418 80.2271C61.0968 80.0234 61.6045 79.458 61.5498 78.9472C61.4951 78.4365 60.9418 78.178 60.4736 78.7435C60.0054 79.309 57.71 81.0449 57.403 81.6591C57.1871 82.0877 56.874 82.7809 56.7007 83.1579L47.4098 88.3049C47.4098 88.3049 42.0317 81.9874 41.4663 81.6165C40.9008 81.2456 36.6992 79.9748 36.6992 79.9748" fill="white"/>
<path d="M38.3652 88.9647L43.2691 93.303C43.2691 93.303 45.908 95.1879 46.9477 94.8231C47.8598 94.4887 56.0258 87.2804 57.9228 85.5992L58.6616 85.1796C58.6616 85.1796 59.7166 85.1796 60.0236 84.985C60.3307 84.7905 60.7898 84.4226 60.7898 84.4226H61.0451C61.3005 84.4226 61.4556 84.0639 61.5589 83.7051C61.6623 83.3464 61.9663 82.3249 61.8629 82.0695C61.7596 81.8141 60.428 80.9416 60.428 80.9416C60.428 80.9416 60.7867 80.4308 60.9418 80.2271C61.0968 80.0234 61.6045 79.458 61.5498 78.9472C61.4951 78.4365 60.9418 78.178 60.4736 78.7435C60.0054 79.309 57.71 81.0449 57.403 81.6591C57.1871 82.0877 56.874 82.7809 56.7007 83.1579L47.4098 88.3049C47.4098 88.3049 42.0317 81.9874 41.4663 81.6165C40.9008 81.2456 36.6992 79.9748 36.6992 79.9748" stroke="#323232" stroke-linecap="round" stroke-linejoin="round"/>
<path d="M38.3659 88.9632L43.2697 93.3015C43.2697 93.3015 45.9086 95.1865 46.9484 94.8216C47.3132 94.6879 48.8424 93.4535 50.6635 91.9122C50.6409 91.0805 50.4796 90.2585 50.1862 89.48C49.9358 88.7194 49.5001 88.033 48.9184 87.4826L47.4196 88.3126C47.4196 88.3126 42.0415 81.995 41.476 81.6241C40.9105 81.2532 36.709 79.9824 36.709 79.9824" fill="#7B55D3"/>
<path d="M38.3659 88.9632L43.2697 93.3015C43.2697 93.3015 45.9086 95.1865 46.9484 94.8216C47.3132 94.6879 48.8424 93.4535 50.6635 91.9122C50.6409 91.0805 50.4796 90.2585 50.1862 89.48C49.9358 88.7194 49.5001 88.033 48.9184 87.4826L47.4196 88.3126C47.4196 88.3126 42.0415 81.995 41.476 81.6241C40.9105 81.2532 36.709 79.9824 36.709 79.9824" stroke="#323232" stroke-linecap="round" stroke-linejoin="round"/>
<path d="M48.0059 87.6717C48.0059 87.6717 48.2856 87.2948 49.0943 88.3011C49.9029 89.3074 50.3103 91.6635 50.3103 91.9979C50.3103 92.3324 50.8484 92.1986 51.1829 91.7973C51.5173 91.396 52.5935 91.2592 52.7303 90.1829C52.8671 89.1067 52.3929 87.6292 51.7879 86.6898C51.1829 85.7503 51.2497 85.7473 50.6447 85.8811C50.0397 86.0148 48.1974 87.1853 48.0059 87.6717Z" fill="#7B55D3" stroke="#323232" stroke-linecap="round" stroke-linejoin="round"/>
<path d="M47.4219 88.3008C47.4219 88.3008 48.0451 89.1733 47.7958 90.8637L47.4219 88.3008Z" fill="#7B55D3"/>
<path d="M47.4219 88.3008C47.4219 88.3008 48.0451 89.1733 47.7958 90.8637" stroke="#323232" stroke-linecap="round" stroke-linejoin="round"/>
<path d="M48.4398 89.9863C48.4398 89.9863 48.6891 90.6126 48.1875 91.9929L48.4398 89.9863Z" fill="#7B55D3"/>
<path d="M48.4398 89.9863C48.4398 89.9863 48.6891 90.6126 48.1875 91.9929" stroke="#323232" stroke-linecap="round" stroke-linejoin="round"/>
<path d="M60.5977 84.3518C60.7299 84.0443 60.7991 83.7135 60.8013 83.3789L60.5977 84.3518Z" fill="white"/>
<path d="M60.5977 84.3518C60.7299 84.0443 60.7991 83.7135 60.8013 83.3789" stroke="#323232" stroke-linecap="round" stroke-linejoin="round"/>
<path d="M4.29297 145.674H144.701" stroke="#323232" stroke-miterlimit="10"/>
</svg>
