<svg width="24" height="24" viewBox="0 0 24 24" fill="none" xmlns="http://www.w3.org/2000/svg">
<g clip-path="url(#clip0_1385_7246)">
<path d="M1.88977 8.88281H3.30709V10.4828H1.88977V8.88281ZM4.15748 8.88281H5.52756V10.4828H4.15748V8.88281ZM1.88977 11.4207H3.25985V13.0759H1.88977V11.4207ZM4.15748 11.4207H5.57481V13.0759H4.15748V11.4207ZM1.88977 14.069H3.25985V15.669H1.88977V14.069ZM4.15748 14.069H5.57481V15.669H4.15748V14.069ZM1.88977 16.5518H3.25985V18.2069H1.88977V16.5518ZM4.15748 16.5518H5.57481V18.2069H4.15748V16.5518ZM1.88977 19.2001H3.25985V20.8001H1.88977V19.2001ZM4.15748 19.2001H5.57481V20.8001H4.15748V19.2001Z" fill="#323232"/>
<path d="M24 6.34483H17.4331V0H6.56693V6.34483H0V24H24V6.34483ZM6.56693 23.0069H0.803148V7.33794H6.56693L6.56693 23.0069ZM13.7008 23.0621H10.2992V17.269H13.7008V23.0621ZM9.49606 16.2759V23.0621H7.41732V0.937929H16.5827L16.5354 23.0621H14.5512V16.2759H9.49606V16.2759ZM23.1496 23.0069H17.4331V7.33794H23.1496V23.0069Z" fill="#323232"/>
<path d="M18.4724 8.88292H19.8425V10.4829H18.4724V8.88292ZM20.6929 8.88292H22.1102V10.4829H20.6929V8.88292ZM18.4252 11.4209H19.8425V13.076H18.4252V11.4209ZM20.7402 11.4209H22.1102V13.076H20.7402V11.4209ZM18.4252 14.0691H19.8425V15.6691H18.4252V14.0691ZM20.7402 14.0691H22.1102V15.6691H20.7402V14.0691ZM18.4252 16.5519H19.8425V18.2071H18.4252V16.5519ZM20.7402 16.5519H22.1102V18.2071H20.7402V16.5519ZM18.4252 19.2002H19.8425V20.8002H18.4252V19.2002ZM20.7402 19.2002H22.1102V20.8002H20.7402V19.2002ZM8.50394 7.77947H9.92126V9.37947H8.50394V7.77947ZM13.9843 7.77947H15.4016V9.37947H13.9843V7.77947ZM8.50394 10.3174H9.92126V11.9726H8.50394V10.3174ZM14.0315 10.3174H15.4016V11.9726H14.0315V10.3174ZM8.50394 12.9657H9.92126V14.5657H8.50394V12.9657ZM14.0315 12.9657H15.4016V14.5657H14.0315V12.9657ZM11.2441 7.7243H12.6614V9.37947H11.2441V7.7243ZM8.50394 5.18637H9.92126V6.78637H8.50394V5.18637ZM13.9843 5.18637H15.4016V6.78637H13.9843V5.18637ZM11.2441 5.18637H12.6614V6.78637H11.2441V5.18637ZM8.50394 2.59326H9.92126V4.19327H8.50394V2.59326ZM13.9843 2.59326H15.4016V4.19327H13.9843V2.59326ZM11.2441 2.59326H12.6614V4.19327H11.2441V2.59326ZM11.2441 10.3174H12.6614V11.9174H11.2441V10.3174ZM11.2441 12.9105H12.6614V14.5657H11.2441V12.9105Z" fill="#323232"/>
</g>
<defs>
<clipPath id="clip0_1385_7246">
<rect width="24" height="24" fill="white"/>
</clipPath>
</defs>
</svg>
