<svg width="16" height="17" viewBox="0 0 16 17" fill="none" xmlns="http://www.w3.org/2000/svg">
<path d="M4.66667 7.16797H8V10.5013H4.66667M12.6667 13.168H3.33333V5.83464H12.6667M12.6667 2.5013H12V1.16797H10.6667V2.5013H5.33333V1.16797H4V2.5013H3.33333C2.97971 2.5013 2.64057 2.64178 2.39052 2.89183C2.14048 3.14187 2 3.48101 2 3.83464V13.168C2 13.5216 2.14048 13.8607 2.39052 14.1108C2.64057 14.3608 2.97971 14.5013 3.33333 14.5013H12.6667C13.0203 14.5013 13.3594 14.3608 13.6095 14.1108C13.8595 13.8607 14 13.5216 14 13.168V3.83464C14 3.48101 13.8595 3.14187 13.6095 2.89183C13.3594 2.64178 13.0203 2.5013 12.6667 2.5013Z" fill="#606060"/>
</svg>
