<svg width="16" height="17" viewBox="0 0 16 17" fill="none" xmlns="http://www.w3.org/2000/svg">
<path d="M5.3335 1.83203V3.83203" stroke="#606060" stroke-width="1.5" stroke-miterlimit="10" stroke-linecap="round" stroke-linejoin="round"/>
<path d="M10.6665 1.83203V3.83203" stroke="#606060" stroke-width="1.5" stroke-miterlimit="10" stroke-linecap="round" stroke-linejoin="round"/>
<path d="M2.3335 6.55859H13.6668" stroke="#606060" stroke-width="1.5" stroke-miterlimit="10" stroke-linecap="round" stroke-linejoin="round"/>
<path d="M12.0002 15.8333C13.4729 15.8333 14.6668 14.6394 14.6668 13.1667C14.6668 11.6939 13.4729 10.5 12.0002 10.5C10.5274 10.5 9.3335 11.6939 9.3335 13.1667C9.3335 14.6394 10.5274 15.8333 12.0002 15.8333Z" stroke="#606060" stroke-width="1.5" stroke-miterlimit="10" stroke-linecap="round" stroke-linejoin="round"/>
<path d="M12.7131 13.9067L11.2998 12.5" stroke="#606060" stroke-width="1.5" stroke-miterlimit="10" stroke-linecap="round" stroke-linejoin="round"/>
<path d="M12.7 12.5117L11.2866 13.9251" stroke="#606060" stroke-width="1.5" stroke-miterlimit="10" stroke-linecap="round" stroke-linejoin="round"/>
<path d="M14 6.16536V11.4054C13.5133 10.852 12.8 10.4987 12 10.4987C10.5267 10.4987 9.33333 11.692 9.33333 13.1654C9.33333 13.6654 9.47333 14.1387 9.72 14.5387C9.86 14.7787 10.04 14.992 10.2467 15.1654H5.33333C3 15.1654 2 13.832 2 11.832V6.16536C2 4.16536 3 2.83203 5.33333 2.83203H10.6667C13 2.83203 14 4.16536 14 6.16536Z" stroke="#606060" stroke-width="1.5" stroke-miterlimit="10" stroke-linecap="round" stroke-linejoin="round"/>
<path d="M7.99715 9.63411H8.00314" stroke="#606060" stroke-width="1.5" stroke-linecap="round" stroke-linejoin="round"/>
<path d="M5.52938 9.63411H5.53537" stroke="#606060" stroke-width="1.5" stroke-linecap="round" stroke-linejoin="round"/>
<path d="M5.52938 11.6341H5.53537" stroke="#606060" stroke-width="1.5" stroke-linecap="round" stroke-linejoin="round"/>
</svg>
