<svg width="21" height="18" viewBox="0 0 21 18" fill="none" xmlns="http://www.w3.org/2000/svg">
<path d="M20.875 8C20.8758 7.19382 20.6767 6.40002 20.2955 5.68967C19.9142 4.97933 19.3628 4.37461 18.6905 3.92968C18.0182 3.48475 17.2461 3.21349 16.4432 3.14019C15.6404 3.0669 14.8319 3.19385 14.0902 3.50968C13.3484 3.82551 12.6966 4.32036 12.193 4.94992C11.6895 5.57948 11.3499 6.3241 11.2047 7.11711C11.0595 7.91011 11.1133 8.72674 11.3611 9.49387C11.609 10.261 12.0433 10.9547 12.625 11.5128V17C12.625 17.064 12.6413 17.1269 12.6724 17.1827C12.7035 17.2386 12.7484 17.2856 12.8028 17.3192C12.8572 17.3529 12.9193 17.372 12.9832 17.3749C13.0471 17.3778 13.1106 17.3642 13.1678 17.3356L16 15.9191L18.8322 17.3356C18.8844 17.3614 18.9418 17.3749 19 17.375C19.0995 17.375 19.1948 17.3355 19.2652 17.2652C19.3355 17.1948 19.375 17.0995 19.375 17V11.5128C19.8493 11.0589 20.2267 10.5137 20.4845 9.90991C20.7423 9.30618 20.8751 8.65648 20.875 8ZM11.875 8C11.875 7.18415 12.1169 6.38663 12.5702 5.70827C13.0234 5.02992 13.6677 4.50121 14.4214 4.189C15.1752 3.87679 16.0046 3.7951 16.8047 3.95426C17.6049 4.11343 18.3399 4.50629 18.9168 5.08318C19.4937 5.66008 19.8866 6.39508 20.0457 7.19525C20.2049 7.99542 20.1232 8.82482 19.811 9.57857C19.4988 10.3323 18.9701 10.9766 18.2917 11.4298C17.6134 11.8831 16.8158 12.125 16 12.125C14.9064 12.1238 13.8579 11.6888 13.0846 10.9154C12.3112 10.1421 11.8762 9.09364 11.875 8ZM18.625 16.3934L16.1678 15.1644C16.1157 15.1383 16.0583 15.1247 16 15.1247C15.9417 15.1247 15.8843 15.1383 15.8322 15.1644L13.375 16.3934V12.1044C14.1581 12.6075 15.0692 12.875 16 12.875C16.9308 12.875 17.8419 12.6075 18.625 12.1044V16.3934ZM10.375 14C10.375 14.0995 10.3355 14.1948 10.2652 14.2652C10.1948 14.3355 10.0995 14.375 10 14.375H1.75C1.45163 14.375 1.16548 14.2565 0.954505 14.0455C0.743526 13.8345 0.625 13.5484 0.625 13.25V1.25C0.625 0.951631 0.743526 0.665483 0.954505 0.454505C1.16548 0.243526 1.45163 0.125 1.75 0.125H18.25C18.5484 0.125 18.8345 0.243526 19.0455 0.454505C19.2565 0.665483 19.375 0.951631 19.375 1.25C19.375 1.34946 19.3355 1.44484 19.2652 1.51516C19.1948 1.58549 19.0995 1.625 19 1.625C18.9005 1.625 18.8052 1.58549 18.7348 1.51516C18.6645 1.44484 18.625 1.34946 18.625 1.25C18.625 1.15054 18.5855 1.05516 18.5152 0.984835C18.4448 0.914509 18.3495 0.875 18.25 0.875H1.75C1.65054 0.875 1.55516 0.914509 1.48484 0.984835C1.41451 1.05516 1.375 1.15054 1.375 1.25V13.25C1.375 13.3495 1.41451 13.4448 1.48484 13.5152C1.55516 13.5855 1.65054 13.625 1.75 13.625H10C10.0995 13.625 10.1948 13.6645 10.2652 13.7348C10.3355 13.8052 10.375 13.9005 10.375 14ZM8.875 8.75C8.875 8.84946 8.83549 8.94484 8.76517 9.01517C8.69484 9.08549 8.59946 9.125 8.5 9.125H4.75C4.65054 9.125 4.55516 9.08549 4.48483 9.01517C4.41451 8.94484 4.375 8.84946 4.375 8.75C4.375 8.65054 4.41451 8.55516 4.48483 8.48483C4.55516 8.41451 4.65054 8.375 4.75 8.375H8.5C8.59946 8.375 8.69484 8.41451 8.76517 8.48483C8.83549 8.55516 8.875 8.65054 8.875 8.75ZM8.875 5.75C8.875 5.84946 8.83549 5.94484 8.76517 6.01517C8.69484 6.08549 8.59946 6.125 8.5 6.125H4.75C4.65054 6.125 4.55516 6.08549 4.48483 6.01517C4.41451 5.94484 4.375 5.84946 4.375 5.75C4.375 5.65054 4.41451 5.55516 4.48483 5.48483C4.55516 5.41451 4.65054 5.375 4.75 5.375H8.5C8.59946 5.375 8.69484 5.41451 8.76517 5.48483C8.83549 5.55516 8.875 5.65054 8.875 5.75Z" fill="#323232"/>
</svg>
