<svg width="32" height="32" viewBox="0 0 32 32" fill="none" xmlns="http://www.w3.org/2000/svg">
<path d="M12.3245 0.09375C10.2558 0.456249 8.48704 1.78125 7.53704 3.675C7.28704 4.16875 7.01829 5.0375 6.93079 5.625C6.83079 6.3125 6.89329 7.5125 7.05579 8.1375C7.51829 9.91875 8.67454 11.425 10.2683 12.3125L10.6245 12.5125V15.1625C10.6245 16.6187 10.6058 17.8125 10.587 17.8125C10.562 17.8125 10.337 17.6187 10.087 17.375C9.37454 16.7 8.73079 16.4375 7.78079 16.4375C6.33079 16.4375 5.08704 17.35 4.68079 18.7188C4.41829 19.5875 4.54954 20.6812 5.00579 21.4062C5.11204 21.5813 6.45579 22.9812 7.99329 24.5312L10.7933 27.3438L11.6558 29.3438C12.1245 30.4438 12.5683 31.4375 12.637 31.55C12.7058 31.6625 12.8683 31.8062 13.0058 31.875C13.237 31.9937 13.3995 32 19.0245 32C22.9558 32 24.862 31.9812 24.9808 31.9312C25.3495 31.7938 25.4933 31.575 25.7495 30.75C27.0433 26.6188 27.562 22.6125 27.487 17.3C27.462 15.5812 27.4433 15.375 27.3308 15.0562C26.8433 13.7375 25.5558 12.95 24.2495 13.175C24.0183 13.2125 23.7933 13.2625 23.7433 13.2812C23.6808 13.3062 23.5933 13.1812 23.4495 12.875C22.9308 11.7687 21.687 11.0938 20.512 11.3C20.2745 11.3375 20.037 11.3875 19.987 11.4062C19.9183 11.4375 19.8558 11.3562 19.7558 11.1062C19.6808 10.9187 19.4808 10.5938 19.3183 10.3937L19.0183 10.0187L19.312 9.4125C20.5245 6.94375 20.037 3.95625 18.0995 1.9875C17.2745 1.15 16.1495 0.5 15.0308 0.2125C14.237 0.0124989 13.0933 -0.0375023 12.3245 0.09375ZM14.7808 2.0875C16.087 2.5125 17.137 3.43125 17.687 4.65C17.9683 5.275 18.0808 5.8125 18.0808 6.5625C18.0745 7.49375 17.8745 8.21875 17.3995 9.00625C17.2058 9.325 17.162 9.3625 16.9245 9.39375C16.7745 9.41875 16.5683 9.45 16.462 9.475L16.262 9.5125L16.237 7.775C16.212 6.2125 16.1933 5.99375 16.0808 5.68125C15.2308 3.375 12.1995 3.0875 10.9808 5.19375C10.6495 5.76875 10.6245 5.975 10.6245 8.23125V10.3188L10.3683 10.1125C9.79954 9.65625 9.18704 8.7125 8.93704 7.90625C8.74954 7.3125 8.70579 6.25625 8.83079 5.64375C9.16204 4.1 10.1933 2.84375 11.6183 2.24375C12.5995 1.83125 13.8058 1.775 14.7808 2.0875ZM13.9245 5.79375C14.012 5.8625 14.1433 5.99375 14.212 6.0875C14.3433 6.25625 14.3433 6.33125 14.3745 11.2812C14.4058 16.2375 14.4058 16.3062 14.537 16.4812C14.9308 17.0125 15.662 16.9812 16.087 16.4125C16.212 16.25 16.2183 16.1375 16.2495 14.0312C16.2808 11.9187 16.287 11.8125 16.412 11.6437C16.8058 11.1125 17.537 11.1437 17.962 11.7125C18.087 11.875 18.0933 11.9875 18.1245 14.0938C18.1558 16.2063 18.162 16.3125 18.287 16.4812C18.6808 17.0125 19.412 16.9812 19.837 16.4125C19.9558 16.2562 19.9683 16.1312 19.9995 14.9688C20.0308 13.8062 20.0433 13.6812 20.162 13.5187C20.5558 12.9875 21.287 13.0187 21.712 13.5875C21.8308 13.7437 21.8433 13.8687 21.8745 15.0187C21.9058 16.35 21.9308 16.45 22.2245 16.6812C22.7808 17.1187 23.6245 16.7375 23.7183 16.0188C23.7995 15.3625 24.112 15.0312 24.6558 15.0312C25.0183 15.0312 25.2245 15.1437 25.462 15.4625C25.587 15.6313 25.5933 15.7 25.587 18.3625C25.5808 21.7 25.487 23.0625 25.087 25.4688C24.837 26.9812 24.5058 28.375 24.0245 30.0125C23.9933 30.1187 23.6995 30.125 19.012 30.125H14.0308L13.2183 28.2313L12.4058 26.3438L9.49329 23.4062C6.61204 20.5062 6.57454 20.4625 6.46829 20.1C6.37454 19.7812 6.36829 19.6812 6.43704 19.3875C6.52454 19 6.81829 18.625 7.19329 18.4312C7.50579 18.275 8.06829 18.275 8.40579 18.4312C8.56204 18.5062 9.08704 18.9875 9.78079 19.6875C10.3995 20.3125 11.0183 20.8812 11.1495 20.95C11.5683 21.1625 12.0183 21.0312 12.337 20.6C12.4683 20.4312 12.4683 20.375 12.4995 13.3125C12.5308 6.2375 12.5308 6.19375 12.662 6.01875C12.9495 5.625 13.5558 5.51875 13.9245 5.79375Z" fill="white"/>
</svg>
