<svg width="24" height="25" viewBox="0 0 24 25" fill="none" xmlns="http://www.w3.org/2000/svg">
<circle cx="9" cy="13.3936" r="8.25" fill="#FCFCFC" stroke="#D32F2F" stroke-width="1.5"/>
<path d="M23.3536 13.7471C23.5488 13.5518 23.5488 13.2353 23.3536 13.04L20.1716 9.85802C19.9763 9.66276 19.6597 9.66276 19.4645 9.85802C19.2692 10.0533 19.2692 10.3699 19.4645 10.5651L22.2929 13.3936L19.4645 16.222C19.2692 16.4172 19.2692 16.7338 19.4645 16.9291C19.6597 17.1244 19.9763 17.1244 20.1716 16.9291L23.3536 13.7471ZM12 12.8936C11.7239 12.8936 11.5 13.1174 11.5 13.3936C11.5 13.6697 11.7239 13.8936 12 13.8936V12.8936ZM23 12.8936L12 12.8936V13.8936L23 13.8936V12.8936Z" fill="#D32F2F"/>
<line x1="5.75" y1="1.64355" x2="12.25" y2="1.64355" stroke="#D32F2F" stroke-width="1.5" stroke-linecap="round"/>
</svg>
