<svg width="11" height="19" viewBox="0 0 11 19" fill="none" xmlns="http://www.w3.org/2000/svg">
<path d="M10.3713 0.367142C10.2552 0.250763 10.1173 0.158429 9.96541 0.0954289C9.81357 0.0324287 9.65078 0 9.48638 0C9.32198 0 9.1592 0.0324287 9.00735 0.0954289C8.8555 0.158429 8.71758 0.250763 8.60148 0.367142L0.292411 8.67505C0.199718 8.76754 0.126179 8.8774 0.0760031 8.99834C0.0258273 9.11928 0 9.24893 0 9.37987C0 9.5108 0.0258273 9.64045 0.0760031 9.7614C0.126179 9.88234 0.199718 9.9922 0.292411 10.0847L8.60148 18.3926C9.09143 18.8825 9.88134 18.8825 10.3713 18.3926C10.8612 17.9027 10.8612 17.1129 10.3713 16.623L3.13209 9.37487L10.3813 2.1267C10.8612 1.64682 10.8612 0.847021 10.3713 0.367142Z" fill="#7B55D3"/>
</svg>
