<svg width="16" height="14" viewBox="0 0 16 14" fill="none" xmlns="http://www.w3.org/2000/svg">
<path d="M12.8666 4.28097V7.71431C12.8666 9.76765 11.6932 10.6476 9.93323 10.6476H4.07322C3.77322 10.6476 3.48656 10.621 3.21989 10.561C3.05322 10.5343 2.89323 10.4877 2.74656 10.4343C1.74656 10.061 1.13989 9.19432 1.13989 7.71431V4.28097C1.13989 2.22763 2.31322 1.34766 4.07322 1.34766H9.93323C11.4266 1.34766 12.4999 1.98099 12.7866 3.42765C12.8332 3.69432 12.8666 3.96763 12.8666 4.28097Z" stroke="#7B55D3" stroke-miterlimit="10" stroke-linecap="round" stroke-linejoin="round"/>
<path d="M14.8674 6.28105V9.7144C14.8674 11.7677 13.694 12.6477 11.934 12.6477H6.07404C5.5807 12.6477 5.13404 12.5811 4.74738 12.4344C3.95404 12.1411 3.41404 11.5344 3.2207 10.5611C3.48737 10.6211 3.77404 10.6477 4.07404 10.6477H9.93404C11.694 10.6477 12.8674 9.76773 12.8674 7.7144V4.28105C12.8674 3.96771 12.8407 3.68773 12.7874 3.42773C14.054 3.6944 14.8674 4.58771 14.8674 6.28105Z" stroke="#7B55D3" stroke-miterlimit="10" stroke-linecap="round" stroke-linejoin="round"/>
<path d="M6.99878 7.76025C7.9708 7.76025 8.75879 6.97227 8.75879 6.00024C8.75879 5.02822 7.9708 4.24023 6.99878 4.24023C6.02676 4.24023 5.23877 5.02822 5.23877 6.00024C5.23877 6.97227 6.02676 7.76025 6.99878 7.76025Z" stroke="#7B55D3" stroke-miterlimit="10" stroke-linecap="round" stroke-linejoin="round"/>
<path d="M3.18652 4.53516V7.46851" stroke="#7B55D3" stroke-miterlimit="10" stroke-linecap="round" stroke-linejoin="round"/>
<path d="M10.8145 4.53516V7.46851" stroke="#7B55D3" stroke-miterlimit="10" stroke-linecap="round" stroke-linejoin="round"/>
</svg>
