<svg width="24" height="24" viewBox="0 0 24 24" fill="none" xmlns="http://www.w3.org/2000/svg">
<g id="ic:round-arrow-back-ios">
<path id="Vector" d="M16.62 2.98979C16.5039 2.87338 16.3659 2.78103 16.2141 2.71801C16.0622 2.655 15.8994 2.62256 15.735 2.62256C15.5706 2.62256 15.4078 2.655 15.2559 2.71801C15.1041 2.78103 14.9661 2.87338 14.85 2.98979L6.54 11.2998C6.4473 11.3923 6.37375 11.5022 6.32357 11.6232C6.27338 11.7441 6.24755 11.8738 6.24755 12.0048C6.24755 12.1358 6.27338 12.2654 6.32357 12.3864C6.37375 12.5074 6.4473 12.6173 6.54 12.7098L14.85 21.0198C15.34 21.5098 16.13 21.5098 16.62 21.0198C17.11 20.5298 17.11 19.7398 16.62 19.2498L9.38 11.9998L16.63 4.74979C17.11 4.26979 17.11 3.46979 16.62 2.98979Z" fill="#606060"/>
</g>
</svg>
