<svg width="16" height="16" viewBox="0 0 16 16" fill="none" xmlns="http://www.w3.org/2000/svg">
<path d="M5.33325 1.33398V3.33398" stroke="#7B55D3" stroke-miterlimit="10" stroke-linecap="round" stroke-linejoin="round"/>
<path d="M10.6667 1.33398V3.33398" stroke="#7B55D3" stroke-miterlimit="10" stroke-linecap="round" stroke-linejoin="round"/>
<path d="M2.33325 6.06055H13.6666" stroke="#7B55D3" stroke-miterlimit="10" stroke-linecap="round" stroke-linejoin="round"/>
<path d="M11.9999 15.3333C13.4727 15.3333 14.6666 14.1394 14.6666 12.6667C14.6666 11.1939 13.4727 10 11.9999 10C10.5272 10 9.33325 11.1939 9.33325 12.6667C9.33325 14.1394 10.5272 15.3333 11.9999 15.3333Z" stroke="#7B55D3" stroke-miterlimit="10" stroke-linecap="round" stroke-linejoin="round"/>
<path d="M12.7134 13.4067L11.3 12" stroke="#7B55D3" stroke-miterlimit="10" stroke-linecap="round" stroke-linejoin="round"/>
<path d="M12.7 12.0137L11.2866 13.427" stroke="#7B55D3" stroke-miterlimit="10" stroke-linecap="round" stroke-linejoin="round"/>
<path d="M14 5.66732V10.9073C13.5133 10.354 12.8 10.0007 12 10.0007C10.5267 10.0007 9.33333 11.194 9.33333 12.6673C9.33333 13.1673 9.47333 13.6406 9.72 14.0406C9.86 14.2806 10.04 14.494 10.2467 14.6673H5.33333C3 14.6673 2 13.334 2 11.334V5.66732C2 3.66732 3 2.33398 5.33333 2.33398H10.6667C13 2.33398 14 3.66732 14 5.66732Z" stroke="#7B55D3" stroke-miterlimit="10" stroke-linecap="round" stroke-linejoin="round"/>
<path d="M7.99691 9.13411H8.0029" stroke="#7B55D3" stroke-linecap="round" stroke-linejoin="round"/>
<path d="M5.52962 9.13411H5.53561" stroke="#7B55D3" stroke-linecap="round" stroke-linejoin="round"/>
<path d="M5.52962 11.1341H5.53561" stroke="#7B55D3" stroke-linecap="round" stroke-linejoin="round"/>
</svg>
