<svg width="12" height="13" viewBox="0 0 12 13" fill="none" xmlns="http://www.w3.org/2000/svg">
<path d="M9.33398 5.16602C10.4386 5.16602 11.334 4.27059 11.334 3.16602C11.334 2.06145 10.4386 1.16602 9.33398 1.16602C8.22941 1.16602 7.33398 2.06145 7.33398 3.16602C7.33398 4.27059 8.22941 5.16602 9.33398 5.16602Z" stroke="#606060" stroke-linecap="round" stroke-linejoin="round"/>
<path d="M2.66699 11.832C3.77156 11.832 4.66699 10.9366 4.66699 9.83203C4.66699 8.72746 3.77156 7.83203 2.66699 7.83203C1.56242 7.83203 0.666992 8.72746 0.666992 9.83203C0.666992 10.9366 1.56242 11.832 2.66699 11.832Z" stroke="#606060" stroke-linecap="round" stroke-linejoin="round"/>
<path d="M7.33366 7.83268H11.3337V11.166C11.3337 11.3428 11.2634 11.5124 11.1384 11.6374C11.0134 11.7624 10.8438 11.8327 10.667 11.8327H8.00033C7.82351 11.8327 7.65395 11.7624 7.52892 11.6374C7.4039 11.5124 7.33366 11.3428 7.33366 11.166V7.83268ZM0.666992 1.16602H4.66699V4.49935C4.66699 4.67616 4.59675 4.84573 4.47173 4.97075C4.34671 5.09578 4.17714 5.16602 4.00033 5.16602H1.33366C1.15685 5.16602 0.987279 5.09578 0.862254 4.97075C0.73723 4.84573 0.666992 4.67616 0.666992 4.49935V1.16602Z" stroke="#606060" stroke-linecap="round" stroke-linejoin="round"/>
</svg>
