<svg width="24" height="24" viewBox="0 0 24 24" fill="none" xmlns="http://www.w3.org/2000/svg">
<path d="M12.781 7.3915V11.6765L15.625 14.5205C15.7499 14.6702 15.8142 14.8612 15.8054 15.0559C15.7966 15.2507 15.7153 15.4351 15.5774 15.5729C15.4396 15.7108 15.2552 15.7921 15.0604 15.8009C14.8657 15.8097 14.6747 15.7454 14.525 15.6205L11.448 12.5525C11.3015 12.4061 11.2191 12.2076 11.219 12.0005V7.3915C11.219 7.18423 11.3013 6.98546 11.4479 6.8389C11.5945 6.69234 11.7932 6.61 12.0005 6.61C12.2078 6.61 12.4065 6.69234 12.5531 6.8389C12.6997 6.98546 12.782 7.18423 12.782 7.3915H12.781ZM15.073 2.0005H8.927C7.25717 1.99891 5.64342 2.60291 4.385 3.7005V2.7815C4.385 2.57423 4.30266 2.37546 4.1561 2.2289C4.00954 2.08234 3.81077 2 3.6035 2C3.39623 2 3.19746 2.08234 3.0509 2.2289C2.90434 2.37546 2.822 2.57423 2.822 2.7815V5.8545C2.82253 6.06147 2.90498 6.25982 3.05133 6.40617C3.19768 6.55252 3.39603 6.63497 3.603 6.6355H6.676C6.88327 6.6355 7.08204 6.55316 7.2286 6.4066C7.37516 6.26004 7.4575 6.06127 7.4575 5.854C7.4575 5.64673 7.37516 5.44796 7.2286 5.3014C7.08204 5.15484 6.88327 5.0725 6.676 5.0725H5.2C6.20112 4.10613 7.53756 3.56496 8.929 3.5625H15.075C16.4974 3.56409 17.8611 4.12984 18.8669 5.13563C19.8727 6.14141 20.4384 7.5051 20.44 8.9275V15.0735C20.4384 16.4959 19.8727 17.8596 18.8669 18.8654C17.8611 19.8712 16.4974 20.4369 15.075 20.4385H8.927C7.5046 20.4369 6.14091 19.8712 5.13513 18.8654C4.12934 17.8596 3.56359 16.4959 3.562 15.0735V12.0005C3.562 11.7934 3.47972 11.5947 3.33325 11.4482C3.18678 11.3018 2.98813 11.2195 2.781 11.2195C2.57387 11.2195 2.37522 11.3018 2.22875 11.4482C2.08228 11.5947 2 11.7934 2 12.0005V15.0735C2.00212 16.91 2.7326 18.6707 4.03121 19.9693C5.32982 21.2679 7.0905 21.9984 8.927 22.0005H15.073C16.9095 21.9984 18.6702 21.2679 19.9688 19.9693C21.2674 18.6707 21.9979 16.91 22 15.0735V8.9275C21.9979 7.091 21.2674 5.33032 19.9688 4.03171C18.6702 2.7331 16.9095 2.00262 15.073 2.0005Z" fill="#606060"/>
</svg>
