<svg width="16" height="16" viewBox="0 0 16 16" fill="none" xmlns="http://www.w3.org/2000/svg">
<path d="M14.5554 9.29601V3.94878C13.5774 4.4754 12.692 4.73872 11.8991 4.73872C11.4246 4.73872 11.005 4.64612 10.6405 4.46094C10.0618 4.17737 9.52935 3.95602 9.04324 3.79687C8.55713 3.63773 8.04208 3.55816 7.4981 3.55816C6.49694 3.55816 5.33086 3.92564 3.99984 4.66059V9.86024C5.41766 9.20631 6.67056 8.87934 7.75852 8.87934C8.07681 8.87934 8.37628 8.90104 8.65696 8.94444C8.93763 8.98785 9.22119 9.06308 9.50765 9.17014C9.79411 9.2772 10.0169 9.3669 10.1761 9.43924C10.3352 9.51157 10.5739 9.62587 10.8922 9.78212L11.1353 9.90365C11.3899 10.031 11.6821 10.0946 12.012 10.0946C12.7064 10.0946 13.5542 9.82841 14.5554 9.29601ZM2.88873 2.44705C2.88873 2.64959 2.83809 2.83478 2.73682 3.0026C2.63554 3.17043 2.50099 3.30353 2.33317 3.40191V14.3915C2.33317 14.4725 2.30713 14.5391 2.25505 14.5911C2.20296 14.6432 2.13641 14.6693 2.05539 14.6693H1.49984C1.41882 14.6693 1.35227 14.6432 1.30018 14.5911C1.2481 14.5391 1.22206 14.4725 1.22206 14.3915V3.40191C1.05424 3.30353 0.919687 3.17043 0.818414 3.0026C0.71714 2.83478 0.666504 2.64959 0.666504 2.44705C0.666504 2.14034 0.775011 1.87847 0.992025 1.66146C1.20904 1.44444 1.4709 1.33594 1.77762 1.33594C2.08433 1.33594 2.34619 1.44444 2.56321 1.66146C2.78022 1.87847 2.88873 2.14034 2.88873 2.44705ZM15.6665 3.0026V9.62587C15.6665 9.85156 15.5652 10.0165 15.3627 10.1207C15.3048 10.1496 15.2556 10.1756 15.2151 10.1988C13.9535 10.8701 12.8858 11.2057 12.012 11.2057C11.5027 11.2057 11.0456 11.1045 10.6405 10.9019L10.3974 10.7804C10.027 10.5894 9.74058 10.4505 9.53803 10.3637C9.33549 10.2769 9.07218 10.193 8.7481 10.112C8.42403 10.031 8.09417 9.99045 7.75852 9.99045C7.16824 9.99045 6.48682 10.1178 5.71425 10.3724C4.94168 10.627 4.28051 10.9222 3.73074 11.2578C3.64393 11.3099 3.54845 11.3359 3.44428 11.3359C3.35169 11.3359 3.2591 11.3128 3.1665 11.2665C2.98132 11.1565 2.88873 10.9945 2.88873 10.7804V4.33941C2.88873 4.13686 2.97843 3.97772 3.15782 3.86198C3.36037 3.74045 3.58751 3.61748 3.83925 3.49306C4.09098 3.36863 4.42084 3.21817 4.82883 3.04167C5.23682 2.86516 5.67808 2.72193 6.15262 2.61198C6.62715 2.50203 7.07565 2.44705 7.4981 2.44705C8.14625 2.44705 8.75099 2.53675 9.31234 2.71615C9.87368 2.89554 10.4784 3.14439 11.1266 3.46267C11.3465 3.57263 11.604 3.6276 11.8991 3.6276C12.6052 3.6276 13.5022 3.30353 14.5901 2.65538C14.7174 2.58594 14.8071 2.53675 14.8592 2.50781C15.0386 2.41522 15.218 2.42101 15.3974 2.52517C15.5768 2.64091 15.6665 2.80006 15.6665 3.0026Z" fill="#FCFCFC"/>
</svg>
