<svg width="16" height="17" viewBox="0 0 16 17" fill="none" xmlns="http://www.w3.org/2000/svg">
<path d="M1.66602 8.4974C1.66602 5.51206 1.66602 4.01873 2.59335 3.0914C3.52068 2.16406 5.01335 2.16406 7.99935 2.16406C10.9847 2.16406 12.478 2.16406 13.4053 3.0914C14.3327 4.01873 14.3327 5.5114 14.3327 8.4974C14.3327 11.4827 14.3327 12.9761 13.4053 13.9034C12.478 14.8307 10.9853 14.8307 7.99935 14.8307C5.01402 14.8307 3.52068 14.8307 2.59335 13.9034C1.66602 12.9761 1.66602 11.4834 1.66602 8.4974Z" stroke="#606060" stroke-width="1.5" stroke-linecap="round" stroke-linejoin="round"/>
<path d="M8.00488 7.50273C7.73967 7.50273 7.48531 7.60809 7.29778 7.79562C7.11024 7.98316 7.00488 8.23751 7.00488 8.50273C7.00488 8.76795 7.11024 9.0223 7.29778 9.20984C7.48531 9.39737 7.73967 9.50273 8.00488 9.50273C8.2701 9.50273 8.52445 9.39737 8.71199 9.20984C8.89953 9.0223 9.00488 8.76795 9.00488 8.50273C9.00488 8.23751 8.89953 7.98316 8.71199 7.79562C8.52445 7.60809 8.2701 7.50273 8.00488 7.50273ZM8.00488 7.50273V5.16406M10.0095 10.5107L8.71022 9.21206" stroke="#606060" stroke-width="1.5" stroke-linecap="round" stroke-linejoin="round"/>
</svg>
