<svg width="24" height="24" viewBox="0 0 24 24" fill="none" xmlns="http://www.w3.org/2000/svg">
<path d="M17 9.00015C16.9317 10.9223 16.1036 12.7388 14.6976 14.0511C13.2915 15.3635 11.4223 16.0644 9.5 16.0002L8.57 17.1202L8.02 17.7802C7.91142 17.9104 7.77152 18.0109 7.61343 18.0722C7.45535 18.1335 7.28427 18.1535 7.11628 18.1306C6.9483 18.1076 6.78892 18.0422 6.65312 17.9407C6.51733 17.8392 6.40958 17.7048 6.34 17.5502L5 14.6002C4.08513 13.9781 3.33442 13.1439 2.812 12.1687C2.28958 11.1935 2.01098 10.1064 2 9.00015C2.06832 7.07803 2.89636 5.2615 4.30242 3.94917C5.70849 2.63685 7.57773 1.9359 9.5 2.00015C10.9001 1.97756 12.2787 2.34665 13.4802 3.06579C14.6817 3.78494 15.6584 4.82552 16.3 6.07015C16.761 6.97798 17.0009 7.98196 17 9.00015V9.00015Z" stroke="#606060" stroke-width="1.5" stroke-linecap="round" stroke-linejoin="round"/>
<path d="M22.0003 12.8603C21.9893 13.9666 21.7107 15.0537 21.1883 16.0289C20.6659 17.0041 19.9152 17.8383 19.0003 18.4603L17.6603 21.4103C17.5907 21.5649 17.483 21.6993 17.3472 21.8009C17.2114 21.9024 17.052 21.9677 16.884 21.9907C16.716 22.0137 16.545 21.9936 16.3869 21.9323C16.2288 21.871 16.0889 21.7705 15.9803 21.6403L14.5003 19.8603C13.3703 19.8732 12.2517 19.6339 11.2259 19.1599C10.2001 18.6859 9.29287 17.9892 8.57031 17.1203L9.50031 16.0003C11.4226 16.0646 13.2918 15.3636 14.6979 14.0513C16.104 12.739 16.932 10.9224 17.0003 9.00031C17.0012 7.98212 16.7614 6.97814 16.3003 6.07031C17.8786 6.39003 19.3017 7.23569 20.3371 8.46905C21.3725 9.70241 21.9588 11.2505 22.0003 12.8603V12.8603Z" stroke="#606060" stroke-width="1.5" stroke-linecap="round" stroke-linejoin="round"/>
<path d="M7 9H12" stroke="#606060" stroke-width="1.5" stroke-linecap="round" stroke-linejoin="round"/>
</svg>
