<svg width="16" height="17" viewBox="0 0 16 17" fill="none" xmlns="http://www.w3.org/2000/svg">
<path d="M11.333 14.1693H4.66634C2.66634 14.1693 1.33301 13.1693 1.33301 10.8359V6.16927C1.33301 3.83594 2.66634 2.83594 4.66634 2.83594H11.333C13.333 2.83594 14.6663 3.83594 14.6663 6.16927V10.8359C14.6663 13.1693 13.333 14.1693 11.333 14.1693Z" stroke="#606060" stroke-width="1.5" stroke-miterlimit="10" stroke-linecap="round" stroke-linejoin="round"/>
<path d="M8 10.5C9.10457 10.5 10 9.60457 10 8.5C10 7.39543 9.10457 6.5 8 6.5C6.89543 6.5 6 7.39543 6 8.5C6 9.60457 6.89543 10.5 8 10.5Z" stroke="#606060" stroke-width="1.5" stroke-miterlimit="10" stroke-linecap="round" stroke-linejoin="round"/>
<path d="M5.66667 4.5H4.66667C3.74667 4.5 3 5.24667 3 6.16667V7.16667" stroke="#606060" stroke-width="1.5" stroke-miterlimit="10" stroke-linecap="round" stroke-linejoin="round"/>
<path d="M10.333 4.5H11.333C12.253 4.5 12.9997 5.24667 12.9997 6.16667V7.16667" stroke="#606060" stroke-width="1.5" stroke-miterlimit="10" stroke-linecap="round" stroke-linejoin="round"/>
<path d="M5.66667 12.5026H4.66667C3.74667 12.5026 3 11.7559 3 10.8359V9.83594" stroke="#606060" stroke-width="1.5" stroke-miterlimit="10" stroke-linecap="round" stroke-linejoin="round"/>
<path d="M10.333 12.5026H11.333C12.253 12.5026 12.9997 11.7559 12.9997 10.8359V9.83594" stroke="#606060" stroke-width="1.5" stroke-miterlimit="10" stroke-linecap="round" stroke-linejoin="round"/>
</svg>
