<svg width="16" height="16" viewBox="0 0 16 16" fill="none" xmlns="http://www.w3.org/2000/svg">
<path d="M13.6666 7.53398V4.69399C13.6666 2.00732 13.0399 1.33398 10.5199 1.33398H5.47992C2.95992 1.33398 2.33325 2.00732 2.33325 4.69399V12.2006C2.33325 13.974 3.30659 14.394 4.48659 13.1273L4.49325 13.1206C5.03991 12.5406 5.87324 12.5873 6.34658 13.2206L7.01992 14.1206" stroke="#7B55D3" stroke-linecap="round" stroke-linejoin="round"/>
<path d="M5.33325 4.66602H10.6666" stroke="#7B55D3" stroke-linecap="round" stroke-linejoin="round"/>
<path d="M6 7.33398H10" stroke="#7B55D3" stroke-linecap="round" stroke-linejoin="round"/>
<path d="M12.1408 9.84685L9.78077 12.2069C9.68743 12.3002 9.60075 12.4735 9.58075 12.6002L9.45409 13.5002C9.40742 13.8269 9.63409 14.0535 9.96076 14.0069L10.8608 13.8802C10.9874 13.8602 11.1674 13.7735 11.2541 13.6802L13.6141 11.3202C14.0208 10.9135 14.2141 10.4402 13.6141 9.8402C13.0208 9.24686 12.5474 9.44018 12.1408 9.84685Z" stroke="#7B55D3" stroke-miterlimit="10" stroke-linecap="round" stroke-linejoin="round"/>
<path d="M11.7996 10.1875C11.9996 10.9075 12.5596 11.4675 13.2796 11.6675" stroke="#7B55D3" stroke-miterlimit="10" stroke-linecap="round" stroke-linejoin="round"/>
</svg>
