<svg width="28" height="28" viewBox="0 0 28 28" fill="none" xmlns="http://www.w3.org/2000/svg">
<path d="M18.6577 8.89583C18.6577 7.9289 18.2027 7.00157 17.3927 6.31784C16.5828 5.63411 15.4842 5.25 14.3388 5.25H4.31891C3.17346 5.25 2.07493 5.63411 1.26498 6.31784C0.455027 7.00157 0 7.9289 0 8.89583V19.1042C0 20.0711 0.455027 20.9984 1.26498 21.6822C2.07493 22.3659 3.17346 22.75 4.31891 22.75H14.3388C15.4842 22.75 16.5828 22.3659 17.3927 21.6822C18.2027 20.9984 18.6577 20.0711 18.6577 19.1042V8.89583ZM20.0397 17.227L24.85 20.398C25.9846 21.1458 27.641 20.4633 27.641 19.2488V8.75175C27.641 7.53667 25.9846 6.85475 24.85 7.60258L20.0397 10.773V17.227Z" fill="#7B55D3"/>
</svg>
