<svg width="19" height="16" viewBox="0 0 19 16" fill="none" xmlns="http://www.w3.org/2000/svg">
<path d="M12.2406 5.08333C12.2406 4.5308 11.9806 4.0009 11.5178 3.61019C11.055 3.21949 10.4272 3 9.77269 3H4.04705C3.39251 3 2.76478 3.21949 2.30195 3.61019C1.83912 4.0009 1.5791 4.5308 1.5791 5.08333V10.9167C1.5791 11.4692 1.83912 11.9991 2.30195 12.3898C2.76478 12.7805 3.39251 13 4.04705 13H9.77269C10.4272 13 11.055 12.7805 11.5178 12.3898C11.9806 11.9991 12.2406 11.4692 12.2406 10.9167V5.08333ZM13.0304 9.844L15.7791 11.656C16.4275 12.0833 17.374 11.6933 17.374 10.9993V5.001C17.374 4.30667 16.4275 3.917 15.7791 4.34433L13.0304 6.156V9.844Z" fill="#FCFCFC"/>
</svg>
