<svg width="253" height="176" viewBox="0 0 253 176" fill="none" xmlns="http://www.w3.org/2000/svg">
<path d="M124 125L113.125 114.125C112.208 113.208 111.083 112.75 109.75 112.75C108.417 112.75 107.25 113.25 106.25 114.25C105.333 115.167 104.875 116.333 104.875 117.75C104.875 119.167 105.333 120.333 106.25 121.25L120.5 135.5C121.417 136.417 122.583 136.875 124 136.875C125.417 136.875 126.583 136.417 127.5 135.5L155.875 107.125C156.792 106.208 157.25 105.083 157.25 103.75C157.25 102.417 156.75 101.25 155.75 100.25C154.833 99.3333 153.667 98.875 152.25 98.875C150.833 98.875 149.667 99.3333 148.75 100.25L124 125ZM131 166C124.083 166 117.583 164.687 111.5 162.06C105.417 159.437 100.125 155.875 95.625 151.375C91.125 146.875 87.5633 141.583 84.94 135.5C82.3133 129.417 81 122.917 81 116C81 109.083 82.3133 102.583 84.94 96.5C87.5633 90.4167 91.125 85.125 95.625 80.625C100.125 76.125 105.417 72.5617 111.5 69.935C117.583 67.3117 124.083 66 131 66C137.917 66 144.417 67.3117 150.5 69.935C156.583 72.5617 161.875 76.125 166.375 80.625C170.875 85.125 174.437 90.4167 177.06 96.5C179.687 102.583 181 109.083 181 116C181 122.917 179.687 129.417 177.06 135.5C174.437 141.583 170.875 146.875 166.375 151.375C161.875 155.875 156.583 159.437 150.5 162.06C144.417 164.687 137.917 166 131 166Z" fill="#29CC99"/>
<circle cx="186" cy="90" r="5" fill="#29CC99" fill-opacity="0.1"/>
<circle cx="233" cy="51" r="5" fill="#29CC99" fill-opacity="0.1"/>
<circle cx="240" cy="71" r="5" fill="#29CC99" fill-opacity="0.1"/>
<circle cx="208" cy="49" r="5" fill="#29CC99" fill-opacity="0.1"/>
<circle cx="164" cy="22" r="5" fill="#29CC99" fill-opacity="0.1"/>
<circle cx="248" cy="95" r="5" fill="#29CC99" fill-opacity="0.1"/>
<circle cx="211" cy="111" r="5" fill="#29CC99" fill-opacity="0.1"/>
<circle cx="81" cy="41" r="10" fill="#29CC99" fill-opacity="0.1"/>
<circle cx="191" cy="31" r="10" fill="#29CC99" fill-opacity="0.1"/>
<circle cx="126" cy="5" r="5" fill="#29CC99" fill-opacity="0.1"/>
<circle cx="104" cy="10" r="5" fill="#29CC99" fill-opacity="0.1"/>
<circle cx="186" cy="10" r="5" fill="#29CC99" fill-opacity="0.1"/>
<circle cx="216" cy="26" r="5" fill="#29CC99" fill-opacity="0.1"/>
<circle cx="26" cy="37" r="5" fill="#29CC99" fill-opacity="0.1"/>
<circle cx="146" cy="5" r="5" fill="#29CC99" fill-opacity="0.1"/>
<circle cx="164" cy="46" r="5" fill="#29CC99" fill-opacity="0.1"/>
<circle cx="186" cy="56" r="5" fill="#29CC99" fill-opacity="0.1"/>
<circle cx="71" cy="10" r="5" fill="#29CC99" fill-opacity="0.1"/>
<circle cx="109" cy="51" r="5" fill="#29CC99" fill-opacity="0.1"/>
<circle cx="55" cy="101" r="5" fill="#29CC99" fill-opacity="0.1"/>
<circle cx="14" cy="106" r="5" fill="#29CC99" fill-opacity="0.1"/>
<circle cx="5" cy="85" r="5" fill="#29CC99" fill-opacity="0.1"/>
<circle cx="56" cy="43" r="5" fill="#29CC99" fill-opacity="0.1"/>
<circle cx="66" cy="66" r="5" fill="#29CC99" fill-opacity="0.1"/>
<circle cx="63" cy="80" r="5" fill="#29CC99" fill-opacity="0.1"/>
<circle cx="31" cy="56" r="5" fill="#29CC99" fill-opacity="0.1"/>
<circle cx="215.5" cy="80.5" r="14.5" fill="#29CC99" fill-opacity="0.1"/>
<circle cx="131.5" cy="36.5" r="14.5" fill="#29CC99" fill-opacity="0.1"/>
<circle cx="40.5" cy="80.5" r="14.5" fill="#29CC99" fill-opacity="0.1"/>
</svg>
