<svg width="18" height="18" viewBox="0 0 18 18" fill="none" xmlns="http://www.w3.org/2000/svg">
<path d="M0.000976562 8.83276C0.000976563 7.08576 0.519023 5.37799 1.48961 3.92541C2.46019 2.47283 3.83971 1.34068 5.45373 0.672132C7.06775 0.00358307 8.84377 -0.17134 10.5572 0.169483C12.2706 0.510307 13.8445 1.35157 15.0799 2.58689C16.3152 3.8222 17.1564 5.39609 17.4973 7.10953C17.8381 8.82296 17.6632 10.599 16.9946 12.213C16.3261 13.827 15.1939 15.2065 13.7413 16.1771C12.2887 17.1477 10.581 17.6658 8.83398 17.6658C6.49132 17.6658 4.24461 16.7351 2.5881 15.0786C0.931594 13.4221 0.000976563 11.1754 0.000976563 8.83276H0.000976562Z" fill="#29CC99"/>
<path d="M7.77105 10.7961L12.4211 5.92607C12.4859 5.85678 12.5643 5.80155 12.6514 5.76379C12.7385 5.72603 12.8324 5.70654 12.9273 5.70654C13.0222 5.70654 13.1161 5.72603 13.2032 5.76379C13.2903 5.80155 13.3687 5.85678 13.4336 5.92607C13.5682 6.0697 13.6431 6.2592 13.6431 6.45607C13.6431 6.65294 13.5682 6.84243 13.4336 6.98607L7.77105 12.9161L4.48055 9.47207C4.34592 9.32843 4.271 9.13894 4.271 8.94207C4.271 8.7452 4.34592 8.5557 4.48055 8.41207C4.54542 8.34278 4.62383 8.28755 4.71091 8.24979C4.79799 8.21203 4.89189 8.19254 4.9868 8.19254C5.08172 8.19254 5.17562 8.21203 5.2627 8.24979C5.34978 8.28755 5.42818 8.34278 5.49305 8.41207L7.77105 10.7961Z" fill="white"/>
</svg>
