<svg width="16" height="16" viewBox="0 0 16 16" fill="none" xmlns="http://www.w3.org/2000/svg">
<path d="M9.62671 12.7008L10.64 13.7142L12.6667 11.6875" stroke="#7B55D3" stroke-linecap="round" stroke-linejoin="round"/>
<path d="M8.10673 7.24732C8.04006 7.24065 7.96006 7.24065 7.88673 7.24732C6.30006 7.19398 5.04006 5.89398 5.04006 4.29398C5.0334 2.66065 6.36006 1.33398 7.9934 1.33398C9.62673 1.33398 10.9534 2.66065 10.9534 4.29398C10.9534 5.89398 9.68673 7.19398 8.10673 7.24732Z" stroke="#7B55D3" stroke-linecap="round" stroke-linejoin="round"/>
<path d="M7.99336 14.5404C6.78003 14.5404 5.57336 14.2338 4.65336 13.6204C3.04003 12.5404 3.04003 10.7804 4.65336 9.70711C6.48669 8.48044 9.49336 8.48044 11.3267 9.70711" stroke="#7B55D3" stroke-linecap="round" stroke-linejoin="round"/>
</svg>
