<svg width="16" height="16" viewBox="0 0 16 16" fill="none" xmlns="http://www.w3.org/2000/svg">
<path d="M12.0929 14.4125C11.5063 14.5859 10.8129 14.6659 9.99958 14.6659H5.99958C5.18625 14.6659 4.49292 14.5859 3.90625 14.4125C4.05292 12.6792 5.83292 11.3125 7.99958 11.3125C10.1663 11.3125 11.9463 12.6792 12.0929 14.4125Z" stroke="#606060" stroke-width="1.5" stroke-linecap="round" stroke-linejoin="round"/>
<path d="M9.99967 1.33398H5.99967C2.66634 1.33398 1.33301 2.66732 1.33301 6.00065V10.0007C1.33301 12.5207 2.09301 13.9006 3.90634 14.414C4.05301 12.6806 5.83301 11.314 7.99967 11.314C10.1663 11.314 11.9463 12.6806 12.093 14.414C13.9063 13.9006 14.6663 12.5207 14.6663 10.0007V6.00065C14.6663 2.66732 13.333 1.33398 9.99967 1.33398ZM7.99967 9.44731C6.67967 9.44731 5.61301 8.374 5.61301 7.054C5.61301 5.734 6.67967 4.66732 7.99967 4.66732C9.31967 4.66732 10.3863 5.734 10.3863 7.054C10.3863 8.374 9.31967 9.44731 7.99967 9.44731Z" stroke="#606060" stroke-width="1.5" stroke-linecap="round" stroke-linejoin="round"/>
<path d="M10.3866 7.05269C10.3866 8.37269 9.31995 9.446 7.99995 9.446C6.67995 9.446 5.61328 8.37269 5.61328 7.05269C5.61328 5.73269 6.67995 4.66602 7.99995 4.66602C9.31995 4.66602 10.3866 5.73269 10.3866 7.05269Z" stroke="#606060" stroke-width="1.5" stroke-linecap="round" stroke-linejoin="round"/>
</svg>
