<svg width="20" height="20" viewBox="0 0 20 20" fill="none" xmlns="http://www.w3.org/2000/svg">
<path d="M10.0001 6.45801V10.833" stroke="white" stroke-linecap="round" stroke-linejoin="round"/>
<path d="M17.5671 7.14998V12.85C17.5658 13.3102 17.4445 13.7621 17.2151 14.1611C16.9857 14.5601 16.6562 14.8923 16.2591 15.125L11.3091 17.983C10.9096 18.2123 10.4571 18.333 9.99655 18.333C9.53599 18.333 9.08346 18.2123 8.68405 17.983L3.73405 15.125C3.33541 14.894 3.00457 14.5622 2.7748 14.1628C2.54502 13.7635 2.4244 13.3107 2.42505 12.85V7.14998C2.42631 6.68975 2.54762 6.23782 2.77702 5.83883C3.00642 5.43984 3.33595 5.10762 3.73305 4.87498L8.68305 2.01698C9.08246 1.78766 9.53499 1.66699 9.99555 1.66699C10.4561 1.66699 10.9086 1.78766 11.3081 2.01698L16.2581 4.87498C16.656 5.10673 16.9863 5.43873 17.216 5.8379C17.4456 6.23707 17.5667 6.68946 17.5671 7.14998V7.14998Z" stroke="white" stroke-linecap="round" stroke-linejoin="round"/>
<path d="M10.0001 13.5V13.583" stroke="white" stroke-linecap="round" stroke-linejoin="round"/>
</svg>
