<svg width="40" height="40" viewBox="0 0 40 40" fill="none" xmlns="http://www.w3.org/2000/svg">
<circle cx="20" cy="20" r="20" fill="#7B55D3" fill-opacity="0.1"/>
<path d="M27.3009 15.9195V21.0695C27.3009 24.1495 25.5409 25.4695 22.9009 25.4695H14.1109C13.6609 25.4695 13.2309 25.4295 12.8309 25.3395C12.5809 25.2995 12.3409 25.2295 12.1209 25.1495C10.6209 24.5895 9.71094 23.2895 9.71094 21.0695V15.9195C9.71094 12.8395 11.4709 11.5195 14.1109 11.5195H22.9009C25.1409 11.5195 26.7509 12.4695 27.1809 14.6395C27.2509 15.0395 27.3009 15.4495 27.3009 15.9195Z" stroke="#7B55D3" stroke-width="1.5" stroke-miterlimit="10" stroke-linecap="round" stroke-linejoin="round"/>
<path d="M30.302 18.9206V24.0706C30.302 27.1506 28.542 28.4706 25.902 28.4706H17.112C16.372 28.4706 15.702 28.3706 15.122 28.1506C13.932 27.7106 13.122 26.8006 12.832 25.3406C13.232 25.4306 13.662 25.4706 14.112 25.4706H22.902C25.542 25.4706 27.302 24.1506 27.302 21.0706V15.9206C27.302 15.4506 27.262 15.0306 27.182 14.6406C29.082 15.0406 30.302 16.3806 30.302 18.9206Z" stroke="#7B55D3" stroke-width="1.5" stroke-miterlimit="10" stroke-linecap="round" stroke-linejoin="round"/>
<path d="M18.4994 21.1394C19.9574 21.1394 21.1394 19.9574 21.1394 18.4994C21.1394 17.0414 19.9574 15.8594 18.4994 15.8594C17.0414 15.8594 15.8594 17.0414 15.8594 18.4994C15.8594 19.9574 17.0414 21.1394 18.4994 21.1394Z" stroke="#7B55D3" stroke-width="1.5" stroke-miterlimit="10" stroke-linecap="round" stroke-linejoin="round"/>
<path d="M12.7812 16.2988V20.6989" stroke="#7B55D3" stroke-width="1.5" stroke-miterlimit="10" stroke-linecap="round" stroke-linejoin="round"/>
<path d="M24.2227 16.3008V20.7008" stroke="#7B55D3" stroke-width="1.5" stroke-miterlimit="10" stroke-linecap="round" stroke-linejoin="round"/>
</svg>
