<svg width="40" height="40" viewBox="0 0 40 40" fill="none" xmlns="http://www.w3.org/2000/svg">
<circle cx="20" cy="20" r="20" fill="#7B55D3" fill-opacity="0.1"/>
<path d="M26.04 21.55C25.62 21.96 25.38 22.55 25.44 23.18C25.53 24.26 26.52 25.05 27.6 25.05H29.5V26.24C29.5 28.31 27.81 30 25.74 30H15.63C15.94 29.74 16.21 29.42 16.42 29.06C16.79 28.46 17 27.75 17 27C17 24.79 15.21 23 13 23C12.06 23 11.19 23.33 10.5 23.88V19.51C10.5 17.44 12.19 15.75 14.26 15.75H25.74C27.81 15.75 29.5 17.44 29.5 19.51V20.95H27.48C26.92 20.95 26.41 21.17 26.04 21.55Z" stroke="#7B55D3" stroke-width="1.5" stroke-linecap="round" stroke-linejoin="round"/>
<path d="M10.5 20.4093V15.8394C10.5 14.6494 11.23 13.5893 12.34 13.1693L20.28 10.1693C21.52 9.69933 22.85 10.6194 22.85 11.9494V15.7493" stroke="#7B55D3" stroke-width="1.5" stroke-linecap="round" stroke-linejoin="round"/>
<path d="M30.5588 21.9692V24.0292C30.5588 24.5792 30.1188 25.0292 29.5588 25.0492H27.5988C26.5188 25.0492 25.5288 24.2592 25.4388 23.1792C25.3788 22.5492 25.6188 21.9592 26.0388 21.5492C26.4088 21.1692 26.9188 20.9492 27.4788 20.9492H29.5588C30.1188 20.9692 30.5588 21.4192 30.5588 21.9692Z" stroke="#7B55D3" stroke-width="1.5" stroke-linecap="round" stroke-linejoin="round"/>
<path d="M15 20H22" stroke="#7B55D3" stroke-width="1.5" stroke-linecap="round" stroke-linejoin="round"/>
<path d="M17 27C17 27.75 16.79 28.46 16.42 29.06C16.21 29.42 15.94 29.74 15.63 30C14.93 30.63 14.01 31 13 31C11.54 31 10.27 30.22 9.58 29.06C9.21 28.46 9 27.75 9 27C9 25.74 9.58 24.61 10.5 23.88C11.19 23.33 12.06 23 13 23C15.21 23 17 24.79 17 27Z" stroke="#7B55D3" stroke-width="1.5" stroke-miterlimit="10" stroke-linecap="round" stroke-linejoin="round"/>
<path d="M14.4917 26.9805H11.5117" stroke="#7B55D3" stroke-width="1.5" stroke-miterlimit="10" stroke-linecap="round" stroke-linejoin="round"/>
<path d="M13 25.5195V28.5095" stroke="#7B55D3" stroke-width="1.5" stroke-miterlimit="10" stroke-linecap="round" stroke-linejoin="round"/>
</svg>
